<?xml version="1.0" encoding="UTF-8" standalone="no"?>
<svg
   xmlns:dc="http://purl.org/dc/elements/1.1/"
   xmlns:cc="http://creativecommons.org/ns#"
   xmlns:rdf="http://www.w3.org/1999/02/22-rdf-syntax-ns#"
   xmlns:svg="http://www.w3.org/2000/svg"
   xmlns="http://www.w3.org/2000/svg"
   id="svg8"
   version="1.1"
   viewBox="0 0 200 200"
   height="200mm"
   width="200mm">
  <defs
     id="defs2" />
  <metadata
     id="metadata5">
    <rdf:RDF>
      <cc:Work
         rdf:about="">
        <dc:format>image/svg+xml</dc:format>
        <dc:type
           rdf:resource="http://purl.org/dc/dcmitype/StillImage" />
        <dc:title></dc:title>
      </cc:Work>
    </rdf:RDF>
  </metadata>
  <g
     style="display:inline"
     id="layer4">
    <path
       id="path982"
       d="m 84.1899,118.73336 c -4.490788,1.13065 -8.227043,3.80194 -9.646758,5.70036 -2.853737,3.20865 -1.786468,4.29488 0.584652,4.96954 7.303325,1.51785 13.357479,0.02 15.074044,2.32974 7.092405,2.5784 9.833822,-4.71242 8.931289,-6.35166 -3.910504,-3.88695 -8.63622,-5.26323 -14.943227,-6.64798 z"
       style="display:inline;fill:#e24d73;fill-opacity:1;stroke:#4f494b;stroke-width:0.26458332px;stroke-linecap:butt;stroke-linejoin:miter;stroke-opacity:1" />
    <path
       id="path980"
       d="m 106.26052,91.25471 c -9.655648,-2.62215 -17.091912,0.67405 -22.07062,10.52374 -2.061251,5.85776 -1.833665,11.48664 0,16.95491 8.491994,4.81293 14.451812,8.09219 13.702993,11.19551 2.456457,-2.9523 3.270987,-5.31995 3.398077,-8.27225 -3.825677,-2.89337 -6.943742,-7.39835 -7.271606,-8.73324 -0.372573,-2.08841 1.972929,-6.38944 3.320907,-7.21322 1.183626,-0.69768 5.283749,-2.86668 7.539959,-0.30204 l 13.36565,-10.49933 z"
       style="display:inline;fill:#4a4847;fill-opacity:1;stroke:none;stroke-width:0.26499999;stroke-linecap:butt;stroke-linejoin:miter;stroke-miterlimit:4;stroke-dasharray:none;stroke-opacity:1" />
  </g>
  <g
     style="display:inline"
     transform="translate(0,-97)"
     id="layer1">
    <ellipse
       cx="51.871746"
       cy="232.41342"
       rx="26.240234"
       ry="23.759766"
       id="path898"
       style="opacity:1;fill:none;fill-opacity:1;stroke:#4f494b;stroke-width:6.25949192;stroke-linecap:round;stroke-linejoin:round;stroke-miterlimit:4;stroke-dasharray:none;stroke-opacity:1" />
    <ellipse
       cx="144.0625"
       cy="233.65364"
       rx="25"
       ry="22.106119"
       id="circle903"
       style="opacity:1;fill:none;fill-opacity:1;stroke:#4f494b;stroke-width:6.25949192;stroke-linecap:round;stroke-linejoin:round;stroke-miterlimit:4;stroke-dasharray:none;stroke-opacity:1" />
    <ellipse
       style="display:inline;opacity:1;fill:none;fill-opacity:1;stroke:#c3b319;stroke-width:4;stroke-linecap:round;stroke-linejoin:round;stroke-miterlimit:4;stroke-dasharray:none;stroke-opacity:1"
       id="ellipse909"
       ry="18.677742"
       rx="21.18329"
       cy="232.41342"
       cx="51.871746" />
    <ellipse
       cx="144.10062"
       cy="233.72888"
       rx="20.013985"
       ry="17.362274"
       id="ellipse911"
       style="display:inline;opacity:1;fill:none;fill-opacity:1;stroke:#c3b319;stroke-width:4;stroke-linecap:round;stroke-linejoin:round;stroke-miterlimit:4;stroke-dasharray:none;stroke-opacity:1" />
    <path
       id="path930"
       d="m 157.9323,231.85314 c -3.42879,7.53338 -7.53155,10.76816 -14.93228,13.19904 11.20632,1.7074 16.70057,-6.96469 14.93228,-13.19904 z"
       style="fill:#ddebf0;fill-opacity:1;stroke:none;stroke-width:0.21681347px;stroke-linecap:butt;stroke-linejoin:miter;stroke-opacity:1" />
    <path
       style="fill:#ddebf0;fill-opacity:1;stroke:none;stroke-width:0.26458332px;stroke-linecap:butt;stroke-linejoin:miter;stroke-opacity:1"
       d="m 130.14298,236.17934 c 2.99264,-9.41358 8.44887,-11.47437 16.07794,-14.10474 -11.12204,-1.36173 -16.92487,5.48525 -16.07794,14.10474 z"
       id="path928" />
    <path
       style="fill:#ddebf0;fill-opacity:1;stroke:none;stroke-width:0.21681347px;stroke-linecap:butt;stroke-linejoin:miter;stroke-opacity:1"
       d="m 66.775071,231.43973 c -3.428783,7.53338 -7.531543,10.76816 -14.93228,13.19904 11.20632,1.7074 16.700575,-6.96469 14.93228,-13.19904 z"
       id="path926" />
    <path
       id="path924"
       d="m 37.125408,233.49217 c 2.992631,-9.41358 8.448865,-11.47437 16.077931,-14.10474 -11.122032,-1.36173 -16.924863,5.48525 -16.077931,14.10474 z"
       style="fill:#ddebf0;fill-opacity:1;stroke:none;stroke-width:0.26458332px;stroke-linecap:butt;stroke-linejoin:miter;stroke-opacity:1" />
    <path
       id="path917"
       d="m 52.873858,226.67935 c -7.919684,-1.94068 -10.57953,8.26682 -4.144502,11.08814 5.941218,2.74921 12.555854,-3.66327 8.649217,-8.91038 1.988862,-2.59182 3.184183,-4.22873 4.740712,-8.39427 1.352418,-1.8655 1.44166,-2.65469 1.90012,-4.53105 2.719726,-2.15648 4.186364,-4.59141 5.700358,-7.01583 3.902598,-4.6637 2.671033,-6.62723 3.187576,-9.51442 -1.78012,-3.93396 -4.678937,-6.46955 -8.010956,-8.46363 0.889971,-0.79145 0.854068,-1.89152 0.584652,-3.06943 -1.013238,-3.22245 -1.773186,-4.4537 -4.823379,-5.1157 -4.805519,-1.80655 -9.336559,1.20721 -8.038967,6.13885 3.09544,2.9155 4.405114,5.12048 5.554195,5.70035 2.81722,2.09891 4.095156,4.41322 4.092564,8.03897 -0.930261,1.70296 -1.520361,3.57599 -1.900118,5.5542 -1.518447,1.61085 -2.208044,3.53251 -2.630935,5.55419 -0.746457,1.37754 -0.934444,2.89411 -1.169304,5.1157 -0.98506,2.60811 -2.323025,5.21621 -3.691233,7.82431 z"
       style="fill:#afafb0;fill-opacity:1;stroke:#4f494b;stroke-width:0.80000001;stroke-linecap:butt;stroke-linejoin:miter;stroke-miterlimit:4;stroke-dasharray:none;stroke-opacity:1" />
    <path
       id="path921"
       d="m 172.49592,212.09228 c 0.85627,1.53731 0.40257,4.78259 -3.51399,6.40788 -2.03684,0.60935 -21.93225,19.69926 -25.03862,19.87921 -3.85506,-0.75602 -10.22364,0.38575 -19.29976,0.89471 -2.05332,0.14625 -2.36552,-6.1338 -0.51677,-6.40787 2.94821,-0.46537 6.56467,-0.69208 13.33252,0.2067 10.83286,-7.47586 16.88483,-15.68253 25.42481,-22.42757 2.69659,-2.2392 7.66097,-1.47137 9.61181,1.44694 z"
       style="fill:#afafb0;fill-opacity:1;stroke:#4f494b;stroke-width:0.80000001;stroke-linecap:butt;stroke-linejoin:miter;stroke-miterlimit:4;stroke-dasharray:none;stroke-opacity:1" />
    <path
       id="path915"
       d="m 59.213085,198.18713 c -0.650226,-1.65134 1.713622,-5.44735 6.382039,-5.55522 l 11.368815,0.0517 20.928955,34.82991 13.642586,-0.41341 c 1.46262,-6.20426 2.9769,-15.30154 4.96093,-17.46664 1.4035,-1.58848 3.60213,-1.30831 9.92188,0.41342 -0.61083,1.06488 -1.58865,2.2521 -4.65088,4.13412 l -6.51123,19.22362 -21.394047,0.20671 -20.954794,-34.2098 C 66.153,199.59893 59.9262,199.53978 59.213085,198.18715 Z"
       style="display:inline;fill:#d63f05;fill-opacity:1;stroke:#4f494b;stroke-width:1.20000005;stroke-linecap:round;stroke-linejoin:round;stroke-miterlimit:4;stroke-dasharray:none;stroke-opacity:1" />
    <path
       id="path932"
       d="m 128.15755,204.60254 c 1.29589,1.42898 -2.70886,2.78831 -1.73926,5.44435 l -6.94238,-1.51694 c -1.86839,-2.63098 -2.21029,-3.70474 -1.44694,-4.96094 1.52698,-2.20767 9.26343,-0.25076 10.12858,1.03353 z"
       style="fill:#afafb0;fill-opacity:1;stroke:#4f494b;stroke-width:0.80000001;stroke-linecap:butt;stroke-linejoin:miter;stroke-miterlimit:4;stroke-dasharray:none;stroke-opacity:1" />
    <path
       id="path934"
       d="m 136.32243,202.84554 c -4.64268,2.05019 -27.86566,-0.76235 -29.66228,-2.68717 -2.5884,-2.14732 -2.12951,-7.18869 1.03353,-8.37158 2.84976,-0.80327 25.86416,2.57161 28.11199,2.81636 4.2882,0.49954 5.08125,5.96002 0.51676,8.24239 z"
       style="fill:#bfa60f;fill-opacity:1;stroke:#4f494b;stroke-width:0.80000001;stroke-linecap:butt;stroke-linejoin:miter;stroke-miterlimit:4;stroke-dasharray:none;stroke-opacity:1" />
  </g>
  <g
     style="display:inline"
     id="layer3">
    <path
       id="path976"
       d="m 82.865504,61.60241 c 10.923202,-1.31659 19.105646,-3.9179 23.794646,-8.15677 -0.47643,-2.31433 0.78354,-8.35011 3.66536,-10.22877 2.20402,-12.49249 -8.71371,-13.6274 -16.933279,-15.38982 -3.604379,-0.3423 -11.588056,-2.57875 -13.294895,3.06233 -5.109636,-1.50042 -7.116396,0.2534 -6.577335,4.67722 -1.679218,1.23996 -3.071375,2.58757 -3.654076,4.23873 -9.002192,0.23992 -7.55611,4.01564 -3.36175,7.8928 0.03278,1.75335 -5.1508,3.50353 3.069425,5.26187 0.117411,1.17347 1.740358,2.34693 3.057311,3.5204 3.411531,1.81004 6.823062,4.10172 10.234593,5.12201 z"
       style="fill:#d4d4e8;fill-opacity:1;stroke:none;stroke-width:0.26458332px;stroke-linecap:butt;stroke-linejoin:miter;stroke-opacity:1" />
    <path
       id="path966"
       d="m 65.450482,81.0482 c 13.919857,-0.88351 19.50725,-2.62768 26.047571,-12.74108 8.022408,-1.30475 16.445867,-5.81058 21.778247,-8.96614 4.20795,1.71475 6.02268,5.02498 7.9607,8.25302 6.59517,8.84593 8.77027,13.22051 9.03079,15.65829 0.52148,6.36117 0.45829,11.99148 -0.1827,13.70278 -9.03278,-1.02109 -18.23949,-0.46542 -23.82457,-5.70036 1.20283,-8.80548 -1.93631,-14.56251 -2.63094,-17.53956 -5.846558,4.53099 -15.883046,12.46119 -23.824569,15.05479 -4.945149,0.40115 -10.778562,-0.75215 -14.323975,2.09854 -8.829399,-5.05594 -3.518894,-7.25397 -0.03055,-9.82028 z"
       style="display:inline;fill:#4a4847;fill-opacity:1;stroke:none;stroke-width:0.26458332px;stroke-linecap:butt;stroke-linejoin:miter;stroke-opacity:1" />
    <path
       id="path978"
       d="m 80.511883,48.89811 c -1.579038,1.3312 -6.362014,-1.18829 -9.543021,0.70292 -2.168253,1.11654 -3.462636,-0.69693 -4.464687,-1.9029 -5.819004,-4.82394 -4.006606,-8.30232 3.36175,-7.8928 3.455589,0.38875 8.957547,1.28733 9.405723,0.41114 0.319928,-0.7596 -3.120169,-3.07015 -5.751647,-4.64987 -0.828381,-6.06904 2.580616,-5.81185 6.577335,-4.67722 0.432922,-3.1443 3.148888,-4.09337 7.15832,-3.79872 2.475926,0.48581 6.53841,-0.0871 7.415568,4.96094 4.073258,3.56524 4.175686,6.94138 2.480468,10.23193 -1.861365,8.48962 -4.450896,2.78001 -6.821288,1.34359 -5.394047,-2.67825 -7.316268,1.90276 -9.818521,5.27099 z"
       style="fill:#f8f9f7;fill-opacity:1;stroke:none;stroke-width:0.26458332px;stroke-linecap:butt;stroke-linejoin:miter;stroke-opacity:1" />
    <path
       id="path972"
       d="m 106.66015,53.44564 c 2.20538,2.70791 4.41077,4.56365 6.61615,5.89534 -6.08193,4.36245 -12.5467,8.4505 -21.881601,9.01782 -5.040095,-4.61571 -15.170633,-8.35285 -18.763787,-11.8784 3.727055,-3.95021 14.600334,-4.45829 16.976023,-2.518 -3.083113,-0.86372 -12.944317,-0.40128 -15.219025,3.11228 2.683838,1.76969 6.30893,3.68415 8.580947,4.42438 4.119434,-4.73497 12.355588,-3.18759 15.08136,-3.98925 1.821917,-0.65895 3.940583,-4.2162 8.609933,-4.06417 z"
       style="display:inline;fill:#4a4847;fill-opacity:1;stroke:none;stroke-width:0.26458332px;stroke-linecap:butt;stroke-linejoin:miter;stroke-opacity:1" />
    <path
       id="path974"
       d="m 106.66015,53.44564 c 1.34958,2.29356 4.57358,4.63409 7.96337,-0.30486 1.4849,-3.05799 0.89061,-9.83523 -3.52026,-10.04816 0.39714,-14.43715 -10.00858,-12.91306 -17.194265,-14.78756 6.839505,2.22695 18.070715,1.99135 16.416515,14.91181 -2.41785,1.29179 -4.48049,8.06582 -3.66536,10.22877 z"
       style="display:inline;fill:#cdb7aa;fill-opacity:1;stroke:#4f494b;stroke-width:1.20000005;stroke-linecap:round;stroke-linejoin:round;stroke-miterlimit:4;stroke-dasharray:none;stroke-opacity:1" />
    <path
       id="path968"
       d="m 71.933595,83.10792 c 3.187051,0.27236 5.630693,0.34672 7.441405,-0.20672 8.430416,-4.73939 13.420803,-7.98759 18.70687,-11.67887 -0.94613,-2.22807 -0.02596,-3.52374 1.756997,-4.96094 2.583013,-1.90126 7.502973,-2.05688 11.575523,-0.51676 1.80679,1.55029 0.86962,6.30453 -4.03076,6.82129 -1.86687,0.13997 -3.38188,0.16266 -6.82129,0.82682 -4.677759,4.07881 -12.309754,8.96332 -19.947106,13.84929 -4.226662,1.75565 -6.950069,0.51791 -9.921874,0.51676 -1.111968,-1.94525 -0.678949,-3.80786 1.240235,-4.65087 z"
       style="fill:#e24d73;fill-opacity:1;stroke:none;stroke-width:0.26458332px;stroke-linecap:butt;stroke-linejoin:miter;stroke-opacity:1" />
    <path
       id="path970"
       d="m 115.34179,72.35921 c 2.88814,0.61629 4.73563,2.46508 5.78776,5.78776 0.20588,2.67961 -0.41439,5.68882 -1.75699,6.92464 -4.8453,0.31992 -7.08624,-2.00034 -9.92188,-3.82405 -0.92378,-5.19556 3.487,-8.70604 5.89111,-8.88835 z"
       style="fill:#e24d73;fill-opacity:1;stroke:none;stroke-width:0.26458332px;stroke-linecap:butt;stroke-linejoin:miter;stroke-opacity:1" />
    <path
       id="path936"
       d="m 97.783062,78.2462 c 0.07456,1.73133 1.85652,1.41473 6.971488,1.93407 3.85957,3.6835 17.69754,10.20741 20.65332,10.63595 4.96427,0.51662 11.22923,0.45516 17.3934,0.43849 2.47403,-0.69282 2.66809,-1.49833 3.11958,-2.61168 -0.0131,-1.18703 0.17699,-12.61131 0.0605,-14.21176 -0.0965,-1.70931 -2.75835,-5.32167 -6.798,-5.83169 -1.28511,-0.16225 -11.2296,8.91835 -11.2296,8.91835 0,0 10.98496,-9.24821 10.68184,-9.43006 0.26047,-3.97853 -1.45811,-6.0376 -3.85711,-6.0517 -5.15676,-0.0405 -9.63657,-0.24687 -13.02472,-0.0141 -1.57553,-1.16931 -3.41247,-3.16543 -8.47746,-2.68109 -1.1094,1.14129 -2.03115,2.33739 -2.04628,3.92347 3.04588,1.44545 5.14735,2.67122 6.86966,4.01949 1.21803,0.90551 1.51735,0.71193 3.13732,0.31006 2.62301,4.13726 5.34688,10.45434 11.02802,15.0193 -0.0388,0.17476 12.00492,-0.51889 13.73194,-0.16098 -1.74212,0.34914 -12.89644,0.77056 -13.05654,0.82393 -2.54087,0.065 -8.89244,-1.92535 -10.45585,0.0856 -4.0196,1.76573 -9.39071,-4.63532 -14.75207,-7.22988 -2.56713,-3.32091 -10.020397,-1.9847 -9.949478,2.11417 z"
       style="display:inline;fill:#bfa60f;fill-opacity:1;stroke:#4f494b;stroke-width:0.80000001;stroke-linecap:butt;stroke-linejoin:miter;stroke-miterlimit:4;stroke-dasharray:none;stroke-opacity:1" />
    <path
       id="path945"
       d="M 65.450484,81.0482 C 64.567512,79.34044 52.789109,77.67355 46.214312,81.93556 l -2.307077,8.71711 2.307077,-8.71711 c -4.696445,-0.0325 -7.518965,4.44659 -2.307077,8.71711 1.554653,2.72861 3.417784,3.95944 5.361811,4.20505 2.575689,-0.0159 3.076539,-1.4151 3.349644,-2.96609 -1.350146,-4.21404 3.11576,-8.46897 8.038966,-6.13885 4.183695,-0.17554 6.161202,-2.94724 4.792828,-4.70458 z"
       style="display:inline;fill:#bfa60f;fill-opacity:1;stroke:#4f494b;stroke-width:0.80000001;stroke-linecap:butt;stroke-linejoin:miter;stroke-miterlimit:4;stroke-dasharray:none;stroke-opacity:1" />
  </g>
  <g
     style="display:inline"
     id="layer5">
    <path
       id="path1003"
       d="m 118.24588,94.90879 11.83921,2.04628 c -11.25794,8.51427 -15.87219,19.82004 -16.66258,23.82457 0.4612,4.29502 2.89833,6.86135 5.62727,11.91229 -3.09411,1.27811 -8.5759,3.56629 -12.05845,3.87332 -1.28499,-2.94404 -3.00274,-4.38489 -5.26187,-6.57734 -1.67309,-4.44102 -1.5237,-8.43464 -0.72042,-12.85196 1.49785,-15.24489 8.39841,-16.30188 17.23684,-22.22716 z"
       style="display:inline;fill:#4a4847;fill-opacity:1;stroke:none;stroke-width:0.26458332px;stroke-linecap:butt;stroke-linejoin:miter;stroke-opacity:1" />
    <path
       id="path1008"
       d="m 106.99133,136.56525 c 0.42272,1.97339 0.77368,3.91748 -0.43453,5.76385 -3.19237,3.05419 -6.30023,4.75741 -3.82405,9.30176 1.0112,1.61135 3.27011,2.0683 9.09505,-2.58382 5.62183,-4.04163 6.45805,-2.45333 10.43863,-5.47771 1.111,-1.12959 0.91783,-6.60493 -0.36173,-8.42325 -1.11175,-1.36387 -1.24044,-2.18168 -2.85492,-2.45415 -3.44826,0.71988 -7.24025,1.78349 -12.05845,3.87332 z"
       style="display:inline;fill:#e24d73;fill-opacity:1;stroke:#4f494b;stroke-width:0.26458332px;stroke-linecap:butt;stroke-linejoin:miter;stroke-opacity:1" />
    <path
       id="path1010"
       d="m 99.778746,124.06204 c -0.793727,3.86279 2.625834,8.25959 6.540794,12.60656 8.0306,-2.16595 13.80676,-2.46133 13.46093,-6.05829 -2.23934,-4.10594 -3.08161,-7.14952 -5.77483,-8.53952 -2.08423,2.58914 -8.35951,1.91766 -14.226894,1.99125 z"
       style="fill:#e3be05;fill-opacity:1;stroke:#4f494b;stroke-width:0.26458332px;stroke-linecap:butt;stroke-linejoin:miter;stroke-opacity:1" />
    <path
       id="path1012"
       d="m 117.91809,146.44379 c -2.55762,0.12027 -9.94684,6.03098 -11.05358,6.26674 -2.0887,0.38471 -3.29874,-0.11593 -7.27268,-3.44737 -9.103916,-0.5011 -10.00392,-8.89175 -8.824592,-11.52861 3.002991,-4.57535 -8.385547,-0.85431 -9.062109,-7.45431 0.284504,-0.85199 -0.504396,-7.11197 -0.390154,-8.29281 1.29457,1.03994 -0.373291,7.20139 2.149682,8.449 10.671853,-0.35195 6.79101,7.07888 9.041348,7.64267 3.423311,0.56122 7.679085,0.64205 12.159885,-0.11859 2.43596,0.6446 -0.30334,2.82348 -0.0517,3.35897 8.52294,1.08089 11.319,3.27423 13.3039,5.12431 z"
       style="fill:none;stroke:#4f494b;stroke-width:5;stroke-linecap:round;stroke-linejoin:round;stroke-miterlimit:4;stroke-dasharray:none;stroke-opacity:1" />
  </g>
</svg>
