<svg xmlns="http://www.w3.org/2000/svg" viewBox="0 0 200 200" height="200mm" width="200mm"><path d="M84.2 118.7a18.8 18.8 0 0 0-9.7 5.7c-2.8 3.2-1.7 4.3.6 5 7.3 1.5 13.4 0 15.1 2.3 7 2.6 9.8-4.7 9-6.3-4-4-8.7-5.3-15-6.7z" fill="#e24d73" stroke="#4f494b" stroke-width=".3"/><path d="M106.3 91.3c-9.7-2.7-17.1.6-22.1 10.5-2 5.8-1.8 11.5 0 17 8.5 4.7 14.4 8 13.7 11.1 2.4-3 3.3-5.3 3.4-8.2-3.8-3-7-7.4-7.3-8.8-.4-2 2-6.4 3.3-7.2 1.2-.7 5.3-2.9 7.6-.3L118.2 95z" fill="#4a4847"/><g transform="translate(0 -97)"><ellipse cx="51.9" cy="232.4" rx="26.2" ry="23.8" fill="none" stroke="#4f494b" stroke-width="6.3" stroke-linecap="round" stroke-linejoin="round"/><ellipse cx="144.1" cy="233.7" rx="25" ry="22.1" fill="none" stroke="#4f494b" stroke-width="6.3" stroke-linecap="round" stroke-linejoin="round"/><ellipse ry="18.7" rx="21.2" cy="232.4" cx="51.9" fill="none" stroke="#c3b319" stroke-width="4" stroke-linecap="round" stroke-linejoin="round"/><ellipse cx="144.1" cy="233.7" rx="20" ry="17.4" fill="none" stroke="#c3b319" stroke-width="4" stroke-linecap="round" stroke-linejoin="round"/><path d="M158 231.9a21.7 21.7 0 0 1-15 13.2c11.2 1.7 16.7-7 15-13.2zM130.1 236.2c3-9.4 8.5-11.5 16.1-14.1-11.1-1.4-16.9 5.5-16 14zM66.8 231.4a21.7 21.7 0 0 1-15 13.2c11.2 1.7 16.7-7 15-13.2zM37.1 233.5c3-9.4 8.5-11.5 16.1-14.1-11.1-1.4-17 5.5-16 14z" fill="#ddebf0"/><path d="M52.9 226.7c-8-2-10.6 8.2-4.2 11 6 2.8 12.6-3.6 8.7-8.8a27 27 0 0 0 4.7-8.4c1.4-1.9 1.5-2.7 2-4.6 2.6-2.1 4.1-4.6 5.6-7 4-4.6 2.7-6.6 3.2-9.5-1.8-4-4.7-6.5-8-8.5.9-.8.9-1.9.6-3-1-3.3-1.8-4.5-4.8-5.1-4.8-1.9-9.4 1.2-8 6 3 3 4.3 5.2 5.5 5.8a9 9 0 0 1 4 8 19 19 0 0 0-1.8 5.6 11 11 0 0 0-2.7 5.5c-.7 1.4-.9 3-1.1 5.2a72 72 0 0 1-3.7 7.8zM172.5 212c.9 1.6.4 4.9-3.5 6.5-2 .6-22 19.7-25 19.9-4-.8-10.3.4-19.4.9-2 .1-2.3-6.2-.5-6.4 3-.5 6.6-.7 13.4.2 10.8-7.5 16.8-15.7 25.4-22.5 2.7-2.2 7.6-1.4 9.6 1.5z" fill="#afafb0" stroke="#4f494b" stroke-width=".8"/><path d="M59.2 198.2c-.6-1.7 1.7-5.5 6.4-5.6H77l20.9 35 13.6-.5c1.5-6.2 3-15.3 5-17.5 1.4-1.6 3.6-1.3 10 .4-.7 1.1-1.7 2.3-4.7 4.2l-6.5 19.2-21.4.2-21-34.2c-6.7.2-13 .1-13.7-1.2z" fill="#d63f05" stroke="#4f494b" stroke-width="1.2" stroke-linecap="round" stroke-linejoin="round"/><path d="M128.2 204.6c1.3 1.4-2.8 2.8-1.8 5.4l-7-1.5c-1.8-2.6-2.1-3.7-1.4-5 1.6-2.1 9.3-.2 10.2 1.1z" fill="#afafb0" stroke="#4f494b" stroke-width=".8"/><path d="M136.3 202.8c-4.6 2.1-27.8-.7-29.6-2.6-2.6-2.2-2.2-7.2 1-8.4 2.8-.8 25.9 2.6 28.1 2.8 4.3.5 5 6 .5 8.2z" fill="#bfa60f" stroke="#4f494b" stroke-width=".8"/></g><path d="M82.9 61.6c10.9-1.3 19-4 23.8-8.2-.5-2.3.7-8.3 3.6-10.2 2.2-12.5-8.7-13.6-17-15.4-3.5-.3-11.5-2.6-13.2 3-5.1-1.4-7.1.3-6.6 4.8a9.7 9.7 0 0 0-3.6 4.2c-9 .2-7.6 4-3.4 7.9 0 1.8-5.1 3.5 3 5.3.2 1.1 1.8 2.3 3.1 3.5 3.4 1.8 6.9 4 10.3 5.1z" fill="#d4d4e8"/><path d="M65.5 81c13.9-.8 19.5-2.6 26-12.7 8-1.3 16.4-5.8 21.8-9 4.2 1.8 6 5 8 8.3 6.5 8.8 8.7 13.2 9 15.7.5 6.3.4 12-.2 13.7-9-1-18.3-.5-23.8-5.7 1.2-8.9-2-14.6-2.7-17.6-5.8 4.5-15.9 12.5-23.8 15-5 .5-10.8-.7-14.3 2.2-8.8-5-3.5-7.3 0-9.9z" fill="#4a4847"/><path d="M80.5 48.9c-1.6 1.3-6.4-1.2-9.5.7-2.2 1.1-3.5-.7-4.5-1.9-5.8-4.8-4-8.3 3.4-7.9 3.4.4 9 1.3 9.4.4.3-.7-3.1-3-5.8-4.6-.8-6.1 2.6-5.8 6.6-4.7.4-3.2 3.1-4.1 7.2-3.8 2.4.5 6.5-.1 7.4 5 4 3.5 4.1 6.9 2.5 10.2-2 8.5-4.5 2.8-6.9 1.3-5.4-2.7-7.3 2-9.8 5.3z" fill="#f8f9f7"/><path d="M106.7 53.4c2.2 2.8 4.4 4.6 6.6 6-6.1 4.3-12.6 8.4-22 9-5-4.7-15-8.4-18.7-12 3.8-3.9 14.6-4.4 17-2.4-3-.9-13-.4-15.2 3 2.7 1.8 6.3 3.8 8.6 4.5 4-4.7 12.3-3.2 15-4 1.9-.6 4-4.2 8.7-4z" fill="#4a4847"/><path d="M106.7 53.4c1.3 2.3 4.5 4.7 8-.3 1.4-3 .8-9.8-3.6-10 .4-14.4-10-13-17.2-14.8 6.8 2.2 18 2 16.4 15-2.4 1.2-4.5 8-3.6 10.1z" fill="#cdb7aa" stroke="#4f494b" stroke-width="1.2" stroke-linecap="round" stroke-linejoin="round"/><path d="M72 83.1c3.1.3 5.6.4 7.4-.2 8.4-4.7 13.4-8 18.7-11.7-1-2.2 0-3.5 1.7-5 2.6-1.8 7.5-2 11.6-.5 1.8 1.6.9 6.3-4 6.9-1.9.1-3.4.1-6.8.8-4.7 4-12.3 9-20 13.8-4.2 1.8-7 .6-10 .6-1-2-.6-3.8 1.3-4.7zM115.3 72.4c3 .6 4.8 2.4 5.8 5.7.2 2.7-.4 5.7-1.7 7-4.9.3-7.1-2-10-3.9-.9-5.1 3.5-8.7 6-8.8z" fill="#e24d73"/><path d="M97.8 78.2c0 1.8 1.8 1.5 7 2a72.6 72.6 0 0 0 20.6 10.6c5 .5 11.2.5 17.4.5 2.5-.7 2.7-1.5 3.1-2.7 0-1.1.2-12.6 0-14.2 0-1.7-2.7-5.3-6.7-5.8-1.3-.2-11.2 9-11.2 9s11-9.3 10.6-9.5c.3-4-1.4-6-3.8-6-5.2-.1-9.7-.3-13 0-1.6-1.2-3.5-3.2-8.5-2.8-1.1 1.2-2 2.4-2 4 3 1.4 5 2.6 6.8 4 1.2.9 1.5.7 3.1.3 2.7 4.1 5.4 10.4 11 15 0 .2 12-.5 13.8-.1-1.7.3-12.9.7-13 .8-2.6 0-9-2-10.5 0-4 1.8-9.4-4.6-14.8-7.2-2.5-3.3-10-2-10 2.1zM65.5 81c-1-1.7-12.7-3.3-19.3 1L44 90.6l2.3-8.8c-4.7 0-7.5 4.5-2.3 8.8 1.6 2.7 3.4 4 5.4 4.2 2.5 0 3-1.5 3.3-3-1.3-4.2 3.1-8.5 8-6.1 4.2-.2 6.2-3 4.9-4.8z" fill="#bfa60f" stroke="#4f494b" stroke-width=".8"/><g><path d="M118.2 95l11.9 2a45.3 45.3 0 0 0-16.7 23.8c.5 4.3 3 6.8 5.6 11.9-3 1.3-8.5 3.6-12 3.9-1.3-3-3-4.4-5.3-6.6a22.8 22.8 0 0 1-.7-12.9c1.5-15.2 8.4-16.3 17.2-22.2z" fill="#4a4847"/><path d="M107 136.6c.4 2 .8 3.9-.4 5.7-3.2 3-6.3 4.8-3.9 9.3 1 1.6 3.3 2.1 9.1-2.6 5.6-4 6.5-2.4 10.5-5.4 1-1.2.9-6.6-.4-8.5-1.1-1.3-1.2-2.1-2.9-2.4a60 60 0 0 0-12 3.9z" fill="#e24d73" stroke="#4f494b" stroke-width=".3"/><path d="M99.8 124c-.8 4 2.6 8.3 6.5 12.7 8-2.2 13.8-2.5 13.5-6-2.3-4.2-3.1-7.2-5.8-8.6-2 2.6-8.4 1.9-14.2 2z" fill="#e3be05" stroke="#4f494b" stroke-width=".3"/><path d="M118 146.4c-2.6.2-10 6-11.1 6.3-2.1.4-3.3-.1-7.3-3.4a9 9 0 0 1-8.8-11.6c3-4.5-8.4-.8-9-7.4.2-.9-.6-7.1-.5-8.3 1.3 1-.4 7.2 2.2 8.4 10.6-.3 6.8 7.1 9 7.7 3.4.5 7.7.6 12.2-.1 2.4.6-.3 2.8 0 3.3 8.4 1.1 11.2 3.3 13.2 5.1z" fill="none" stroke="#4f494b" stroke-width="5" stroke-linecap="round" stroke-linejoin="round"/></g></svg>