<svg xmlns="http://www.w3.org/2000/svg" viewBox="0 0 200 100" height="378" width="200mm"><path d="M98.8 81.3c-18.3 10.4-36 11.5-57.6.7a93 93 0 0 1-30.3 0c5-6.8 17.8-4.4 20.5-7.8 2.7-4.5-20.7-8-15-10.2 9.9-3.3 24-1.5 32.2-17.3-13-6.8.6-24.8 18.8-20.8 20.7-23.6 55-20.7 66.5 8.4 32-27.2 71.9-1.4 45.3 19 5.5 1.7 5.8 4.1 1.2 7.9C209.2 84 156 93.8 146 85.4a45.2 45.2 0 0 1-47.1-4.1z" fill="#dddef5"/><path d="M31.4 74.2c19-7.2 45 3.6 50.4 2.3 22.6-6.5 37.9-1.1 44.7 1.8 9.4 3.2 39.6-17.3 60.2 1-6 8.8-34.2 12.6-40.8 6.1-18.6 9.5-34.8 4.1-47.1-4.1a54 54 0 0 1-57.6.7 69 69 0 0 1-30.3 0c2-6 16.5-5.2 20.5-7.8z" fill="#ced6f6"/><path d="M89.6 57.5c-12.7-2.7-24-1.3-22.3 10.7 1 3 6.8 3.4 9.6 1.4 9.1-7.9 16.9 1.2 24.7 3 4.9-4.1 6.6-11.3 28.3-7.7.9-19.6-21-31.3-40.3-7.4zM136.6 32c13.5 27.4 26.9 9.2 45-4.1-13-9.5-31.8-6.3-45 4.2zM48.6 46.7c-15-7.7 3.3-26 18.8-20.8 8.4-12.1 36-25.7 56.5-6.5C97.7 14 108.7 51.9 75.3 31 75.1 45.3 57.2 51 48.6 46.7z" fill="#f0f8f8"/></svg>