<svg xmlns="http://www.w3.org/2000/svg" viewBox="0 0 200 100" height="378" width="200mm"><path d="M12.3 58.8c4.1 8.6 19 8.4 26.2 14-6.8 3.7-11.2 8-14.4 12.5 11.5 1.7 21.2-2 26.7 3 9 6.2 39.3 9.2 52.6.5 11.2 1 22.3 2 33.4.2 5.7 14.9 49.7-6.5 27.8-15.7 44.5-23.2 6-60-19.5-55-15.6-16.8-59.6-13.8-55 16-18-.1-34.4 3.4-40 14.5-16-1-24.3 9.6-37.8 10z" fill="#dddef5"/><path d="M38.5 72.7c12.1-.4 23.5-.2 33.7 4 13.6-5.6 28.5-5 42.2 0 16.3-3.6 33.5-5 50.2-3.4C187.2 81.7 143 105 136.8 89c-6.7 1.9-22.8 1.5-33.4-.2-7.3 6.6-36.6 8.8-52.6-.6-5.3-4.3-16.5-.6-26.7-2.9 2.7-4.9 8.4-10 14.4-12.6z" fill="#ced6f6"/><path d="M90 34.3c16.5 17.2 17.5 1 26.6-.3 24.2-4.8 15.2-15 16.4-23.4C117.5 4 85.4 8.3 90 34.3zM120.8 61.6c0-4 2.6-7.3 4.7-12.6 6.8-11.1 17.6-9.2 29.5-3.8 9.2 4.1-12.2 7.7-12.7 13.6-12.7-1.5-21.1 9.8-21.5 2.8zM50.1 48.8c-4.5 12.7-.2 27.7 19.3 10.4 17.4-2.7 35.1 2 35.3-1.2.4-4.8-22.4-13.3-35.3-21.9-12.8 2.7-17 7.5-19.3 12.7z" fill="#f0f8f8"/></svg>