<?xml version="1.0" encoding="UTF-8" standalone="no"?>
<svg
   xmlns:dc="http://purl.org/dc/elements/1.1/"
   xmlns:cc="http://creativecommons.org/ns#"
   xmlns:rdf="http://www.w3.org/1999/02/22-rdf-syntax-ns#"
   xmlns:svg="http://www.w3.org/2000/svg"
   xmlns="http://www.w3.org/2000/svg"
   id="svg8"
   version="1.1"
   viewBox="0 0 200 100"
   height="100mm"
   width="200mm">
  <defs
     id="defs2" />
  <metadata
     id="metadata5">
    <rdf:RDF>
      <cc:Work
         rdf:about="">
        <dc:format>image/svg+xml</dc:format>
        <dc:type
           rdf:resource="http://purl.org/dc/dcmitype/StillImage" />
        <dc:title></dc:title>
      </cc:Work>
    </rdf:RDF>
  </metadata>
  <g
     transform="translate(0,-197)"
     id="layer1">
    <path
       id="path989"
       d="m 12.294398,255.84049 c 4.102128,8.55077 18.956207,8.37632 26.192414,13.89802 -6.766995,3.79599 -11.221643,8.05446 -14.432555,12.56167 11.530238,1.70985 21.249926,-2.03489 26.726952,2.93996 8.965172,6.22335 39.339935,9.26027 52.652101,0.53454 11.13623,1.05529 22.27246,2.00452 33.40869,0.26727 5.69532,14.81315 49.62256,-6.49977 27.79603,-15.7689 44.50018,-23.21479 6.00868,-59.87971 -19.51068,-55.05752 -15.64657,-16.67499 -59.633674,-13.69648 -55.05752,16.03617 -17.952586,-0.0935 -34.321083,3.44473 -39.96629,14.54326 -15.928681,-1.0006 -24.283382,9.58548 -37.809142,10.04553 z"
       style="display:inline;fill:#dddef5;fill-opacity:1;stroke:none;stroke-width:0.26458332px;stroke-linecap:butt;stroke-linejoin:miter;stroke-opacity:1" />
    <path
       id="path991"
       d="m 38.486812,269.73851 c 12.119116,-0.45125 23.472272,-0.26015 33.67596,4.00904 13.654542,-5.66352 28.586068,-5.07179 42.228588,0 16.33849,-3.65149 33.49778,-4.98219 50.24667,-3.4745 22.58471,8.4526 -21.60143,31.73362 -27.79603,15.7689 -6.78609,1.82058 -22.8092,1.50105 -33.40869,-0.26727 -7.287863,6.60164 -36.627989,8.79684 -52.652101,-0.53454 -5.314186,-4.38366 -16.436138,-0.62333 -26.726952,-2.93996 2.774856,-4.85043 8.456389,-9.9745 14.432555,-12.56167 z"
       style="fill:#ced6f6;fill-opacity:1;stroke:none;stroke-width:0.26458332px;stroke-linecap:butt;stroke-linejoin:miter;stroke-opacity:1" />
    <path
       id="path993"
       d="m 90.06983,231.2517 c 16.46368,17.27011 17.42848,1.13593 26.53582,-0.20855 24.18809,-4.87558 15.17746,-14.96811 16.37515,-23.45647 -15.43637,-6.60211 -47.543513,-2.31898 -42.91097,23.66502 z"
       style="fill:#f0f8f8;fill-opacity:1;stroke:none;stroke-width:0.26458332px;stroke-linecap:butt;stroke-linejoin:miter;stroke-opacity:1" />
    <path
       id="path995"
       d="m 120.76339,258.63542 c 0.0859,-4.0951 2.66721,-7.33131 4.7247,-12.6622 6.84436,-11.10391 17.63841,-9.17382 29.48215,-3.77977 9.18721,4.12101 -12.1915,7.70503 -12.66221,13.60714 -12.69704,-1.46808 -21.13995,9.79183 -21.54464,2.83483 z"
       style="fill:#f0f8f8;fill-opacity:1;stroke:none;stroke-width:0.26458332px;stroke-linecap:butt;stroke-linejoin:miter;stroke-opacity:1" />
    <path
       id="path997"
       d="m 50.103539,245.79496 c -4.458844,12.72338 -0.191032,27.73655 19.255092,10.38361 17.417039,-2.6511 35.159879,2.01465 35.340769,-1.13393 0.35542,-4.81679 -22.426562,-13.37387 -35.340769,-21.92262 -12.709413,2.72644 -17.039279,7.44802 -19.255092,12.67294 z"
       style="fill:#f0f8f8;fill-opacity:1;stroke:none;stroke-width:0.26458332px;stroke-linecap:butt;stroke-linejoin:miter;stroke-opacity:1" />
  </g>
</svg>
