<svg xmlns="http://www.w3.org/2000/svg" viewBox="0 0 200 100" height="378" width="200mm"><path d="M68.2 42.8C42.7 40.9 22 38.3 21.7 77.1c0 5.6 14 6.4 28 1.8 21 15.5 37.6 9.2 53-3 37 28 56.3 6 63.5-6.9 34.3-23-1-48.3-30.2-51.9C95.7 5 78.8 19.6 68.2 42.8z" fill="#dddef5"/><path d="M22.9 63.5c2.7-18 14.7-23.5 35.6-21.4-1.5 37-21.8 20-35.6 21.4zM68.2 42.8C99.5 67.6 117 45.5 136 17.1 112.4 9.5 82.6 7 68.2 42.8z" fill="#f0f8f8"/><path d="M166.2 69c-21.5 1.6-44 5.3-62.8 2.5a205 205 0 0 0-52-.6c-14 .7-29.8-2.9-29.7 6.2-.4 7.3 21 5.4 28 1.8 20.8 16.6 39 9 53-3 20.8 16.6 46.9 22.7 63.5-6.9z" fill="#ced6f6"/></svg>