<svg xmlns="http://www.w3.org/2000/svg" xmlns:xlink="http://www.w3.org/1999/xlink" viewBox="0 0 1280 720" height="720mm" width="1280mm"><path d="M0 0h1280v720H0z"/><g transform="translate(0 423)"><g id="c"><path d="M429.2-195.9c2.4-7.6 16-5.2 16.6 1.1.9 7.2-4.9 7.7-12 8 7.1 0 13 .9 12 8-1.2 7.2-14.6 9.3-16.5 1.3" fill="none" stroke="#fff" stroke-width="5" stroke-linecap="round" stroke-linejoin="round"/><use xlink:href="#a" width="100%" height="100%" transform="translate(26.6)"/><path d="M376-196c0-5.5 15.9-6 16 0v18.2c0 5.7-16.1 5.7-16 0z" id="a" fill="none" stroke="#fff" stroke-width="5" stroke-linecap="round" stroke-linejoin="round" paint-order="stroke fill markers"/><path d="M349.3-195.8c1.8-5.9 13.6-6.3 16.2 0 .6 1.7.8 5.6-2.7 8.4l-13 10.4v3.8H366" fill="none" stroke="#fff" stroke-width="5" stroke-linecap="round" stroke-linejoin="round"/></g><g id="d" fill="none" stroke="#fff" stroke-width="5"><path d="M327-195.5l-11.7.1c-4.3.8-4.1 12.5-.1 12.9h12" stroke-linecap="round" stroke-linejoin="round"/><path d="M320.1-205.7c-25.4 0-25.5 33.7.3 33.6 25.9 0 26.6-33.6-.3-33.6z"/></g><g id="e"><path d="M354.7-100.7l.1-27c-1 2-2.1 3.2-5.3 3.9" fill="none" stroke="#fff" stroke-width="5" stroke-linecap="round" stroke-linejoin="round"/><path d="M365.9-101h4.5c5.9-.2 11.3-1.6 11.3-6.4v-8.6c-3.2 2.2-12.6 1.8-14.6.4-2.2-1.5-2.2-10.2 0-11.5 2.5-1.4 11.4-2 13.5.3 1.6 1.6 1 10.8 1 10.8" id="b" fill="none" stroke="#fff" stroke-width="5" stroke-linecap="round" stroke-linejoin="round"/><use xlink:href="#b" width="100%" height="100%" transform="translate(26.6)"/><path d="M434.6-128.3l-14.3.1c-1.8 0-1.7 13.1.1 13.1h9.6c6.6 0 6.6 14.3 0 14.3h-10.6M444.4-114.7H457" fill="none" stroke="#fff" stroke-width="5" stroke-linecap="round" stroke-linejoin="round"/><use xlink:href="#c" width="100%" height="100%" transform="translate(117.1 72.2)"/><use xlink:href="#d" width="100%" height="100%" transform="translate(-.4 71.8)"/></g><use transform="translate(0 71.8)" height="100%" width="100%" xlink:href="#e"/><use transform="translate(0 144)" height="100%" width="100%" xlink:href="#e"/></g><path d="M877.5 247c-3 0-4 1.2-4 3.4 0 2 1 3.9 3.7 3.9 2.8 0 4.1-1.4 4.1-3.7 0-2.1-1-3.7-3.8-3.7z" fill="#fff"/><path id="g" d="M836 251.8V233c0-6.2 11.5-6.7 13-.7.5 1.2 2.4.9 3.2-.2 2.6-5.9 9.8-3.2 13.5-2.4 3.5 1.2 5 4.2 5 7v15c0 2.7-14.1 3.2-14.1-.1l.1-11c0-1.2-1.5-2.2-3.4-1.2-1.6.8-3.3.6-3.3 2.3l-.1 10c0 3.2-13.9 3.1-13.9 0z" fill="#fff" stroke-width=".3"/><use transform="translate(160 .3)" height="100%" width="100%" xlink:href="#f"/><path d="M750.9 231.4l-.2 19.9c0 3.8 13.2 3.7 13.2 0V240c0-.6 2-.7 2 0v11.2c0 3.7 14 3.8 14.1 0v-11.4c-.1-.5 2-.6 2-.1v11.4c0 3.8 13.3 3.9 13.3 0l-.1-17.7c0-3.6-13.4-10.6-13.3-.8 0 .8-2.5.6-2.5-.1 0-3.7-13.2-9.5-13.3.2 0 .7-2.2.6-2.2-.1 0-6-13.1-7.9-13-1.2z" fill="#fff"/><path id="h" transform="scale(.26458)" d="M2719.5 865.2a25 25 0 0 0-25.4 25.2v40.7c0 16.3 6.9 26.2 26 26.3l80 .3c24.6-.4 24.6-25.4 0-25.5l-53.6-.5c-3.7.1-3.9-11 0-11h62.6c8.9-.1 15-3 15.4-9.6v-29.6c0-9-5-16-15.5-16zm64.5 36.4c0 2.5-1.7 4-4.3 4h-29.4c-2 0-3.9-1.2-3.9-3.1v-11.8c0-2.6 1.3-4 3.9-4h29.4c3-.1 4.2 1.3 4.3 4v10.9z" fill="#fff"/><path d="M741.1 220.7a56.9 56.9 0 0 1-14.8 5.5h-5.7c-2.3 0 1-3.5 2.2-4.7 1.1-1.2 9.7-4.1 11.7-4.2h7.2c2 0 .5 2.5-.6 3.4zM675.3 249.8V223c0-2 1-3.9 3.7-3.9h6.7c2.6 0 4 1.7 4 4.1l.2 12.3c2.4-2.3 6-7 7.3-7l10.4-.1c2.8 0 4.3 4.2 3 4.9l-11 7 10.7 8.7c1.4 1.2.5 4.4-2.3 4.4h-10l-8.6-8.2.1 5.2c0 1.7-.8 3-3.1 3h-7.9c-2 0-3-1.9-3.2-3.6zM628.6 219l-22.6.3c-2.8 0-5.6 1.4-5.6 4.3l-.2 27c0 2.2.3 3 3.3 3.2h8.3c1.8-.1 3.1-.9 3.2-3v-6.2h13.3c4.3 0 7.5-4.7 7.4-8.3l.1-10.5c0-3.3-4.1-6.6-7.2-6.7zm-11.8 5.6h8.2c1.1 0 1.9.7 1.9 1.9V237c0 1.3-.8 1.5-1.9 1.6h-8.3c-.8 0-1.5-.3-1.6-1.4v-10.6c0-1.3.7-2 1.7-2z" fill="#fff"/><path id="f" transform="scale(.26458)" d="M2508.5 861.8l-62.2.7c-14.8-.3-31.2 7.3-30.7 28v42c.4 15.7 9.2 26.6 27.6 26.1h68.4c14.9.2 30.7-7.8 30.8-20.1l-.4-49.5c.8-13.1-11-27.2-33.5-27.2zm-40.6 22.7h23.1c4.2 0 10.5 5.1 10.6 9.7v33.6c-.2 4.8-6.5 9-10.8 9.2h-23.4c-3 0-9.9-4.8-10-9l.1-33.5c.1-4.9 6.5-10 10.4-10z" fill="#fff"/><g><use transform="translate(197.2 71.8)" height="100%" width="100%" xlink:href="#f"/><path d="M826.7 290.3c-3.5 0-7 1.2-6.9 3.5v5.2c0 .7-.2 1-1.3 1l-13.7.1c-3.8 0-6.5 2.3-6.5 6.8v10c-.1 4.7 2.8 8.7 6.5 8.7h23.5c2.6 0 4.9-1.8 5-4.2V294c0-2.4-3.2-3.6-6.6-3.7zm-12.3 17.3l3.4.1c1.2 0 1.6.7 1.7 1.6v6.7c0 .9-.4 2-1.3 2h-4.6c-.8 0-1.1-1.1-1.1-2.1v-6.3c0-1.2.6-2 2-2z" fill="#fff"/><use transform="translate(-74.7 71.6)" height="100%" width="100%" xlink:href="#g"/><use transform="translate(11 71.9)" height="100%" width="100%" xlink:href="#h"/><path d="M702.2 322.3v-13.7c0-2.8-5.5-1.5-5.4-4.7 0-4 6-2.2 6-5.3 0-5 12.9-4.9 13 0-.1 3 6.4 1.4 6.4 5.4 0 3.3-6 1.3-5.9 4.3v14c0 5.5-14 5.3-14.1 0z" fill="#fff"/><use transform="translate(-175.9 71.3)" height="100%" width="100%" xlink:href="#g"/><path d="M643.5 322.9v-15.4c0-1.5 1.6-2.6 3.5-2.6h7.6c2 0 3 1.2 3 3v15c0 1.3-1.5 2.9-3.5 2.9H647c-2 0-3.4-1.1-3.4-3zM643.8 294.7c0-1.6 1.5-3.5 3.7-3.5h6.3c1.8 0 3.7 1.5 3.7 3.2v4.7c0 1.7-2 3.7-4 3.7h-5.7c-2.3 0-4-1.6-4-3.5zM600.5 323.3l-.3-28.3c0-5.7 12.3-5.8 15.8-2.9l11.1 11.4v-10c0-4.4 13.8-4.1 13.8 0v29.9c0 3.6-9.9 3-12.4.4l-13.6-12.5-.3 11.8c0 3.5-14.2 4.1-14.1.2z" fill="#fff"/></g><g><path d="M925 393.8h1" fill="none" stroke="#fff" stroke-width="5" stroke-linecap="round" stroke-linejoin="round"/><path id="k" d="M915.1 380.4c-.3-3.2-4-4.7-5.3-4.7h-5c-3.2.1-6.1 3-6.1 6v6.5c0 3 2.6 5.6 5.2 5.6h6.4c1.5 0 4.2-1.4 4.7-4" fill="none" stroke="#fff" stroke-width="5" stroke-linecap="round" stroke-linejoin="round"/><path id="l" d="M872 394.1V375v6.4c4.8-.7 7-2.4 10-4.4 2.2-1.7 6.3.2 6.3 4.2v12.7" fill="none" stroke="#fff" stroke-width="5" stroke-linecap="round" stroke-linejoin="round"/><path d="M861.2 394.4v-27.6M840.4 376h-12c-5.4-.1-5.6 9 0 8.8h7.8c4.8.1 4.9 9.1 0 9.1h-12.6" fill="none" stroke="#fff" stroke-width="5" stroke-linecap="round" stroke-linejoin="round"/><use transform="translate(127.8)" height="100%" width="100%" xlink:href="#i"/><use transform="translate(128)" height="100%" width="100%" xlink:href="#j"/><path d="M743.8 375.5v12.7c0 2.6 1.4 5.4 4.6 5.4h6.4c3.1 0 5.1-2.8 5.1-5.3v-12.8V394M728.1 394.4l-.1-23.6c0 6.5 1.4 5-6 5.1l11.8-.2M695.7 375.7h11.9c2.3 0 4.8 2 4.8 4.4v10.7c0 1.6-2 3-3.8 3H700c-3-.1-4-1.8-4.1-4.6 0-2.3 1.2-4 3.9-4.1 4.2 0 12.6-1 12.6 4.3" fill="none" stroke="#fff" stroke-width="5" stroke-linecap="round" stroke-linejoin="round"/><path id="i" d="M684.4 393.9h-10.7c-3.4 0-5-1.9-4.9-4.1l-.1-9.2a5 5 0 0 1 5-5h7.4c2.5 0 4.7 1.6 4.8 4.4v1.6c0 2-1.6 3.5-3.3 3.6-2 .4-12.2.4-13.3-1.4" fill="none" stroke="#fff" stroke-width="5" stroke-linecap="round" stroke-linejoin="round"/><path id="j" d="M642.7 375.2v19.6-10c8.3-2.1 9.4-10.2 17.2-9.3" fill="none" stroke="#fff" stroke-width="5" stroke-linecap="round" stroke-linejoin="round"/><path d="M632 370.7c-.7-2-3-3.7-6.8-3.7h-13c-3.6 0-7 3.3-7 7.3v12c0 3.6 3 7 6.3 7l15.4.2c3.1 0 4.8-2.6 5-4.2" fill="none" stroke="#fff" stroke-width="5" stroke-linecap="round" stroke-linejoin="round"/></g><g><path d="M978.5 466h.8" fill="none" stroke="#fff" stroke-width="5" stroke-linecap="round" stroke-linejoin="round"/><use transform="translate(53.2 72)" height="100%" width="100%" xlink:href="#k"/><use transform="translate(53.2 72.5)" height="100%" width="100%" xlink:href="#l"/><path d="M914.6 466.8v-19.1M914.4 439.2h.6M872 466.3v-27.5 9.3l8 .1 10.6-9.5-10.6 9.5 13 18" fill="none" stroke="#fff" stroke-width="5" stroke-linecap="round" stroke-linejoin="round"/><use transform="translate(197.4 -.3)" height="100%" width="100%" xlink:href="#m"/><use transform="translate(95.7 .1)" height="100%" width="100%" xlink:href="#n"/><path d="M776.1 466.3V439h16.1c2.8 0 5.3 2.3 5.3 6.8 0 3-1.8 6.4-7.7 6.5H776h13.7l8.8 14M766.3 439c-1-.1-1.2-.3-2.4-.3h-14.5V452h16.5-16.5V466" fill="none" stroke="#fff" stroke-width="5" stroke-linecap="round" stroke-linejoin="round"/><path id="n" d="M728.5 439.2c-.6-.1-.6-.3-1.6-.3h-15l.1 13.3h16.4H712v13.6h14.4c1.6 0 1.8 0 2-.3" fill="none" stroke="#fff" stroke-width="5" stroke-linecap="round" stroke-linejoin="round"/><path d="M674.7 466v-26.3l11.6 11h3l12.3-11V466" fill="none" stroke="#fff" stroke-width="5" stroke-linecap="round" stroke-linejoin="round"/><path id="m" d="M636.7 466.4l11.1-26.3h4.6l12.2 26.3-4.8-10.1H641" fill="none" stroke="#fff" stroke-width="5" stroke-linecap="round" stroke-linejoin="round"/><path d="M626.8 443.4c-1-3.4-3.4-4.7-5.7-4.6h-9.3c-3.8 0-6.7 2.9-6.7 6l-.1 13.7c0 3.3 1.7 7 5.5 7.2l11.8.2c2.2 0 4.5-2.1 4.5-4.6V454c-1.8-2.3-6.2-1.8-6.2-1.8" fill="none" stroke="#fff" stroke-width="5" stroke-linecap="round" stroke-linejoin="round"/></g></svg>