<svg xmlns="http://www.w3.org/2000/svg" viewBox="0 0 200 200" height="200mm" width="200mm"><path d="M118.7 146c-7.7 3.6-15.3 7.3-26.5 7.1 11.8-.9 21.3 6.2 8.7 21.2-3.6 2.1-7.3.6-11-1.5-2.8-5.4-7.6-3.8-13 0-5.4 4-9.6 2.8-12.3-.8 1.8-2.1-16.4-.3-21.9-2.6-2-3.7-5.6-7.7 7.2-7.6 2.8-.2 1.6-9.5 11.7-8.7-16.6-.7-21.2-10-30.2-17.7-2-3-3-7.3-1.8-10-2.9-3-7-6-2.3-9 1.2-3.6.2-6.4-.8-9.1-4-12.1 9-18.2 14.2-16C50.6 80.8 70.8 67 89.2 66.6c-1.9 2.3-2.2 4.8-2.6 7.2 4-14.5 19.4-22.2 33.6-23.9-6.2-5.1-9-9.8.8-12.8 3.1-3.2 2.4-7.6-1.8-8-3.1.6-4.5-.3-6.6-.3 15.5-9.7 28.8 1.1 31.8 11 1 3.1-11.1 3.6-5 11.7 18.6 1.6 17.3 14 20.1 24z" fill="#666656" stroke="#000" stroke-width="1.5"/><path d="M42 91c.5 4.1 1.5 11.5 7.1 9.2 9.8-4.6 4.9-10.9.2-16.1 1.6-1.3 3.2-2.6 4.9-3.7-.4 8 7 11.4 14.2 10 7.8-1.5 8.2-14.2 8.1-20.8A69.2 69.2 0 0 0 42 91z" fill="#e2e1bb" stroke="#000" stroke-width=".3"/><path d="M70.8 99.5a39.3 39.3 0 0 1-21 2.4c-7.3-1.1-6-10.4-10.6-11.1-10.2-1.5-16.4 11.5-12.7 16.5 1 3 2 5.5.8 9-.5.8-4.1 3.9 1 7.3 15.7 10.4 27 5.4 41.3-1" fill="none" stroke="#000" stroke-width="1.5"/><path d="M115.7 133.1c-23.3-15.4-17-30.5-3.4-47.9 7-8.7 16-16.6 24.9-18.3 10-2 29.5 9 33.7 27-7.8 4.5-14.6 16-1.2 25.3 2.6 3.3-3.6 3.7-5.6 7.6 4.7 2 7.8 3.3 10 6.8-4.5 3.2-5.2 4.4-7.4 6-3.2-1.8-6.3-6.2-9.5-9.5 3 3.8 6.1 6.5 8.3 12.5-6.8 2.2-13 3.5-20.7 3-3-3.7-5.7-5.9-10.4-8.6-.8 4-1.4 5.4-3.2 9.3-5.1-.5-10.4-1.5-14.8-.7a40 40 0 0 1-.7-12.5z" fill="#e2e1bb" stroke="#000" stroke-width="1.5"/><path d="M132.8 90.3c20.4 0 21.7 34.6.2 34.4-21.8.1-22.8-34.2-.2-34.4z" fill="#a69f78" stroke="#8a8364" stroke-width="2"/><path d="M128.5 96c12.9 0 13.2 23 .3 22.9-14.5.2-14.5-22.8-.3-23z" fill="#202020"/><path d="M131.6 101.6c8.2 0 8.3 12.7.2 12.3-8 .2-8-12.3-.2-12.3z" fill="#df5014" stroke="#d8888a" stroke-width="1.5"/></svg>