<?xml version="1.0" encoding="UTF-8" standalone="no"?>
<!-- Created with Inkscape (http://www.inkscape.org/) -->

<svg
   xmlns:dc="http://purl.org/dc/elements/1.1/"
   xmlns:cc="http://creativecommons.org/ns#"
   xmlns:rdf="http://www.w3.org/1999/02/22-rdf-syntax-ns#"
   xmlns:svg="http://www.w3.org/2000/svg"
   xmlns="http://www.w3.org/2000/svg"
   xmlns:sodipodi="http://sodipodi.sourceforge.net/DTD/sodipodi-0.dtd"
   xmlns:inkscape="http://www.inkscape.org/namespaces/inkscape"
   width="200mm"
   height="200mm"
   viewBox="0 0 200 200"
   version="1.1"
   id="svg8"
   inkscape:version="0.92.2 5c3e80d, 2017-08-06"
   sodipodi:docname="duskull.svg">
  <defs
     id="defs2" />
  <sodipodi:namedview
     id="base"
     pagecolor="#ffffff"
     bordercolor="#666666"
     borderopacity="1.0"
     inkscape:pageopacity="0.0"
     inkscape:pageshadow="2"
     inkscape:zoom="0.70710678"
     inkscape:cx="312.30337"
     inkscape:cy="343.32281"
     inkscape:document-units="mm"
     inkscape:current-layer="layer1"
     showgrid="false"
     inkscape:window-width="1440"
     inkscape:window-height="851"
     inkscape:window-x="0"
     inkscape:window-y="1"
     inkscape:window-maximized="1" />
  <metadata
     id="metadata5">
    <rdf:RDF>
      <cc:Work
         rdf:about="">
        <dc:format>image/svg+xml</dc:format>
        <dc:type
           rdf:resource="http://purl.org/dc/dcmitype/StillImage" />
        <dc:title></dc:title>
      </cc:Work>
    </rdf:RDF>
  </metadata>
  <g
     inkscape:label="Layer 1"
     inkscape:groupmode="layer"
     id="layer1"
     transform="translate(0,-97)"
     style="display:inline">
    <path
       style="display:inline;fill:#666656;fill-opacity:1;stroke:#000000;stroke-width:1.5;stroke-linecap:butt;stroke-linejoin:miter;stroke-miterlimit:4;stroke-dasharray:none;stroke-opacity:1"
       d="m 118.68452,242.9494 c -7.70582,3.61884 -15.28687,7.37492 -26.45833,7.18155 11.73545,-0.93183 21.24325,6.1351 8.69345,21.16667 -3.653769,2.1103 -7.307539,0.60215 -10.961308,-1.51191 -2.894612,-5.37606 -7.676727,-3.7414 -13.049675,0.0878 -5.451293,3.8838 -9.654396,2.70373 -12.27473,-0.84374 1.813399,-2.14874 -16.392093,-0.31436 -21.922618,-2.64583 -2.029063,-3.68352 -5.644133,-7.6702 7.15862,-7.55953 2.858708,-0.18607 1.632559,-9.56728 11.740189,-8.69345 -16.579903,-0.7597 -21.192605,-10.03397 -30.238094,-17.76488 -1.963271,-2.95501 -3.028233,-7.29467 -1.758194,-10.00096 -2.870635,-2.95941 -6.992395,-5.89038 -2.352338,-9.02048 1.200148,-3.5182 0.21454,-6.30781 -0.80181,-9.08717 -3.886986,-12.08221 9.004887,-18.15402 14.286246,-15.91891 9.84615,-10.52361 30.099599,-24.44527 48.498374,-24.76808 -1.90644,2.35061 -2.206641,4.83486 -2.687755,7.18548 4.115287,-14.40794 19.457253,-22.11257 33.639883,-23.8125 -6.19773,-5.14369 -8.95954,-9.82926 0.75595,-12.85119 3.16018,-3.19206 2.43461,-7.54576 -1.77918,-8.02528 -3.07694,0.66539 -4.4403,-0.30161 -6.5363,-0.29019 15.42042,-9.70581 28.72357,1.12955 31.75,10.96131 1.01978,3.19173 -11.09002,3.69427 -4.91369,11.71726 18.54143,1.61671 17.18326,14.10315 20.03274,24.00148 z"
       id="path909"
       inkscape:connector-curvature="0"
       sodipodi:nodetypes="cccccccccccccccccccccccc" />
    <path
       style="display:inline;fill:#e2e1bb;fill-opacity:1;stroke:#000000;stroke-width:0.26499999;stroke-linecap:butt;stroke-linejoin:miter;stroke-miterlimit:4;stroke-dasharray:none;stroke-opacity:1"
       d="m 41.978285,187.94241 c 0.518984,4.17907 1.519077,11.60328 7.15862,9.27188 9.802739,-4.57984 4.837818,-10.8898 0.193587,-16.12206 1.597247,-1.26202 3.163453,-2.55487 4.846874,-3.67285 -0.411171,8.05555 7.059621,11.41591 14.236323,9.96752 7.811458,-1.4859 8.168793,-14.14774 8.093438,-20.77123 -10.067807,1.6339 -23.81862,9.86416 -34.528842,21.32674 z"
       id="path918"
       inkscape:connector-curvature="0"
       sodipodi:nodetypes="cccccccc" />
    <path
       style="display:inline;fill:none;stroke:#000000;stroke-width:1.5;stroke-linecap:butt;stroke-linejoin:miter;stroke-miterlimit:4;stroke-dasharray:none;stroke-opacity:1"
       d="m 70.826423,196.50666 c -5.793911,2.18424 -12.145327,3.74902 -21.114292,2.40542 -7.243701,-1.12107 -5.995013,-10.42823 -10.520787,-11.14704 -10.166226,-1.5131 -16.365353,11.57739 -12.731662,16.49243 1.042877,2.95723 2.026918,5.55932 0.80181,9.08717 -0.45515,0.73383 -4.106515,3.85508 1.069078,7.21628 15.669469,10.42176 26.896325,5.42427 41.293142,-0.93544"
       id="path914"
       inkscape:connector-curvature="0"
       sodipodi:nodetypes="ccccccc" />
    <path
       style="display:inline;fill:#e2e1bb;fill-opacity:1;stroke:#000000;stroke-width:1.5;stroke-linecap:butt;stroke-linejoin:miter;stroke-miterlimit:4;stroke-dasharray:none;stroke-opacity:1"
       d="m 115.66071,230.09821 c -23.240594,-15.40838 -16.91498,-30.47562 -3.31401,-47.87605 7.01997,-8.70297 15.92032,-16.62246 24.82345,-18.34412 10.02512,-1.92025 29.57616,8.98742 33.69801,27.04822 -7.74389,4.45128 -14.58952,15.97432 -1.17978,25.25955 2.64098,3.33293 -3.62547,3.68673 -5.60086,7.57852 4.68888,2.12634 7.77217,3.33745 10.00294,6.86842 -4.53629,3.16501 -5.18074,4.39908 -7.40296,6.00177 -3.1498,-1.85162 -6.29961,-6.28312 -9.44941,-9.56012 3.04989,3.84918 6.07068,6.56574 8.26962,12.49614 -6.76062,2.25641 -12.92279,3.5696 -20.74283,3.00089 -2.92069,-3.65377 -5.66063,-5.83756 -10.33899,-8.55588 -0.79382,3.90575 -1.43295,5.40608 -3.26815,9.31183 -5.07046,-0.56552 -10.34143,-1.53206 -14.74107,-0.75595 -1.04978,-5.35444 -1.12706,-9.25011 -0.75596,-12.47322 z"
       id="path916"
       inkscape:connector-curvature="0"
       sodipodi:nodetypes="ccccccccccccccc" />
    <path
       style="display:inline;fill:#a69f78;fill-opacity:1;stroke:#8a8364;stroke-width:2;stroke-linecap:butt;stroke-linejoin:miter;stroke-miterlimit:4;stroke-dasharray:none;stroke-opacity:1"
       d="m 132.82083,187.33021 c 20.42618,-0.0887 21.685,34.55901 0.13229,34.39583 -21.73648,0.0882 -22.7135,-34.26351 -0.13229,-34.39583 z"
       id="path920"
       inkscape:connector-curvature="0"
       sodipodi:nodetypes="ccc" />
    <path
       style="display:inline;fill:#202020;fill-opacity:1;stroke:none;stroke-width:0.26458332px;stroke-linecap:butt;stroke-linejoin:miter;stroke-opacity:1"
       d="m 128.52992,192.9787 c 12.83897,-0.0186 13.13603,23.10497 0.28063,22.91836 -14.53377,0.17675 -14.49052,-22.75148 -0.28063,-22.91836 z"
       id="path922"
       inkscape:connector-curvature="0"
       sodipodi:nodetypes="ccc" />
    <path
       style="display:inline;fill:#df5014;fill-opacity:1;stroke:#d8888a;stroke-width:1.5;stroke-linecap:butt;stroke-linejoin:miter;stroke-miterlimit:4;stroke-dasharray:none;stroke-opacity:1"
       d="m 131.61688,198.59135 c 8.17098,0.025 8.23994,12.69315 0.18709,12.34787 -8.01778,0.14563 -8.03716,-12.29967 -0.18709,-12.34787 z"
       id="path924"
       inkscape:connector-curvature="0"
       sodipodi:nodetypes="ccc" />
  </g>
</svg>
