<?xml version="1.0" encoding="UTF-8" standalone="no"?>
<svg
   xmlns:dc="http://purl.org/dc/elements/1.1/"
   xmlns:cc="http://creativecommons.org/ns#"
   xmlns:rdf="http://www.w3.org/1999/02/22-rdf-syntax-ns#"
   xmlns:svg="http://www.w3.org/2000/svg"
   xmlns="http://www.w3.org/2000/svg"
   xmlns:xlink="http://www.w3.org/1999/xlink"
   id="svg8"
   version="1.1"
   viewBox="0 0 600 100"
   height="100mm"
   width="600mm">
  <defs
     id="defs2" />
  <metadata
     id="metadata5">
    <rdf:RDF>
      <cc:Work
         rdf:about="">
        <dc:format>image/svg+xml</dc:format>
        <dc:type
           rdf:resource="http://purl.org/dc/dcmitype/StillImage" />
        <dc:title></dc:title>
      </cc:Work>
    </rdf:RDF>
  </metadata>
  <g
     transform="translate(0,-197)"
     id="layer1">
    <path
       id="path943"
       d="m 49.184151,237.89205 c 2.165915,0.0408 4.732838,2.36957 4.739525,4.44318 l -2e-6,11.10305 c -0.01909,2.50938 -3.446269,4.44159 -5.448229,4.47226 l -17.008928,0.0472 c -1.887078,0.0231 -5.029854,-1.02513 -5.093179,-3.60224 v -13.09276 c 0.0135,-2.12836 2.487981,-3.41746 4.431721,-3.418 z"
       style="display:inline;fill:#bdbcbf;fill-opacity:1;stroke:#000000;stroke-width:2;stroke-linecap:butt;stroke-linejoin:miter;stroke-miterlimit:4;stroke-dasharray:none;stroke-opacity:1" />
    <path
       id="path945"
       d="m 45.500508,244.63761 -8.032662,-0.0167 c -2.453986,0.0128 -2.880721,0.93071 -2.894888,3.1502 0.02314,2.14854 0.354724,3.48656 2.777958,3.49813 h 8.132887"
       style="display:inline;fill:none;stroke:#000000;stroke-width:3;stroke-linecap:round;stroke-linejoin:round;stroke-miterlimit:4;stroke-dasharray:none;stroke-opacity:1" />
    <path
       id="path951"
       d="m 111.24009,237.78197 -15.034743,0.0191 c -6.200298,0.0297 -8.077292,1.04049 -8.120213,6.86729 l 0.04703,7.60522 c 0.0031,4.7057 1.529083,5.73926 7.18952,5.72626 l 16.049146,-0.0196 c 6.02991,-0.0534 7.72873,-0.37811 7.75973,-5.87613 l 0.0434,-8.21965 c -0.0438,-5.29053 -2.17204,-5.99563 -7.93388,-6.10247 z m -7.47732,5.8522 c 3.49166,0.008 3.48212,0.16892 3.47446,4.61022 -0.0107,4.30471 -0.0206,4.61403 -3.61248,4.69784 -3.946732,-0.0272 -3.92481,-0.27089 -3.95398,-4.60741 0.0395,-4.29463 -0.02608,-4.70901 4.092,-4.70065 z"
       style="display:inline;fill:#bdbcbf;fill-opacity:1;stroke:#000000;stroke-width:2;stroke-linecap:butt;stroke-linejoin:miter;stroke-miterlimit:4;stroke-dasharray:none;stroke-opacity:1" />
    <path
       id="path947"
       d="m 82.962949,238.12715 c 1.968282,0.0791 4.936802,1.01002 4.921421,5.48671 -0.03391,2.90669 -0.253397,3.4403 -2.720372,5.85624 -1.201801,1.12569 -2.95295,1.80292 -5.609339,1.84073 l -6.659017,0.0421 c -0.670715,0.0228 -0.714282,0.87571 0.02805,0.89373 l 12.846386,-0.0472 c 2.855651,-0.005 2.887658,5.82023 -0.02181,5.80048 l -19.846723,-0.0544 c -2.005096,-0.0229 -4.13768,-0.45972 -4.160896,-3.7604 -0.05348,-3.25231 4.928014,-8.81853 7.608723,-8.87382 l 6.753359,0.0227 c 0.801023,-0.004 0.914544,-0.82347 0.02386,-0.90009 l -12.559949,0.0843 c -3.586368,-0.0381 -3.654031,-6.3276 0.07267,-6.39081 z"
       style="display:inline;fill:#bdbcbf;fill-opacity:1;stroke:#000000;stroke-width:2;stroke-linecap:butt;stroke-linejoin:miter;stroke-miterlimit:4;stroke-dasharray:none;stroke-opacity:1" />
    <use
       style="display:inline"
       transform="translate(31.116218,4.340564e-6)"
       height="100%"
       width="100%"
       id="use957"
       xlink:href="#path951"
       y="0"
       x="0" />
    <path
       id="path959"
       d="m 153.51293,244.4664 c -3.0763,-0.0644 -3.16785,-5.98261 0,-6.04698 l 20.50793,0.0115 c 4.35785,-0.0244 5.44109,9.3583 0.94879,9.37122 -0.35481,-0.0237 -0.3753,1.04208 -0.0368,1.04319 4.51932,0.0411 3.46763,8.35174 -1.00037,8.35847 l -20.50521,0.0105 c -3.01227,-0.002 -3.00186,-5.29658 0.11812,-5.38616 h 11.43378 c 0.33423,-0.008 0.33061,-0.65158 10e-4,-0.65164 h -8.40997 c -3.89763,-0.0426 -3.78539,-6.08566 0.0221,-6.08106 l 8.31547,-0.0473 c 0.39964,0 0.3981,-0.62603 0,-0.63784 z"
       style="display:inline;fill:#bdbcbf;fill-opacity:1;stroke:#000000;stroke-width:2;stroke-linecap:butt;stroke-linejoin:miter;stroke-miterlimit:4;stroke-dasharray:none;stroke-opacity:1" />
    <path
       id="path963"
       d="m 235.999,237.43231 -26.72696,-0.0334 c -3.55487,0.0648 -5.41031,2.13256 -5.47903,4.54358 v 11.09168 c 0.0725,2.89158 1.96148,4.87859 5.07812,4.94449 h 47.70761 c 1.98375,-0.01 1.98284,-6.89178 -0.13363,-6.94901 h -3.60814 l 2.40543,-1.87089 7.88445,7.34992 c 1.06554,1.03435 2.63041,1.8556 5.07812,1.87088 h 10.28989 c 2.5638,-0.0726 3.20916,-1.31469 3.20722,-2.80633 l 0.0334,-9.85556 -0.0334,9.85556 c -0.0256,3.80573 11.8918,3.77118 11.8935,-0.23386 l -0.13364,-9.65511 0.13364,9.65511 c 0.006,4.02166 11.39485,4.08476 11.35895,0.20045 l 1e-5,-13.8646 c -0.0798,-3.29295 -1.51207,-4.23193 -4.54358,-4.27631 h -26.45969 c -3.47166,0.0291 -4.50924,1.33613 -4.54358,3.4745 v 4.27631 c 0.038,1.87182 -1.94209,2.91822 -2.93998,2.00452 l -9.72192,-8.0849 c -2.98905,-2.45019 -8.21577,-1.50761 -10.18965,0.33408 l -7.34992,7.31651 c 0,0 -2.35756,-1.9409 -3.0736,-1.97111 h -8.81989 c -3.5834,-0.0177 -3.55444,6.09319 -0.13364,6.01356 l -9.92238,0.10023 c -1.54306,0.0223 -1.41931,-6.10265 0,-6.1472 l 18.87591,0.0334 c 3.96925,0.12365 4.31209,-7.28377 -0.13362,-7.3165 z"
       style="fill:#bdbcbf;fill-opacity:1;stroke:#000000;stroke-width:2;stroke-linecap:round;stroke-linejoin:round;stroke-miterlimit:4;stroke-dasharray:none;stroke-opacity:1" />
    <path
       id="path965"
       d="m 308.77932,237.68286 h 24.98971 c 3.53381,0.0195 3.40932,7.22045 0,7.21628 l -15.7522,-0.11693 7.93458,0.0501 c 4.05388,0.0668 3.855,6.29753 -0.0668,6.29753 l -8.15174,-0.0835 15.7689,0.13364 c 3.54616,0.0606 3.51102,6.66432 0,6.68173 h -24.78728 c -2.48019,-0.0104 -3.52606,-1.75935 -3.54327,-3.50692 l -0.13364,-13.33106 c 0.002,-1.94619 1.61508,-3.28735 3.74176,-3.34087 z"
       style="fill:#bdbcbf;fill-opacity:1;stroke:#000000;stroke-width:2;stroke-linecap:butt;stroke-linejoin:miter;stroke-miterlimit:4;stroke-dasharray:none;stroke-opacity:1" />
    <path
       id="path967"
       d="m 343.25234,241.56114 c 2e-5,-2.58359 1.58134,-4.22063 4.14269,-4.20949 l 48.64304,0.26726 c 1.60921,0.0672 4.58282,1.78596 6.94901,3.87541 2.43547,2.04997 2.42497,8.79621 -1.83746,9.62171 4.26837,0.45451 4.48393,7.05896 2.20495,7.08263 l -6.23652,10e-6 c -1.32672,0.0168 -3.668,-2.21696 -5.2351,-3.3213 -4.36204,-3.34569 -4.12347,-6.71368 -1.05663,-6.83494 2.0477,-0.007 2.49151,-3.02522 0,-3.20724 h -5.7463 c -1.79364,-0.0102 -2.65364,1.02495 -2.67269,2.93997 v 7.73067 c 0.051,3.99771 -11.95842,3.71799 -11.92692,-0.33073 l 0.0668,-8.30197 c 0.0308,-1.69719 -0.99728,-2.35069 -2.40545,-2.40543 l -11.89348,-0.0334 h 7.58378 c 3.73782,1.8e-4 3.61777,6.82757 0,6.81538 l -5.7463,-1e-5 c -2.80894,0.088 -3.06648,0.60864 -3.07361,3.87541 0.0111,4.02446 -11.53713,3.91299 -11.59281,0.13364 z"
       style="display:inline;fill:#bdbcbf;fill-opacity:1;stroke:#000000;stroke-width:2;stroke-linecap:round;stroke-linejoin:round;stroke-miterlimit:4;stroke-dasharray:none;stroke-opacity:1" />
    <path
       id="path969"
       d="m 409.38674,238.19533 h 25.25697 c 3.54613,0.0822 3.34351,7.35417 0.0864,7.38906 l -16.25619,-0.17278 7.61717,0.13364 c 3.82982,0.055 3.77938,6.14759 0.18089,6.18634 l -8.10449,0.0554 14.79573,-0.0472 11.83674,-11.80711 c 2.04183,-2.05187 7.29501,-2.94681 11.35896,0.26727 l 8.13551,7.49165 c 2.13055,1.93067 2.93704,-2.29991 2.91702,-5.5844 -0.013,-5.52303 12.5877,-5.52681 12.60083,0.0486 0.0122,1.53477 1.60031,3.06392 2.87787,2.12333 l 8.2138,-6.08374 c 2.01549,-1.42461 12.74803,1.00213 7.22299,5.58974 l -6.82209,4.96741 6.59258,5.02138 c 4.97789,3.79633 -4.65769,6.16715 -5.79076,5.2685 l -7.75081,-6.1472 c -1.9369,-1.55935 -4.82672,-1.1984 -4.81087,1.06908 0.0786,3.57528 -0.83522,4.70797 -4.40994,4.67721 l -8.81988,0.13364 c -2.07968,-0.0315 -4.82214,-0.34509 -5.87995,-1.87089 l -7.97894,-7.3432 -2.79823,1.8871 2.35819,-0.0472 c 5.44913,-0.002 5.94867,7.19007 0.13364,7.10696 l -43.2532,-0.0473 c -3.53331,0.0109 -3.99749,-0.55856 -4.05351,-3.82816 l 0.13364,-12.02713 c 0.044,-2.78866 1.16285,-4.34783 4.40994,-4.40995 z"
       style="fill:#bdbcbf;fill-opacity:1;stroke:#000000;stroke-width:2;stroke-linecap:round;stroke-linejoin:round;stroke-miterlimit:4;stroke-dasharray:none;stroke-opacity:1" />
    <path
       id="path971"
       d="m 513.28301,254.979 v -7.58181 c -0.0374,-3.66441 12.16106,-3.62575 12.16077,0 l -10e-6,7.74885 c -0.005,3.45234 -12.14008,3.2996 -12.16076,-0.16704 z"
       style="fill:#bdbcbf;fill-opacity:1;stroke:#000000;stroke-width:2;stroke-linecap:round;stroke-linejoin:round;stroke-miterlimit:4;stroke-dasharray:none;stroke-opacity:1" />
    <path
       id="path973"
       d="m 513.01575,241.32155 c 0.0879,-2.90313 1.76415,-3.82379 6.44787,-3.8754 4.96728,0.002 6.65771,0.97807 6.64834,3.74177 0.008,2.88362 -1.61347,3.37995 -6.54812,3.4745 -4.7444,-0.0837 -6.50498,-0.57884 -6.54809,-3.34087 z"
       style="fill:#bdbcbf;fill-opacity:1;stroke:#000000;stroke-width:2;stroke-linecap:butt;stroke-linejoin:miter;stroke-miterlimit:4;stroke-dasharray:none;stroke-opacity:1" />
    <path
       id="path975"
       d="m 525.53828,254.83122 0.0139,-6.28581 c 0.009,-2.32629 1.19106,-3.57424 3.82076,-3.59401 l 19.51521,-0.0334 c 2.65139,0.0215 3.699,1.26491 3.69346,3.39087 l 0.0512,6.49671 c -0.004,3.74469 -10.65221,3.82012 -10.72421,1e-5 0.0114,-3.65365 0.44947,-4.0172 -2.7925,-4.04106 -3.01683,0.0274 -2.95146,0.45949 -2.95378,4.07469 0.0324,3.75387 -10.57997,3.61618 -10.62398,-0.008 z"
       style="fill:#bdbcbf;fill-opacity:1;stroke:#000000;stroke-width:2;stroke-linecap:butt;stroke-linejoin:miter;stroke-miterlimit:4;stroke-dasharray:none;stroke-opacity:1" />
    <path
       id="path996"
       d="m 553.1209,247.6407 c 6.7e-4,-2.06575 1.26007,-2.6768 3.30729,-2.70692 h 12.37872 c 3.86574,0.0274 3.6486,6.33693 0.18899,6.3311 h -5.19717 5.19717 c 3.59552,-0.008 3.48955,6.34058 0.0125,6.3311 h -12.165 c -2.41229,-0.0348 -3.60154,-0.92221 -3.64992,-3.30729 z"
       style="display:inline;fill:#bdbcbf;fill-opacity:1;stroke:#000000;stroke-width:2;stroke-linecap:round;stroke-linejoin:round;stroke-miterlimit:4;stroke-dasharray:none;stroke-opacity:1" />
    <path
       id="path998"
       d="m 575.83219,250.69556 c -4.9461,-0.001 -5.07689,7.17479 0.13363,7.21627 5.77271,0.11907 5.75529,-7.24168 -0.13363,-7.21627 z"
       style="fill:#bdbcbf;fill-opacity:1;stroke:#000000;stroke-width:2;stroke-linecap:butt;stroke-linejoin:miter;stroke-miterlimit:4;stroke-dasharray:none;stroke-opacity:1" />
  </g>
</svg>
