<svg xmlns="http://www.w3.org/2000/svg" xmlns:xlink="http://www.w3.org/1999/xlink" viewBox="0 0 600 100" height="378" width="600mm"><g transform="translate(0 -197)"><path d="M49.2 237.9c2.2 0 4.7 2.4 4.7 4.4v11.1c0 2.5-3.4 4.5-5.4 4.5h-17c-2 0-5-1-5.1-3.5v-13.1c0-2.2 2.5-3.5 4.4-3.5z" fill="#bdbcbf" stroke="#000" stroke-width="2"/><path d="M45.5 244.6h-8c-2.5 0-3 1-3 3.2.1 2.1.4 3.5 2.9 3.5h8" fill="none" stroke="#000" stroke-width="3" stroke-linecap="round" stroke-linejoin="round"/><path id="a" d="M111.2 237.8h-15c-6.2 0-8 1-8.1 6.9v7.6c0 4.7 1.6 5.7 7.2 5.7h16c6.1 0 7.8-.4 7.8-5.9v-8.2c0-5.3-2.1-6-7.9-6.1zm-7.4 5.8c3.5 0 3.4.2 3.4 4.6 0 4.3 0 4.7-3.6 4.7-4 0-3.9-.2-4-4.6.1-4.3 0-4.7 4.2-4.7z" fill="#bdbcbf" stroke="#000" stroke-width="2"/><path d="M83 238.1c2 .1 4.9 1 4.9 5.5 0 3-.3 3.5-2.7 5.9-1.2 1.1-3 1.8-5.6 1.8h-6.7c-.7 0-.7 1 0 1l12.9-.1c2.8 0 2.9 5.8 0 5.8H65.8c-2 0-4.1-.5-4.2-3.8 0-3.3 5-8.8 7.6-8.9h6.8c.8 0 1-.8 0-.9l-12.5.1c-3.6 0-3.7-6.3 0-6.4z" fill="#bdbcbf" stroke="#000" stroke-width="2"/><use transform="translate(31.1)" height="100%" width="100%" xlink:href="#a"/><path d="M153.5 244.5c-3-.1-3.2-6 0-6H174c4.4 0 5.5 9.3 1 9.3-.4 0-.4 1 0 1 4.5 0 3.4 8.4-1 8.4h-20.6c-3 0-3-5.3.1-5.4H165c.3 0 .3-.6 0-.6h-8.4c-4 0-3.8-6.1 0-6.1h8.3c.4 0 .4-.7 0-.7z" fill="#bdbcbf" stroke="#000" stroke-width="2"/><path d="M236 237.4h-26.7c-3.6 0-5.4 2.1-5.5 4.5V253c0 3 2 5 5 5h47.8c2 0 2-7-.2-7h-3.6l2.4-1.8 8 7.3a7 7 0 0 0 5 1.9h10.3c2.6 0 3.2-1.3 3.2-2.8v-9.9 9.9c0 3.8 11.9 3.7 11.9-.3l-.1-9.6.1 9.6c0 4 11.4 4.1 11.4.2v-13.8c-.1-3.3-1.6-4.3-4.6-4.3H274c-3.5 0-4.6 1.3-4.6 3.5v4.2c0 2-2 3-3 2l-9.7-8c-3-2.5-8.2-1.5-10.1.3l-7.4 7.3s-2.4-2-3-2h-8.9c-3.6 0-3.5 6.1-.1 6l-10 .2c-1.5 0-1.4-6.1 0-6.2h19c3.9.2 4.2-7.2-.2-7.3z" fill="#bdbcbf" stroke="#000" stroke-width="2" stroke-linecap="round" stroke-linejoin="round"/><path d="M308.8 237.7h25c3.5 0 3.4 7.2 0 7.2l-15.8-.1h8c4 .1 3.8 6.3-.1 6.3h-8.2 15.8c3.5.1 3.5 6.7 0 6.8h-24.8c-2.5 0-3.5-1.8-3.5-3.5L305 241c0-2 1.7-3.3 3.8-3.3z" fill="#bdbcbf" stroke="#000" stroke-width="2"/><path d="M343.3 241.6c0-2.6 1.5-4.3 4.1-4.2l48.6.2c1.6 0 4.6 1.8 7 3.9 2.4 2 2.4 8.8-1.9 9.6 4.3.5 4.5 7 2.3 7.1H397c-1.3 0-3.6-2.2-5.2-3.3-4.4-3.4-4.1-6.7-1-6.9 2 0 2.4-3 0-3.2H385c-1.8 0-2.7 1-2.7 3v7.7c0 4-12 3.7-12-.3l.1-8.3c0-1.7-1-2.4-2.4-2.4h-11.9 7.6c3.8 0 3.6 6.8 0 6.7h-5.7c-2.8.1-3 .7-3 4 0 4-11.6 3.8-11.7 0z" fill="#bdbcbf" stroke="#000" stroke-width="2" stroke-linecap="round" stroke-linejoin="round"/><path d="M409.4 238.2h25.2c3.6 0 3.4 7.3.1 7.4l-16.2-.2 7.6.1c3.8.1 3.8 6.2.2 6.2h-8.1H433l11.8-11.8c2-2 7.3-3 11.4.3l8 7.5c2.2 2 3-2.3 3-5.6 0-5.5 12.6-5.5 12.6 0 0 1.6 1.6 3.1 2.9 2.2l8.2-6.1c2-1.4 12.8 1 7.2 5.6l-6.8 5 6.6 5c5 3.8-4.7 6.1-5.8 5.2l-7.7-6.1c-2-1.6-4.9-1.2-4.9 1 .1 3.6-.8 4.8-4.4 4.7l-8.8.2c-2 0-4.8-.4-5.9-1.9l-8-7.3-2.7 1.8h2.3c5.5 0 6 7.2.1 7.1H409c-3.5 0-4-.6-4-3.9v-12c.1-2.8 1.2-4.3 4.5-4.4zM513.3 255v-7.6c0-3.7 12.1-3.6 12.1 0v7.7c0 3.5-12.1 3.3-12.1-.1z" fill="#bdbcbf" stroke="#000" stroke-width="2" stroke-linecap="round" stroke-linejoin="round"/><path d="M513 241.3c.1-2.9 1.8-3.8 6.5-3.9 5 0 6.6 1 6.6 3.8 0 2.9-1.6 3.4-6.5 3.5-4.8-.1-6.5-.6-6.6-3.4zM525.5 254.8v-6.3c0-2.3 1.2-3.5 3.9-3.5h19.5c2.6 0 3.7 1.2 3.7 3.3v6.5c0 3.8-10.6 3.8-10.7 0 0-3.6.5-4-2.8-4-3 0-3 .4-3 4 0 3.8-10.5 3.7-10.6 0z" fill="#bdbcbf" stroke="#000" stroke-width="2"/><path d="M553.1 247.6c0-2 1.3-2.6 3.3-2.7h12.4c3.9 0 3.7 6.4.2 6.4h-5.2 5.2c3.6 0 3.5 6.3 0 6.3h-12.2c-2.4 0-3.6-1-3.6-3.3z" fill="#bdbcbf" stroke="#000" stroke-width="2" stroke-linecap="round" stroke-linejoin="round"/><path d="M575.8 250.7c-5 0-5 7.2.2 7.2 5.7.1 5.7-7.2-.2-7.2z" fill="#bdbcbf" stroke="#000" stroke-width="2"/></g></svg>