<?xml version="1.0" encoding="UTF-8" standalone="no"?>
<svg
   xmlns:dc="http://purl.org/dc/elements/1.1/"
   xmlns:cc="http://creativecommons.org/ns#"
   xmlns:rdf="http://www.w3.org/1999/02/22-rdf-syntax-ns#"
   xmlns:svg="http://www.w3.org/2000/svg"
   xmlns="http://www.w3.org/2000/svg"
   xmlns:xlink="http://www.w3.org/1999/xlink"
   id="svg4522"
   version="1.1"
   viewBox="0 0 372.85828 148.62263"
   height="148.62263mm"
   width="372.85828mm">
  <defs
     id="defs4516" />
  <metadata
     id="metadata4519">
    <rdf:RDF>
      <cc:Work
         rdf:about="">
        <dc:format>image/svg+xml</dc:format>
        <dc:type
           rdf:resource="http://purl.org/dc/dcmitype/StillImage" />
        <dc:title></dc:title>
      </cc:Work>
    </rdf:RDF>
  </metadata>
  <g
     transform="translate(-4.9615407,-16.9875)"
     style="display:inline"
     id="layer4">
    <path
       id="path5331"
       transform="scale(0.26458333)"
       d="m 708.59375,102 c -43.3084,3.01456 -50.26346,40.76676 -61.71875,74.21875 -8.511,35.22827 -17.15558,70.29842 -17.05273,115.57617 -8.69239,18.5776 -4.62514,51.7876 -5.14649,81.20313 -1.42669,29.81568 -1.79314,58.1318 11.71875,82.8125 6.53802,9.0178 11.671,20.13683 5.79297,31.3457 -12.43805,6.07824 -11.04593,15.38289 -1.41992,26.60937 2.04079,6.59702 -2.06589,13.41187 4.54492,18.70313 5.02258,1.63143 8.69965,4.03175 8.59375,8.59375 -9.67457,-3.94537 -10.9375,6.25 -10.9375,6.25 -1.13212,2.86458 6.6909,5.72917 12.5,8.59375 -12.4182,3.10855 -22.61154,13.16035 -33.59375,16.40625 -10.9443,0.95271 -19.41322,2.85492 -21.55859,15.625 h 131.91015 c 7.68295,-9.40509 34.56948,-7.4351 41.21094,0.19531 h 65.23438 c -8.67772,-10.15623 -20.40661,-21.28908 -37.89063,-31.44531 -10.64387,-15.68886 -4.76266,-20.7863 -1.5625,-31.25 21.04188,-21.78712 32.22685,-57.01705 37.08203,-100.87695 11.2122,-33.07291 5.21028,-64.48764 1.19922,-97.56055 -7.44068,-46.875 -19.18274,-93.75 -39.84375,-140.625 -4.94445,-25.71044 -18.97762,-26.06336 -31.64063,-30.66406 -14.61675,-17.17449 -17.76419,-40.93673 -42.21093,-46.91406 -4.4188,-1.06823 -10.80599,11.64237 -19.89844,7.26562 4.47084,-5.40173 8.25186,-13.64046 4.6875,-14.0625 z m 12.32422,44.57812 c 12.46446,-0.54881 21.22658,22.96618 30.93555,40.32813 3.79014,9.62906 -3.2011,13.86665 -7.73438,19.33398 -22.77804,8.33159 -18.41749,28.72519 -27.62109,43.08985 -17.76669,20.61565 -20.26197,45.81286 -23.75391,70.71094 -9.76021,24.47423 -8.01152,48.80671 2.76172,67.39648 -1.22525,19.4462 3.06786,29.90297 12.1543,37.56445 17.12522,4.57289 34.24977,-1.83567 51.375,-14.91601 4.50916,7.31183 7.75236,15.38202 4.9707,27.06836 -10.16973,18.78251 -15.79393,37.56514 -17.125,56.34765 -6.66376,3.43416 -10.09006,9.45847 -9.39063,18.78321 -29.1092,-8.91988 -30.78533,-38.41363 -44.19335,-59.10938 -1.33021,-21.50891 -6.03993,-43.86241 -13.25977,-66.84375 -6.08738,-27.37762 -5.45414,-53.63646 -2.76172,-79.55078 11.29833,-23.84083 10.0128,-51.27563 11.60156,-77.89063 2.65062,-34.31977 8.96833,-65.49738 32.04102,-82.3125 z m 35.18359,148.60743 c 4.07115,-0.0938 8.45507,0.59297 13.42969,2.75781 8.49691,0.81547 9.63403,5.31055 9.39063,10.49609 -2.4776,7.31525 -6.66192,16.83494 -5.52344,31.48828 1.01143,7.49935 12.30843,13.64298 16.57226,22.09766 2.48517,6.50821 -5.18912,12.81715 -9.61914,16.12109 -9.7282,7.49435 -25.60339,9.02393 -30.70703,0.45118 -4.11182,-8.79972 1.19537,-28.69999 -2.21094,-40.87891 -11.86678,-14.32272 -10.6935,-28.30805 -6.07617,-39.77539 4.40172,-3.1787 9.50982,-2.63718 14.74414,-2.75781 z M 648.54883,494.88281 c 5.09011,1.21406 4.12162,15.87834 -1.9336,15.46875 -4.70373,-1.32257 -3.66944,-15.5254 1.9336,-15.46875 z m 9.54687,22.22852 c 2.95849,0.18922 3.88144,8.68484 -1.39843,8.57031 -4.61987,-0.86211 -3.79269,-7.99856 1.10546,-8.5625 0.0995,-0.0118 0.19754,-0.0139 0.29297,-0.008 z"
       style="display:inline;fill:#226ded;fill-opacity:1;stroke:none;stroke-width:0.99999994px;stroke-linecap:butt;stroke-linejoin:miter;stroke-opacity:1" />
  </g>
  <g
     transform="translate(-4.9615407,-16.9875)"
     style="display:inline"
     id="layer3">
    <use
       transform="translate(72.238478,0.05167643)"
       height="100%"
       width="100%"
       id="use5326"
       xlink:href="#path5313"
       y="0"
       x="0" />
    <path
       id="path5319"
       d="m 227.44793,115.31679 0.0183,2.02802 4.23873,0.009 0.14616,9.93021 6.24847,2e-5 -0.10962,-9.92173 4.38489,-0.0129 -0.0183,-2.03244 z"
       style="fill:#96dc28;fill-opacity:1;stroke:none;stroke-width:0.26458332px;stroke-linecap:butt;stroke-linejoin:miter;stroke-opacity:1" />
    <path
       id="path5317"
       d="m 209.52469,115.60783 -0.0258,11.68125 3.75819,0.0258 0.0258,-5.88401 1.08659,0.007 6.55594,5.82069 3.36175,0.0178 -0.008,-11.68936 -3.37062,0.0388 v 7.20074 h -1.11686 l -6.58957,-5.55571 -0.0232,-1.67936 z"
       style="fill:#96dc28;fill-opacity:1;stroke:none;stroke-width:0.26458332px;stroke-linecap:butt;stroke-linejoin:miter;stroke-opacity:1" />
    <use
       transform="translate(36.325192,-0.20373157)"
       height="100%"
       width="100%"
       id="use5324"
       xlink:href="#path5311"
       y="0"
       x="0" />
    <path
       id="path5313"
       d="m 187.96565,115.15236 -11.20731,0.0687 c -4.44058,0.009 -4.42262,5.98557 -0.0173,5.99711 l 3.08677,-0.0129 c 3.44475,0.023 3.38218,4.10886 0.0129,4.14057 l -6.52918,0.008 0.0133,1.97022 9.37898,-0.0214 c 7.66517,-0.0568 7.66858,-8.03275 -0.21925,-7.97528 l -1.31547,-0.009 c -2.05802,0.0471 -2.00861,-2.10302 0,-2.11049 l 6.79659,-0.009 z"
       style="fill:#96dc28;fill-opacity:1;stroke:none;stroke-width:0.26458332px;stroke-linecap:butt;stroke-linejoin:miter;stroke-opacity:1" />
    <path
       id="path5311"
       d="m 154.49431,115.09144 0.004,12.47186 15.04997,-0.0214 -0.0129,-2.23121 h -8.02085 l 0.0129,-3.89916 6.1215,0.0258 0.004,-2.12784 -6.14328,0.008 0.0214,-2.07617 8.01756,-0.0432 v -2.11937 z"
       style="fill:#96dc28;fill-opacity:1;stroke:none;stroke-width:0.26458332px;stroke-linecap:butt;stroke-linejoin:miter;stroke-opacity:1" />
    <path
       id="path5307"
       transform="scale(0.26458333)"
       d="m 564.64844,435.01367 -48.88867,0.13867 0.13867,46.12696 17.40039,0.0703 v -14.77734 l 17.19531,-0.13868 9.94336,14.84571 13.5332,0.0703 V 473.75 l -9.39062,-10.90625 c 14.02719,-0.29178 14.18591,-27.92891 0.0684,-27.83008 z m -7.80274,8.76953 v 12.56836 l -23.47656,-0.0645 0.0684,-12.43359 z"
       style="fill:#96dc28;fill-opacity:1;stroke:none;stroke-width:0.99999994px;stroke-linecap:butt;stroke-linejoin:miter;stroke-opacity:1" />
    <path
       d="m 122.97699,117.62777 0.0129,3.21685 6.25285,-0.0129 v -3.20394 z m -4.44952,9.6057 0.12162,-12.07509 11.47217,-0.024 c 4.96202,0.0113 5.0407,8.50014 0.10335,8.47494 h -7.54476 l 0.006,3.59908 z"
       style="fill:#96dc28;fill-opacity:1;stroke:none;stroke-width:0.26458332px;stroke-linecap:butt;stroke-linejoin:miter;stroke-opacity:1"
       id="path5304" />
  </g>
  <g
     transform="translate(-4.9615407,-16.9875)"
     style="display:inline"
     id="layer2">
    <path
       id="path5298"
       d="m 342.62853,95.917515 c -2.72306,1.93566 -4.71147,5.213175 -0.16261,5.952275 l 6.97632,2e-5 c 3.04241,-0.45196 3.98742,-2.051975 0.46508,-4.909275 l -0.0517,-5.37434 9.8702,12.143965 c 2.11873,0.58322 4.23746,0.0692 6.35619,-1.13688 3.83596,-2.54765 0.44765,-4.756225 -1.80866,-2.893885 l -10.28361,-8.94003 11.1621,-7.38972 c 1.49247,-1.01665 1.53771,-4.1331 -0.31006,-4.1858 l -5.78776,-0.10335 c -3.87243,0.24181 -2.10298,2.57201 -0.36174,3.20394 l -8.83667,6.82129 -1e-5,-5.73608 c 2.51317,-1.4062 3.34307,-4.07788 0.25836,-4.1858 l -7.28638,0.0517 c -3.08724,-0.005 -3.98679,3.1536 -0.35258,4.14592 z"
       style="fill:#ecf8ec;fill-opacity:1;stroke:none;stroke-width:0.26458332px;stroke-linecap:butt;stroke-linejoin:miter;stroke-opacity:1" />
    <path
       id="path5274"
       d="m 248.98879,79.144225 -15.12776,0.07338 c -2.95203,0.861549 -3.56772,2.233848 -0.29249,4.45761 l -0.0734,13.300479 c -2.07272,1.298353 -4.42983,4.364586 0.21963,5.426016 l 7.89254,0.0553 c 0,0 3.71285,-2.20202 -0.59324,-5.037416 l -0.18914,-4.859134 3.34036,-0.188619 c 0,0 3.41977,7.335203 5.21002,9.458199 2.75023,1.50509 5.42089,2.39872 7.45433,0.85215 5.10518,-2.37433 0.6021,-4.901534 -1.59526,-3.040637 l -6.17275,-8.730734 c 5.96515,-1.914774 6.92385,-9.803598 -0.0729,-11.766206 z m -6.86418,3.315044 c 3.20695,0.04719 5.46826,0.525899 5.44463,3.050458 0.0665,3.133431 -2.93391,3.188732 -6.76961,3.462322 l -0.10335,-6.511232 c 0.49282,-0.0062 0.9702,-0.0083 1.42833,-0.0016 z"
       style="fill:#ecf8ec;fill-opacity:1;stroke:none;stroke-width:0.26458332px;stroke-linecap:butt;stroke-linejoin:miter;stroke-opacity:1" />
    <path
       id="path5264"
       d="m 199.45849,96.728512 -1e-5,-12.97078 c -1.67077,-0.29045 -3.76153,-4.56913 0.41341,-4.5992 h 15.45125 c 3.24804,0.136526 6.29249,2.431457 4.59921,4.34082 -1.83251,0.977692 -4.25666,-1.38788 -5.83944,-1.86035 -2.95225,-0.23414 -4.72238,-0.0764 -7.28638,-0.0517 v 7.13135 l 6.09782,-0.0517 c 4.94758,-3.08389 5.38597,0.30141 4.13412,2.48047 -1.29191,1.54648 -3.04891,0.83424 -4.75423,0.25838 l -5.58106,0.0517 -0.0517,5.94278 c 2.4408,0.98938 3.29748,3.258558 1.0852,3.617358 l -8.68164,0.0517 c -2.29584,-0.82648 -1.39348,-3.136388 0.41342,-4.340818 z"
       style="fill:#ecf8ec;fill-opacity:1;stroke:none;stroke-width:0.26458332px;stroke-linecap:butt;stroke-linejoin:miter;stroke-opacity:1" />
    <path
       id="path5258"
       d="m 126.72334,83.654235 0.14616,13.189374 c -2.61179,1.396978 -3.45093,4.421341 0.017,4.934841 h 11.82223 c 0.88439,1.95608 4.50394,3.35987 7.75627,0.21558 4.26708,-4.502119 -1.30384,-6.168761 -3.37138,-2.992679 h -9.06211 v -7.015824 l 6.28425,-0.0089 c 0.34327,2.864858 3.30001,1.227216 5.40803,-1.779793 1.73192,-2.878385 -2.78199,-3.982898 -5.34748,-1.307361 l -5.93215,-0.0081 -0.12032,-7.273444 5.62208,0.0266 c 5.9698,5.113869 7.14811,-0.735072 4.38717,-2.503262 l -17.17124,-0.154269 c -3.37393,0.160296 -2.61583,2.118515 -0.43849,4.677217 z"
       style="fill:#ecf8ec;fill-opacity:1;stroke:none;stroke-width:0.26458332px;stroke-linecap:butt;stroke-linejoin:miter;stroke-opacity:1" />
    <path
       id="path5225"
       d="m 93.398169,78.340116 h -7.161987 c -0.537921,1.61733 -0.345536,3.5344 1.900119,5.9196 l -0.03654,12.49694 c -1.954524,1.287618 -1.880383,4.342074 -0.488328,4.836304 l 5.129006,-0.0129 c 1.172115,-0.0244 1.714517,-3.180835 -1.205844,-4.886075 l -0.146163,-6.587719 6.540794,11.327634 h 4.384884 l 5.84653,-15.054794 0.3654,10.669895 c -2.82313,2.874871 -0.90152,4.454339 0.16801,4.561339 l 5.5689,-0.0668 c 1.24739,-0.86166 1.4087,-2.688413 -0.32888,-4.640696 l -0.0731,-13.556618 c 4.03285,-1.94884 2.77418,-4.957363 0.25579,-5.006083 l -7.01583,0.07308 -5.95614,16.443338 z"
       style="display:inline;fill:#ecf8ec;fill-opacity:1;stroke:none;stroke-width:0.26458332px;stroke-linecap:butt;stroke-linejoin:miter;stroke-opacity:1" />
    <path
       d="m 58.962808,92.619714 6.304526,0.0517 c -0.788632,-2.79479 -1.792192,-6.24873 -2.997235,-6.92464 -1.81975,0.74683 -2.585193,4.20163 -3.307291,6.87294 z m 0.15503,9.456776 -8.888347,0.20671 c -2.107381,-0.79069 -1.876635,-3.258016 -0.09708,-3.745776 l 9.398841,-18.99185 c 1.806017,-1.59333 7.33919,-1.59407 8.268229,0 l 8.450933,19.02732 c 2.912964,1.448496 0.831072,3.068206 0.644119,3.503596 l -9.921875,-0.0355 c -3.073923,-1.36622 -2.302457,-2.732426 0,-3.879406 v -2.40738 l -9.75171,-0.048 0.03654,2.76026 c 2.432759,-0.0171 3.380125,1.959216 1.860353,3.609996 z"
       style="fill:#ecf8ec;fill-opacity:1;stroke:none;stroke-width:0.26458332px;stroke-linecap:butt;stroke-linejoin:miter;stroke-opacity:1"
       id="path5211" />
    <path
       id="path5204"
       d="m 31.287323,88.705994 c 3.041698,-0.44905 6.135278,-0.63869 9.354432,-0.20045 0.23723,1.40186 0.711308,2.84321 -0.06682,4.07585 -1.198375,0.455094 -1.840573,2.325435 -1.091002,2.957716 0.595414,0.524879 0.368147,3.927888 -0.400904,4.00904 -2.215427,0.37905 -2.811497,1.28421 -4.285493,1.9894 -2.751204,1.31623 -6.996744,1.69624 -11.06058,0.19782 -4.063836,-1.49842 -6.00904,-2.849303 -8.126706,-7.653719 -1.036786,-2.352191 -0.944365,-5.429831 -0.07307,-7.407832 1.409741,-3.200375 3.115535,-5.785448 7.932507,-7.656355 4.06211,-1.577719 7.764362,-0.57774 11.826676,0.80181 1.062604,-0.68077 1.14347,-2.99993 3.474503,-0.66818 l -0.06682,6.28084 c -4.02963,1.69839 -3.212092,-0.59797 -3.073599,-1.87088 -1.802055,-0.04948 -2.556202,-0.110983 -4.142676,-0.80181 -1.544951,-0.672746 -4.051259,-0.467195 -5.547933,0.279793 -4.493581,2.242738 -6.31347,9.085915 -0.63059,13.43029 2.489869,1.903423 5.755345,1.927507 7.915775,0.187927 v -2.60587 l -1.870887,-1.46998 c -1.09921,-1.29181 -0.519417,-2.58361 -0.06682,-3.87541 z"
       style="display:inline;fill:#ecf8ec;fill-opacity:1;stroke:none;stroke-width:0.26458332px;stroke-linecap:butt;stroke-linejoin:miter;stroke-opacity:1" />
    <use
       transform="translate(144.70139,-0.29232604)"
       height="100%"
       width="100%"
       id="use5285"
       xlink:href="#path5258"
       y="0"
       x="0" />
    <use
       transform="translate(254.61599)"
       height="100%"
       width="100%"
       id="use5296"
       xlink:href="#path5211"
       y="0"
       x="0" />
  </g>
</svg>
