<svg xmlns="http://www.w3.org/2000/svg" xmlns:xlink="http://www.w3.org/1999/xlink" viewBox="0 0 372.9 148.6" height="561.7" width="1409.2"><path d="M182.5 10c-11.4.8-13.3 10.8-16.3 19.6-2.3 9.4-4.5 18.6-4.5 30.6-2.3 5-1.2 13.7-1.4 21.5-.4 7.9-.5 15.4 3.1 22 1.7 2.3 3.1 5.2 1.6 8.2-3.3 1.6-3 4-.4 7 .5 1.8-.6 3.6 1.2 5 1.3.4 2.3 1 2.3 2.3-2.6-1-3 1.6-3 1.6-.2.8 1.8 1.5 3.4 2.3-3.3.8-6 3.5-9 4.3-2.8.3-5 .8-5.6 4.2h34.9c2-2.5 9.1-2 10.9 0h17.2a37.9 37.9 0 0 0-10-8.3c-2.8-4.1-1.2-5.5-.4-8.3 5.6-5.7 8.5-15 9.8-26.7 3-8.7 1.4-17 .3-25.8-2-12.4-5-24.8-10.5-37.2-1.3-6.8-5-6.9-8.4-8-3.9-4.6-4.7-11-11.2-12.5-1.1-.3-2.8 3-5.2 2 1.2-1.5 2.2-3.7 1.2-3.8zm3.3 11.8c3.3-.2 5.6 6 8.2 10.7 1 2.5-.9 3.6-2 5-6.1 2.3-5 7.7-7.4 11.5-4.7 5.4-5.3 12.1-6.3 18.7-2.6 6.5-2 12.9.8 17.8-.4 5.2.8 8 3.2 10 4.5 1.2 9-.5 13.6-4 1.2 2 2 4 1.3 7.2-2.7 5-4.2 10-4.5 14.9-1.8.9-2.7 2.5-2.5 5-7.7-2.4-8.2-10.2-11.7-15.7a74.8 74.8 0 0 0-3.5-17.7 64.5 64.5 0 0 1-.8-21c3-6.3 2.7-13.6 3.1-20.6.7-9.1 2.4-17.4 8.5-21.8zM195 61c1 0 2.2.2 3.5.7 2.3.3 2.6 1.4 2.5 2.8-.6 2-1.7 4.5-1.4 8.4.2 2 3.2 3.6 4.4 5.8.6 1.7-1.4 3.4-2.6 4.3-2.6 2-6.8 2.4-8.1 0-1.1-2.2.3-7.5-.6-10.7a9.7 9.7 0 0 1-1.6-10.6c1.2-.8 2.5-.7 3.9-.7zM166.6 114c1.4.3 1.1 4.2-.5 4-1.2-.3-1-4 .5-4zm2.6 5.8c.7 0 1 2.3-.4 2.3-1.2-.2-1-2.1.3-2.3z" fill="#226ded"/><g transform="translate(-5 -17)"><use transform="translate(72.2)" height="100%" width="100%" xlink:href="#a"/><path d="M227.4 115.3v2h4.3l.2 10h6.2l-.1-10h4.4v-2zM209.5 115.6v11.7h3.8v-5.9h1l6.6 5.9h3.4v-11.7h-3.4v7.2h-1.1l-6.6-5.5v-1.7z" fill="#96dc28"/><use transform="translate(36.3 -.2)" height="100%" width="100%" xlink:href="#b"/><path id="a" d="M188 115.2h-11.2a3 3 0 0 0 0 6h3c3.5 0 3.4 4.1 0 4.1h-6.5v2h9.4c7.7 0 7.7-8-.2-8h-1.3c-2 0-2-2 0-2l6.8-.1z" fill="#96dc28" stroke-width=".3"/><path id="b" d="M154.5 115v12.6h15v-2.3h-8v-3.9h6.1v-2h-6v-2.2h8v-2.1z" fill="#96dc28" stroke-width=".3"/><path d="M149.4 115.1h-13l.1 12.2h4.6v-3.9h4.6l2.6 4h3.6v-2l-2.5-3c3.7 0 3.7-7.3 0-7.3zm-2 2.3v3.3H141v-3.3zM123 117.6v3.2h6.2v-3.2zm-4.5 9.6l.1-12h11.5c5 0 5 8.4.1 8.4h-7.5v3.6z" fill="#96dc28"/></g><g transform="translate(-5 -17)"><path d="M342.6 96c-2.7 1.9-4.7 5.1-.1 5.9h7c3-.5 4-2 .4-5v-5.3l9.8 12.1c2.1.6 4.3.1 6.4-1.1 3.8-2.6.4-4.8-1.8-2.9l-10.3-9 11.2-7.3c1.4-1 1.5-4.2-.4-4.2l-5.7-.1c-4 .2-2.1 2.6-.4 3.2l-8.8 6.8v-5.7c2.5-1.4 3.3-4.1.2-4.2h-7.3c-3 0-4 3.2-.3 4.2zM249 79.1l-15.1.1c-3 .9-3.6 2.3-.3 4.5l-.1 13.3c-2 1.3-4.4 4.3.2 5.4h8s3.6-2.1-.7-5l-.2-4.8 3.4-.2s3.4 7.3 5.2 9.4c2.7 1.5 5.4 2.4 7.4.9 5.1-2.4.6-5-1.6-3l-6.1-8.8c6-1.9 6.9-9.8-.1-11.8zm-6.9 3.4c3.2 0 5.5.5 5.5 3 0 3.1-3 3.2-6.8 3.5l-.1-6.5h1.4zM199.5 96.7v-13c-1.7-.2-3.8-4.5.4-4.5h15.4c3.3.1 6.3 2.4 4.6 4.3-1.8 1-4.2-1.4-5.8-1.9-3-.2-4.7 0-7.3 0v7.1h6c5-3.1 5.5.3 4.2 2.4-1.3 1.6-3 .9-4.7.3h-5.6v6c2.4 1 3.2 3.3 1 3.6H199c-2.3-.8-1.3-3 .5-4.3z" fill="#ecf8ec"/><path id="c" d="M126.7 83.7l.2 13.1c-2.6 1.4-3.5 4.5 0 5h11.8c.9 2 4.5 3.3 7.8.2 4.2-4.5-1.3-6.2-3.4-3h-9v-7h6.2c.4 2.8 3.3 1.2 5.4-1.8 1.8-2.9-2.8-4-5.3-1.3h-6v-7.3h5.5c6 5.1 7.2-.7 4.4-2.5l-17.1-.1c-3.4.1-2.7 2.1-.5 4.7z" fill="#ecf8ec" stroke-width=".3"/><path d="M93.4 78.3h-7.2c-.5 1.7-.3 3.6 2 6L88 96.8c-2 1.2-1.9 4.3-.5 4.8h5.1c1.2 0 1.8-3.2-1.2-5l-.1-6.5 6.5 11.3h4.4l5.9-15 .3 10.6c-2.8 3-.9 4.5.2 4.6h5.6c1.2-1 1.4-2.7-.4-4.7V83.3c4-1.9 2.7-5 .2-5l-7 .1-6 16.5z" fill="#ecf8ec"/><path d="M59 92.6h6.3c-.8-2.7-1.8-6.2-3-6.9-1.8.8-2.6 4.2-3.3 7zm.1 9.5l-8.9.2c-2-.8-1.8-3.3 0-3.8l9.3-19c1.8-1.5 7.4-1.5 8.3 0l8.5 19c2.9 1.5.8 3.1.6 3.6h-10c-3-1.4-2.2-2.8 0-4v-2.3h-9.7v2.7c2.5 0 3.4 2 2 3.6z" id="d" fill="#ecf8ec" stroke-width=".3"/><path d="M31.3 88.7c3-.4 6.1-.6 9.3-.2.3 1.4.8 2.8 0 4-1.2.5-1.9 2.4-1.1 3 .6.6.4 4-.4 4-2.2.4-2.8 1.3-4.3 2-2.8 1.4-7 1.7-11 .2-4.1-1.5-6-2.8-8.2-7.6a10 10 0 0 1 0-7.4c1.3-3.2 3-5.8 7.9-7.7 4-1.6 7.7-.6 11.8.8 1-.7 1.1-3 3.5-.6l-.1 6.2c-4 1.7-3.2-.6-3-1.8a9 9 0 0 1-4.2-.8c-1.6-.7-4-.5-5.6.2-4.5 2.3-6.3 9.1-.6 13.5 2.5 1.9 5.8 1.9 8 .2V94l-2-1.5c-1-1.3-.5-2.6 0-3.9z" fill="#ecf8ec"/><use transform="translate(144.7 -.3)" height="100%" width="100%" xlink:href="#c"/><use transform="translate(254.6)" height="100%" width="100%" xlink:href="#d"/></g></svg>