<?xml version="1.0" encoding="UTF-8" standalone="no"?>
<!-- Created with Inkscape (http://www.inkscape.org/) -->

<svg
   xmlns:dc="http://purl.org/dc/elements/1.1/"
   xmlns:cc="http://creativecommons.org/ns#"
   xmlns:rdf="http://www.w3.org/1999/02/22-rdf-syntax-ns#"
   xmlns:svg="http://www.w3.org/2000/svg"
   xmlns="http://www.w3.org/2000/svg"
   xmlns:sodipodi="http://sodipodi.sourceforge.net/DTD/sodipodi-0.dtd"
   xmlns:inkscape="http://www.inkscape.org/namespaces/inkscape"
   width="683mm"
   height="516mm"
   viewBox="0 0 683 516"
   version="1.1"
   id="svg883"
   inkscape:version="0.92.2 5c3e80d, 2017-08-06"
   sodipodi:docname="grass-patch.svg">
  <defs
     id="defs877" />
  <sodipodi:namedview
     id="base"
     pagecolor="#ffffff"
     bordercolor="#666666"
     borderopacity="1.0"
     inkscape:pageopacity="0.0"
     inkscape:pageshadow="2"
     inkscape:zoom="0.35355339"
     inkscape:cx="3338.4433"
     inkscape:cy="1816.823"
     inkscape:document-units="mm"
     inkscape:current-layer="layer1"
     showgrid="false"
     inkscape:window-width="1440"
     inkscape:window-height="851"
     inkscape:window-x="1920"
     inkscape:window-y="180"
     inkscape:window-maximized="0" />
  <metadata
     id="metadata880">
    <rdf:RDF>
      <cc:Work
         rdf:about="">
        <dc:format>image/svg+xml</dc:format>
        <dc:type
           rdf:resource="http://purl.org/dc/dcmitype/StillImage" />
        <dc:title />
      </cc:Work>
    </rdf:RDF>
  </metadata>
  <g
     inkscape:label="Layer 1"
     inkscape:groupmode="layer"
     id="layer1"
     transform="translate(0,219)">
    <path
       style="display:inline;fill:#9cdf55;fill-opacity:1;stroke:#405048;stroke-width:2;stroke-linecap:butt;stroke-linejoin:miter;stroke-miterlimit:4;stroke-dasharray:none;stroke-opacity:1"
       d="M -2,-186 H 8.5833809 c 5.0014851,-9.53252 4.8630691,-7.92354 10.8965381,0 h 4.62242 c 8.504172,-8.11319 8.927216,-14.87488 16.682991,-4.92728 l 8.77987,-0.10959 c 6.382827,-8.06457 6.151123,-7.11604 11.932174,0.59336 5.609965,-8.46452 5.340277,-7.8764 11.467205,-0.48377 l 14.899002,-0.0869 c 8.819738,-8.09115 8.992762,-12.45609 16.531899,-2.90652 7.73593,-12.04976 6.32834,-8.46931 15.38941,3.89011 3.98802,-9.51441 5.83079,-10.71979 10.70946,-1.08378 7.99883,-1.22991 10.81736,-0.40402 16.4638,4.58367 5.41041,-7.40852 5.48715,-6.11234 11.50595,-0.0935 9.81237,-12.43041 9.81204,-10.57684 20.01849,0.0935 8.12724,-1.05208 10.74773,-0.0138 16.27671,5.2387 5.40655,-7.30149 5.15908,-6.87775 10.57051,-0.18727 7.13847,-8.05712 14.50241,-7.39647 21.79583,-0.46772 5.23792,-6.99416 5.15379,-5.97658 10.47697,0.1871 5.79117,-7.52893 5.72067,-6.43825 11.59949,0.18708 h 8.98026 c 8.8207,-8.16238 9.2637,-13.71811 17.49278,-4.42719 10.47488,-12.24537 10.17371,-11.59931 20.01848,0 6.28642,-7.42921 6.09838,-6.74577 12.44142,0 l 4.20949,-0.62416 c 5.52079,-7.57539 5.35033,-6.64151 10.85115,0.1871 5.51165,-7.28803 5.19271,-7.27399 10.5705,-0.37418 h 16.46381 c 5.06144,-6.71844 4.83116,-6.26874 9.72859,0 l 5.8933,-1e-5 c 8.76237,-8.83782 8.70889,-13.08152 17.02507,-3.64822 l 8.60609,-0.0935 c 5.89076,-7.65207 5.63777,-7.1503 11.31886,10e-6 6.1747,-8.24816 6.03655,-7.16117 12.2543,0.18709 l 13.75102,-0.0935 c 8.55509,-8.07541 8.91961,-13.97834 16.83799,-4.58368 6.43018,-9.24812 8.95479,-2.27579 15.6219,4.20949 5.99224,-7.09186 5.84614,-6.62257 11.69303,-0.0935 7.57008,-0.96482 9.85433,-0.0921 14.87354,4.92706 5.77492,-6.88042 5.64683,-6.34792 11.22534,0 10.5883,-11.70844 10.46223,-10.69244 20.86038,0 7.96042,-1.13148 10.33473,-0.6728 15.6219,4.61437 6.06979,-7.6036 5.82263,-7.33797 11.7866,-0.28063 7.5128,-7.96448 13.64268,-6.7453 19.92495,0.46768 6.2699,-7.3576 6.06658,-6.99004 11.97366,0 5.53905,-7.44703 5.36824,-6.72456 11.03824,-0.0935 l 8.98025,-1e-5 c 8.32582,-8.00837 8.72522,-13.27549 17.02506,-4.70791 11.14231,-12.38944 10.92665,-11.93493 21.04748,0 5.95932,-7.10888 5.71552,-6.7047 11.50595,0 h 4.39658 c 5.83919,-7.67608 5.54711,-7.36034 10.94469,0 5.49409,-7.40889 5.13355,-7.09033 10.47696,0 L 685,-186.43699 v 61.63833 l -687,1.05745 z"
       id="path968"
       inkscape:connector-curvature="0"
       sodipodi:nodetypes="ccccccccccccccccccccccccccccccccccccccccccccccccccccccccc" />
    <path
       style="display:inline;fill:#679e5e;fill-opacity:1;stroke:none;stroke-width:0.26458332px;stroke-linecap:butt;stroke-linejoin:miter;stroke-opacity:1"
       d="m -1,-150.282 c 1.7827978,3.51555 3.9660657,7.03122 8.6004771,10.54677 1.5525151,-6.24285 3.5761829,-12.01454 7.6004769,-15.78561 0.493832,3.79417 1.432565,7.23241 4.396584,9.05042 3.077379,-2.50985 6.167228,-5.07583 10.219717,-11.97368 2.383361,3.43814 4.642527,6.97977 4.092565,12.86235 3.074339,-3.83421 5.492198,-9.63786 9.939086,-9.35443 3.337107,8.24758 8.025248,9.06447 12.277693,12.27769 2.269463,-5.46617 5.674898,-8.3764 9.939086,-9.35443 0.562816,4.74272 1.368775,8.75602 2.923262,10.52373 5.55271,-6.08493 11.197039,-12.49052 15.785605,-15.20095 0.470745,6.92524 -0.384685,15.97236 2.33861,19.29352 3.118144,-0.59329 4.178313,-9.7382 6.361014,-17.21216 2.43966,3.21971 3.034246,7.91549 2.993419,13.11959 3.118145,-2.48349 6.236295,-5.18948 9.354435,-5.26186 0.19173,3.21716 0.2167,6.51771 2.33861,8.76978 5.97195,-4.04368 9.24975,-11.23052 12.27769,-18.70887 2.93821,4.5723 3.53972,10.31295 3.50791,16.37026 4.31117,-6.41064 7.97302,-13.34073 14.63969,-17.86697 0.6403,5.39519 1.93274,9.70348 4.06918,12.6051 4.18082,-5.84652 5.78905,-11.69304 7.01582,-17.53956 6.65032,1.58158 9.60847,6.85533 13.447,11.2487 5.32202,-2.7186 9.53537,-7.37738 12.86235,-13.58731 1.0941,4.02075 1.39282,8.51874 0,14.03165 3.39211,-3.07861 5.03439,-7.03212 11.10839,-8.76978 1.53503,5.50484 3.98585,9.1781 7.01582,11.69304 5.76294,-8.47553 11.08774,-14.45838 20.32251,-18.96611 -0.53483,6.59162 -2.63104,12.54783 1.30962,17.79681 3.55672,-2.71609 2.71061,-8.73742 4.37319,-13.82118 6.74809,4.29554 12.80642,9.53782 18.07745,17.70327 6.32825,-5.01217 14.78736,-2.18704 19.64431,-12.06722 3.7859,6.25639 8.16585,10.33457 13.44699,11.10839 1.44485,-1.91134 1.93615,-7.01249 2.38539,-12.25432 2.71279,1.80901 5.42557,3.98378 8.13836,11.66967 4.04458,-2.14074 7.4757,-6.73533 10.52372,-12.86235 0.56204,5.76579 4.0922,6.78258 7.01585,8.76978 -1.15015,-5.12409 -0.1917,-8.98302 1.12252,-12.62848 6.1104,4.36831 11.2844,11.07761 16.41703,17.89035 2.02861,-6.10719 5.01924,-11.66465 10.52375,-15.78561 -0.24529,6.50854 -1.90101,13.546 1.56686,18.6621 3.96004,-1.4415 7.92009,-5.04488 11.88013,-10.47697 1.2997,2.36943 2.59763,4.74503 2.92325,10.52374 4.09257,-4.34655 8.18513,-8.61897 12.2777,-10.52374 1.25742,2.44005 1.33218,5.38696 5.84653,6.43118 2.92367,-4.8717 6.86151,-8.72922 12.27769,-11.1084 -0.73467,3.88707 -2.24989,8.92426 0.42095,9.89232 3.6796,-1.61705 6.75326,-7.74238 9.51813,-11.64627 3.69182,4.00472 7.50539,8.98344 11.69305,16.95491 3.65634,-4.3339 7.3521,-8.62839 13.44699,-10.52374 0.30105,4.71284 0.66816,9.32661 2.92325,11.10839 4.8909,-8.83315 10.43246,-13.11161 15.78563,-18.70886 0.14437,8.55338 -4.35942,19.43084 1.9878,24.88279 3.72651,-2.06816 3.26157,-11.48665 4.67723,-18.63871 3.17052,2.46552 4.32848,6.9436 5.02799,11.88013 2.93242,0.31523 5.07261,-1.35012 7.01582,-3.50791 2.91288,1.8908 2.25884,6.15955 2.33863,9.93908 6.63027,-2.57762 11.00741,-10.03701 14.66306,-19.05965 1.87317,2.85556 2.48199,8.66127 2.87648,14.96709 5.34568,-4.40943 8.82689,-12.17491 11.69305,-21.04748 2.2301,2.40503 4.11351,6.89022 5.84653,12.2777 4.53818,-1.8835 7.42211,-7.62693 10.52375,-12.86235 3.23105,0.9636 6.03087,4.94579 8.76977,9.35443 4.54522,-0.99306 8.81591,-4.45694 12.86235,-9.93908 0.19548,5.65074 1.91516,9.01516 4.09255,11.69304 2.57698,-4.03169 5.48418,-7.60106 10.52374,-8.18513 -1.88621,3.74456 1.16603,6.59122 4.67723,9.35443 5.69623,-7.361 11.361,-14.75345 20.46282,-18.70886 -0.4096,6.70977 -1.53535,13.82877 1.37977,18.63871 1.97231,-6.61792 4.41993,-11.3346 7.39,-13.9615 3.65884,6.87737 7.08778,14.55937 11.69305,18.12422 3.54822,-2.16616 7.25049,-3.92152 9.35443,-9.93909 1.45911,2.31033 2.92442,4.61034 2.92327,9.35444 4.45663,-2.85794 7.46829,-7.5221 9.93907,-12.86235 3.9932,5.6632 7.81899,12.33084 12.2777,15.20096 0.95395,-8.87481 4.15213,-11.57796 7.01583,-15.20096 1.21668,3.36399 1.53745,8.22117 4.09257,9.35443 5.18179,-0.79767 5.87802,-6.97801 8.76977,-10.52373 1.64522,1.62687 3.4922,2.04319 4.67723,6.43117 3.70759,1.19568 5.95929,-5.61602 8.76977,-9.35443 4.56514,8.40426 8.6559,12.56571 12.25432,16.13639 4.2048,-1.25585 6.4139,-7.00203 8.67621,-12.62848 3.27879,1.82331 4.47889,6.93195 7.13277,15.78561 3.60807,-3.35363 6.84841,-6.86485 7.01582,-11.69305 2.22148,1.62082 3.85879,5.88385 4.63428,9.91467 V 297 H -1 Z"
       id="path966"
       inkscape:connector-curvature="0"
       sodipodi:nodetypes="ccccccccccccccccccccccccccccccccccccccccccccccccccccccccccccccccccccccccccccccccccccccc" />
  </g>
</svg>
