<?xml version="1.0" encoding="UTF-8" standalone="no"?>
<svg
   xmlns:dc="http://purl.org/dc/elements/1.1/"
   xmlns:cc="http://creativecommons.org/ns#"
   xmlns:rdf="http://www.w3.org/1999/02/22-rdf-syntax-ns#"
   xmlns:svg="http://www.w3.org/2000/svg"
   xmlns="http://www.w3.org/2000/svg"
   xmlns:xlink="http://www.w3.org/1999/xlink"
   id="svg8"
   version="1.1"
   viewBox="0 0 1280 720"
   height="720mm"
   width="1280mm">
  <defs
     id="defs2" />
  <metadata
     id="metadata5">
    <rdf:RDF>
      <cc:Work
         rdf:about="">
        <dc:format>image/svg+xml</dc:format>
        <dc:type
           rdf:resource="http://purl.org/dc/dcmitype/StillImage" />
        <dc:title></dc:title>
      </cc:Work>
    </rdf:RDF>
  </metadata>
  <g
     style="display:inline"
     id="layer2">
    <path
       id="path844"
       d="M 0.6747543,226.59975 -9.2255699,525.09393 232.8204,519.2474 c 16.99967,-17.83141 33.86619,-35.21899 45.00972,-33.52993 80.15497,-4.90244 156.85223,-54.75495 242.04596,5.84653 6.89636,15.88999 13.20044,26.44947 18.68652,29.64696 63.44296,-48.96561 151.93449,-23.95173 242.04596,5.84652 3.0348,9.42521 0.64413,17.94617 11.21378,28.62718 78.96909,-27.83779 160.31893,-14.27518 242.04596,5.84652 -75.10375,-101.9018 130.7792,-38.14724 224.9417,-40.25776 12.574,-8.03579 22.9214,-12.73165 29.8567,-12.30944 l -8.7127,-298.05214 z"
       style="fill:#103700;fill-opacity:1;stroke:none;stroke-width:0.26458332px;stroke-linecap:butt;stroke-linejoin:miter;stroke-opacity:1" />
    <path
       id="path816"
       d="m 0.33754479,122.70777 c 2.57218701,-5.83613 5.10693301,-8.31121 11.80052021,-10.37838 -4.7433362,18.57019 4.654719,30.95353 10.476965,44.90128 -0.628791,-16.14979 -1.607929,-33.40067 2.547255,-34.51511 3.786946,19.02295 9.144617,33.35651 16.909965,40.50194 -0.0063,-15.57345 -1.107461,-28.13592 1.496711,-50.88811 16.358824,26.40969 19.95523,40.63707 20.953931,52.38482 15.907915,-13.30641 29.263355,-29.51549 41.023328,-49.04382 3.14347,17.67008 2.41802,36.8282 -3.60559,58.02408 5.98684,-11.89687 11.97367,-28.15938 17.96051,-34.42432 7.92318,17.62967 15.22231,26.52254 22.45064,34.42432 -3.91872,-33.6233 -13.62047,-46.59834 -22.18606,-67.60872 25.33284,13.47892 43.51143,32.05273 49.46663,59.33142 6.09748,-17.17748 15.76082,-35.59962 22.557,-46.48878 l 2.38125,39.96499 c 8.00181,-9.17952 12.84813,-30.98096 24.11336,-27.10677 -2.80518,-13.28844 -6.31031,-27.66568 -2.99342,-31.4309 6.28199,9.43728 9.73446,16.24389 15.31468,18.66347 3.23372,-11.90919 14.98998,-19.072393 26.59318,-18.66347 -15.56684,14.55743 -17.99329,25.57707 -15.2991,35.21807 2.67923,-7.23544 7.87444,-13.10197 16.78802,-15.48847 -2.3859,12.78646 2.29245,19.29357 5.99463,26.66839 4.90234,-20.30907 -2.48783,-42.5681 -13.03201,-69.196208 21.37048,7.10229 36.83672,22.639208 43.40457,50.888108 10.641,-14.66513 16.02377,-32.485198 23.50896,-49.043818 0.88091,15.04577 0.14115,32.792648 2.90264,44.704118 4.15839,-15.21467 9.50511,-24.487711 15.05789,-32.730438 4.98903,18.963268 9.97805,41.447208 14.96708,55.378238 2.52782,-23.89201 -5.53112,-47.784031 -10.93092,-71.676038 17.97671,8.42777 26.91985,19.16085 40.67575,53.616948 6.86322,-17.40305 16.88014,-37.265428 25.80722,-47.100948 -0.0804,18.474838 -3.35568,32.253678 1.05834,41.038898 7.15522,-15.52773 13.78907,-31.651308 25.70863,-41.734068 -2.71774,21.835858 -4.47918,40.962188 -2.99342,50.888118 3.45423,-11.94979 5.27779,-28.38392 11.26291,-33.373771 0.34779,9.076071 4.56516,20.731871 9.07106,32.580021 1.95028,-12.16934 3.94436,-24.30947 10.03081,-33.721358 3.8529,11.566628 8.89974,19.153438 14.86849,23.667188 9.6839,-24.108448 22.98986,-42.985048 39.02084,-57.925487 -3.12176,19.873119 -12.56278,39.746237 -8.73125,59.619357 15.29598,-19.21817 30.02847,-39.788708 48.70402,-50.895897 -8.78696,30.232807 -7.53846,49.373797 -3.00123,64.879867 5.74816,-17.39767 4.64349,-43.932438 17.96831,-51.227908 4.86661,8.98624 9.91995,21.520478 15.48847,43.842948 7.86398,-30.784571 -7.45956,-48.784738 -17.08375,-72.015847 25.1614,16.0911 45.82422,33.770019 52.74019,58.983827 1.65785,-12.19628 4.28619,-23.699348 10.84014,-32.398428 3.93622,12.43396 9.54404,19.295958 15.57925,24.733308 l 14.48332,-8.739991 C 654.78341,87.332582 649.49872,75.369802 645.2461,61.441273 c 12.47258,8.76642 24.94517,24.706619 37.41775,43.404567 -5.90936,-29.337588 8.06546,-39.625187 -0.88456,-59.437777 25.09791,8.990197 7.81829,26.493943 37.07794,-0.87675 0.88565,13.24938 -8.81374,21.25164 -10.84014,32.852389 6.57102,-3.412559 10.62263,-15.832679 18.05131,-15.942429 -2.02843,13.855069 -0.0787,20.637779 4.23333,23.221019 -2.306,-19.789229 -9.17349,-42.429379 -1.06611,-55.710239 10.68064,22.37975 15.03994,44.60276 32.8368,57.925489 4.04054,-10.81292 7.38308,-22.882239 14.78552,-27.643729 3.789,7.83604 6.69894,18.309239 9.07884,30.372569 3.50843,-12.69496 7.16578,-24.719749 12.06447,-31.158529 1.89324,11.88175 1.93315,27.006829 6.33442,34.499529 3.93079,-17.93731 -0.28066,-32.960359 2.55505,-44.976489 8.20811,7.21202 15.50167,24.48421 23.05499,38.898859 2.6746,-10.96551 2.68253,-25.664349 1.85209,-41.536909 10.79648,9.29143 15.91204,27.81437 21.21853,46.027039 8.0083,-26.924149 26.97213,-44.798079 51.16049,-58.356089 -13.71555,26.4706 -23.26553,51.774839 -19.45722,73.338757 5.59001,-14.008118 9.2942,-31.249058 19.45722,-37.417727 8.58874,7.254829 12.03037,27.377449 16.62981,44.605537 6.03588,-20.855348 -5.34054,-50.706527 -2.1919,-69.445217 10.44152,17.95959 20.66886,36.151189 39.35283,45.181439 7.17243,-13.74949 8.7947,-31.569099 25.53484,-38.302269 -0.52308,12.34385 -1.28016,24.821419 2.99344,34.424309 3.7009,-13.380209 10.48207,-26.649329 14.88396,-33.018389 0.4395,12.42047 -1.0214,20.9877 6.2437,32.043059 4.3066,-15.132539 8.7985,-30.281919 5.5484,-44.727489 12.7115,12.15601 20.8123,31.99648 27.2054,54.683079 1.2345,-10.73915 1.5364,-22.410959 7.4835,-28.437479 8.0596,9.854629 11.7072,26.768379 16.4638,41.907857 7.3195,-11.449488 7.756,-28.085378 0.9675,-41.651057 28.8273,17.736489 2.3283,10.93201 45.6199,-3.96097 -6.285,11.70968 -20.4264,22.562019 -19.6466,36.631766 5.6061,-7.653317 11.8206,-12.872757 18.8372,-14.884087 0.3712,5.52868 -3.1141,12.2143 3.6134,15.836057 4.2403,-20.938897 17.3451,-28.383426 36.1779,-39.594036 -8.3446,13.37959 -19.9983,26.759189 -21.2108,40.138777 7.885,-1.405111 11.484,-1.170551 16.5468,7.30197 2.6118,-8.820951 8.7407,-16.799288 14.9671,-25.444058 5.5254,11.23055 8.2943,21.086898 10.3862,33.109188 11.5228,-21.877868 15.2067,-46.490247 55.386,-58.371667 -16.9939,26.236589 -22.3322,51.501877 -22.4506,76.332177 7.6616,-14.78905 8.6442,-38.373738 22.0952,-47.373318 8.6461,16.356638 10.9261,33.509038 14.1734,50.540528 11.1615,-16.78084 -2.7973,-47.754288 -0.4384,-67.888867 11.1109,18.907839 20.4264,27.425679 40.585,41.461687 l -0.083,137.00987 -1279.53141921,-0.0422 z"
       style="display:inline;fill:#509618;fill-opacity:1;stroke:none;stroke-width:0.26458332px;stroke-linecap:butt;stroke-linejoin:miter;stroke-opacity:1" />
    <path
       id="path1298"
       d="M 0.31938079,246.99102 1279.8508,247.03322 1279.6865,721.4967 0,719.64462 Z"
       style="display:none;fill:#1c5708;fill-opacity:1;stroke:none;stroke-width:0.26458332px;stroke-linecap:butt;stroke-linejoin:miter;stroke-opacity:1" />
    <path
       id="path818"
       d="M 0.67475431,226.59975 C 3.774396,222.52026 3.107499,216.5575 11.541475,215.14517 c 7.768659,3.36763 8.965175,9.65622 12.699999,14.81667 11.115742,-10.49967 22.951378,-15.48016 37.041664,-3.175 2.855575,-5.58725 6.345191,-10.64613 12.170833,-13.75833 5.934801,3.88836 7.414646,8.33359 9.525,12.7 1.350218,-8.08708 1.891518,-15.58861 5.291667,-21.16667 5.306079,8.48452 10.611224,16.97931 16.404172,20.10833 5.24728,-7.7065 9.96715,-16.33596 13.22917,-27.51666 3.73955,3.81005 5.35648,6.55879 12.7,12.17083 3.39288,-6.48489 8.43104,-11.32452 14.81666,-14.81667 2.61854,11.23166 4.9862,23.15322 9.525,29.10417 4.14737,-5.87814 6.0628,-13.24425 14.2875,-16.40417 0.62909,9.91165 1.62728,18.80831 4.23333,23.28334 1.54446,-7.66656 3.81267,-10.99065 6.35,-12.7 16.3144,14.40262 31.18587,-0.53461 46.0375,-15.875 8.30637,7.12289 8.82167,15.804 12.7,23.8125 16.12356,-13.08003 22.57705,-31.96211 31.75001,-49.2125 10.91979,22.22235 25.94496,5.67166 41.275,-13.75833 7.07243,8.88339 9.98433,18.7269 10.58333,29.10416 6.32156,-6.17928 13.04216,-11.66025 17.4625,-21.16666 8.49531,4.21042 9.83467,8.60777 13.34655,16.80493 17.5026,-20.30534 24.0288,-42.56233 42.33333,0 12.7663,-8.15139 25.04332,-11.01861 35.33678,7.53673 -1.26539,-16.06055 4.00762,-23.53145 28.04584,-6.35 13.33662,-14.12188 29.83077,-49.294 33.3375,2.11667 8.52206,-4.23552 21.94205,-33.61372 23.81247,-3.70417 7.33747,-13.47136 13.7081,-12.19856 19.05,4.7625 14.14602,-7.12295 24.0759,-18.13223 31.75,-31.22083 9.15096,11.1125 11.41869,22.225 12.17083,33.3375 7.47729,-5.32882 13.50773,-12.34562 17.99167,-21.16667 0.78733,5.79279 1.5052,11.75922 4.23333,12.7 10.36909,-15.50555 15.02767,-1.88751 20.6375,6.87917 5.99722,-1.66378 11.99445,-2.91059 17.99167,-7.9375 0.11302,9.34861 -3.7028,18.69722 3.175,28.04583 7.5258,-23.80956 13.50485,-10.49697 19.05,13.22917 6.58621,0.34635 12.30707,-3.80715 16.40417,-16.40417 8.83883,-2.27036 6.89403,10.86448 9.52499,17.4625 2.49721,-4.3542 3.71076,-11.2757 8.46667,-11.1125 3.95205,7.01511 8.82723,8.95298 13.75833,10.58333 15.09951,-11.92241 34.27675,-47.14611 39.6875,-3.70416 7.36686,-3.26104 18.98014,-18.35142 20.10834,-4.23334 6.56247,-1.79596 13.23889,-3.85239 16.40416,2.11667 13.94744,14.74306 25.47928,-12.38411 38.1,-20.6375 3.27337,10.2102 6.92025,19.6734 12.17084,25.92917 6.60416,-3.62639 11.19746,-9.26365 14.81666,-15.875 8.97517,4.07761 17.81384,8.29172 24.34167,14.81666 15.94181,0.99505 31.57998,0.67436 46.0375,-4.7625 13.74617,-3.65246 13.91582,-8.66258 18.52083,-13.22916 6.70278,7.06337 13.40555,15.18405 20.10833,17.99166 2.50144,-11.509 3.5517,-26.7496 12.7,-21.16666 5.94774,1.27176 10.81288,6.44085 19.05,-0.52917 5.46807,13.11904 10.93613,25.16315 16.40423,26.9875 7.0657,-3.93736 12.3015,-11.27307 15.875,-21.69583 15.2941,4.37719 16.6959,12.37848 21.1666,19.57916 12.3103,-2.77494 22.3781,-14.61183 32.8084,-27.51666 8.7726,4.86228 11.3322,14.60623 13.2291,24.87083 7.3157,-4.45204 14.2034,-9.58901 19.05,-17.99167 2.0731,2.55441 4.6195,2.26915 5.2917,13.22917 3.8806,-0.52065 7.7611,0.0824 11.6417,-3.70417 3.1736,0.70695 4.0362,3.7249 4.7625,6.87917 11.5936,3.63643 21.0186,-11.70184 30.6916,-24.87083 6.1849,2.75679 11.0608,10.18864 13.7584,25.4 6.7041,-3.26024 12.2232,-9.18666 16.9333,-16.93334 5.6444,8.34351 11.2889,15.91939 16.9333,16.40417 7.4961,-1.68065 14.3686,-10.22016 22.7542,-2.11667 7.1495,-9.73962 14.0876,-27.72736 21.6958,-19.57916 4.329,7.7957 8.6093,15.61226 9.525,24.87083 6.1135,-3.62807 12.1605,-7.36683 15.3459,-15.875 l 0.1615,126.31573 -1279.49943699,0.0234 z"
       style="display:inline;fill:#3c8600;fill-opacity:1;stroke:none;stroke-width:0.26458332px;stroke-linecap:butt;stroke-linejoin:miter;stroke-opacity:1" />
  </g>
  <g
     style="display:inline"
     id="layer3">
    <g
       id="g1094">
      <g
         id="g1057">
        <path
           id="path824"
           d="m 254.02148,233.28443 c 12.95393,1.58249 27.40622,-2.82844 36.24842,15.20096 -0.96166,-8.8481 3.90604,-8.95216 7.01585,-11.69305 0.10112,-6.73532 -10.63138,-19.66127 -17.53957,-30.4019 15.41151,7.41979 33.89249,11.25852 43.26424,25.72469 -2.91621,-10.19573 -2.42027,-16.52854 1.44087,-23.0436 16.89691,-0.63001 27.44438,18.69522 35.97688,37.07525 8.75004,-13.99465 17.75104,-27.78397 43.26424,-28.0633 -1.19357,11.30327 -10.25585,22.60655 -16.37025,33.90982 22.37835,-14.03414 44.21388,-29.69675 69.57359,-34.78681 -2.71813,12.12726 -10.16458,23.72915 -19.87818,35.07914 19.09524,-5.48768 35.0961,-15.346 44.72591,-2.63094 7.75855,-8.43225 17.42596,-18.42577 29.52491,-12.86235 2.08499,7.10645 2.90231,14.7257 -9.64675,25.43237 7.91101,4.24196 15.10385,22.75706 10.81608,27.47865 1.00333,7.64305 -4.5421,17.38476 -12.86235,24.26306 -0.0814,2.60015 3.89747,-2.23003 11.69302,9.35443 1.30374,5.1509 -0.42309,11.06596 3.50793,14.03164 1.0548,4.40885 -2.84715,6.24905 -5.84653,10.52375 3.93565,11.01178 13.75392,17.12139 9.35443,35.07912 -4.55593,1.70948 -11.46523,2.56318 -24.55537,1.1693 -16.15864,-1.04725 -32.51908,1.13428 -47.94147,-11.69302 -6.45748,13.47688 -21.27478,15.80733 -33.90982,21.04747 -12.47258,-11.29021 -24.94517,-20.24575 -37.41775,-15.20097 -7.31369,6.65742 -15.43076,13.3994 -43.26424,22.21679 -18.27515,-7.65249 -32.59953,-2.465 -54.95732,-23.38609 4.96111,-5.84652 6.32957,-11.69303 4.67723,-17.53955 -12.47258,-2.85299 -24.94515,-12.12491 -37.41773,-30.40192 13.96252,3.82856 28.57949,8.31155 35.07913,4.67722 -10.34953,-5.24119 -18.4657,-12.71575 -22.21679,-24.55539 5.45675,-10.1 10.91351,-5.99271 16.37026,-5.84653 -8.70161,-6.26356 -14.34862,-13.74895 -17.53956,-22.21677 6.96051,-5.14715 17.99796,-2.1923 28.06329,-1.1693 -8.19437,-5.42902 -17.23287,-8.32564 -23.38607,-19.87817 -5.20921,-5.11439 1.71837,-6.18319 5.84652,-8.18513 -6.42947,-5.52287 -9.63079,-11.49091 -11.69305,-18.70887 z"
           style="display:inline;fill:#103700;fill-opacity:1;stroke:none;stroke-width:0.26458332px;stroke-linecap:butt;stroke-linejoin:miter;stroke-opacity:1" />
        <path
           id="path1034"
           d="m 249.76666,333.17915 c 9.77176,10.53069 19.97456,20.43876 35.98334,21.96042 5.60884,1.11053 12.54639,0.44812 13.22917,-4.7625 0.62709,-4.35793 -7.79046,-9.26413 -13.49376,-8.99584 -11.88317,0.85222 -23.80112,-3.70024 -35.71875,-8.20208 z"
           style="fill:#54a60a;fill-opacity:1;stroke:none;stroke-width:0.26458332px;stroke-linecap:butt;stroke-linejoin:miter;stroke-opacity:1" />
        <path
           id="path1029"
           d="m 304.01908,242.37011 c 15.26246,-7.35376 30.53155,-8.95088 45.64965,0.56127 -5.7007,4.6534 -4.3732,9.26361 -21.30542,8.71016 -17.30836,0.7057 -19.80139,-5.90434 -24.34423,-9.27143 z"
           style="fill:#54a60a;fill-opacity:1;stroke:none;stroke-width:0.26458332px;stroke-linecap:butt;stroke-linejoin:miter;stroke-opacity:1" />
        <path
           id="path1009"
           d="m 447.21162,291.46741 c 4.2031,5.08208 12.12535,8.46423 18.70887,15.71543 8.56744,-1.43104 12.43063,-8.15436 17.21215,-13.84456 -14.45658,-0.56197 -26.97382,-16.78943 -35.92102,-1.87087 z"
           style="fill:#54a60a;fill-opacity:1;stroke:none;stroke-width:0.26458332px;stroke-linecap:butt;stroke-linejoin:miter;stroke-opacity:1" />
        <path
           id="path1007"
           d="m 412.78731,358.81932 c -6.12722,0.65861 -12.5861,-3.14236 -14.03164,-7.48355 2.23521,-4.9077 7.16378,-7.4213 12.53492,-9.54151 -5.95665,-7.35128 0.9407,-13.93645 5.72225,-18.60318 -6.89739,-3.11947 -14.12632,-5.94424 -17.96049,-11.78657 10.56392,-0.15707 13.93771,-2.58471 18.03799,-4.78293 -5.05384,-2.39877 -26.85916,0.78305 -26.75366,-2.80633 4.1807,-4.77833 7.35095,-9.82257 17.9605,-12.9091 8.37338,4.17831 15.39938,8.35661 16.08963,12.53492 2.31206,4.02145 8.50343,4.86891 14.5929,5.79975 1.11454,6.01777 -5.30001,10.25233 -17.58632,13.09621 3.13415,5.64774 12.21697,2.02506 3.97036,19.68583 -4.32541,2.23217 -7.84312,3.07167 -11.81869,3.55468 1.1611,5.15912 0.4396,9.76727 -0.75775,13.24178 z"
           style="fill:#54a60a;fill-opacity:1;stroke:none;stroke-width:0.26458332px;stroke-linecap:butt;stroke-linejoin:miter;stroke-opacity:1" />
        <path
           id="path1005"
           d="m 326.19136,331.55631 c 1.60549,-7.79601 13.76377,-22.62175 19.24402,-23.06384 4.74209,0.19285 5.09083,7.2619 6.63111,16.84187 6.83598,-2.31955 16.00623,-5.30366 21.43218,-3.74565 1.52113,3.54858 -0.31759,7.93712 -2.99341,12.53493 4.91733,-1.12349 10.09786,-2.74706 11.59952,2.61924 13.81196,-4.83569 11.32238,-0.41915 12.9091,1.68381 -3.37808,5.15594 -5.56351,10.83366 -19.8314,11.22532 -9.75274,-1.21121 -9.19794,-6.46198 -10.38616,-11.03823 -9.07532,4.22481 -10.44322,-3.51269 -14.12246,-8.05651 -13.96111,5.25966 -24.22284,7.29638 -24.4825,0.99906 z"
           style="fill:#54a60a;fill-opacity:1;stroke:none;stroke-width:0.26458332px;stroke-linecap:butt;stroke-linejoin:miter;stroke-opacity:1" />
        <path
           id="path1003"
           d="m 370.64136,275.99384 c 5.69127,-6.7153 12.00383,-9.48457 22.75417,-6.87917 0.64064,-1.47603 0.75157,-3.48177 -1.05834,-7.40835 5.71505,-5.61114 11.02552,3.74737 16.40417,10.58335 18.59247,-2.71747 18.15555,13.59445 25.4,22.225 -11.09671,-4.51329 -22.67887,-13.07201 -32.80834,-9.525 -4.13299,5.92038 -9.27908,9.05475 -14.81666,11.1125 -6.65519,-4.94968 -11.68331,-11.9913 -15.875,-20.10833 z"
           style="fill:#54a60a;fill-opacity:1;stroke:none;stroke-width:0.26458332px;stroke-linecap:butt;stroke-linejoin:miter;stroke-opacity:1" />
        <path
           id="path1001"
           d="m 341.4049,277.71363 c -7.58978,1.09959 -13.20229,6.53473 -14.15521,12.5677 5.8023,4.01061 14.97159,7.64699 29.10417,5.15938 -3.23,5.22336 -7.35022,10.56159 0,14.41976 10.1534,7.71669 20.73484,6.8727 31.22083,7.9375 -1.19358,-5.55031 -4.39782,-11.88596 -11.90625,-16.80101 -3.55469,-2.72387 -6.46999,-4.35522 -16.13958,-7.27605 7.25216,0.69935 11.0252,-2.23202 14.2875,-4.49791 -9.45902,-11.86942 -20.57764,-12.77137 -32.41146,-11.50937 z"
           style="fill:#54a60a;fill-opacity:1;stroke:none;stroke-width:0.26458332px;stroke-linecap:butt;stroke-linejoin:miter;stroke-opacity:1" />
        <path
           id="path999"
           d="m 320.37053,298.748 c -3.58599,0.0308 -7.5454,-0.87185 -6.35,11.11247 -12.52111,3.90836 -12.87428,6.85101 -3.175,8.99584 4.11644,0.80239 5.99796,-11.65181 12.17083,-5.82084 5.64444,4.76249 10.23056,4.76251 13.75833,0 0.88774,-5.19558 -1.57496,-11.45227 -16.40416,-14.28747 z"
           style="fill:#54a60a;fill-opacity:1;stroke:none;stroke-width:0.26458332px;stroke-linecap:butt;stroke-linejoin:miter;stroke-opacity:1" />
        <path
           id="path997"
           d="m 370.64136,368.06881 c 12.79588,0.99631 13.75078,-2.39947 16.0073,-6.48229 -0.26224,-3.41871 -3.08665,-4.96102 -11.90626,-3.57187 2.33201,-6.30099 -15.61414,-7.04614 -26.32604,-4.7625 -10.55873,6.31169 -14.81498,11.28412 2.64583,11.64166 10.04067,-3.54578 16.99079,-5.27359 21.03437,-5.29166 -3.48574,5.07272 -1.98564,6.40607 -1.4552,8.46666 z"
           style="fill:#54a60a;fill-opacity:1;stroke:none;stroke-width:0.26458332px;stroke-linecap:butt;stroke-linejoin:miter;stroke-opacity:1" />
        <path
           id="path995"
           d="m 279.62469,331.55631 c 21.73522,-5.73611 41.26989,-4.51378 52.65208,11.64167 -1.08439,6.71129 0.26197,19.21535 -15.08124,22.09271 2.75973,3.38006 6.89223,4.61355 -0.52917,13.89062 -12.24972,-3.888 -21.38774,-10.26536 -30.1625,-16.93333 6.95174,-2.37758 11.9811,-5.85366 25.92917,-4.23333 0.78151,-3.35139 4.52653,-6.70278 9.525,-10.05417 -18.61122,3.55059 -15.40123,-5.30495 -42.33334,-16.40417 z"
           style="fill:#54a60a;fill-opacity:1;stroke:none;stroke-width:0.26458332px;stroke-linecap:butt;stroke-linejoin:miter;stroke-opacity:1" />
        <path
           id="path993"
           d="m 258.45803,323.08964 c 2.34853,-19.48683 12.74352,-21.64281 28.04583,-13.22917 -1.66079,1.20647 -14.66205,7.13813 -28.04583,13.22917 z"
           style="fill:#54a60a;fill-opacity:1;stroke:none;stroke-width:0.26458332px;stroke-linecap:butt;stroke-linejoin:miter;stroke-opacity:1" />
        <path
           id="path991"
           d="m 254.22469,281.2855 c 5.8122,6.63568 11.55057,13.30089 22.225,17.99167 11.50015,-1.88081 18.24767,4.15942 23.8125,12.1708 9.73813,-6.31753 11.18876,-13.32569 8.99584,-20.63747 4.9906,-1.78513 10.1666,-3.01408 13.22916,-10.58333 -4.38164,-0.94722 -6.28458,-3.03107 -20.10833,3.70416 6.88225,-5.97933 -0.3974,-9.0384 -2.21848,-10.18255 -6.87917,4.91471 -7.95858,8.49138 -14.83775,7.93383 -10.82123,0.79042 -24.41277,-4.41369 -31.09794,-0.39711 z"
           style="fill:#54a60a;fill-opacity:1;stroke:none;stroke-width:0.26458332px;stroke-linecap:butt;stroke-linejoin:miter;stroke-opacity:1" />
        <path
           id="path989"
           d="m 443.66636,313.56464 c 7.0007,7.15297 12.22222,15.83096 23.8125,19.05001 -8.54994,0.72166 -15.42705,2.63821 -19.05,6.87916 1.52916,2.49648 3.48216,4.89515 9.525,6.35 -16.4414,0.46064 -22.70546,7.60015 -28.04584,15.34584 8.55383,-2.54263 11.94651,0.34754 26.45834,-8.46667 10.78167,-1.69329 18.49755,-5.26787 13.89062,-16.40417 6.81691,1.8884 18.29327,1.07249 27.91354,-2.64583 -17.43756,-12.54676 -34.99005,-24.17404 -54.50416,-20.10834 z"
           style="fill:#54a60a;fill-opacity:1;stroke:none;stroke-width:0.26458332px;stroke-linecap:butt;stroke-linejoin:miter;stroke-opacity:1" />
        <path
           id="path987"
           d="m 514.57469,292.66259 c -11.94464,-5.86638 -22.7984,-5.78694 -34.39583,15.08122 11.43686,2.5997 22.2544,-5.70337 34.39583,-15.08122 z"
           style="fill:#54a60a;fill-opacity:1;stroke:none;stroke-width:0.26458332px;stroke-linecap:butt;stroke-linejoin:miter;stroke-opacity:1" />
        <path
           id="path985"
           d="m 512.45802,284.98967 c -0.65244,-7.1615 1.0191,-15.65099 -8.99583,-17.4625 -7.84453,-1.30858 -13.64842,3.50473 -19.05,9.525 -6.80083,-10.14798 -14.55941,-15.69869 -24.87083,-8.99583 -10.15988,4.62115 -17.34313,3.28903 -25.92917,4.7625 16.35804,2.13561 32.20478,11.08442 43.92083,10.58333 10.2561,-4.08249 19.76744,-6.49418 22.225,-3.70417 3.72068,4.58349 8.31763,4.34746 12.7,5.29167 z"
           style="fill:#54a60a;fill-opacity:1;stroke:none;stroke-width:0.26458332px;stroke-linecap:butt;stroke-linejoin:miter;stroke-opacity:1" />
        <path
           id="path983"
           d="m 515.63302,233.13132 c -8.54091,11.45833 -18.44432,28.10453 -29.10416,32.80835 -2.11454,-1.24005 -4.18864,-2.5812 -4.23334,-8.99585 -5.18937,-7.88264 -22.40555,0.52912 -38.1,6.87917 8.51513,-16.70049 21.31712,-23.81861 41.80417,-13.75833 4.54132,-8.84632 16.36692,-13.32207 29.63333,-16.93334 z"
           style="fill:#54a60a;fill-opacity:1;stroke:none;stroke-width:0.26458332px;stroke-linecap:butt;stroke-linejoin:miter;stroke-opacity:1" />
        <path
           id="path981"
           d="m 449.48719,222.01882 c -19.42503,7.0333 -34.88016,18.03651 -48.68333,30.69167 4.88239,0.33486 7.51375,2.51147 15.875,0 -1.42726,7.03319 2.04389,10.4387 6.87916,12.17083 10.70256,-12.69146 18.58899,-28.07389 25.92917,-42.8625 z"
           style="fill:#54a60a;fill-opacity:1;stroke:none;stroke-width:0.26458332px;stroke-linecap:butt;stroke-linejoin:miter;stroke-opacity:1" />
        <path
           id="path979"
           d="m 341.53719,256.94382 c 4.08181,-4.66819 16.16109,-7.85419 28.70729,-7.93749 -5.89976,-19.39373 14.85125,-24.64285 30.55938,-31.75001 -7.92268,11.16169 -2.98839,30.21287 -24.87083,32.80834 -2.08457,9.70872 -6.74481,14.96857 -12.7,17.99168 -11.63018,-0.82854 -17.33082,-5.53391 -21.69584,-11.11252 z"
           style="fill:#54a60a;fill-opacity:1;stroke:none;stroke-width:0.26458332px;stroke-linecap:butt;stroke-linejoin:miter;stroke-opacity:1" />
        <path
           id="path977"
           d="m 263.22053,234.18966 c 12.73934,-1.87189 23.97365,4.86899 34.925,13.22916 17.01429,6.32141 24.66328,13.68341 35.98333,20.63752 -15.66307,-0.95433 -31.07853,-3.64194 -46.0375,-9.52502 -1.11379,7.66367 -10.67427,8.44485 -21.16667,8.46668 2.1329,-5.09919 -4.28191,-12.47778 12.17084,-13.75834 -2.21366,-4.19539 -10.49432,-12.63769 -15.875,-19.05 z"
           style="fill:#54a60a;fill-opacity:1;stroke:none;stroke-width:0.26458332px;stroke-linecap:butt;stroke-linejoin:miter;stroke-opacity:1" />
        <path
           id="path975"
           d="m 288.09136,210.90632 c 7.0149,9.41641 11.53021,20.83249 28.575,22.225 7.76826,-3.66031 20.37141,-1.51874 33.3375,1.05834 -3.74201,-9.98715 -11.25345,-16.99845 -21.69583,-21.69584 -6.1313,0.2187 -6.00429,6.69571 -7.9375,11.1125 -10.07074,-8.13756 -21.17556,-10.41536 -32.27917,-12.7 z"
           style="fill:#54a60a;fill-opacity:1;stroke:none;stroke-width:0.26458332px;stroke-linecap:butt;stroke-linejoin:miter;stroke-opacity:1" />
      </g>
      <use
         x="0"
         y="0"
         xlink:href="#g1057"
         id="use1069"
         width="100%"
         height="100%"
         transform="translate(1.59186,108.60865)" />
    </g>
    <use
       transform="translate(260.7325,35.493478)"
       height="100%"
       width="100%"
       id="use1096"
       xlink:href="#g1094"
       y="0"
       x="0" />
    <use
       transform="translate(513.99225,69.967181)"
       height="100%"
       width="100%"
       id="use1242"
       xlink:href="#g1094"
       y="0"
       x="0" />
    <use
       transform="matrix(-1,0,0,1,1536.6401,35.555941)"
       height="100%"
       width="100%"
       id="use1244"
       xlink:href="#g1094"
       y="0"
       x="0" />
    <use
       transform="matrix(-1,0,0,1,510.65051,33.529922)"
       height="100%"
       width="100%"
       id="use1294"
       xlink:href="#g1094"
       y="0"
       x="0" />
  </g>
  <g
     style="display:inline"
     id="layer4">
    <path
       id="path893"
       d="m -2.20974,465.45941 c 22.298869,-7.36704 44.358095,-18.92783 67.602029,-9.75622 15.041533,8.61562 31.26308,14.90572 56.091671,4.23334 13.89389,0.1016 27.01284,-0.17389 41.39096,-13.42144 32.44215,-12.55548 39.56115,-4.22731 32.1632,5.48394 49.10821,18.60864 73.95915,14.52982 118.98676,14.62426 18.37464,7.46787 28.54015,7.20951 38.62917,6.87916 27.31469,11.50248 52.96642,2.49518 78.84583,-3.70416 43.64888,-2.31692 78.68438,1.3941 110.41409,6.52665 18.36072,9.52269 45.53319,36.50699 46.56667,0 -2.91507,-21.15087 52.76158,-7.45352 95.20203,-9.21928 35.79537,5.01528 39.06663,9.4392 48.86359,13.98178 53.68779,-12.77596 124.9576,-2.4187 146.46048,-8.31131 43.90524,13.22427 26.60678,-17.22602 68.0644,3.22593 32.2033,21.66985 61.01366,11.83335 89.80656,1.83551 34.7928,3.70416 67.9287,-15.61918 81.1577,-10.48192 22.7537,5.21799 49.0046,8.02918 52.2165,15.4227 21.2981,15.16272 71.6934,3.96929 85.1716,-7.05744 14.7222,-1.84382 21.8586,0.10528 29.8581,1.62282 L 1280,720 H 0 Z"
       style="fill:#103700;fill-opacity:1;stroke:none;stroke-width:0.26458332px;stroke-linecap:butt;stroke-linejoin:miter;stroke-opacity:1" />
  </g>
</svg>
