<svg xmlns="http://www.w3.org/2000/svg" xmlns:xlink="http://www.w3.org/1999/xlink" viewBox="0 0 1280 720" height="720mm" width="1280mm"><path d="M.7 226.6l-10 298.5 242.1-5.9c17-17.8 33.9-35.2 45-33.5 80.2-4.9 156.9-54.7 242 5.9 7 15.9 13.3 26.4 18.8 29.6 63.4-49 151.9-24 242 5.9 3 9.4.7 17.9 11.2 28.6 79-27.9 160.3-14.3 242 5.8-75-101.9 130.8-38.1 225-40.2 12.6-8 23-12.8 29.9-12.3l-8.7-298z" fill="#103700"/><path d="M.3 122.7c2.6-5.8 5.1-8.3 11.8-10.4-4.7 18.6 4.7 31 10.5 45-.6-16.2-1.6-33.5 2.6-34.6 3.7 19 9.1 33.4 16.9 40.5 0-15.6-1.1-28.1 1.5-50.9 16.3 26.4 20 40.7 21 52.4 15.8-13.3 29.2-29.5 41-49 3 17.6 2.4 36.8-3.7 58 6-11.9 12-28.2 18-34.4a117 117 0 0 0 22.5 34.4c-4-33.6-13.7-46.6-22.2-67.6 25.3 13.5 43.5 32 49.4 59.3a262.9 262.9 0 0 1 22.6-46.5l2.4 40c8-9.2 12.8-31 24-27.1-2.7-13.3-6.2-27.7-3-31.4 6.4 9.4 9.8 16.2 15.4 18.6 3.2-11.9 15-19 26.6-18.6-15.6 14.5-18 25.5-15.3 35.2a23.7 23.7 0 0 1 16.8-15.5c-2.4 12.8 2.3 19.3 6 26.7 4.9-20.4-2.5-42.6-13-69.2 21.3 7 36.8 22.6 43.4 50.8 10.6-14.6 16-32.4 23.5-49 .8 15 .1 32.8 2.9 44.7 4.1-15.2 9.5-24.5 15-32.7 5 19 10 41.4 15 55.4 2.5-24-5.5-47.8-11-71.7 18 8.4 27 19.1 40.7 53.6 6.9-17.4 17-37.3 25.8-47.1 0 18.5-3.3 32.2 1.1 41 7.2-15.5 13.8-31.6 25.7-41.7-2.7 21.8-4.5 41-3 50.9 3.5-12 5.3-28.4 11.3-33.4.3 9 4.5 20.7 9 32.6 2-12.2 4-24.3 10-33.7a47.3 47.3 0 0 0 15 23.6c9.6-24 23-43 39-57.9-3.2 19.9-12.6 39.8-8.8 59.6 15.3-19.2 30-39.8 48.7-50.9-8.7 30.3-7.5 49.4-3 65 5.8-17.5 4.7-44 18-51.3 4.9 9 10 21.5 15.5 43.8 7.9-30.8-7.5-48.8-17-72 25 16.1 45.7 33.8 52.7 59a68.6 68.6 0 0 1 10.8-32.4 52 52 0 0 0 15.6 24.7l14.5-8.7a159 159 0 0 1-17.3-38.4c12.5 8.8 25 24.7 37.5 43.4-6-29.3 8-39.6-1-59.4 25.2 9 7.9 26.5 37.2-.9.8 13.3-8.9 21.3-10.9 32.9 6.6-3.4 10.6-15.8 18-16-2 13.9 0 20.7 4.3 23.3-2.3-19.8-9.2-42.5-1-55.7 10.6 22.3 15 44.6 32.8 57.9 4-10.8 7.4-22.9 14.8-27.7 3.7 7.9 6.7 18.3 9 30.4C789.4 77 793.1 65 798 58.4c1.9 12 2 27 6.3 34.5 4-17.9-.2-33 2.6-45 8.2 7.3 15.5 24.6 23 39 2.7-11 2.7-25.7 1.9-41.6 10.8 9.3 16 27.8 21.2 46 8-26.9 27-44.7 51.2-58.3-13.7 26.5-23.3 51.8-19.5 73.3 5.6-14 9.3-31.2 19.5-37.4 8.6 7.3 12 27.4 16.6 44.6 6-20.8-5.3-50.7-2.2-69.4 10.5 18 20.7 36.1 39.4 45.2 7.1-13.8 8.8-31.6 25.5-38.3-.5 12.3-1.3 24.8 3 34.4a122.9 122.9 0 0 1 14.9-33c.4 12.4-1 21 6.2 32 4.3-15.1 8.8-30.3 5.6-44.7 12.7 12.1 20.8 32 27.2 54.7 1.2-10.8 1.5-22.4 7.5-28.5 8 9.9 11.7 26.8 16.4 42 7.3-11.5 7.8-28.1 1-41.7 28.8 17.7 2.3 11 45.6-4-6.3 11.7-20.4 22.6-19.6 36.7a37 37 0 0 1 18.8-15c.4 5.6-3.1 12.3 3.6 16 4.3-21 17.4-28.5 36.2-39.7-8.4 13.4-20 26.8-21.2 40.2 7.9-1.4 11.5-1.2 16.5 7.3 2.6-8.9 8.8-16.8 15-25.5 5.5 11.2 8.3 21.1 10.4 33.1 11.5-21.9 15.2-46.5 55.4-58.3a136.2 136.2 0 0 0-22.5 76.3c7.7-14.8 8.7-38.4 22.1-47.4 8.7 16.4 11 33.5 14.2 50.6 11.1-16.8-2.8-47.8-.5-68 11.2 19 20.5 27.5 40.6 41.5v137H.3z" fill="#509618"/><path d="M.7 226.6c3-4 2.4-10 10.8-11.5 7.8 3.4 9 9.7 12.7 14.9 11.2-10.5 23-15.5 37-3.2A29.8 29.8 0 0 1 73.6 213c5.9 4 7.4 8.4 9.5 12.7 1.3-8 1.9-15.6 5.3-21.1 5.3 8.4 10.6 17 16.4 20 5.2-7.6 10-16.3 13.2-27.4 3.7 3.8 5.4 6.5 12.7 12.1a35.4 35.4 0 0 1 14.8-14.8c2.6 11.2 5 23.2 9.5 29.1 4.2-5.9 6.1-13.2 14.3-16.4a63 63 0 0 0 4.3 23.3c1.5-7.7 3.8-11 6.3-12.7 16.3 14.4 31.2-.5 46-15.9 8.4 7.1 8.9 15.8 12.8 23.8 16-13 22.5-32 31.7-49.2 11 22.2 26 5.7 41.3-13.7 7 8.8 10 18.7 10.6 29 6.3-6.1 13-11.6 17.4-21.1 8.5 4.2 9.9 8.6 13.4 16.8 17.5-20.3 24-42.6 42.3 0 12.8-8.2 25-11 35.3 7.5-1.2-16 4-23.5 28-6.3 13.4-14.1 30-49.3 33.4 2.1 8.5-4.2 22-33.6 23.8-3.7 7.4-13.5 13.7-12.2 19 4.8a76.8 76.8 0 0 0 31.8-31.3 54.5 54.5 0 0 1 12.2 33.4 57.5 57.5 0 0 0 18-21.2c.8 5.8 1.5 11.8 4.2 12.7 10.4-15.5 15-1.9 20.7 6.9 6-1.7 12-3 18-8 0 9.4-3.7 18.8 3.1 28.1 7.6-23.8 13.5-10.5 19 13.2 6.7.4 12.4-3.8 16.5-16.4 8.8-2.2 6.9 10.9 9.5 17.5 2.5-4.4 3.7-11.3 8.5-11.1 4 7 8.8 9 13.7 10.6 15.1-12 34.3-47.2 39.7-3.7 7.4-3.3 19-18.4 20.1-4.3 6.6-1.8 13.3-3.8 16.4 2.1 14 14.8 25.5-12.3 38.1-20.6a79 79 0 0 0 12.2 26 38 38 0 0 0 14.8-16 81 81 0 0 1 24.4 14.9c16 1 31.6.6 46-4.8 13.8-3.6 14-8.7 18.5-13.2 6.7 7 13.4 15.2 20.1 18 2.5-11.5 3.6-26.8 12.7-21.2 6 1.3 10.9 6.4 19-.5 5.6 13 11 25.1 16.5 27 7-4 12.3-11.3 15.9-21.7 15.3 4.3 16.7 12.3 21.1 19.5 12.3-2.7 22.4-14.6 32.8-27.5 8.8 4.9 11.4 14.6 13.3 24.9a51 51 0 0 0 19-18c2 2.6 4.6 2.3 5.3 13.2 3.9-.5 7.8.1 11.7-3.7 3.1.7 4 3.8 4.7 7 11.6 3.5 21-11.8 30.7-25 6.2 2.8 11 10.2 13.8 25.4a42.5 42.5 0 0 0 16.9-16.9c5.6 8.4 11.3 16 17 16.4 7.4-1.7 14.3-10.2 22.7-2.1 7.1-9.7 14-27.7 21.7-19.6a64.4 64.4 0 0 1 9.5 24.9c6.1-3.6 12.2-7.4 15.4-15.9l.1 126.3H.6z" fill="#3c8600"/><g><g id="b"><g id="a" stroke-width=".3"><path d="M254 233.3c13 1.6 27.4-2.8 36.3 15.2-1-8.9 3.9-9 7-11.7 0-6.7-10.6-19.7-17.6-30.4 15.5 7.4 34 11.2 43.3 25.7-3-10.2-2.4-16.5 1.5-23 16.8-.7 27.4 18.7 36 37 8.7-14 17.7-27.7 43.2-28-1.2 11.3-10.3 22.6-16.4 33.9 22.4-14 44.2-29.7 69.6-34.8a84.8 84.8 0 0 1-19.9 35c19.1-5.4 35.1-15.3 44.7-2.5 7.8-8.5 17.5-18.5 29.6-13 2 7.2 2.9 14.8-9.7 25.5 8 4.3 15.1 22.8 10.8 27.5 1 7.6-4.5 17.4-12.8 24.3-.1 2.6 3.9-2.3 11.7 9.3 1.3 5.2-.5 11 3.5 14 1 4.5-2.9 6.3-5.9 10.6 4 11 13.8 17.1 9.4 35a54.5 54.5 0 0 1-24.6 1.2c-16.1-1-32.5 1.2-48-11.7-6.4 13.5-21.2 15.8-33.8 21-12.5-11.2-25-20.2-37.4-15.1-7.4 6.6-15.5 13.4-43.3 22.2-18.3-7.7-32.6-2.5-55-23.4 5-5.8 6.4-11.7 4.7-17.5-12.5-2.9-25-12.2-37.4-30.4 14 3.8 28.6 8.3 35 4.6a41 41 0 0 1-22.1-24.5c5.4-10.1 10.9-6 16.3-5.9a48 48 0 0 1-17.5-22.2c7-5.1 18-2.2 28-1.1-8.1-5.5-17.2-8.4-23.3-20-5.2-5 1.7-6.1 5.8-8.1a36 36 0 0 1-11.7-18.7z" fill="#103700"/><path d="M249.8 333.2c9.7 10.5 20 20.4 36 22 5.6 1 12.5.4 13.2-4.8.6-4.4-7.8-9.3-13.5-9-11.9.8-23.8-3.7-35.7-8.2zM304 242.4c15.3-7.4 30.6-9 45.7.5-5.7 4.7-4.4 9.3-21.3 8.7-17.3.7-19.8-5.9-24.4-9.2zM447.2 291.5c4.2 5 12.1 8.4 18.7 15.7 8.6-1.4 12.5-8.2 17.2-13.9-14.4-.5-27-16.8-35.9-1.8zM412.8 358.8c-6.1.7-12.6-3.1-14-7.5 2.2-4.9 7.1-7.4 12.5-9.5-6-7.4 1-14 5.7-18.6-6.9-3.1-14.1-6-18-11.8 10.6-.2 14-2.6 18-4.8-5-2.4-26.8.8-26.7-2.8 4.2-4.8 7.4-9.8 18-12.9 8.4 4.2 15.4 8.4 16 12.5 2.4 4 8.6 5 14.7 5.8 1 6-5.3 10.3-17.6 13.1 3.1 5.7 12.2 2 4 19.7-4.4 2.3-7.9 3-11.9 3.6 1.2 5.1.5 9.7-.7 13.2zM326.2 331.6c1.6-7.8 13.8-22.7 19.2-23.1 4.8.2 5.1 7.3 6.7 16.8 6.8-2.3 16-5.3 21.4-3.7 1.5 3.5-.3 8-3 12.5 5-1.1 10.1-2.7 11.6 2.6 13.8-4.8 11.3-.4 13 1.7-3.5 5.2-5.6 10.9-20 11.3-9.7-1.3-9.1-6.5-10.3-11-9 4.1-10.4-3.6-14.1-8.1-14 5.2-24.2 7.3-24.5 1z" fill="#54a60a"/><path d="M370.6 276c5.7-6.7 12-9.5 22.8-6.9.6-1.5.7-3.5-1-7.4 5.7-5.6 11 3.8 16.3 10.6 18.6-2.7 18.2 13.6 25.4 22.2-11-4.5-22.6-13-32.8-9.5-4.1 6-9.2 9-14.8 11.1-6.6-5-11.7-12-15.9-20.1zM341.4 277.7c-7.6 1.1-13.2 6.5-14.2 12.6 5.9 4 15 7.6 29.2 5.1-3.3 5.3-7.4 10.6 0 14.5 10.1 7.7 20.7 6.8 31.2 7.9a26.3 26.3 0 0 0-12-16.8 42.7 42.7 0 0 0-16-7.3c7.2.7 11-2.2 14.2-4.5-9.4-11.8-20.6-12.7-32.4-11.5zM320.4 298.7c-3.6 0-7.6-.8-6.4 11.2-12.5 3.9-12.9 6.8-3.2 9 4.2.8 6-11.7 12.2-5.9 5.7 4.8 10.2 4.8 13.8 0 .9-5.2-1.6-11.4-16.4-14.3zM370.6 368c12.8 1 13.8-2.3 16-6.4-.2-3.4-3-5-11.9-3.6 2.4-6.3-15.6-7-26.3-4.7-10.5 6.3-14.8 11.2 2.7 11.6 10-3.6 17-5.3 21-5.3-3.5 5-2 6.4-1.5 8.5zM279.6 331.6c21.8-5.8 41.3-4.6 52.7 11.6-1.1 6.7.2 19.2-15.1 22 2.8 3.5 6.9 4.7-.5 14a97.3 97.3 0 0 1-30.2-17c7-2.3 12-5.8 26-4.2.7-3.3 4.5-6.7 9.5-10-18.7 3.5-15.4-5.3-42.4-16.4zM258.5 323c2.3-19.4 12.7-21.6 28-13.1-1.7 1.2-14.7 7.1-28 13.2zM254.2 281.3c5.8 6.6 11.6 13.3 22.2 18 11.5-1.9 18.3 4.1 23.9 12.1 9.7-6.3 11.2-13.3 9-20.6 5-1.8 10.1-3 13.2-10.6-4.4-1-6.3-3-20.1 3.7 6.9-6-.4-9-2.2-10.2-7 5-8 8.5-14.9 8-10.8.8-24.4-4.4-31-.4zM443.7 313.6c7 7.1 12.2 15.8 23.8 19-8.6.7-15.4 2.7-19 6.9 1.5 2.5 3.4 4.9 9.5 6.3a30.7 30.7 0 0 0-28 15.4c8.5-2.6 11.9.3 26.4-8.5 10.7-1.7 18.5-5.2 13.9-16.4a50 50 0 0 0 27.9-2.6c-17.5-12.6-35-24.2-54.5-20.1zM514.6 292.7c-12-5.9-22.8-5.8-34.4 15 11.4 2.6 22.2-5.7 34.4-15zM512.5 285c-.7-7.2 1-15.7-9-17.5-7.9-1.3-13.7 3.5-19 9.6-6.9-10.2-14.6-15.7-25-9-10.1 4.6-17.3 3.2-25.9 4.7 16.4 2.2 32.2 11.1 44 10.6 10.2-4 19.7-6.5 22.2-3.7 3.7 4.6 8.3 4.3 12.7 5.3z" fill="#54a60a"/><path d="M515.6 233.1c-8.5 11.5-18.4 28.1-29 32.8-2.2-1.2-4.3-2.5-4.3-9-5.2-7.8-22.4.6-38.1 7C452.7 247 465.5 240 486 250c4.5-8.9 16.4-13.4 29.6-17zM449.5 222c-19.4 7-34.9 18-48.7 30.7 4.9.3 7.5 2.5 15.9 0-1.4 7 2 10.4 6.9 12.2 10.7-12.7 18.5-28 25.9-42.9zM341.5 257c4.1-4.7 16.2-8 28.7-8-5.9-19.4 14.9-24.6 30.6-31.7-8 11.1-3 30.2-24.9 32.8-2 9.7-6.7 15-12.7 18a27.3 27.3 0 0 1-21.7-11.2zM263.2 234.2c12.8-1.9 24 4.9 35 13.2 17 6.3 24.6 13.7 36 20.7-15.7-1-31.1-3.7-46.1-9.6-1.1 7.7-10.7 8.5-21.2 8.5 2.2-5.1-4.3-12.5 12.2-13.8-2.2-4.2-10.5-12.6-15.9-19zM288 211c7.1 9.3 11.6 20.7 28.7 22.1 7.7-3.6 20.3-1.5 33.3 1-3.7-9.9-11.2-17-21.7-21.6-6.1.2-6 6.7-8 11.1-10-8.1-21.1-10.4-32.2-12.7z" fill="#54a60a"/></g><use xlink:href="#a" width="100%" height="100%" transform="translate(1.6 108.6)"/></g><use transform="translate(260.7 35.5)" height="100%" width="100%" xlink:href="#b"/><use transform="translate(514 70)" height="100%" width="100%" xlink:href="#b"/><use transform="matrix(-1 0 0 1 1536.6 35.6)" height="100%" width="100%" xlink:href="#b"/><use transform="matrix(-1 0 0 1 510.7 33.5)" height="100%" width="100%" xlink:href="#b"/></g><g><path d="M-2.2 465.5c22.3-7.4 44.3-19 67.6-9.8 15 8.6 31.3 15 56 4.2 14 .1 27.1-.1 41.5-13.4 32.4-12.5 39.5-4.2 32.1 5.5 49.1 18.6 74 14.5 119 14.6a81 81 0 0 0 38.7 6.9c27.3 11.5 53 2.5 78.8-3.7 43.6-2.3 78.7 1.4 110.4 6.5 18.4 9.5 45.5 36.5 46.6 0-3-21.1 52.7-7.4 95.2-9.2 35.8 5 39 9.4 48.8 14 53.7-12.8 125-2.4 146.5-8.3 44 13.2 26.6-17.2 68 3.2 32.3 21.7 61 11.8 89.9 1.8 34.8 3.7 68-15.6 81.1-10.4 22.8 5.2 49 8 52.3 15.4 21.3 15.1 71.6 4 85.1-7 14.7-2 21.9 0 29.9 1.5L1280 720H0z" fill="#103700"/></g></svg>