<svg xmlns="http://www.w3.org/2000/svg" viewBox="0 0 683 516" height="516mm" width="683mm"><path d="M-2 33H8.6c5-9.5 4.8-8 10.9 0H24c8.5-8.1 9-14.9 16.7-5h8.8c6.3-8.1 6.1-7.2 11.9.6 5.6-8.5 5.3-8 11.5-.5l14.9-.1c8.8-8.1 9-12.5 16.5-3 7.7-12 6.3-8.4 15.4 4 4-9.5 5.8-10.8 10.7-1.1 8-1.2 10.8-.4 16.5 4.6 5.4-7.4 5.4-6.1 11.5-.1 9.8-12.5 9.8-10.6 20 0 8.1-1 10.7 0 16.3 5.3 5.4-7.3 5.1-6.9 10.5-.2 7.2-8 14.5-7.4 21.8-.4 5.3-7 5.2-6 10.5.1 5.8-7.5 5.7-6.4 11.6.2h9c8.8-8.1 9.2-13.7 17.5-4.4 10.5-12.2 10.1-11.6 20 0 6.3-7.4 6-6.7 12.4 0l4.2-.6c5.6-7.6 5.4-6.7 10.9.2 5.5-7.3 5.2-7.3 10.6-.4h16.4c5-6.7 4.9-6.3 9.8 0h5.9c8.7-8.8 8.7-13 17-3.7h8.6c5.9-7.7 5.6-7.2 11.3 0 6.2-8.3 6-7.2 12.3.1h13.7c8.6-8.1 9-14 16.8-4.6 6.5-9.3 9-2.3 15.7 4.2 6-7.1 5.8-6.7 11.7-.1 7.5-1 9.8-.1 14.8 4.9 5.8-6.9 5.7-6.3 11.3 0 10.5-11.7 10.4-10.7 20.8 0 8-1.1 10.4-.7 15.6 4.6 6.1-7.6 5.9-7.3 11.8-.3 7.5-8 13.7-6.7 20 .5 6.2-7.4 6-7 12 0 5.5-7.4 5.3-6.7 11 0h9c8.3-8.1 8.7-13.4 17-4.8 11.1-12.4 10.9-12 21 0 6-7.1 5.7-6.7 11.5 0h4.4c5.9-7.7 5.6-7.4 11 0 5.5-7.4 5.1-7 10.4 0l10.4-.4v61.6l-687 1z" fill="#9cdf55" stroke="#405048" stroke-width="2"/><path d="M-1 68.7c1.8 3.5 4 7 8.6 10.6 1.6-6.3 3.6-12 7.6-15.8.5 3.8 1.4 7.2 4.4 9 3-2.5 6.2-5 10.2-12 2.4 3.5 4.7 7 4.1 13 3-4 5.5-9.7 10-9.4 3.3 8.2 8 9 12.2 12.2 2.3-5.4 5.7-8.3 10-9.3.5 4.7 1.3 8.7 2.9 10.5 5.5-6 11.2-12.5 15.8-15.2.4 7-.4 16 2.3 19.3 3.1-.6 4.2-9.7 6.4-17.2 2.4 3.2 3 8 3 13.1 3-2.5 6.2-5.2 9.3-5.3.2 3.3.2 6.6 2.4 8.8 6-4 9.2-11.2 12.2-18.7 3 4.6 3.6 10.3 3.5 16.4 4.4-6.4 8-13.4 14.7-17.9.6 5.4 2 9.7 4 12.6a43.8 43.8 0 0 0 7-17.5c6.7 1.6 9.7 6.8 13.5 11.2A31 31 0 0 0 176 53.5c1 4 1.4 8.6 0 14 3.4-3 5-7 11-8.7 1.6 5.5 4 9.2 7.1 11.7 5.8-8.5 11-14.5 20.3-19-.5 6.6-2.6 12.6 1.3 17.8 3.6-2.7 2.7-8.7 4.4-13.8a56.8 56.8 0 0 1 18 17.7c6.4-5 14.9-2.2 19.7-12 3.8 6.2 8.2 10.3 13.5 11 1.4-1.9 2-7 2.4-12.2 2.7 1.8 5.4 4 8.1 11.7 4-2.2 7.5-6.8 10.5-12.9.6 5.8 4.1 6.8 7 8.8-1.1-5.2-.1-9 1.2-12.7 6 4.4 11.2 11.1 16.4 18 2-6.2 5-11.7 10.5-15.9-.2 6.6-1.9 13.6 1.6 18.7 4-1.4 7.9-5 11.9-10.5a21 21 0 0 1 2.9 10.6c4-4.4 8.2-8.7 12.3-10.6 1.2 2.5 1.3 5.4 5.8 6.5 3-5 6.9-8.8 12.3-11.1-.8 3.8-2.3 8.9.4 9.8 3.7-1.6 6.8-7.7 9.5-11.6 3.7 4 7.5 9 11.7 17a29 29 0 0 1 13.5-10.6c.3 4.7.6 9.4 2.9 11.1 4.9-8.8 10.4-13 15.8-18.7.1 8.6-4.4 19.5 2 25 3.7-2.2 3.2-11.6 4.6-18.7 3.2 2.4 4.4 7 5 11.9 3 .3 5.1-1.4 7-3.6 3 2 2.3 6.2 2.4 10 6.6-2.6 11-10 14.7-19 1.8 2.8 2.5 8.6 2.9 14.9a45 45 0 0 0 11.6-21c2.3 2.4 4.2 6.8 5.9 12.2 4.5-1.9 7.4-7.6 10.5-12.8 3.2 1 6 5 8.8 9.3 4.5-1 8.8-4.4 12.8-10 .2 5.7 2 9 4.1 11.8 2.6-4 5.5-7.6 10.6-8.2-2 3.7 1.1 6.6 4.6 9.3C541.2 61.4 547 54 556 50c-.4 6.7-1.5 13.9 1.4 18.7 2-6.6 4.4-11.4 7.4-14 3.6 6.9 7 14.6 11.7 18.1 3.5-2.1 7.2-3.9 9.3-10 1.5 2.4 3 4.7 3 9.4a29 29 0 0 0 9.9-12.8c4 5.6 7.8 12.3 12.3 15.2 1-8.9 4.1-11.6 7-15.2 1.2 3.4 1.5 8.2 4 9.3 5.3-.8 6-7 8.8-10.5 1.7 1.6 3.5 2 4.7 6.4 3.7 1.2 6-5.6 8.8-9.3a62.3 62.3 0 0 0 12.2 16.1c4.2-1.2 6.5-7 8.7-12.6 3.3 1.8 4.5 7 7.1 15.8 3.7-3.4 6.9-6.9 7-11.7 2.3 1.6 4 5.9 4.7 10V516H-1z" fill="#679e5e"/></svg>