<svg xmlns="http://www.w3.org/2000/svg" xmlns:xlink="http://www.w3.org/1999/xlink" viewBox="0 0 1280 720" height="720mm" width="1280mm"><defs><linearGradient id="a"><stop offset="0" stop-color="#0f3ee5"/><stop offset="1" stop-color="#0e3ead"/></linearGradient><linearGradient gradientUnits="userSpaceOnUse" y2="289.8" x2="670.6" y1="-422.2" x1="669.2" id="b" xlink:href="#a"/></defs><path fill="url(#b)" d="M0-423h1280v720H0z" transform="translate(0 423)"/><path d="M517 517c-31-2.2-73 1.8-110.3 12.5-55 19.1-116.3 42.3-195 37-11.6-1.7-57.2-13.4-72.6-9.8-23.1 3.8-44 8.4-78.6 8.3-17.2.5-21.1-4.2-10.6-28.7 8.4-22.9 39.5-32.3 81.6-37.8-20.4-10.6-44.3-4.2-51.4-9-6-4.1-9.3-6.2-3-21.2 8.5-19.6 58-14.3 88.5-25.7-18.2.2-36-2.1-47.7-7.6-6-4-20.5-10.6 9.9-25.7 19-7.7 37-8.1 64.2-11.3-10.5-4.6-19.7-3.4-32.5-4.6-9-1.4-21.6-4-4.5-18.9 16.7-9.2 34.3-11.7 49.9-5.3 18.5 3.8 33.2-18 102-4.5 31.6 6.7 84.2 15 128.5 50.7 14.3 9.5 53.2 17 82.8 22.6 6.2-14.7 11.6-30.6 20.8-45.3-29-39.2-54.6-80-75.6-123.2-5.8-23-.6-47.4 7.6-71.1 10.7-28.5 29-38.3 38.5-9.8 8.7 30.4 14.4 62.8 35.5 84.6l15.2-63.5c11.3-33.8 22.2-83.1 35.5-40a561 561 0 0 1 18.9 80.1c3.7 15.5 19.6 39 29.5 39 8.9.2 23.5-27 26.4-42-.2-23.7-1.8-56.6 0-82.4 4.8-29 17.5-21.3 45.4 42.3 7.2 18.5 19.4 51.7 28.7 61.2 24.7-13.3 13.6-46 16.6-71 11.7-30.7 25.4-53.4 56-10.6 7.9 14 19.3 50.8 12.8 85.4-25.1 47.1-53.5 74.7-88.4 119.8a198.3 198.3 0 0 1 16.2 46.5c34 6.5 85.2-17.5 98-28.7 28-23.1 79.3-40.8 143.7-48a225 225 0 0 1 67.4 4.8c16.7 2.7 31.7-6.8 50.4 4.6 10.4 7.5 29.7 19.1 1.8 22.5-18.3 1.8-20.7 3.6-29.6 6 26 2.2 52 3.2 67.1 12.4 11 7 27.6 24.2 6 25.7-16.8.8-34.2-1.2-39.6 5.3 21.7 2 44.8 7.3 57.4 11.3 13 4.2 15-.4 26.9 21.2 11.6 20.6-13.9 15.2-43.1 16.6 39.5 19 56.6 21.3 63.8 42.3 7.1 12.2 19.2 35.5-9.4 35.6-37.6-.6-70-14.6-88-13.3-17.8 2-49 12-82 12.1-70.8-4.7-125-21.2-180.8-42-37-6-73-11-103.2-10.1-4.7 28.7-5.1 52.7-23.8 85.8-5.5 10 27.7 31.8-21.1 36.3-16.5 1.4-30.8 40.5-77.9 41.5-50.4-1-64.9-42.4-80.1-43-48.3-3.5-18.8-29.5-25.4-37.9-10.6-27-18.7-54.9-19.2-82z" fill="#0e3f6e"/></svg>