<svg xmlns="http://www.w3.org/2000/svg" xmlns:xlink="http://www.w3.org/1999/xlink" viewBox="0 0 1280 720" height="720mm" width="1280mm"><g transform="translate(0 423)"><g id="a" fill="none" stroke="#f03e6c" stroke-width="9" stroke-linecap="round" stroke-linejoin="round"><path d="M212-35.8c16.7.7 48.2 9.2 49 14.2 3.7 13.8 7.8 15.5 15.7 21.9 39.5-14.6 73.2-12.4 110.7 1.5 38.5 15.4 26.8 39.2 1.2 49.9-45.9 17.2-83.2 14.4-125.2-3.8-7 10.7-25 8.5-29 24.6-2.3 10.8-57 21.8-90.8 30.6"/><path d="M191.6-.5c18.1 2.9 40.2 9.2 62.8 15.5 5-8 13.2-11.6 22.3-14.7-24.2 7.2-36.3 26.5-13.3 47.6a37.2 37.2 0 0 1-11.9-17.8c-28 4.9-52.4 12-83.7 14.4 11.7-1.7 23.8-2.5 34.8-4.7-3.8-15 5.5-29 8-36.1-6.8-2-12.2-2.8-19-4.2z"/></g><path id="b" d="M522 15.8c1.1-8.7 21.1-27.9 39-28 .2-7.3-38-57-56-91.5" fill="none" stroke="#f03e6c" stroke-width="7" stroke-linejoin="round"/><use transform="matrix(-1 0 0 1 1280.3 .3)" height="100%" width="100%" xlink:href="#a"/><use transform="matrix(-1 0 0 1 1277 -.3)" height="100%" width="100%" xlink:href="#b"/><path d="M518 93.5c1.4 23.6 22.6 72 31.3 72.5 5.9.2 9.4-6.8 13.9-2.8-.6 9-3.2 21.3 18.8 20.5.3-8.2-4.8-18.8-18.8-20.5 4.6 8 9.3 16 18.8 20.5 26.4 53.6 87.3 53.4 117.6-1-2-13.4 7.2-18.6 17.4-19 1 10.5-2.9 17-17.4 19l17.4-19c2.7-2 10 5 16 1.7 13.9-10 27.9-49.1 29.3-72.2" fill="none" stroke="#f03e6c" stroke-width="8" stroke-linejoin="round"/></g></svg>