<?xml version="1.0" encoding="UTF-8" standalone="no"?>
<svg
   xmlns:dc="http://purl.org/dc/elements/1.1/"
   xmlns:cc="http://creativecommons.org/ns#"
   xmlns:rdf="http://www.w3.org/1999/02/22-rdf-syntax-ns#"
   xmlns:svg="http://www.w3.org/2000/svg"
   xmlns="http://www.w3.org/2000/svg"
   xmlns:xlink="http://www.w3.org/1999/xlink"
   id="svg8"
   version="1.1"
   viewBox="0 0 1280 720"
   height="720mm"
   width="1280mm">
  <defs
     id="defs2">
    <linearGradient
       id="linearGradient923">
      <stop
         id="stop919"
         offset="0"
         style="stop-color:#0f3ee5;stop-opacity:1;" />
      <stop
         id="stop921"
         offset="1"
         style="stop-color:#0e3ead;stop-opacity:1" />
    </linearGradient>
    <linearGradient
       gradientUnits="userSpaceOnUse"
       y2="289.79575"
       x2="670.62555"
       y1="-422.21024"
       x1="669.24292"
       id="linearGradient925"
       xlink:href="#linearGradient923" />
  </defs>
  <metadata
     id="metadata5">
    <rdf:RDF>
      <cc:Work
         rdf:about="">
        <dc:format>image/svg+xml</dc:format>
        <dc:type
           rdf:resource="http://purl.org/dc/dcmitype/StillImage" />
        <dc:title></dc:title>
      </cc:Work>
    </rdf:RDF>
  </metadata>
  <g
     transform="translate(0,423)"
     id="layer1">
    <rect
       y="-423"
       x="0"
       height="720"
       width="1280"
       id="rect909"
       style="display:inline;opacity:1;fill:url(#linearGradient925);fill-opacity:1;stroke:none;stroke-width:1.5;stroke-linecap:round;stroke-linejoin:round;stroke-miterlimit:4;stroke-dasharray:none;stroke-opacity:1" />
    <path
       id="path927"
       d="m 517.07142,94.02676 c -31.04999,-2.219691 -73.05633,1.770724 -110.36903,12.47322 -55.07932,19.12192 -116.28374,42.3158 -195.03573,37.04167 -11.52842,-1.70078 -57.13465,-13.47629 -72.57142,-9.82739 -23.13394,3.79596 -43.948663,8.365 -78.619051,8.31548 C 43.327032,142.48487 39.351627,137.81547 49.892857,113.30356 58.26706,90.441658 89.357219,81.03281 131.53571,75.505934 111.13369,64.926037 87.247387,71.30926 80.130951,66.434499 74.083324,62.402757 70.807546,60.260883 77.107142,45.267832 85.581773,25.694954 135.08964,30.97657 165.55356,19.565444 c -18.15396,0.263092 -35.98264,-2.066951 -47.62499,-7.55952 -6.12155,-4.0030289 -20.496173,-10.5742121 9.82738,-25.702365 18.99974,-7.74383 37.08798,-8.125143 64.25595,-11.339301 -10.48038,-4.53152 -19.72254,-3.377999 -32.50595,-4.535699 -9.07185,-1.443969 -21.63288,-4.030772 -4.53571,-18.898817 16.7258,-9.273824 34.35758,-11.713912 49.89285,-5.291666 18.54783,3.761067 33.21754,-18.033252 102.05357,-4.535726 31.59098,6.708171 84.21323,14.990362 128.51191,50.6488164 14.22363,9.5888776 53.18217,17.1214099 82.77679,22.6785786 6.15375,-14.74107487 11.61124,-30.616078 20.78869,-45.357153 -29.0445,-39.150372 -54.61076,-80.039862 -75.59524,-123.220242 -5.76155,-22.93055 -0.61358,-47.37301 7.55952,-71.05952 10.71637,-28.48755 29.05649,-38.31908 38.55357,-9.82738 8.685,30.4087 14.40821,62.86787 35.52976,84.66666 l 15.11906,-63.49999 c 11.33167,-33.8184 22.27552,-83.14984 35.52976,-40.06547 8.2292,24.06448 14.18847,53.42063 18.89879,80.13095 3.72515,15.55164 19.63585,38.95047 29.48216,38.93154 8.89914,0.24041 23.49785,-27.00946 26.45833,-41.95535 -0.26186,-23.7211 -1.82521,-56.54368 -10e-6,-82.39881 4.74486,-28.89756 17.48145,-21.29249 45.35715,42.33333 7.2436,18.52478 19.4309,51.71235 28.72618,61.23214 24.71974,-13.29946 13.57744,-46.02419 16.63097,-71.05952 11.66412,-30.72356 25.40433,-53.3613 55.94046,-10.58333 7.8916,14.04735 19.34982,50.78706 12.8512,85.42261 -25.16443,47.10264 -53.55923,74.660386 -88.44643,119.818464 6.15134,10.81069 11.51527,27.6703943 16.17467,46.491326 33.97856,6.477652 85.26646,-17.5634712 97.97413,-28.726441 28.10263,-23.100524 79.40314,-40.778669 143.78509,-48.006159 23.22823,-1.878213 49.48023,0.292724 67.41683,4.837722 16.6266,2.676344 31.6161,-6.85199 50.3764,4.589425 10.3669,7.483554 29.6768,19.124845 1.749,22.450662 -18.301,1.825007 -20.6836,3.660895 -29.5562,6.047619 26.0317,2.138479 52.0412,3.225941 67.0979,12.34858 11.0344,6.9360384 27.5743,24.22891 6.0477,25.702389 -16.8901,0.80005 -34.2403,-1.199734 -39.6875,5.291659 21.7685,2.08067 44.7992,7.29402 57.4524,11.339292 12.9552,4.201697 15.0751,-0.416731 26.8362,21.16666 11.6588,20.659805 -13.8475,15.229483 -43.0892,16.63094 39.5337,18.992056 56.6057,21.280901 63.878,42.333332 7.0529,12.14178 19.1521,35.45546 -9.4495,35.52978 -37.6378,-0.59924 -70.0819,-14.52098 -88.0684,-13.22918 -17.7437,1.9111 -48.8567,11.99753 -82.0209,12.09525 -70.71053,-4.77355 -124.90131,-21.24657 -180.67258,-41.95536 -37.03183,-6.037787 -73.12148,-11.1334 -103.18748,-10.205362 -4.71997,28.717722 -5.1553,52.742132 -23.81252,85.800602 -5.48615,10.01306 27.65656,31.86415 -21.16666,36.28569 -16.41828,1.45435 -30.7368,40.53382 -77.86309,41.5774 -50.41875,-1.00012 -64.86442,-42.46769 -80.13096,-43.0893 -48.26632,-3.46534 -18.74223,-29.47312 -25.3244,-37.79759 -10.64744,-27.0883 -18.7084,-54.93255 -19.27679,-82.02085 z"
       style="fill:#0e3f6e;fill-opacity:1;stroke:none;stroke-width:0.26458332px;stroke-linecap:butt;stroke-linejoin:miter;stroke-opacity:1" />
  </g>
</svg>
