<svg xmlns="http://www.w3.org/2000/svg" viewBox="0 0 300 200" height="200mm" width="300mm"><path d="M149.6 85.5c6.3-3.8 11-3.8 17.4-.2a51.8 51.8 0 0 1 19.3-14c.7.4-6.4 17.4-12.5 24.6-.2 2.2 1 4 0 7.2 34.2-9.3 100.5-31.2 102.5-28.2 2 3.9-47 28.7-77.9 42.7 4.1 5.9 1.4 15.3-3 22 5.6 1.5 13.4 8.4 9.9 9-3.5 1.2-5.4 4.3-6.8 5.3-1.3 1.1-7 1.6-8.7 5.4-1.1 3.2-8.3-9.2-13-9.6-10.2-2-20.3-2-30.1.4-4.7.6-5.2 11-6.8 9-1.8-1.7-11-4-11.8-4.9-.9-.7-6-8-9-9.1-4-1.2 7.2-5 12.5-6.4-4-6-7-13.7-6.9-21.9-30.6-13.1-86.5-37.7-84.1-41.5 2.5-3.5 69 18.4 100.9 28 0-2.1 1.1-5.6 2-8A124.3 124.3 0 0 1 125.8 70c.7-.7 17.7 8.3 23.8 15.6z" fill="#464a51"/></svg>