<?xml version="1.0" encoding="UTF-8" standalone="no"?>
<!-- Created with Inkscape (http://www.inkscape.org/) -->

<svg
   xmlns:dc="http://purl.org/dc/elements/1.1/"
   xmlns:cc="http://creativecommons.org/ns#"
   xmlns:rdf="http://www.w3.org/1999/02/22-rdf-syntax-ns#"
   xmlns:svg="http://www.w3.org/2000/svg"
   xmlns="http://www.w3.org/2000/svg"
   xmlns:sodipodi="http://sodipodi.sourceforge.net/DTD/sodipodi-0.dtd"
   xmlns:inkscape="http://www.inkscape.org/namespaces/inkscape"
   width="300mm"
   height="200mm"
   viewBox="0 0 300 200"
   version="1.1"
   id="svg8"
   inkscape:version="0.92.2 5c3e80d, 2017-08-06"
   sodipodi:docname="latias_silhouette.svg">
  <defs
     id="defs2">
    <inkscape:perspective
       sodipodi:type="inkscape:persp3d"
       inkscape:vp_x="0 : 100 : 1"
       inkscape:vp_y="0 : 1000 : 0"
       inkscape:vp_z="300 : 100 : 1"
       inkscape:persp3d-origin="150 : 66.666667 : 1"
       id="perspective930" />
  </defs>
  <sodipodi:namedview
     id="base"
     pagecolor="#ffffff"
     bordercolor="#666666"
     borderopacity="1.0"
     inkscape:pageopacity="0.0"
     inkscape:pageshadow="2"
     inkscape:zoom="0.35355339"
     inkscape:cx="-279.14639"
     inkscape:cy="361.63291"
     inkscape:document-units="mm"
     inkscape:current-layer="layer1"
     showgrid="false"
     inkscape:window-width="1440"
     inkscape:window-height="851"
     inkscape:window-x="0"
     inkscape:window-y="1"
     inkscape:window-maximized="1" />
  <metadata
     id="metadata5">
    <rdf:RDF>
      <cc:Work
         rdf:about="">
        <dc:format>image/svg+xml</dc:format>
        <dc:type
           rdf:resource="http://purl.org/dc/dcmitype/StillImage" />
        <dc:title></dc:title>
      </cc:Work>
    </rdf:RDF>
  </metadata>
  <g
     inkscape:label="Layer 1"
     inkscape:groupmode="layer"
     id="layer1"
     transform="translate(0,-97)">
    <path
       style="display:inline;fill:#464a51;fill-opacity:1;stroke:none;stroke-width:0.26458332px;stroke-linecap:butt;stroke-linejoin:miter;stroke-opacity:1"
       d="m 149.56761,182.53442 c 6.31645,-3.85737 11.02176,-3.81533 17.46523,-0.19244 4.86534,-6.83277 18.58525,-14.6924 19.28429,-14.12107 0.66651,0.52182 -6.43891,17.47887 -12.52438,24.72865 -0.18057,2.12199 1.02984,3.9462 0.0304,7.11708 34.1467,-9.31553 100.45438,-31.15916 102.4774,-28.17676 1.98111,3.8962 -46.91131,28.66404 -77.86309,42.71131 4.08165,5.8909 1.34557,15.27754 -3.02382,22.01711 5.60312,1.51543 13.34222,8.36255 9.86519,9.05253 -3.43774,1.10323 -5.36659,4.26943 -6.74155,5.25624 -1.33715,1.08583 -7.07336,1.54096 -8.75547,5.42159 -1.08844,3.14187 -8.32762,-9.28829 -12.88899,-9.61949 -10.26903,-1.96029 -20.35878,-1.94856 -30.2381,0.37797 -4.66127,0.62327 -5.15166,10.9674 -6.80357,9.07143 -1.74158,-1.81714 -10.99203,-4.16242 -11.79034,-4.93766 -0.83601,-0.71578 -6.0396,-8.02186 -8.95701,-9.18034 -4.02673,-1.20577 7.15678,-5.01803 12.46731,-6.39311 -3.96295,-5.95832 -6.99835,-13.66535 -6.83901,-21.82222 -30.677821,-13.18103 -86.547493,-37.70389 -84.139993,-41.51647 2.493755,-3.4947 68.952553,18.33134 100.902373,27.94478 0.006,-2.09093 1.12968,-5.58732 2.01015,-7.89724 -7.58762,-8.24738 -18.40547,-24.87457 -17.74939,-25.51091 0.77952,-0.63058 17.7575,8.37581 23.81237,15.66902 z"
       id="path928"
       inkscape:connector-curvature="0"
       sodipodi:nodetypes="ccccccccccccccccccccccc" />
  </g>
</svg>
