<?xml version="1.0" encoding="UTF-8" standalone="no"?>
<svg
   xmlns:dc="http://purl.org/dc/elements/1.1/"
   xmlns:cc="http://creativecommons.org/ns#"
   xmlns:rdf="http://www.w3.org/1999/02/22-rdf-syntax-ns#"
   xmlns:svg="http://www.w3.org/2000/svg"
   xmlns="http://www.w3.org/2000/svg"
   id="svg8"
   version="1.1"
   viewBox="0 0 200.00001 199.99999"
   height="200mm"
   width="200mm">
  <defs
     id="defs2" />
  <metadata
     id="metadata5">
    <rdf:RDF>
      <cc:Work
         rdf:about="">
        <dc:format>image/svg+xml</dc:format>
        <dc:type
           rdf:resource="http://purl.org/dc/dcmitype/StillImage" />
        <dc:title></dc:title>
      </cc:Work>
    </rdf:RDF>
  </metadata>
  <g
     style="opacity:1"
     transform="translate(0,-97.000024)"
     id="layer1">
    <path
       id="path5218"
       d="m 74.943228,205.05732 c -12.418777,-6.68486 -26.201892,-7.80294 -39.022204,-9.45935 -8.647947,-0.90683 -21.617683,-2.48341 -24.563412,-5.39348 -0.502654,-4.29478 2.875096,-12.25914 8.847964,-17.05716 4.936595,-4.01517 5.997602,-9.41207 11.510654,-13.38154 2.081293,2.61086 1.933665,4.60303 1.904933,7.50057 -1.844758,1.82164 -2.911469,3.82542 -4.249218,5.56256 3.23451,-4.64482 8.111779,-11.33504 15.809967,-13.99388 0.493989,8.33801 -0.706389,10.62834 -1.777342,14.68646 -0.699108,2.54765 -2.395266,5.04838 4.864306,5.98684 l 34.677998,5.60601 c 9.778195,2.40289 24.900756,6.02099 37.351136,11.04488 1.78306,2.32469 4.2041,5.74001 0.56127,10.47697 -5.52281,4.26258 -12.99685,5.92352 -19.90661,8.33683 -6.863122,2.21029 -18.647425,-2.64695 -26.009442,-9.91571 z"
       style="fill:#f8f8ff;fill-opacity:1;stroke:#303030;stroke-width:0.80000001;stroke-linecap:butt;stroke-linejoin:miter;stroke-miterlimit:4;stroke-dasharray:none;stroke-opacity:0.50253811" />
    <path
       id="path5197"
       d="m 102.60588,179.79393 c 7.68629,-12.76439 19.77399,-36.48451 24.5878,-37.5287 2.07645,-0.48568 1.91874,1.54368 2.16286,4.40113 3.49557,1.05383 5.63393,2.70574 6.38255,3.71214 l -6.05973,0.35142 c 2.24417,1.75685 3.18526,2.33076 3.88303,3.75459 -1.70705,-0.13892 -3.1497,0.18086 -4.09435,0.64237 l 0.95675,12.03519 z"
       style="fill:#d6513f;fill-opacity:1;stroke:#303030;stroke-width:0.80000001;stroke-linecap:butt;stroke-linejoin:miter;stroke-miterlimit:4;stroke-dasharray:none;stroke-opacity:0.50196078" />
    <path
       id="path5230"
       d="m 144.87617,210.74203 c 1.54449,4.6764 4.50266,11.38877 6.79622,12.3731 2.05708,0.063 4.02058,-3.12676 5.6681,-5.21504 z"
       style="fill:#d6513f;fill-opacity:1;stroke:#303030;stroke-width:0.26458332px;stroke-linecap:butt;stroke-linejoin:miter;stroke-opacity:0.50196078" />
    <path
       id="path3913"
       d="m 82.946874,185.11435 c 3.660027,-3.88178 9.837028,-4.20075 19.659006,-5.32042 l 27.81891,-12.63186 c 9.78454,-10.7328 36.75099,-30.19332 39.53106,-29.47289 1.8877,-0.24304 1.72896,5.63461 -0.89658,9.05341 3.96863,0.96152 5.56806,1.71963 6.42913,3.47553 l -8.90556,0.62998 c 1.70664,1.54847 1.92107,2.16374 3.34793,4.08014 -2.42222,1.19144 -4.15622,0.84677 -6.78842,2.14962 -8.36354,7.45325 -13.65504,17.88496 -20.61453,28.61096 4.48248,0.60753 15.57018,3.65092 16.12987,6.10455 -0.28223,1.80012 -2.25684,4.49219 -2.22042,5.47467 11.39283,5.5173 25.46572,10.57996 25.55478,14.91534 -0.68022,1.56548 -2.94986,5.17695 -4.72732,5.4441 -3.22383,-2.54139 -5.30351,-4.14747 -7.34325,-3.92597 1.90116,1.61165 3.40763,3.43678 4.32505,6.22893 0.57582,1.3557 -2.84548,5.36928 -4.98365,6.18037 -2.53991,-0.53222 -4.77592,-3.85415 -7.04505,-6.31594 -0.55487,0.51674 -0.99361,1.5141 -1.99983,1.76817 -1.40216,-1.02953 -2.17746,-2.58518 -2.87751,-3.66295 l -12.46432,-7.15806 c -25.9997,20.894 -65.542197,9.44342 -69.932942,-5.68471 6.189739,3.56124 10.589398,7.04779 21.332223,7.48356 6.063239,-0.45776 24.787489,-8.4304 21.367309,-8.71281 -0.92864,-0.0767 -6.88208,-1.28613 -0.79095,-5.08359 4.37817,-2.72953 -4.32598,-4.37826 -33.904936,-13.63013 z"
       style="opacity:1;fill:#d6513f;fill-opacity:1;stroke:#303030;stroke-width:0.80000001;stroke-linecap:butt;stroke-linejoin:miter;stroke-miterlimit:4;stroke-dasharray:none;stroke-opacity:0.50196078" />
    <path
       id="path5220"
       d="m 81.664204,202.23961 c -1.085771,5.92492 18.984256,13.71766 22.544186,3.18051 1.0246,-7.75756 -19.797877,-11.13229 -22.544186,-3.18051 z"
       style="fill:#f8f8ff;fill-opacity:1;stroke:#303030;stroke-width:0.80000001;stroke-linecap:butt;stroke-linejoin:miter;stroke-miterlimit:4;stroke-dasharray:none;stroke-opacity:0.50196078" />
    <path
       id="path5222"
       d="m 102.2557,206.32283 c 1.14103,-5.08987 -17.397035,-8.05814 -19.20341,-2.84102 -1.129634,4.6933 16.348952,11.25567 19.20341,2.84102 z"
       style="fill:#d6513f;fill-opacity:1;stroke:none;stroke-width:0.82900929;stroke-linecap:butt;stroke-linejoin:miter;stroke-miterlimit:4;stroke-dasharray:none;stroke-opacity:1" />
    <path
       id="path4514"
       d="m 81.898064,212.71657 c 4.245907,2.66716 12.213501,4.85343 10.664055,5.47236 -3.587069,-1.24279 -6.664791,-2.65697 -10.664055,-5.47236 z"
       style="opacity:1;fill:none;stroke:#5571c6;stroke-width:1.20000005;stroke-linecap:butt;stroke-linejoin:round;stroke-miterlimit:4;stroke-dasharray:none;stroke-opacity:1" />
    <path
       id="path5224"
       d="m 11.301841,188.81981 c 1.74249,1.10356 9.008241,0.39342 13.280944,-0.35225 2.570128,-0.59499 8.025834,-5.41171 9.093175,-8.58504 -0.413483,-2.98936 -10.048614,-9.22585 -11.059896,-8.95813 -0.77525,0.80863 -1.741133,1.61727 -2.63396,2.4259 0.970851,1.68434 1.017025,4.09629 0.334846,5.00342 -1.856359,2.15031 -4.165285,4.85084 -7.647173,5.14351 -0.532158,1.5604 -1.238757,3.9206 -1.367936,5.32259 z"
       style="fill:#d6513f;fill-opacity:1;stroke:none;stroke-width:0.26458332px;stroke-linecap:butt;stroke-linejoin:miter;stroke-opacity:1" />
    <path
       id="path5226"
       d="m 19.723982,188.76039 c -0.389149,-1.34871 -0.438978,-6.01537 0.318206,-7.38328 2.010841,-0.48209 5.721233,-1.07061 8.425567,4.29477 -2.493704,2.23529 -3.990294,2.92794 -8.743773,3.08851 z"
       style="fill:#f8f8ff;fill-opacity:1;stroke:#303030;stroke-width:0.80000001;stroke-linecap:butt;stroke-linejoin:miter;stroke-miterlimit:4;stroke-dasharray:none;stroke-opacity:0.50196078" />
    <path
       id="path5228"
       d="m 21.851802,184.49367 c -0.02961,1.44057 -0.09885,1.97984 -1.821361,2.05643 -0.614204,0.0135 -0.330304,-4.60059 0.120978,-4.79872 0.963555,-0.42305 1.71521,1.48464 1.700383,2.74229 z"
       style="fill:#c7a571;fill-opacity:1;stroke:none;stroke-width:0.26458332px;stroke-linecap:butt;stroke-linejoin:miter;stroke-opacity:1" />
  </g>
</svg>
