<svg xmlns="http://www.w3.org/2000/svg" viewBox="0 0 200 200" height="200mm" width="200mm"><path d="M75 108c-12.5-6.6-26.3-7.7-39-9.4-8.7-1-21.7-2.5-24.6-5.4-.5-4.3 2.8-12.3 8.8-17 5-4 6-9.5 11.5-13.4 2.1 2.6 2 4.6 2 7.5-2 1.8-3 3.8-4.3 5.5 3.2-4.6 8-11.3 15.8-14 .5 8.4-.7 10.7-1.8 14.7-.7 2.6-2.4 5 4.9 6l34.6 5.6c9.8 2.4 25 6 37.4 11 1.8 2.4 4.2 5.8.6 10.5-5.6 4.3-13 6-20 8.4-6.8 2.2-18.6-2.7-26-10z" fill="#f8f8ff" stroke="#303030" stroke-width=".8" stroke-opacity=".5"/><path d="M102.6 82.8c7.7-12.8 19.8-36.5 24.6-37.5 2-.5 2 1.5 2.2 4.4a13 13 0 0 1 6.3 3.7l-6 .3c2.2 1.8 3.2 2.4 3.9 3.8a8 8 0 0 0-4.1.6l1 12z" fill="#d6513f" stroke="#303030" stroke-width=".8" stroke-opacity=".5"/><path d="M144.9 113.7c1.5 4.7 4.5 11.4 6.8 12.4 2 0 4-3.1 5.6-5.2z" fill="#d6513f" stroke="#303030" stroke-width=".3" stroke-opacity=".5"/><path d="M83 88.1c3.6-3.9 9.8-4.2 19.6-5.3l27.8-12.6c9.8-10.8 36.8-30.2 39.6-29.5 1.8-.3 1.7 5.6-1 9 4 1 5.6 1.8 6.5 3.5l-9 .6c1.8 1.6 2 2.2 3.4 4.1-2.4 1.2-4.1.9-6.8 2.2-8.3 7.4-13.6 17.9-20.6 28.6 4.5.6 15.6 3.6 16.2 6-.3 1.9-2.3 4.6-2.3 5.6 11.4 5.5 25.5 10.5 25.6 14.9-.7 1.5-3 5.2-4.7 5.4-3.3-2.5-5.3-4.1-7.4-3.9 2 1.6 3.4 3.4 4.3 6.2.6 1.4-2.8 5.4-5 6.2-2.5-.5-4.7-3.8-7-6.3-.5.5-1 1.5-2 1.8-1.4-1-2.2-2.6-2.9-3.7l-12.4-7.2c-26 21-65.6 9.5-70-5.6 6.2 3.5 10.6 7 21.4 7.4 6-.4 24.8-8.4 21.3-8.7-.9 0-6.8-1.3-.7-5 4.3-2.8-4.4-4.4-34-13.7z" fill="#d6513f" stroke="#303030" stroke-width=".8" stroke-opacity=".5"/><path d="M81.7 105.2c-1.1 6 19 13.8 22.5 3.2 1-7.7-19.8-11.1-22.5-3.2z" fill="#f8f8ff" stroke="#303030" stroke-width=".8" stroke-opacity=".5"/><path d="M102.3 109.3c1.1-5-17.4-8-19.2-2.8-1.2 4.7 16.3 11.2 19.2 2.8z" fill="#d6513f"/><path d="M81.9 115.7c4.2 2.7 12.2 4.9 10.7 5.5a39.6 39.6 0 0 1-10.7-5.5z" fill="none" stroke="#5571c6" stroke-width="1.2" stroke-linejoin="round"/><path d="M11.3 91.8c1.7 1.1 9 .4 13.3-.3 2.6-.6 8-5.4 9-8.6-.3-3-10-9.2-11-9L20 76.4c1 1.6 1 4 .3 5-1.8 2.1-4.1 4.8-7.6 5.1-.6 1.6-1.3 4-1.4 5.3z" fill="#d6513f"/><path d="M19.7 91.8c-.4-1.4-.4-6 .3-7.4 2-.5 5.8-1 8.5 4.3-2.5 2.2-4 2.9-8.8 3z" fill="#f8f8ff" stroke="#303030" stroke-width=".8" stroke-opacity=".5"/><path d="M21.9 87.5c0 1.4-.1 2-1.9 2-.6 0-.3-4.6.2-4.7 1-.5 1.7 1.4 1.7 2.7z" fill="#c7a571"/></svg>