<svg xmlns="http://www.w3.org/2000/svg" enable-background="new" viewBox="0 0 1280 720" height="720mm" width="1280mm"><defs><filter id="a" color-interpolation-filters="sRGB"><feBlend in2="BackgroundImage" mode="soft-light"/></filter></defs><path d="M-.4 448.2v-94.1c50.7-11 105-14.3 168.6 20.6 46.7 33.6 106 105 103.4 110-3 4.7-183.6 1-272-36.5z" fill="#046414"/><path d="M-.4 448.2c16.2 6.3 32.1 12.7 51.8 16.3 3-18 2-41.4 51.5-50.3 12-2.1 49.3 15 74.2 29.3-10.6-12.9-48.3-39.6-47.3-44.5 1.7-7.8 16.1-19 38.4-24.3C103 337.2 51 342.2 1.2 354z" fill="#04560f"/><path d="M58.7 376.1c0-11.3 24.8-11.7 24.4.6-.3 10-24.4 9.8-24.4-.6z" fill="none" stroke="#ffffe0" stroke-width="4" stroke-opacity=".4"/><path d="M61.1 375.9c-2.1-5.3 9.2-10 12-3.8 2.4 5.1-9.7 9.3-12 3.8z" fill="#ffffe0" fill-opacity=".7"/><path d="M231.8 196.7c8-23.5 39.8-32.5 89.8-27.7 60.7 7.7 95.4 27 95.5 35-.8 7.2-32.7 16-104.3 25.5-49 1-85-5.5-81-32.8z" fill="#046414"/><path d="M312.8 229.5c-20.3-9.6-27.6-19.1-10.2-28.7 7.5-4.3 42.8-4.6 56.8-7.3-14.2-.1-51.4 1.3-55.4-3.2-7.3-11.9 22-17.2 38.2-18.3-16-4-99-16.7-110.4 24.7-5.7 33.9 52.3 35.1 81 32.8z" fill="#04560f"/><path d="M232.2 237.1a101.1 101.1 0 0 1-.4-40.4 35.4 35.4 0 0 1 28.5-25.2c-6 6.2-13.5 16.4-8 23.4 4.3 3 19.3 1.9 32.6 1-16.1 2.5-40.3 5.4-39 15.6 1.4 7.2 23 14 32.2 18-9.3-1-16.3 6.8-17.7 11.3z" fill="#04480c"/><path d="M466.2 340.6c.6-9-104.9-85.7-157.7-100.6-36.5-9-75.2-11.2-109.3-7C93 245.6 51.7 266.9 47.6 290.3c-13 74.3 53.8 80.5 134.4 85.4 19.5 1.7 38.1.6 56.7-.6 76.9-6.9 227.6-26.2 227.5-34.4z" fill="#046414"/><path d="M227.5 375.5c-31.4-4.9-19-27.2-4.6-48.7 28.4-45.2 112.9-29.3 149.9-8.8 5.3.4-52.3-29.5-92.3-37.7-27-10.8-7.3-45.3 28-40.3-42-10.8-81-11.2-109.3-7-71.6 19.7-94 45-105.5 71.6-9.4 57.6 43.6 63.4 88.3 71 15 1.5 30.3 2 45.5 0z" fill="#04560f"/><path d="M182 375.6c-91.8-22-76.5-54.8-39.4-74.2 43.1-20.2 86.6-27 110.2-17.7 4-1-12.2-9.8-52.8-15-16.4-2.7-15.2-27.4-.8-35.6-48.9 5.8-146.2 19.2-151.6 57-16.9 86 80.6 81.3 134.4 85.5z" fill="#04480c"/><path d="M279.3 307.7c-2.4-6.6 10.5-12.2 13.7-4.7 2.7 6.3-11.1 11.5-13.7 4.7z" fill="#ffffe0" fill-opacity=".7"/><path d="M276.6 307.3c0-15.5 36.2-16 35.6.7-.4 13.8-35.6 13.4-35.6-.7z" fill="none" stroke="#ffffe0" stroke-width="5.6" stroke-opacity=".4"/><g><path d="M0 243.4c11.6-20.3 29.6-45.1 82-44.1 74.1 5.6 139.7 61 131 60.6-65.4-4.7-96.2 36.2-178.5 44.7-12.7 1-24-.3-34.6-2z" fill="#046414"/><path d="M82 199.3c-18.7 17.1-23.3 29.7-12.7 37.3 5.7 3 50 1.4 68.8 4.8-19.7-2-88.2 1.7-105.6 16.1-8.5 7.8-24.4 28.8 2 47.1-9.8 1.1-21.1.8-34.6-2l.4-59.7-.4 59.6v-59.1c15.6-31.6 44-45.7 82.1-44.1z" fill="#04560f"/></g><g><path d="M1280.1 515.4c-86.1-32.5-181.3-60.2-283.9-38-20.6 3.9 79.9-62.8 154-58.2 67.1 3 104.8 39.2 129.9 66.2z" fill="#005610"/><path d="M1280.1 515.4c-24-8.7-50-18-77-26.1.2-20-14.8-35.1-31-39-9.3-1.6-75.1-3.3-75.6-3.9 2.8-1.5 63.7-5.2 76.5-8 .1-6.5-8.6-12.2-14.5-18.7 66.6 6.1 98.2 39.7 121.6 65.7z" fill="#004800"/></g><g><path d="M1070.5 203c-14.4-50.6-142.4-70.7-139.2-66.1 11.3 9.4 110.3 37.5 90.5 70.9z" fill="#04480c"/></g><g><path d="M742.3 271.5c38.3-6.7 57.4-4 80.6 8.8l165.5-74.9c-17.3-12.6-34.7-26-58-34.6z" fill="#04480c"/><path d="M671 322.4c-33-10.4-65.3-55.1 19.8-111.7 85.8-53.5 209-60.9 262.5-29.2-24 20.2-48 40.4-84.2 48.5-107.8 14.9-188.5 95-198.2 92.4z" fill="#046414"/><path d="M687.9 212.7c8.7-.8 12.3-.1 19.3 4.4-23.2 15.2-28.1 45.8-25.7 55.6 6-20.5 56.7-67.1 98.8-72 17-1.6 68.7-1 88.8 29.3 35.8-7.1 61-27.1 84.2-48.5C911.5 153 787 147.8 688 212.7z" fill="#04560f"/></g><g><path d="M1280.1 164.5c-52.6-9.3-109.5-9-164.3-36.2-74.3-37.9-118.7-28.1-133.9-29.6-33-4.5 84.5-28.9 154.4-21.3 52 3.2 96.8 13.7 143.8 21.1z" fill="#046414"/><path d="M1179.2 81.8c19 13.3 42 28.2 40.5 51.2l60.4 7.5v-42z" fill="#04560f"/><path d="M1280.1 164.5c-66.7-8.1-119.2-12.5-162.6-35-82.4-41-123.6-27.5-134.9-30.7 0 0 56.5-22 145.9 7.3 55.3 17 102 22.1 151.6 24.1z" fill="#04480c"/></g><g><path d="M786 382.7c90.2-5 178.4 10.2 264.6 10.8 97.4 3.2 189.2 2.6 229.8-32.5l-.1-40z" fill="#04480c" filter="url(#a)"/><path d="M1280 186.8c-153.1-4.9-301-3.9-395.6 52-93.2 53.5-218.8 149.8-218.3 170.4.5 14.1 133.2-40.6 232-35.8 110.2 4.9 224.5 0 382-41.5.9-48.7.5-96.8 0-145.1z" fill="#046414"/><path d="M884.4 238.8c57.5 9.8 68.2 21.6 72.8 39.3C880.9 292.3 779 350.1 693 394c86.6-40.9 222.6-101.8 265-103 103-1.9 151.8-22.6 218.7-42.1 27.6-6.1 99 41 103.7 65.7l-.3-127.7c-151.7-6.4-304.4-7.2-395.7 52z" fill="#04560f"/></g></svg>