<?xml version="1.0" encoding="UTF-8" standalone="no"?>
<svg
   xmlns:dc="http://purl.org/dc/elements/1.1/"
   xmlns:cc="http://creativecommons.org/ns#"
   xmlns:rdf="http://www.w3.org/1999/02/22-rdf-syntax-ns#"
   xmlns:svg="http://www.w3.org/2000/svg"
   xmlns="http://www.w3.org/2000/svg"
   xmlns:xlink="http://www.w3.org/1999/xlink"
   id="svg8"
   version="1.1"
   viewBox="0 0 1280 720"
   height="720mm"
   width="1280mm">
  <defs
     id="defs2">
    <linearGradient
       id="linearGradient843">
      <stop
         id="stop839"
         offset="0"
         style="stop-color:#ffffff;stop-opacity:1;" />
      <stop
         id="stop841"
         offset="1"
         style="stop-color:#ffffff;stop-opacity:0;" />
    </linearGradient>
    <linearGradient
       id="linearGradient1674">
      <stop
         id="stop1670"
         offset="0"
         style="stop-color:#80c8e8;stop-opacity:1;" />
      <stop
         id="stop1672"
         offset="1"
         style="stop-color:#80c8e8;stop-opacity:0;" />
    </linearGradient>
    <linearGradient
       gradientUnits="userSpaceOnUse"
       y2="134.78662"
       x2="649.57184"
       y1="-4.4073472"
       x1="649.57184"
       id="linearGradient1676"
       xlink:href="#linearGradient1674" />
    <radialGradient
       gradientUnits="userSpaceOnUse"
       gradientTransform="matrix(1.9798419,-0.01240307,0.00160257,0.25581076,-682.05101,220.28381)"
       r="85.328331"
       fy="272.85419"
       fx="706.4375"
       cy="272.85419"
       cx="706.4375"
       id="radialGradient845"
       xlink:href="#linearGradient843" />
  </defs>
  <metadata
     id="metadata5">
    <rdf:RDF>
      <cc:Work
         rdf:about="">
        <dc:format>image/svg+xml</dc:format>
        <dc:type
           rdf:resource="http://purl.org/dc/dcmitype/StillImage" />
        <dc:title></dc:title>
      </cc:Work>
    </rdf:RDF>
  </metadata>
  <g
     style="display:inline"
     id="layer4">
    <rect
       y="0.2199707"
       x="0.26041982"
       height="314.17178"
       width="1279.8777"
       id="rect1678"
       style="display:inline;opacity:1;fill:#ecffd8;fill-opacity:1;stroke:none;stroke-width:0.26499999;stroke-linejoin:round;stroke-miterlimit:4;stroke-dasharray:none;stroke-opacity:1" />
    <rect
       y="0.21997069"
       x="0.26041982"
       height="141.93001"
       width="1280.3229"
       id="rect1668"
       style="display:inline;opacity:1;fill:url(#linearGradient1676);fill-opacity:1;stroke:none;stroke-width:0.26499999;stroke-linejoin:round;stroke-miterlimit:4;stroke-dasharray:none;stroke-opacity:1" />
    <path
       d="M 844.52306,281.76655 A 127.52916,21.695833 0 0 1 718.61657,303.015 127.52916,21.695833 0 0 1 589.62405,282.30921 127.52916,21.695833 0 0 1 707.00376,259.69206 127.52916,21.695833 0 0 1 843.75542,278.90278"
       id="path837"
       style="opacity:1;fill:url(#radialGradient845);fill-opacity:1;stroke:none;stroke-width:0.26499999;stroke-linejoin:round;stroke-miterlimit:4;stroke-dasharray:none;stroke-opacity:0.70476194" />
  </g>
  <g
     style="display:inline"
     id="layer3">
    <path
       id="path1642"
       d="m 857.72026,244.22703 c 6.39677,-8.91598 37.30649,-16.8498 33.30178,-11.22532 -2.17471,4.69144 0.39398,15.30612 -13.47039,15.71545 -7.30682,-2.29406 -21.43934,-0.4965 -19.83139,-4.49013 z"
       style="fill:#d4e0d4;fill-opacity:1;stroke:none;stroke-width:0.26458332px;stroke-linecap:butt;stroke-linejoin:miter;stroke-opacity:1" />
    <path
       id="path1640"
       d="m 697.94654,234.8726 c 9.09616,-10.02507 34.8114,-8.77991 50.51395,-13.47039 19.17747,-3.7408 38.19489,-4.84076 56.87494,-0.37418 13.74181,3.20944 27.2694,7.09215 39.28862,15.71545 1.68348,2.61354 0.88742,5.98615 -23.19899,2.61924 -15.42991,-3.60996 -31.37887,-2.33982 -46.77216,0.74836 -16.78238,4.13935 -33.78351,7.85945 -53.50735,6.36101 -14.63889,-3.76784 -25.86909,-7.58438 -23.19901,-11.59949 z"
       style="fill:#d4e0d4;fill-opacity:1;stroke:none;stroke-width:0.26458332px;stroke-linecap:butt;stroke-linejoin:miter;stroke-opacity:1" />
    <path
       id="path1638"
       d="m 568.107,233.37589 c 21.71788,-12.0251 58.04575,-2.01562 71.84205,-1.12253 4.18962,3.32282 -11.42909,10.4998 -28.43747,10.10278 -15.46469,-2.7087 -45.45548,-1.26709 -43.40458,-8.98025 z"
       style="fill:#d4e0d4;fill-opacity:1;stroke:none;stroke-width:0.26458332px;stroke-linecap:butt;stroke-linejoin:miter;stroke-opacity:1" />
    <path
       id="path1596"
       d="m 748.64757,189.03587 c -1.90966,1.68994 -43.43555,-16.00199 -52.759,4.8643 -2.39073,5.81041 10.96738,10.71165 17.58633,8.60608 3.28518,-1.15632 9.18433,6.92141 19.8314,2.24506 4.06787,-1.93368 10.86053,2.79801 12.34786,5.23849 4.61565,5.26805 20.53469,10.53964 31.80506,-2.24507 1.3681,-2.17104 29.28993,-1.13374 22.82483,-7.85772 -6.34658,-6.80661 -13.93117,-7.15954 -19.83142,-13.47038 -3.15529,-3.1649 -26.99364,-2.27111 -31.80506,2.61924 z"
       style="fill:#c4c4d0;fill-opacity:1;stroke:none;stroke-width:0.26458332px;stroke-linecap:butt;stroke-linejoin:miter;stroke-opacity:1" />
    <path
       id="path1594"
       d="m 479.79005,196.9797 c 2.91385,-13.86005 28.08276,-19.45812 32.64394,-14.66169 7.30235,8.48975 31.05923,10.78187 31.06973,17.2057 0.0831,4.18582 -16.94173,16.60251 -26.29783,11.273 -9.91041,-5.97115 -38.83337,-7.01114 -37.41584,-13.81701 z"
       style="fill:#c4c4d0;fill-opacity:1;stroke:none;stroke-width:0.26458332px;stroke-linecap:butt;stroke-linejoin:miter;stroke-opacity:1" />
    <path
       id="path1601"
       d="m 813.78358,202.30866 c 16.45647,-7.53709 29.63064,-4.58072 39.6875,2.64584 5.64313,4.51084 -0.95301,8.60326 -14.55208,5.55625 -33.83908,-4.69254 -26.76942,-6.86598 -25.13542,-8.20209 z"
       style="fill:#c4c4d0;fill-opacity:1;stroke:none;stroke-width:0.26458332px;stroke-linecap:butt;stroke-linejoin:miter;stroke-opacity:1" />
    <path
       id="path1624"
       d="m 985.7788,204.59912 c 20.5122,-11.25447 30.7687,-5.72241 41.4566,5.47876 3.5115,4.46727 -26.4747,6.79405 -31.22085,3.175 -9.54554,-4.75958 -14.0188,-5.27328 -10.23575,-8.65376 z"
       style="fill:#c4c4d0;fill-opacity:1;stroke:none;stroke-width:0.26458332px;stroke-linecap:butt;stroke-linejoin:miter;stroke-opacity:1" />
    <path
       id="path1622"
       d="m 909.23122,190.7633 c 17.79689,-11.67012 34.85981,-6.40276 43.39166,1.5875 5.62361,6.35032 17.91303,4.865 12.7,11.90625 -5.53939,5.10931 -28.93608,4.84468 -42.86249,1.5875 0,0 -26.0192,-8.68623 -13.22917,-15.08125 z"
       style="fill:#c4c4d0;fill-opacity:1;stroke:none;stroke-width:0.26458332px;stroke-linecap:butt;stroke-linejoin:miter;stroke-opacity:1" />
  </g>
  <g
     style="display:inline"
     id="layer2">
    <path
       id="path1635"
       d="m 689.983,285.95425 c 129.27985,5.08824 255.08138,-52.68837 265.6659,-53.88152 12.00359,-0.13247 29.53897,22.14129 50.1398,20.95393 15.1357,-0.2983 39.7103,-17.92679 43.4045,-17.96051 3.9214,-0.39245 17.9346,17.30641 30.6826,20.95393 10.9672,-17.12186 35.3698,-29.20543 62.1134,-40.41115 13.9693,-11.44922 27.9386,-27.40837 41.9079,-17.96052 v 47.8947 l -276.89124,90.55093 z"
       style="fill:#c4c4d0;fill-opacity:1;stroke:none;stroke-width:0.26458332px;stroke-linecap:butt;stroke-linejoin:miter;stroke-opacity:1" />
    <path
       id="path1628"
       d="m 333.15015,151.00451 c 7.89316,-0.25386 17.01189,6.43142 28.43747,9.35443 12.32553,-2.07569 17.96012,5.79093 24.71452,14.8575 24.34568,5.5524 35.9466,12.23187 53.10657,21.5473 12.11968,7.71825 16.96359,8.51358 25.07377,11.5541 7.00293,2.35484 15.21333,18.41059 44.87017,24.07105 L 383.28991,268.4962 Z"
       style="fill:#c4c4d0;fill-opacity:1;stroke:none;stroke-width:0.26458332px;stroke-linecap:butt;stroke-linejoin:miter;stroke-opacity:1" />
    <path
       id="path1592"
       d="M 0.34483171,251.50315 C 49.961626,250.29016 95.251141,231.76806 140.75833,214.11665 c 22.46847,-19.65314 45.91485,-21.60199 76.2,-22.225 31.61208,-5.5585 40.52237,-22.10273 62.44167,-29.63334 30.94252,-10.5206 57.15613,-25.13098 63.06713,1.24543 2.64319,9.37531 10.59308,7.15307 18.42453,29.44624 2.50563,8.5526 4.87618,14.82184 10.58334,17.99167 12.81914,6.02933 24.52653,10.11311 31.74999,6.35 13.22462,-9.84847 30.09579,-21.63575 44.38581,-10.20916 13.66029,14.50812 29.29332,22.67882 45.57253,23.96749 6.44799,0.46514 12.84917,-0.37895 19.05,2.11667 57.35898,25.33482 117.9016,44.30236 185.20833,49.74167 16.84758,0.91885 27.77101,5.91055 39.15833,10.58333 8.46667,1.65604 16.93333,1.50662 25.4,-2.11666 9.59932,-2.76097 21.54423,-2.94879 40.21667,6.34999 11.26272,6.38038 20.43376,5.78846 29.63333,5.29167 16.36775,-2.74474 33.13076,-5.85181 41.275,-1.05833 19.56217,1.047 30.75546,-3.48525 44.45,-6.35 17.33238,-7.89847 37.02786,-9.29837 57.15,-9.525 16.79466,0.33442 26.84161,-1.78488 35.98331,-4.23333 31.0404,-18.2613 57.7359,-41.95374 104.775,-40.21668 6.2556,0.30528 17.1859,-19.11475 38.1,-8.46666 10.0371,5.52993 22.1062,-46.86955 46.5667,-30.69167 20.5387,14.31728 42.5861,24.41017 65.6167,31.75 6.8,2.42081 11.7822,10.21609 14.3783,9.525 V 386.22516 L 0.37417734,386.42125 Z"
       style="display:inline;fill:#a8ac94;fill-opacity:1;stroke:none;stroke-width:0.26458332px;stroke-linecap:butt;stroke-linejoin:miter;stroke-opacity:1" />
  </g>
  <g
     style="display:inline"
     id="layer5">
    <path
       id="path847"
       d="m 39.084447,333.82563 c 0.574699,-5.4034 1.037326,-11.00147 4.176519,-11.9503 -0.118609,4.17073 4.270536,9.35223 7.33147,10.47695 1.374038,-4.51269 4.47505,-4.32458 7.412785,-4.58092 1.422421,6.17589 3.505018,6.28695 5.435708,7.79354 3.436056,-0.52718 6.634688,-2.26613 9.53091,-5.54847 0.201,3.013 0.547094,5.58168 1.814447,5.32926 5.940044,-1.27645 9.299921,-5.84501 13.196647,-9.72859 2.355873,3.61005 5.336801,7.0925 5.132028,11.22531 3.137894,-0.98768 6.193699,-2.47808 8.797759,-6.7352 0.0475,1.69778 -0.31472,3.81357 0.73315,4.49013 6.08068,-1.02727 8.34569,-5.94938 12.4635,-8.98024 0.0589,5.3678 2.07876,6.73209 3.66573,8.98024 2.47721,-1.07687 5.33299,-0.22164 7.33148,-3.74176 4.27053,7.13419 5.96327,7.25166 8.79776,10.47697 1.07662,-4.28783 1.96685,-8.95619 5.13203,-8.98027 2.68821,4.48186 5.37641,7.79902 8.06462,8.98027 4.51617,0.80427 6.52291,-2.82832 8.79776,-5.98686 l 2.19944,8.98028 c 5.65249,-3.22023 9.27099,-7.89378 9.53091,-14.96711 l 8.79777,9.72862 c 3.22741,-0.62165 4.78169,-3.37805 5.86517,-6.7352 l 5.13202,8.2319 c 5.69361,-0.27595 9.96814,-4.89745 14.66295,-8.2319 0.52088,5.17293 2.45603,7.45864 5.13203,8.2319 2.12579,-4.51742 4.66969,-6.04754 7.33148,-6.73518 1.95505,6.71897 3.9101,10.17413 5.86516,9.72859 3.84996,-0.18422 7.48493,-1.02678 10.26407,-4.49011 l 3.66572,7.48353 c 4.55887,-2.89723 9.0776,-5.84363 10.99722,-11.97367 l 8.06461,7.48356 c 6.27847,-0.12014 7.32744,-4.24376 9.5309,-7.48356 5.62079,5.55888 11.24161,8.17361 16.8624,10.47698 4.11918,-0.60109 5.5079,-3.5911 5.86517,-7.48356 2.84437,2.75614 6.49067,6.5355 7.33145,6.73521 3.0157,-7.24162 4.57442,-7.79084 6.59834,-10.47697 1.95506,9.55674 4.31512,6.44072 6.27018,10.41955 4.61774,-2.34559 5.39396,-11.71503 6.77271,-16.26473 1.64867,2.59533 8.08553,3.17245 6.57779,2.99048 3.67401,23.53193 2.95299,62.48748 0.17426,86.01941 L 0.43465136,417.17065 0.26038981,331.15124 c 0.66728438,1.55408 4.25870079,-4.49764 4.25870079,-4.49764 1.1882621,1.06376 1.6584769,4.77151 4.2839356,4.95033 2.7138928,-2.63195 5.8937348,-5.04194 5.8651768,-8.98025 1.955058,1.18151 3.910117,3.90496 5.865175,8.98025 5.156729,-0.59451 6.35222,-3.65999 8.234878,-6.29682 1.552697,2.76659 3.105392,6.15702 4.658089,6.90898 1.759015,-0.34809 2.628004,-2.33146 3.451,-4.39933 0.735691,0.3819 1.471383,1.21272 2.207074,6.00887 z"
       style="display:inline;fill:#b6dc7a;fill-opacity:1;stroke:none;stroke-width:0.26188117px;stroke-linecap:butt;stroke-linejoin:miter;stroke-opacity:1" />
    <use
       style="display:inline"
       transform="translate(319.95585,-0.15694)"
       height="100%"
       width="100%"
       id="use854"
       xlink:href="#path847"
       y="0"
       x="0" />
    <use
       style="display:inline"
       transform="translate(639.9117,-0.31388)"
       height="100%"
       width="100%"
       id="use856"
       xlink:href="#path847"
       y="0"
       x="0" />
    <use
       style="display:inline"
       transform="translate(959.86755,-0.47082)"
       height="100%"
       width="100%"
       id="use858"
       xlink:href="#path847"
       y="0"
       x="0" />
    <path
       style="fill:#94ce5e;fill-opacity:1;stroke:none;stroke-width:0.26188117px;stroke-linecap:butt;stroke-linejoin:miter;stroke-opacity:1"
       d="m 39.084447,386.44432 c 6.198323,-2.68229 4.452228,-9.28575 4.176519,-11.9503 4.271399,1.55922 7.407127,7.48635 7.33147,10.47695 7.432814,-0.1253 5.743267,-3.40622 7.412785,-4.58092 6.259898,3.75715 5.590634,5.24414 5.435708,7.79354 3.436056,-0.52718 6.634688,-2.26613 9.53091,-5.54847 0.201,3.013 0.547094,5.58168 1.814447,5.32926 5.940044,-1.27645 9.299921,-5.84501 13.196647,-9.72859 2.355873,3.61005 1.244236,8.2618 1.039463,12.39461 3.137894,-0.98768 10.286264,-3.64738 12.890324,-7.9045 0.0475,1.69778 -0.31472,3.81357 0.73315,4.49013 6.08068,-1.02727 8.34569,-5.94938 12.4635,-8.98024 0.0589,5.3678 2.07876,6.73209 3.66573,8.98024 2.47721,-1.07687 5.33299,-0.22164 7.33148,-3.74176 4.27053,7.13419 3.62466,5.4977 6.45915,8.72301 1.07662,-4.28783 4.30546,-7.20223 7.47064,-7.22631 2.68821,4.48186 5.37641,7.79902 8.06462,8.98027 4.51617,0.80427 6.52291,-2.82832 8.79776,-5.98686 v 0 c 4.73704,-1.16046 9.3709,5.81044 11.73035,-5.98683 l 6.45916,12.06723 c 3.22741,-0.62165 7.1203,-5.71666 8.20378,-9.07381 l 5.13202,8.2319 c 7.10236,1.48499 11.67167,-2.76804 14.66295,-8.2319 3.18011,-1.03193 4.45403,2.79664 5.13203,8.2319 2.12579,-4.51742 4.66969,-6.04754 7.33148,-6.73518 1.95505,6.71897 3.9101,10.17413 5.86516,9.72859 3.84996,-0.18422 6.86482,-11.56877 9.64396,-15.0321 0.1556,8.96889 3.53533,8.80084 7.3968,12.47563 3.82805,0.90301 5.55322,-5.25468 7.47284,-11.38472 l 8.89143,9.13721 c 6.27847,-0.12014 5.26038,-7.96446 7.46384,-11.20426 5.62079,5.55888 6.69409,8.1736 12.31488,10.47697 5.57957,-6.62864 4.12728,-9.09406 9.19538,-11.42566 0.50576,4.07161 8.94822,10.47761 9.789,10.67732 3.0157,-7.24162 4.57442,-7.79084 6.59834,-10.47697 1.95506,9.55674 4.31512,6.44072 6.27018,10.41955 4.61774,-2.34559 5.80737,-4.68704 7.18612,-9.23674 1.64867,2.59533 8.08553,3.17245 6.57779,2.99048 3.67401,23.53193 2.32249,312.26108 -0.45624,335.79301 L -0.19585331,719.56294 0.26038981,383.76993 c 0.82797919,1.6746 5.10290529,-3.86449 4.25870079,-4.49764 -1.5899105,-1.19243 2.0953567,3.57009 4.2839356,4.95033 2.0945198,0.27739 2.6795078,-8.02658 5.8651768,-8.98025 -0.923512,4.06008 2.16376,5.65132 5.865175,8.98025 5.133264,-0.6825 5.381088,-7.30174 8.234878,-6.29682 -0.248555,2.96673 2.579727,6.21543 4.658089,6.90898 1.25501,-0.53771 0.05742,-3.29858 3.451,-4.39933 0.286778,0.75599 0.333118,2.16127 2.207074,6.00887 z"
       id="path860" />
    <use
       transform="translate(319.95585,-0.15694)"
       height="100%"
       width="100%"
       id="use862"
       xlink:href="#path860"
       y="0"
       x="0" />
    <use
       transform="translate(639.9117,-0.31388)"
       height="100%"
       width="100%"
       id="use864"
       xlink:href="#path860"
       y="0"
       x="0" />
    <use
       transform="translate(959.86755,-0.47082)"
       height="100%"
       width="100%"
       id="use866"
       xlink:href="#path860"
       y="0"
       x="0" />
  </g>
</svg>
