<svg xmlns="http://www.w3.org/2000/svg" xmlns:xlink="http://www.w3.org/1999/xlink" viewBox="0 0 1280 720" height="720mm" width="1280mm"><defs><linearGradient id="b"><stop offset="0" stop-color="#fff"/><stop offset="1" stop-color="#fff" stop-opacity="0"/></linearGradient><linearGradient id="a"><stop offset="0" stop-color="#80c8e8"/><stop offset="1" stop-color="#80c8e8" stop-opacity="0"/></linearGradient><linearGradient gradientUnits="userSpaceOnUse" y2="134.8" x2="649.6" y1="-4.4" x1="649.6" id="c" xlink:href="#a"/><radialGradient gradientUnits="userSpaceOnUse" gradientTransform="matrix(1.97984 -.0124 .0016 .25581 -682 220.3)" r="85.3" fy="272.9" fx="706.4" cy="272.9" cx="706.4" id="d" xlink:href="#b"/></defs><path fill="#ecffd8" d="M.3.2h1279.9v314.2H.3z"/><path fill="url(#c)" d="M.3.2h1280.3v141.9H.3z"/><path d="M844.5 281.8A127.5 21.7 0 0 1 718.6 303a127.5 21.7 0 0 1-129-20.7A127.5 21.7 0 0 1 707 259.7a127.5 21.7 0 0 1 136.8 19.2" fill="url(#d)"/><path d="M857.7 244.2c6.4-8.9 37.3-16.8 33.3-11.2-2.2 4.7.4 15.3-13.4 15.7-7.4-2.3-21.5-.5-19.9-4.5zM698 234.9c9-10 34.8-8.8 50.5-13.5a133 133 0 0 1 56.8-.4c13.8 3.2 27.3 7.1 39.3 15.7 1.7 2.7 1 6-23.2 2.7a110.2 110.2 0 0 0-46.7.7 163.7 163.7 0 0 1-53.6 6.4c-14.6-3.8-25.8-7.6-23.2-11.6zM568.1 233.4c21.7-12 58-2 71.8-1.1 4.2 3.3-11.4 10.5-28.4 10-15.5-2.7-45.4-1.2-43.4-9z" fill="#d4e0d4"/><path d="M748.6 189c-1.9 1.7-43.4-16-52.7 4.9-2.4 5.8 11 10.7 17.6 8.6 3.3-1.2 9.2 7 19.8 2.3 4-2 10.9 2.7 12.4 5.2a22.1 22.1 0 0 0 31.8-2.3c1.3-2.1 29.2-1 22.8-7.8-6.4-6.8-14-7.2-19.8-13.5-3.2-3.1-27-2.3-31.9 2.6zM479.8 197c2.9-13.9 28-19.5 32.6-14.7 7.3 8.5 31 10.8 31.1 17.2 0 4.2-17 16.6-26.3 11.3-9.9-6-38.8-7-37.4-13.8zM813.8 202.3c16.4-7.5 29.6-4.6 39.7 2.7 5.6 4.5-1 8.6-14.6 5.5-33.8-4.7-26.8-6.9-25.1-8.2zM985.8 204.6c20.5-11.3 30.7-5.7 41.4 5.5 3.5 4.4-26.4 6.8-31.2 3.2-9.5-4.8-14-5.3-10.2-8.7zM909.2 190.8c17.8-11.7 34.9-6.4 43.4 1.6 5.6 6.3 18 4.8 12.7 11.9-5.5 5-29 4.8-42.8 1.5 0 0-26-8.6-13.3-15z" fill="#c4c4d0"/><g><path d="M690 286c129.3 5 255-52.7 265.6-54 12 0 29.6 22.2 50.2 21 15.1-.3 39.7-17.9 43.4-18 4-.3 18 17.4 30.7 21 11-17.1 35.3-29.2 62-40.4 14-11.4 28-27.4 42-18v48L907 336zM333.2 151c7.8-.2 17 6.4 28.4 9.4 12.3-2.1 18 5.7 24.7 14.8 24.3 5.6 36 12.2 53.1 21.6 12.1 7.7 17 8.5 25 11.5 7 2.4 15.3 18.4 45 24l-126.1 36.2z" fill="#c4c4d0"/><path d="M.3 251.5c49.7-1.2 95-19.7 140.5-37.4 22.4-19.6 45.9-21.6 76.2-22.2 31.6-5.6 40.5-22.1 62.4-29.6 31-10.6 57.2-25.2 63 1.2 2.7 9.4 10.7 7.2 18.5 29.4 2.5 8.6 4.9 14.9 10.6 18 12.8 6 24.5 10.2 31.7 6.4 13.2-9.9 30.1-21.6 44.4-10.2a70.6 70.6 0 0 0 45.6 24c6.4.4 12.8-.4 19 2 57.4 25.4 118 44.4 185.2 49.8 16.9 1 27.8 6 39.2 10.6 8.5 1.6 17 1.5 25.4-2.1 9.6-2.8 21.5-3 40.2 6.3 11.3 6.4 20.5 5.8 29.6 5.3 16.4-2.7 33.2-5.8 41.3-1 19.6 1 30.8-3.5 44.5-6.4 17.3-7.9 37-9.3 57.1-9.5 16.8.3 26.9-1.8 36-4.3 31-18.2 57.7-41.9 104.8-40.2 6.2.3 17.2-19 38-8.4 10.1 5.5 22.2-46.9 46.6-30.7a241.8 241.8 0 0 0 65.7 31.7c6.8 2.4 11.7 10.2 14.3 9.5v142.5L.4 386.4z" fill="#a8ac94"/></g><g><path id="e" d="M39 333.8c.7-5.4 1.1-11 4.3-12-.2 4.2 4.2 9.4 7.3 10.6 1.4-4.6 4.5-4.4 7.4-4.6 1.4 6.1 3.5 6.3 5.4 7.8 3.5-.6 6.7-2.3 9.6-5.6.2 3 .5 5.6 1.8 5.3 6-1.2 9.3-5.8 13.2-9.7 2.3 3.6 5.3 7.1 5.1 11.2 3.2-1 6.2-2.4 8.8-6.7 0 1.7-.3 3.8.7 4.5 6.1-1 8.4-6 12.5-9 0 5.4 2 6.7 3.7 9 2.5-1 5.3-.2 7.3-3.7 4.3 7 6 7.2 8.8 10.4 1-4.3 2-9 5.1-9 2.7 4.5 5.4 7.9 8.1 9 4.5.8 6.5-2.8 8.8-6l2.2 9c5.7-3.2 9.3-7.9 9.5-15l8.8 9.8c3.3-.6 4.8-3.4 5.9-6.7l5.1 8.2c5.7-.3 10-5 14.7-8.2.5 5.1 2.4 7.4 5.1 8.2 2.1-4.5 4.7-6 7.4-6.8 2 6.8 3.9 10.2 5.8 9.8 3.9-.2 7.5-1 10.3-4.5l3.6 7.5c4.6-3 9.1-5.9 11-12l8.1 7.5c6.3-.1 7.3-4.3 9.5-7.5a47.8 47.8 0 0 0 16.9 10.5c4.1-.6 5.5-3.6 5.9-7.5 2.8 2.7 6.5 6.5 7.3 6.7 3-7.2 4.6-7.8 6.6-10.5 2 9.6 4.3 6.5 6.3 10.5 4.6-2.4 5.4-11.7 6.7-16.3 1.7 2.6 8.1 3.2 6.6 3 3.7 23.5 3 62.5.2 86l-320 .2-.1-86c.6 1.5 4.2-4.5 4.2-4.5 1.2 1 1.7 4.7 4.3 4.9 2.7-2.6 5.9-5 5.9-9 2 1.2 3.9 4 5.8 9 5.2-.6 6.4-3.7 8.3-6.3 1.5 2.8 3 6.2 4.6 7 1.8-.4 2.7-2.4 3.5-4.5.7.4 1.4 1.2 2.2 6z" fill="#b6dc7a" stroke-width=".3"/><use transform="translate(320 -.2)" height="100%" width="100%" xlink:href="#e"/><use transform="translate(640 -.3)" height="100%" width="100%" xlink:href="#e"/><use transform="translate(959.9 -.5)" height="100%" width="100%" xlink:href="#e"/><path d="M39 386.4c6.3-2.6 4.5-9.2 4.3-12 4.2 1.7 7.4 7.6 7.3 10.6 7.4-.2 5.7-3.4 7.4-4.6 6.3 3.7 5.6 5.2 5.4 7.8 3.5-.5 6.7-2.3 9.6-5.6.2 3 .5 5.6 1.8 5.4 6-1.3 9.3-5.9 13.2-9.8 2.3 3.6 1.2 8.3 1 12.4 3.2-1 10.3-3.6 13-7.9 0 1.7-.4 3.8.6 4.5 6.1-1 8.4-6 12.5-9 0 5.4 2 6.8 3.7 9 2.5-1 5.3-.2 7.3-3.7 4.3 7.1 3.6 5.5 6.5 8.7 1-4.3 4.3-7.2 7.4-7.2 2.7 4.5 5.4 7.8 8.1 9 4.5.8 6.5-2.9 8.8-6 4.7-1.2 9.4 5.8 11.7-6l6.5 12c3.2-.6 7.1-5.7 8.2-9l5.1 8.2c7.1 1.5 11.7-2.8 14.7-8.2 3.2-1 4.4 2.8 5.1 8.2 2.1-4.5 4.7-6 7.4-6.7 2 6.7 3.9 10.1 5.8 9.7 3.9-.2 6.9-11.6 9.7-15 .1 9 3.5 8.8 7.4 12.4 3.8 1 5.5-5.2 7.4-11.3l9 9c6.2 0 5.2-7.9 7.4-11.1 5.6 5.5 6.7 8.2 12.3 10.5 5.6-6.7 4.1-9.1 9.2-11.5.5 4.1 9 10.5 9.8 10.7 3-7.2 4.6-7.8 6.6-10.5 2 9.6 4.3 6.5 6.3 10.5 4.6-2.4 5.8-4.7 7.1-9.3 1.7 2.6 8.1 3.2 6.6 3 3.7 23.5 2.3 312.3-.4 335.8l-320 .2.5-335.8c.8 1.6 5-3.9 4.2-4.5-1.6-1.2 2.1 3.5 4.3 5 2.1.2 2.7-8.1 5.9-9-1 4 2.1 5.6 5.8 9 5.2-.8 5.4-7.4 8.3-6.4-.3 3 2.5 6.2 4.6 7 1.3-.6 0-3.4 3.5-4.5.3.8.3 2.2 2.2 6z" id="f" fill="#94ce5e" stroke-width=".3"/><use transform="translate(320 -.2)" height="100%" width="100%" xlink:href="#f"/><use transform="translate(640 -.3)" height="100%" width="100%" xlink:href="#f"/><use transform="translate(959.9 -.5)" height="100%" width="100%" xlink:href="#f"/></g></svg>