<?xml version="1.0" encoding="UTF-8" standalone="no"?>
<!-- Created with Inkscape (http://www.inkscape.org/) -->

<svg
   xmlns:dc="http://purl.org/dc/elements/1.1/"
   xmlns:cc="http://creativecommons.org/ns#"
   xmlns:rdf="http://www.w3.org/1999/02/22-rdf-syntax-ns#"
   xmlns:svg="http://www.w3.org/2000/svg"
   xmlns="http://www.w3.org/2000/svg"
   xmlns:sodipodi="http://sodipodi.sourceforge.net/DTD/sodipodi-0.dtd"
   xmlns:inkscape="http://www.inkscape.org/namespaces/inkscape"
   width="200mm"
   height="200mm"
   viewBox="0 0 200 200"
   version="1.1"
   id="svg8"
   inkscape:version="0.92.2 5c3e80d, 2017-08-06"
   sodipodi:docname="mudkip-back.svg">
  <defs
     id="defs2" />
  <sodipodi:namedview
     id="base"
     pagecolor="#ffffff"
     bordercolor="#666666"
     borderopacity="1.0"
     inkscape:pageopacity="0.0"
     inkscape:pageshadow="2"
     inkscape:zoom="0.45254834"
     inkscape:cx="49.203386"
     inkscape:cy="576.74718"
     inkscape:document-units="mm"
     inkscape:current-layer="layer1"
     showgrid="false"
     inkscape:window-width="1440"
     inkscape:window-height="851"
     inkscape:window-x="-1"
     inkscape:window-y="0"
     inkscape:window-maximized="0" />
  <metadata
     id="metadata5">
    <rdf:RDF>
      <cc:Work
         rdf:about="">
        <dc:format>image/svg+xml</dc:format>
        <dc:type
           rdf:resource="http://purl.org/dc/dcmitype/StillImage" />
        <dc:title></dc:title>
      </cc:Work>
    </rdf:RDF>
  </metadata>
  <g
     inkscape:label="Layer 1"
     inkscape:groupmode="layer"
     id="layer1"
     transform="translate(0,-97)"
     style="display:inline">
    <path
       style="display:inline;fill:#57a6de;fill-opacity:1;stroke:#334f60;stroke-width:0.80000001;stroke-linecap:butt;stroke-linejoin:miter;stroke-miterlimit:4;stroke-dasharray:none;stroke-opacity:1"
       d="m 83.605247,197.60914 c -1.064168,-7.52454 4.785287,-16.20667 11.814127,-20.49524 12.778396,-7.89927 27.910526,-8.23402 44.669646,-1.87809 5.27964,2.0498 13.84256,9.82485 12.15661,19.05743 -2.90005,12.65725 -8.77361,17.06997 -20.99124,19.68616 -14.04307,2.08788 -27.26833,2.46579 -38.294709,-1.75395 -5.716545,-3.64933 -8.310815,-8.76796 -9.354434,-14.61631 z"
       id="path964"
       inkscape:connector-curvature="0"
       sodipodi:nodetypes="ccccccc" />
    <path
       style="display:inline;fill:#57a6de;fill-opacity:1;stroke:#334f60;stroke-width:0.80000001;stroke-linecap:butt;stroke-linejoin:miter;stroke-miterlimit:4;stroke-dasharray:none;stroke-opacity:1"
       d="m 107.69369,179.28109 c 1.15071,-8.40604 -1.54097,-14.1249 -3.20395,-21.91081 -1.43303,-7.78592 -1.58991,-15.36513 0.31007,-23.35775 2.52922,-7.577 13.58852,-6.94223 18.29345,-5.37435 5.92816,2.46462 8.56733,6.56823 10.23193,13.43587 1.58123,7.26916 0.15123,14.84837 -2.58382,22.01417 -0.63142,2.14088 -0.92677,5.75739 -1.13688,9.19841"
       id="path966"
       inkscape:connector-curvature="0"
       sodipodi:nodetypes="ccccccc" />
    <path
       style="display:inline;fill:none;stroke:#000000;stroke-width:3;stroke-linecap:round;stroke-linejoin:round;stroke-miterlimit:4;stroke-dasharray:none;stroke-opacity:0.25098039"
       d="m 115.32262,174.95387 c -0.43152,-14.71722 -0.19146,-29.77024 0.14617,-44.87204"
       id="path817"
       inkscape:connector-curvature="0"
       sodipodi:nodetypes="cc" />
    <path
       style="display:inline;fill:none;stroke:#000000;stroke-width:3;stroke-linecap:round;stroke-linejoin:miter;stroke-miterlimit:4;stroke-dasharray:none;stroke-opacity:0.25098039"
       d="m 123.21543,171.2998 c -1.32511,-19.80965 2.40276,-24.60654 1.46163,-38.7332"
       id="path819"
       inkscape:connector-curvature="0"
       sodipodi:nodetypes="cc" />
    <path
       style="display:inline;fill:#ef993e;fill-opacity:1;stroke:#72450b;stroke-width:0.80000001;stroke-linecap:butt;stroke-linejoin:miter;stroke-miterlimit:4;stroke-dasharray:none;stroke-opacity:1"
       d="m 132.54548,213.68845 c 7.82164,-5.00667 14.99125,-21.70284 17.63358,-29.70329 2.70292,3.5077 4.66541,7.95823 4.64353,12.55585 2.05995,0.0661 5.34547,0.60168 9.30176,1.44694 8.41822,1.40824 -1.73408,5.28228 -4.54753,5.16765 -2.22617,1.38088 -2.25869,3.11057 1.55029,7.2347 5.48565,5.38969 -2.8071,3.55032 -6.30452,4.13411 -4.53988,0.10948 -4.86138,1.69539 -3.92741,3.72071 1.13574,2.17142 -3.36151,5.25574 -4.75423,2.89388 -1.58138,-3.14008 -3.24797,-6.15236 -5.37435,-8.47494 z"
       id="path821"
       inkscape:connector-curvature="0"
       sodipodi:nodetypes="ccccccccccc" />
    <path
       style="display:inline;fill:#ef993e;fill-opacity:1;stroke:#72450b;stroke-width:0.80000001;stroke-linecap:butt;stroke-linejoin:miter;stroke-miterlimit:4;stroke-dasharray:none;stroke-opacity:1"
       d="m 87.746581,183.93197 c -1.607731,8.46978 -1.680188,21.02832 5.2131,28.29348 -1.448963,0.33351 -3.307337,-0.19528 -5.684408,-1.03352 -1.766241,-0.55844 -3.840707,1.26373 -5.219318,1.55029 -2.839362,0.70709 -2.509272,-3.08426 -2.215867,-5.19413 0.180729,-1.6341 -0.491595,-3.75751 -2.687175,-3.10058 -7.815668,2.1197 -8.321839,-1.47792 -1.876849,-3.75078 1.70867,-0.42991 1.013484,-2.39508 -0.551944,-3.7423 -5.69277,-5.25203 -1.47429,-5.63306 0.620117,-5.271 2.512767,0.35204 1.895879,1.40011 5.891114,0.51676 2.998916,-0.68481 4.527836,-5.04461 6.51123,-8.26822 z"
       id="path823"
       inkscape:connector-curvature="0"
       sodipodi:nodetypes="ccccccccccc" />
    <path
       style="fill:#57a6de;fill-opacity:1;stroke:#334f60;stroke-width:0.80000001;stroke-linecap:butt;stroke-linejoin:miter;stroke-miterlimit:4;stroke-dasharray:none;stroke-opacity:1"
       d="m 101.72946,205.20962 c -15.883716,5.65164 -16.206777,11.71668 -20.170495,16.95491 l 50.864735,-0.14617 c -1.0967,-3.92203 -2.04913,-8.57489 -7.23508,-14.9817"
       id="path825"
       inkscape:connector-curvature="0"
       sodipodi:nodetypes="cccc" />
    <path
       style="display:inline;fill:#b3bbf2;fill-opacity:1;stroke:#555965;stroke-width:0.80000001;stroke-linecap:butt;stroke-linejoin:miter;stroke-miterlimit:4;stroke-dasharray:none;stroke-opacity:1"
       d="m 92.190754,225.89323 c -5.898242,-21.98184 -13.465335,-35.26902 -26.9219,-43.35805 -17.424799,-8.26771 -20.791116,0.77109 -21.033829,11.93878 0.219338,9.39968 5.173801,16.93097 11.479513,31.49451 z"
       id="path960"
       inkscape:connector-curvature="0"
       sodipodi:nodetypes="ccccc" />
    <path
       style="display:inline;fill:none;stroke:#000000;stroke-width:3;stroke-linecap:round;stroke-linejoin:miter;stroke-miterlimit:4;stroke-dasharray:none;stroke-opacity:0.25098039"
       d="M 87.551649,224.94163 C 78.303067,206.72926 64.429711,195.84143 45.844272,189.1745"
       id="path962"
       inkscape:connector-curvature="0"
       sodipodi:nodetypes="cc" />
  </g>
</svg>
