<svg xmlns="http://www.w3.org/2000/svg" viewBox="0 0 200 200" height="200mm" width="200mm"><g transform="translate(0 -97)"><path d="M51.5 212.4c2.5 6.5 5.3 14.3 10.7 17.8-.4 3-.3 5.6-4 8.5.5 2.7 10 3.6 13.4 3.4 5.1-2.8 4.6-7 5.7-10 3.1 0 5 0 9.9-.5.8 3 .4 6.6-1.3 10.6.8 3.6 11.5 2 13.9 1.5 5.1-5.4 3.6-7.6 5.2-11.2 2.2-.5 1.5 2.1 5.8-.4-1.5 1-3.4 1.2-4.1 3.6-1.1 4.4 2.3 4.6 6 4.4 2.5-.2 9.3-7.7 10.4-10.7 1.1-3.1 1.2-10.2-1.6-12.6-1.5-4.5-3.4-6.3-7-9.4z" fill="#5aa5e0" stroke="#000" stroke-width=".8"/><path d="M67.4 218.9c1.5 4.7 3.4 9.9 10 13.1 4.6.1 7.5-.1 10-.5-.6-1.6-2.5-8.9-2.8-11.3-6.4.3-11.9 0-17.2-1.3z" fill="#b0b9ee" stroke="#3a4f76" stroke-width=".4"/><path d="M152.5 206.3c-5.5 12.2-12.8 21.7-29.4 23 .8-4.5.7-8.8-.5-11-2-3-5-4.4-8.3-5.6-2.4-1-5.4-8.2-4-9.4 7.2-5.6 12-10.5 17.1-18.2 3.4-4.6 13-10 18.4-9.4 5.1.4 9.5 3.7 10.9 15.2.7 5-1.3 8.2-4.2 15.4z" fill="#acb7ed" stroke="#8880a0" stroke-width=".8"/><path d="M124.3 219.2c9-1.8 16-4.5 24-8M120.5 214.4c10.4-22.8 21-25.3 33.6-30.2" fill="none" stroke="#000" stroke-width="3" stroke-linecap="round" stroke-opacity=".3"/><path d="M40.4 191.5c4.3-15.5 18.4-21.2 36.7-22.6 26.4.8 40.2 15.6 41.2 23.8 2 8-2 19-18.9 25.3a79.2 79.2 0 0 1-45.7-1.9c-10-5-16.3-15.2-13.3-24.6z" fill="#5aa5e0" stroke="#000" stroke-width=".8"/><path d="M71.8 187c-3.2-8.7-2.1-14.5-6.4-27.6-2.7-9.6-4-19 7.2-26 11.3-5.6 21.1-6.7 26.4 5.6 3.4 17-3.4 21.6-2.5 31.5l.3 6" fill="#5aa5e0" stroke="#000" stroke-width=".8"/><path d="M75.6 133.3c-1.6 17 2.8 31.6 6.6 48.5M88.3 130.9c-2 13.2-.8 31.7.7 44.2" fill="none" stroke="#000" stroke-width="3" stroke-linecap="round" stroke-opacity=".3"/><path d="M50 213.5c1.5.4-1-6.6-1-6.6 11 6.4 34.6 5.6 43.6.5.2 2.4 4.8 8.4 7.8 10.4-14.4 6.2-44 3.8-50.4-4.3z" fill="#b0b9ee" stroke="#3a4f76" stroke-width=".8"/><path d="M39.5 198.3c-1.1-5.7-.3-9.1 2.9-6.1 1.8 1.5 2.6 6 3.7 8.5 1 2.4 2.3 4.2 2.8 5.4 1.4 2.2 2.4 7.4 3.7 9.6-2.4-1-6.9-4.4-8.7-7.2 1 2.2 3.4 2.7 2.9 4.3-.8 2.6-3.4 3.2-6 3.8-6.5 1.5-4.8-4-5-6.5-18.2-.5-17.5-1.8-3.5-7.6-7.3-6.6-12-10.3-2.4-10.2 2.7.3 3-.6 5.3-.2 3.6.8 3.8 3.4 4.3 6.2zM101.8 213.7c5.3.7 5.6 1.5 9.2 4.7 2.7 2.8 3.9-3 3.3-5.7 16-.6 15.6-3.7 4-8 5-4.8 9.3-11 2.4-9.7-2.3.5-.5.5-3.4 1.3a11 11 0 0 0-5.3 4c1-1.7 2.3-3.3 5-4.4-2.9-3.8-11.4-6.8-18.9 1.5-5.4 6-8 12.8-2.2 19.8 3.7 3 8.7 0 9.6-2-1.5-1.2-.5-1-3.7-1.5z" fill="#ef9942" stroke="#a86010" stroke-width=".8"/><ellipse ry="5.9" rx="5.3" cy="196.8" cx="55.4"/><ellipse ry="2.8" rx="2.8" cy="195.1" cx="55.3" fill="#fff"/><ellipse cx="82" cy="199.5" rx="5" ry="5.6"/><ellipse cx="82" cy="198.2" rx="2.4" ry="2.7" fill="#fff"/></g></svg>