<svg xmlns="http://www.w3.org/2000/svg" viewBox="0 0 200 200" height="200mm" width="200mm"><path d="M83.6 100.6c-1-7.5 4.8-16.2 11.8-20.5 12.8-7.9 28-8.2 44.7-1.9 5.3 2 13.8 9.9 12.1 19-2.9 12.8-8.7 17.2-21 19.8a77 77 0 0 1-38.2-1.8 20.5 20.5 0 0 1-9.4-14.6z" fill="#57a6de" stroke="#334f60" stroke-width=".8"/><path d="M107.7 82.3c1.1-8.4-1.5-14.1-3.2-22a55.2 55.2 0 0 1 .3-23.3c2.5-7.6 13.6-7 18.3-5.4 6 2.5 8.6 6.6 10.2 13.5 1.6 7.2.2 14.8-2.6 22-.6 2.1-.9 5.7-1.1 9.2" fill="#57a6de" stroke="#334f60" stroke-width=".8"/><path d="M115.3 78c-.4-14.8-.2-29.8.2-45" fill="none" stroke="#000" stroke-width="3" stroke-linecap="round" stroke-linejoin="round" stroke-opacity=".3"/><path d="M123.2 74.3c-1.3-19.8 2.4-24.6 1.5-38.7" fill="none" stroke="#000" stroke-width="3" stroke-linecap="round" stroke-opacity=".3"/><path d="M132.5 116.7c7.9-5 15-21.7 17.7-29.7a21 21 0 0 1 4.6 12.5c2 .1 5.4.6 9.3 1.5 8.4 1.4-1.7 5.3-4.5 5.2-2.2 1.3-2.3 3 1.5 7.2 5.5 5.4-2.8 3.5-6.3 4.1-4.5.1-4.8 1.7-3.9 3.7 1.1 2.2-3.4 5.3-4.8 3a37.5 37.5 0 0 0-5.3-8.5zM87.7 87c-1.6 8.4-1.6 21 5.3 28.2-1.5.4-3.3-.2-5.7-1-1.8-.6-3.9 1.3-5.2 1.5-2.9.7-2.6-3-2.3-5.2.2-1.6-.5-3.7-2.6-3-7.9 2-8.4-1.5-2-3.8 1.8-.4 1-2.4-.5-3.7-5.7-5.3-1.5-5.7.6-5.3 2.6.3 2 1.4 6 .5 3-.7 4.5-5 6.4-8.3z" fill="#ef993e" stroke="#72450b" stroke-width=".8"/><path d="M101.7 108.2c-15.9 5.7-16.2 11.7-20.1 17l50.8-.2c-1-3.9-2-8.6-7.2-15" fill="#57a6de" stroke="#334f60" stroke-width=".8"/><path d="M92.2 128.9c-6-22-13.5-35.3-27-43.4-17.4-8.2-20.7.8-21 12 .3 9.4 5.2 16.9 11.5 31.5z" fill="#b3bbf2" stroke="#555965" stroke-width=".8"/><path d="M87.6 128a70.6 70.6 0 0 0-41.8-35.8" fill="none" stroke="#000" stroke-width="3" stroke-linecap="round" stroke-opacity=".3"/></svg>