<?xml version="1.0" encoding="UTF-8" standalone="no"?>
<svg
   xmlns:dc="http://purl.org/dc/elements/1.1/"
   xmlns:cc="http://creativecommons.org/ns#"
   xmlns:rdf="http://www.w3.org/1999/02/22-rdf-syntax-ns#"
   xmlns:svg="http://www.w3.org/2000/svg"
   xmlns="http://www.w3.org/2000/svg"
   id="svg8"
   version="1.1"
   viewBox="0 0 200 200"
   height="200mm"
   width="200mm">
  <defs
     id="defs2" />
  <metadata
     id="metadata5">
    <rdf:RDF>
      <cc:Work
         rdf:about="">
        <dc:format>image/svg+xml</dc:format>
        <dc:type
           rdf:resource="http://purl.org/dc/dcmitype/StillImage" />
        <dc:title></dc:title>
      </cc:Work>
    </rdf:RDF>
  </metadata>
  <g
     style="display:inline"
     transform="translate(0,-97)"
     id="layer1">
    <path
       id="path937"
       d="m 51.522984,212.42451 c 2.428106,6.42743 5.291564,14.27158 10.631954,17.78672 -0.323995,2.9031 -0.240888,5.63102 -4.023095,8.53523 0.606193,2.67611 9.993968,3.59353 13.470385,3.3676 5.1031,-2.81565 4.63608,-7.02786 5.729589,-10.0929 3.076429,0.12526 4.922713,0.0361 9.868469,-0.44254 0.793575,3.05017 0.432028,6.58361 -1.26239,10.62898 0.749291,3.59135 11.500002,2.08145 13.844562,1.49671 5.127552,-5.43247 3.656692,-7.56573 5.238482,-11.22532 2.19588,-0.45755 1.42983,2.13887 5.79975,-0.37418 -1.4744,1.00932 -3.42785,1.19741 -4.11595,3.55469 -1.14243,4.46658 2.33696,4.61011 5.94006,4.49012 2.55272,-0.20212 9.33706,-7.73276 10.43855,-10.76639 1.12411,-3.12584 1.19049,-10.15183 -1.59861,-12.61969 -1.46266,-4.48335 -3.4278,-6.23779 -7.01858,-9.34113 z"
       style="display:inline;fill:#5aa5e0;fill-opacity:1;stroke:#000000;stroke-width:0.80000001;stroke-linecap:butt;stroke-linejoin:miter;stroke-miterlimit:4;stroke-dasharray:none;stroke-opacity:1" />
    <path
       id="path940"
       d="m 67.35192,218.90037 c 1.49978,4.71995 3.491786,9.89734 9.979897,13.12079 4.618988,0.12576 7.531567,-0.15121 10.154949,-0.52439 -0.638638,-1.56738 -2.587594,-8.88595 -2.92269,-11.29667 -6.381953,0.29342 -11.821521,-0.0948 -17.212156,-1.29973 z"
       style="fill:#b0b9ee;fill-opacity:1;stroke:#3a4f76;stroke-width:0.40000001;stroke-linecap:butt;stroke-linejoin:miter;stroke-miterlimit:4;stroke-dasharray:none;stroke-opacity:1" />
    <path
       id="path909"
       d="m 152.54981,206.2644 c -5.5316,12.19049 -12.81965,21.72588 -29.46646,23.11883 0.83125,-4.63267 0.71712,-8.87053 -0.51532,-11.09303 -1.96262,-2.93666 -4.93816,-4.4294 -8.30458,-5.61132 -2.38981,-0.8959 -5.34869,-8.20642 -4.00905,-9.35443 7.25649,-5.65721 11.99221,-10.52597 17.18543,-18.1877 3.35872,-4.63019 12.89027,-10.09164 18.36142,-9.4747 5.13106,0.48457 9.54394,3.7466 10.89124,15.23436 0.67104,5.08819 -1.31554,8.22 -4.14268,15.36799 z"
       style="display:inline;fill:#acb7ed;fill-opacity:1;stroke:#8880a0;stroke-width:0.80000001;stroke-linecap:butt;stroke-linejoin:miter;stroke-miterlimit:4;stroke-dasharray:none;stroke-opacity:1" />
    <path
       id="path933"
       d="m 124.27384,219.2314 c 9.00452,-1.80383 16.12036,-4.52395 24.1007,-8.01309"
       style="display:inline;fill:none;stroke:#000000;stroke-width:3;stroke-linecap:round;stroke-linejoin:miter;stroke-miterlimit:4;stroke-dasharray:none;stroke-opacity:0.25098039" />
    <path
       id="path931"
       d="m 120.48135,214.36185 c 10.43167,-22.76107 21.04701,-25.23194 33.57713,-30.14887"
       style="display:inline;fill:none;stroke:#000000;stroke-width:3;stroke-linecap:round;stroke-linejoin:miter;stroke-miterlimit:4;stroke-dasharray:none;stroke-opacity:0.25238097" />
    <path
       id="path877"
       d="m 40.443451,191.54464 c 4.258642,-15.52211 18.346583,-21.21492 36.663691,-22.67857 26.410168,0.85099 40.172818,15.63399 41.199408,23.8125 2.04256,8.01522 -1.91501,19.03742 -18.898812,25.32441 -14.781744,3.5397 -29.946771,3.62986 -45.73512,-1.88989 -10.041494,-5.0552 -16.238787,-15.23753 -13.229167,-24.56845 z"
       style="display:inline;fill:#5aa5e0;fill-opacity:1;stroke:#000000;stroke-width:0.80000001;stroke-linecap:butt;stroke-linejoin:miter;stroke-miterlimit:4;stroke-dasharray:none;stroke-opacity:1" />
    <path
       id="path879"
       d="m 71.815475,187.00893 c -3.197682,-8.74493 -2.121995,-14.47512 -6.425594,-27.59226 -2.663201,-9.5965 -4.041943,-18.96363 7.181546,-26.08036 11.324395,-5.5206 21.145782,-6.5948 26.458333,5.66964 3.33463,17.04043 -3.400125,21.60764 -2.55134,31.46652 l 0.283485,5.95313"
       style="display:inline;fill:#5aa5e0;fill-opacity:1;stroke:#000000;stroke-width:0.80000001;stroke-linecap:butt;stroke-linejoin:miter;stroke-miterlimit:4;stroke-dasharray:none;stroke-opacity:1" />
    <path
       id="path881"
       d="m 75.550888,133.33656 c -1.600311,17.00107 2.845148,31.55809 6.634491,48.47027"
       style="display:inline;fill:none;stroke:#000000;stroke-width:3;stroke-linecap:round;stroke-linejoin:miter;stroke-miterlimit:4;stroke-dasharray:none;stroke-opacity:0.25098039" />
    <path
       id="path883"
       d="m 88.332579,130.89199 c -1.956423,13.20539 -0.841749,31.67073 0.668173,44.2331"
       style="display:inline;fill:none;stroke:#000000;stroke-width:3;stroke-linecap:round;stroke-linejoin:miter;stroke-miterlimit:4;stroke-dasharray:none;stroke-opacity:0.25098039" />
    <path
       id="path906"
       d="m 50.031241,213.53327 c 1.456543,0.38659 -1.036078,-6.62153 -1.036078,-6.62153 10.923079,6.37762 34.5921,5.62791 43.637951,0.52852 0.200699,2.38851 4.78311,8.31562 7.790436,10.36192 -14.389817,6.21867 -43.990105,3.80522 -50.392309,-4.26891 z"
       style="display:inline;fill:#b0b9ee;fill-opacity:1;stroke:#3a4f76;stroke-width:0.80000001;stroke-linecap:butt;stroke-linejoin:miter;stroke-miterlimit:4;stroke-dasharray:none;stroke-opacity:1" />
    <path
       id="path885"
       d="m 39.540569,198.27183 c -1.161411,-5.65042 -0.376377,-9.07579 2.846149,-6.09202 1.77731,1.54735 2.625411,6.04569 3.665108,8.52894 1.013806,2.42142 2.371249,4.22674 2.89609,5.38798 1.305096,2.20065 2.401737,7.4099 3.63893,9.60009 -2.359461,-0.94281 -6.889975,-4.40637 -8.642531,-7.19762 0.902513,2.20708 3.347331,2.72863 2.821894,4.30972 -0.763578,2.62396 -3.325175,3.18124 -5.908423,3.76233 -6.540427,1.49336 -4.865735,-3.89329 -5.120042,-6.48481 -18.183312,-0.49094 -17.470346,-1.73705 -3.420779,-7.58049 -7.305826,-6.63288 -12.064546,-10.35465 -2.439481,-10.1939 2.719756,0.25906 2.932944,-0.6032 5.274301,-0.20044 3.601066,0.77866 3.833617,3.41123 4.388784,6.16022 z"
       style="display:inline;fill:#ef9942;fill-opacity:1;stroke:#a86010;stroke-width:0.80000001;stroke-linecap:butt;stroke-linejoin:miter;stroke-miterlimit:4;stroke-dasharray:none;stroke-opacity:1" />
    <path
       id="path890"
       d="m 101.77504,213.68734 c 5.34449,0.75979 5.66141,1.51848 9.20947,4.75569 2.66623,2.74595 3.89431,-3.04132 3.27894,-5.76415 16.00562,-0.53881 15.67314,-3.66884 4.11378,-7.89361 4.85676,-4.86602 9.18556,-11.13427 2.29006,-9.81472 -2.28966,0.55851 -0.46367,0.53317 -3.3915,1.2988 -2.2454,0.8925 -3.63115,1.92657 -5.2802,4.12531 0.96787,-1.82028 2.29749,-3.43324 5.02034,-4.52691 -2.88908,-3.7478 -11.44924,-6.76741 -18.910963,1.5031 -5.412283,5.99016 -8.093469,12.78354 -2.173364,19.84375 3.635695,2.91571 8.624747,0.01 9.611207,-2.02401 -1.49689,-1.23685 -0.55435,-0.91939 -3.76777,-1.50325 z"
       style="display:inline;fill:#ef9942;fill-opacity:1;stroke:#a86010;stroke-width:0.80000001;stroke-linecap:butt;stroke-linejoin:miter;stroke-miterlimit:4;stroke-dasharray:none;stroke-opacity:1" />
    <ellipse
       ry="5.8799291"
       rx="5.278573"
       cy="196.79277"
       cx="55.391602"
       id="path892"
       style="display:inline;opacity:1;fill:#000000;fill-opacity:1;stroke:none;stroke-width:0.80000001;stroke-linecap:round;stroke-linejoin:round;stroke-miterlimit:4;stroke-dasharray:none;stroke-opacity:1" />
    <ellipse
       ry="2.8129778"
       rx="2.7809124"
       cy="195.1227"
       cx="55.313168"
       id="path898"
       style="display:inline;opacity:1;fill:#ffffff;fill-opacity:1;stroke:none;stroke-width:0.80000001;stroke-linecap:round;stroke-linejoin:round;stroke-miterlimit:4;stroke-dasharray:none;stroke-opacity:1" />
    <ellipse
       style="display:inline;opacity:1;fill:#000000;fill-opacity:1;stroke:none;stroke-width:0.76156217;stroke-linecap:round;stroke-linejoin:round;stroke-miterlimit:4;stroke-dasharray:none;stroke-opacity:1"
       id="ellipse902"
       cx="81.984901"
       cy="199.46547"
       rx="5.0113034"
       ry="5.6126595" />
    <ellipse
       style="display:inline;opacity:1;fill:#ffffff;fill-opacity:1;stroke:none;stroke-width:0.79396778;stroke-linecap:round;stroke-linejoin:round;stroke-miterlimit:4;stroke-dasharray:none;stroke-opacity:1"
       id="ellipse904"
       cx="81.991455"
       cy="198.24065"
       rx="2.4357252"
       ry="2.7362423" />
  </g>
</svg>
