<?xml version="1.0" encoding="UTF-8" standalone="no"?>
<!-- Created with Inkscape (http://www.inkscape.org/) -->

<svg
   xmlns:dc="http://purl.org/dc/elements/1.1/"
   xmlns:cc="http://creativecommons.org/ns#"
   xmlns:rdf="http://www.w3.org/1999/02/22-rdf-syntax-ns#"
   xmlns:svg="http://www.w3.org/2000/svg"
   xmlns="http://www.w3.org/2000/svg"
   xmlns:xlink="http://www.w3.org/1999/xlink"
   xmlns:sodipodi="http://sodipodi.sourceforge.net/DTD/sodipodi-0.dtd"
   xmlns:inkscape="http://www.inkscape.org/namespaces/inkscape"
   width="1280mm"
   height="720mm"
   viewBox="0 0 1280 720"
   version="1.1"
   id="svg8"
   inkscape:version="0.92.2 5c3e80d, 2017-08-06"
   sodipodi:docname="ocean-background.svg">
  <defs
     id="defs2">
    <linearGradient
       inkscape:collect="always"
       id="linearGradient904">
      <stop
         style="stop-color:#5ebef8;stop-opacity:1;"
         offset="0"
         id="stop900" />
      <stop
         style="stop-color:#5ebef8;stop-opacity:0;"
         offset="1"
         id="stop902" />
    </linearGradient>
    <linearGradient
       inkscape:collect="always"
       xlink:href="#linearGradient904"
       id="linearGradient906"
       x1="664.6333"
       y1="-420.06348"
       x2="666.10999"
       y2="-49.026848"
       gradientUnits="userSpaceOnUse"
       gradientTransform="translate(6.7826964e-5,423)" />
  </defs>
  <sodipodi:namedview
     id="base"
     pagecolor="#ffffff"
     bordercolor="#666666"
     borderopacity="1.0"
     inkscape:pageopacity="0.0"
     inkscape:pageshadow="2"
     inkscape:zoom="0.0625"
     inkscape:cx="-1554.4196"
     inkscape:cy="4651.3574"
     inkscape:document-units="mm"
     inkscape:current-layer="svg8"
     showgrid="false"
     inkscape:window-width="1440"
     inkscape:window-height="851"
     inkscape:window-x="0"
     inkscape:window-y="1"
     inkscape:window-maximized="1" />
  <metadata
     id="metadata5">
    <rdf:RDF>
      <cc:Work
         rdf:about="">
        <dc:format>image/svg+xml</dc:format>
        <dc:type
           rdf:resource="http://purl.org/dc/dcmitype/StillImage" />
        <dc:title></dc:title>
      </cc:Work>
    </rdf:RDF>
  </metadata>
  <g
     inkscape:groupmode="layer"
     id="layer3"
     inkscape:label="ocean"
     style="display:inline">
    <path
       style="display:inline;fill:#4e7eed;fill-opacity:1;stroke:none;stroke-width:0.26458332px;stroke-linecap:butt;stroke-linejoin:miter;stroke-opacity:1"
       d="m -0.11901142,323.31755 0.03086502,397.58697 1280.2027464,0.0935 -0.1218,-397.6519 z"
       id="path934"
       inkscape:connector-curvature="0"
       sodipodi:nodetypes="ccccc" />
    <path
       style="display:inline;fill:#6c9ded;fill-opacity:1;stroke:none;stroke-width:0.26458332px;stroke-linecap:butt;stroke-linejoin:miter;stroke-opacity:1"
       d="m 1279.9928,323.34616 0.012,19.54866 -329.66583,-0.58011 c 13.16886,2.83511 18.53472,5.31553 19.60053,7.6005 4.09299,3.26134 -47.67249,2.37967 -71.91219,1.75395 19.13423,2.92326 25.96888,5.84651 29.2326,8.76977 4.85397,3.00357 -49.99582,1.84177 -89.45176,1.75395 16.47478,1.92149 47.00357,3.31806 43.26424,5.84653 -4.04126,3.92745 -72.37029,4.73729 -117.19362,5.32195 14.64297,2.47236 19.46264,0.63143 18.97206,4.61715 -72.4832,6.94725 -195.55597,6.35455 -235.63816,0.37418 -5.67442,-1.52046 5.22907,-3.66758 21.81004,-5.72681 -46.84274,1.49935 -124.93071,1.87648 -128.40004,-5.27142 5.25668,-3.04572 4.03764,-3.7817 37.45388,-6.65095 -45.03098,0.85462 -77.14204,3.22293 -79.34214,-3.77248 -0.10919,-2.39932 17.12707,-3.91514 30.16777,-5.85821 -29.25748,1.43175 -61.7472,4.19442 -73.08152,-1.75395 -1.52122,-3.26274 7.72556,-3.7772 19.25805,-6.49604 l -375.19594042,-1.10446 -0.001781,-18.40082 z"
       id="path936"
       inkscape:connector-curvature="0"
       sodipodi:nodetypes="ccccccccccccccccccccc" />
    <path
       style="display:inline;fill:#86bdef;fill-opacity:1;stroke:none;stroke-width:0.26458332px;stroke-linecap:butt;stroke-linejoin:miter;stroke-opacity:1"
       d="m 1279.9928,323.34615 0.059,9.2873 -307.70836,0.82682 c -60.78348,8.09334 -122.16098,11.45227 -183.63737,14.02292 25.07338,1.56555 38.03069,2.90985 38.11654,6.64765 -0.56257,2.80504 -23.87195,4.67862 -47.54232,4.54753 9.31588,1.64327 21.53469,3.72464 21.08398,5.78776 -0.49167,2.5869 -45.75062,4.03491 -67.79948,5.37435 -49.24596,3.95725 -98.0017,1.54172 -146.76106,-0.82682 -19.57447,-0.92208 -52.06513,-0.86564 -58.3698,-4.471 -1.78436,-3.32808 8.57542,-5.14242 13.26872,-7.82273 -18.05767,0.73674 -34.94502,0.0232 -40.47509,-3.41591 0.84075,-1.81399 3.67942,-3.82009 40.51432,-9.09505 -50.71284,4.35984 -116.96853,-1.27215 -187.27539,-9.50846 l -353.56129757,-1.17155 0.2096574,-10.19972 z"
       id="path938"
       inkscape:connector-curvature="0"
       sodipodi:nodetypes="ccccccccccccccccc" />
    <path
       style="fill:#add7de;fill-opacity:1;stroke:none;stroke-width:0.26458332px;stroke-linecap:butt;stroke-linejoin:miter;stroke-opacity:1"
       d="m 1279.9928,323.34615 0.06,4.33399 -441.65787,0.81919 c -35.59622,7.92977 -68.89746,11.84335 -101.69922,14.88282 -1.62292,1.07901 18.30829,-0.097 17.66093,2.1332 -0.64135,2.06843 -27.3836,6.36435 -43.17668,6.91224 -34.5385,1.59029 -68.17366,1.54913 -101.69922,-0.38034 -13.54964,-0.97553 -38.14297,-3.04031 -38.4142,-6.46576 -0.18081,-2.6914 18.90001,-2.20899 18.68101,-3.51805 -33.44652,-3.05311 -66.62537,-7.1769 -99.03166,-14.39093 l -490.8348588,0.68363 -0.0383211,-7.0381 z"
       id="path940"
       inkscape:connector-curvature="0"
       sodipodi:nodetypes="ccccccccccccc" />
  </g>
  <g
     inkscape:groupmode="layer"
     id="layer2"
     inkscape:label="sky"
     style="display:inline">
    <path
       style="display:inline;fill:#f8f8f8;fill-opacity:1;stroke:none;stroke-width:0.26458332px;stroke-linecap:butt;stroke-linejoin:miter;stroke-opacity:1"
       d="M 0.00144983,0.00106812 4.9826964e-5,322.33123 1279.9928,323.34616 l 0.01,-323.34509188 z"
       id="path896"
       inkscape:connector-curvature="0"
       sodipodi:nodetypes="ccccc" />
    <path
       inkscape:connector-curvature="0"
       id="path898"
       d="M 0.00144983,0.00106812 4.9826964e-5,322.33123 1279.9928,323.34616 l 0.01,-323.34509188 z"
       style="display:inline;fill:url(#linearGradient906);fill-opacity:1;stroke:none;stroke-width:0.26458332px;stroke-linecap:butt;stroke-linejoin:miter;stroke-opacity:1"
       sodipodi:nodetypes="ccccc" />
  </g>
</svg>
