<svg xmlns="http://www.w3.org/2000/svg" xmlns:xlink="http://www.w3.org/1999/xlink" viewBox="0 0 1280 720" height="720mm" width="1280mm"><defs><linearGradient id="a"><stop offset="0" stop-color="#5ebef8"/><stop offset="1" stop-color="#5ebef8" stop-opacity="0"/></linearGradient><linearGradient gradientTransform="translate(0 423)" gradientUnits="userSpaceOnUse" y2="-49" x2="666.1" y1="-420.1" x1="664.6" id="b" xlink:href="#a"/></defs><path d="M-.1 323.3V721l1280.2.1-.1-397.7z" fill="#4e7eed"/><path d="M1280 323.3V343l-329.7-.6c13.2 2.8 18.6 5.3 19.6 7.6 4.1 3.3-47.6 2.4-71.9 1.8 19.2 2.9 26 5.8 29.3 8.7 4.8 3-50 1.9-89.5 1.8 16.5 2 47 3.3 43.3 5.8-4 4-72.4 4.8-117.2 5.4 14.6 2.4 19.4.6 19 4.6-72.5 7-195.6 6.3-235.7.4-5.7-1.6 5.2-3.7 21.8-5.8-46.8 1.5-125 1.9-128.4-5.2 5.3-3 4-3.8 37.5-6.7-45 .9-77.2 3.2-79.4-3.8 0-2.4 17.2-3.9 30.2-5.8-29.3 1.4-61.7 4.2-73-1.8-1.6-3.2 7.6-3.8 19.2-6.5l-375.2-1v-18.5z" fill="#6c9ded"/><path d="M1280 323.3v9.3l-307.7.9c-60.7 8-122.1 11.4-183.6 14 25 1.5 38 2.9 38.1 6.6-.5 2.8-23.8 4.7-47.5 4.6 9.3 1.6 21.5 3.7 21 5.8-.4 2.6-45.7 4-67.7 5.3-49.3 4-98 1.6-146.8-.8-19.6-1-52-.9-58.4-4.5-1.8-3.3 8.6-5.1 13.3-7.8-18 .8-35 0-40.5-3.4.9-1.8 3.7-3.8 40.5-9-50.7 4.3-117-1.4-187.2-9.6L-.1 333.5l.2-10.2z" fill="#86bdef"/><path d="M1280 323.3v4.4l-441.6.8c-35.6 8-68.9 11.8-101.7 14.9-1.6 1 18.3-.1 17.7 2.1-.7 2-27.4 6.4-43.2 7a979 979 0 0 1-101.7-.5c-13.6-1-38.2-3-38.4-6.4-.2-2.7 18.9-2.2 18.6-3.5a783 783 0 0 1-99-14.4L0 328.4v-7z" fill="#add7de"/><g><path d="M0 0v322.3l1280 1V0z" fill="#f8f8f8"/><path d="M0 0v322.3l1280 1V0z" fill="url(#b)"/></g></svg>