<svg xmlns="http://www.w3.org/2000/svg" xmlns:xlink="http://www.w3.org/1999/xlink" viewBox="0 0 600 200" height="200mm" width="600mm"><g transform="translate(0 -97)"><path d="M79.6 280.5L40 213.6l-8.9 4.2-27.6-34c2.9-21 44.7-27.6 59.2-31.6 18.6-3.8 44.6-5.8 66.6 3.6 13 6.7 22 17.5 22.1 31.9 4.8-2 10-4 16.5-2.9v-25l75.6-17.6 29.2 21.8c-.2-3-.4-5.9-4.5-8.8l37-31.8c3.3-2.8 12.8-7.8 14.3-6.5l32.3 28.1c2.5 2-10.4 7.7-22.6 10.5 4.4.7 8.5 1.7 10.2 3a46 46 0 0 1 16.5-8.2c24.8-.4 50.3-.6 75-2.2l7.3 32.3a91.3 91.3 0 0 1 21-5.3c-.7-11.4 8.6-22.8 10.9-22.5l55.5 9.3c2 2.5 3.7 7.5 6.7 2.7l42.1 6.7c4.4.6 6.8 4.2 3.2 12L535 276c-2 3.2-5.3 6.6-10.3 5.3-15.8-5.3-36.8-9.6-37-15l-.2-4.5-26.7-2.4.8-9.2c-2.9.6-6.3 1.4-10.3 1.1l4.6 13.1-63.9-8.6-9.2-10c-2.5 4.9-29.8-.5-50.6-3.8-3.8-.8-4.5-2.6-4-12.8-3.3 2.3-6.3 5.3-11.6 4.7l.6 20.7c.1 6.4-6 8.6-15.8 6.7l-64.5-24-.3 17.3-32 4.4c-15.3 2.3-19.1 3.8-21.7-3.2a60 60 0 0 1-49.8.4c1.4 6 6 12.5-6.4 17-12.9 5.1-41.4 15.4-47 7.3z"/><g stroke-width="8"><path d="M175.6 165.5v13.8l13.4-.6 3.8 73.4c13.3-3.3 24.8-3 37.3-4.8v-21.5l76 28.6c3 .6 2.9.4.8-6l-123.6-85.6c-2.6.3-7.7 2.7-7.7 2.7z" fill="#262590" stroke="#262590"/><path d="M183.3 162.8l42-9.6 1 19.5 16.4-20.8 32.6 23-30.2 23.5 62.3 21.9.5 29.4-77.2-29.4-.6 27-28.6 1.9-8.5-73-9.1.3z" fill="#f5ef24" stroke="#1400ec"/></g><path d="M146.8 198.2c-11.4 4.7-26.3 15.3-22.4 31.5 11.3 33.3 50.2 25.9 61.4 13.8z" fill="#262590" stroke="#262590" stroke-width="8"/><g id="a"><path d="M165.3 191.6c-20.8 3.1-42.2 14.2-31.7 42.5 8.6 21.5 46.9 23.4 65.6-.2 18.9-25.8.8-47.6-34-42.3z" fill="#f5ef24" stroke="#1400ec" stroke-width="8"/><path d="M171.7 199.8c-12.1.4-18.8 9.6-13 17.6 3.6 4.5 13.3 7.4 22.2 4 8.7-4.5 8.4-11.3 5.5-15.5a11 11 0 0 1-14.5 7.7c-5.6-2.2-6.1-9.2-.2-13.8z" fill="#1400ec" stroke-width=".3"/></g><path d="M13.8 180.7l20.6 27.1 11-5.4 42.8 71c6-2.8 10.1-3.4 15.7-5.5l-72.2-97.2c-5 2-14.6 3.6-17.9 10z" fill="#262590" stroke="#262590" stroke-width="8"/><path d="M95.7 157A185.9 185.9 0 0 0 22 174.6L42 202l10-2.7 44.1 70.9 28.9-7.5-12-37.9c46.5-24.9 35.5-68-17.4-67.9zm9.6 30.5c4 0 8 1.5 10 5.2 2.5 5.7.8 11.3-9.8 15-3.5-6-5.7-11.4-8.2-18.6 2.4-1 5.2-1.7 8-1.6z" fill="#f5ef24" stroke="#1400ec" stroke-width="7.990315999999999"/><g stroke-width="8"><path d="M360.3 157.5c-5-2-10 3.7-10 3.7l-12.2 73.3 37.4 5.8 6.4-12.8 10 15.2 3.7-9.8 4.8 15.7 44.9 6.7c-7.1-19-56.5-65.3-85-97.8z" fill="#262590" stroke="#262590"/><path d="M345.3 228.6l15-71.1 25.6.5 10.7 17.7 5.1-19.3 23.8-1.6 18.2 94.6-35.3-4.3-4.8-25-8 12.8-12.3-18.8-3.8 20.4z" fill="#f5ef24" stroke="#1400ec"/></g><path d="M320.2 127c-1.4-4.7-8.2 2-13.9 5.8l-26.7 23.1 5.7 6.8 23.2-8.2z" fill="#262590" stroke="#262590" stroke-width="8"/><path d="M320.2 127l19.2 17.1-43.8 15.5-4.3-4.8z" fill="#f5ef24" stroke="#1400ec" stroke-width="8"/><path d="M312.7 161.7c-34-.1-63.8 29.5-33.6 53.7 16.8 11.8 57.3 11 78.1-10.9l-16.6-17.4c-4.2 4-16.4 12.1-19.6 12l27.7-24a54.1 54.1 0 0 0-36-13.4zm-7.6 18.5c2.9 0 6.3.6 10 2.1l-18.4 16c-7.6-7.8-3.1-18 8.4-18z" fill="#f5ef24" stroke="#1400ec" stroke-width="6.005965999999999"/><g stroke-width="8"><path d="M477 161.7c-5-4-7.6 5.3-7.6 5.3l-.3 15.9 8.3 1.8-9 68.6 29.6 1.5.6 10.8 27.2 9.1s6-3.4 5.6-6.8z" fill="#262590" stroke="#262590"/><path d="M477 161.7l44.2 8.3 6.8 25.7 7.2-23.8 35.5 6.4-39.3 89.6-23-6.4L506 235l-8.7 14.8-22.3-1.6 9.8-70.6-9-1.6z" fill="#f5ef24" stroke="#1400ec"/></g><use transform="translate(288.8 -7.6)" height="100%" width="100%" xlink:href="#a"/><g><path d="M539.7 266.7c0-1.4 1-3 3.1-3.1H562c2.9 0 2.8 3.7 4.4 3.7 1.4 0 1.2-3.8 4-3.8h6.8c1.2 0 2.2.7 2.2 2.3v14.9c0 1-.5 2.2-2.5 2.1h-7.1c-2 0-2.2-2.8-3.3-2.8-1 0-1.3 3-3.2 3h-17.8c-1.8 0-2.6-1-2.6-2.8v-4.7c.1-.8-.2-1.5-1-1.6-1.4 0-2.2-1-2.2-2.3z" fill="#fff"/><path d="M549.1 277.3v-7.9h-3.3 6.3M559.4 277.6v-8.3l6.9 5.1 6.9-5.3.2 8.4" fill="none" stroke="#000" stroke-width="3.6" stroke-linecap="round" stroke-linejoin="round"/></g></g></svg>