<svg xmlns="http://www.w3.org/2000/svg" viewBox="0 0 100 100" height="378" width="378"><g stroke="#303030"><path d="M24.8 45.5C23 80.3 70.3 77 71 46.6c-5.1 3-6 6-15.3 5.8-5.5 6-12.8 5.3-15.3-1-9.3.3-11.7-3.4-15.6-6z" fill="#f1efeb" stroke-width="1.2"/><path d="M24.8 45.5C28.2 18.9 71 14 71 46.6c-4.4 2.7-7.5 6.8-15.3 5.8-7.1 6.2-12.1 5.6-15.3-1-6.7 1-11-2.7-15.6-6z" fill="#c41609" stroke-width="1.2"/><path d="M40.4 51.4c.8 8.9 14 8.1 15.3 1 0-11-15.4-10.4-15.3-1z" fill="#f1efeb" stroke-width="2"/></g></svg>