<svg xmlns="http://www.w3.org/2000/svg" viewBox="0 0 600 200" height="200mm" width="600mm"><path d="M0 0h600v200H0zm318.6 19.7c-2.9.1-10.5 4.2-13.3 6.7l-37.1 31.8c4 3 4.3 5.8 4.5 8.8l-29.2-21.8-75.7 17.5.1 25.1a28 28 0 0 0-16.5 2.9c0-14.4-9-25.2-22.1-32-22-9.3-48-7.3-66.6-3.5C48.2 59.2 6.4 66 3.5 86.7l27.6 34 9-4 39.5 66.8c5.7 8 34.2-2.2 47-7.2 12.6-4.6 8-11.1 6.5-17.1a60 60 0 0 0 49.8-.4c2.6 7 6.4 5.5 21.7 3.2l32-4.4.3-17.4 64.5 24.1c9.9 1.9 16-.3 15.8-6.7l-.6-20.7c5.3.6 8.3-2.4 11.7-4.7-.6 10.2.1 12 4 12.8 20.7 3.3 48 8.7 50.5 3.8l9.2 10 63.9 8.6-4.6-13c4 .2 7.4-.6 10.3-1.2l-.8 9.2 26.7 2.4.2 4.6c.2 5.3 21.2 9.6 37 15 5 1.2 8.4-2.2 10.3-5.4l42.6-92.6c3.6-8 1.2-11.5-3.2-12.1l-42-6.7c-3.1 4.8-4.8-.2-6.8-2.7l-55.5-9.3c-2.3-.3-11.6 11.1-10.9 22.5-6.8.5-14.7 3-21 5.3L431 51c-24.8 1.6-50.3 1.8-75 2.2a46 46 0 0 0-16.6 8.1 28.5 28.5 0 0 0-10.2-2.9c12.2-2.8 25-8.6 22.6-10.5l-32.3-28c-.2-.2-.5-.3-1-.3zm258.6 146.8h-6.8c-2.8 0-2.6 3.8-4 3.8-1.6 0-1.5-3.7-4.4-3.7h-19.2c-2 0-3.2 1.7-3.1 3v5c0 1.4.8 2.3 2.2 2.3.8 0 1.1.8 1 1.6v4.7c0 1.8.8 2.8 2.6 2.8h17.8c1.9 0 2.1-3 3.2-3 1 0 1.3 2.8 3.3 2.8h7c2 0 2.6-1 2.6-2.1v-14.9c0-1.6-1-2.3-2.2-2.3z"/></svg>