<?xml version="1.0" encoding="UTF-8" standalone="no"?>
<svg
   xmlns:dc="http://purl.org/dc/elements/1.1/"
   xmlns:cc="http://creativecommons.org/ns#"
   xmlns:rdf="http://www.w3.org/1999/02/22-rdf-syntax-ns#"
   xmlns:svg="http://www.w3.org/2000/svg"
   xmlns="http://www.w3.org/2000/svg"
   id="svg8"
   version="1.1"
   viewBox="0 0 599.99999 199.99998"
   height="200mm"
   width="600mm">
  <defs
     id="defs2" />
  <metadata
     id="metadata5">
    <rdf:RDF>
      <cc:Work
         rdf:about="">
        <dc:format>image/svg+xml</dc:format>
        <dc:type
           rdf:resource="http://purl.org/dc/dcmitype/StillImage" />
        <dc:title></dc:title>
      </cc:Work>
    </rdf:RDF>
  </metadata>
  <g
     transform="translate(0,-97.000004)"
     id="layer1">
    <path
       d="M 0,97.000004 H 600 V 297 H 0 Z m 318.5945,19.721276 c -2.88084,0.1213 -10.48364,4.18919 -13.33511,6.67246 l -37.05458,31.79289 c 4.05951,2.92326 4.28247,5.84623 4.48501,8.76949 l -29.23853,-21.75319 -75.61864,17.52709 0.0708,25.06669 c -6.52235,-1.10596 -11.65499,0.83347 -16.47858,2.87321 -0.0393,-14.34432 -9.06818,-25.18848 -22.1666,-31.88849 -21.92445,-9.42296 -47.928448,-7.35915 -66.60007,-3.54759 -14.454833,4.00729 -56.2859116,10.64115 -59.150394,31.49007 l 27.624671,34.0558 8.91625,-4.1646 39.558308,66.9339 c 5.738011,8.04218 34.195705,-2.23968 47.070515,-7.29827 12.48438,-4.58041 7.82798,-11.07863 6.44146,-17.05529 14.09886,6.51497 34.55871,7.4918 49.76234,-0.41341 2.58191,6.99172 6.38792,5.47663 21.74699,3.21583 l 31.94896,-4.41472 0.35295,-17.3638 64.45809,24.11687 c 9.89848,1.84998 15.92781,-0.30993 15.78559,-6.72362 l -0.58499,-20.7548 c 5.26796,0.63335 8.28061,-2.34226 11.69337,-4.67723 -0.56579,10.20623 0.13679,12.04665 3.94652,12.86226 20.79294,3.22556 48.04003,8.6501 50.57209,3.80028 l 9.20824,9.93893 63.87309,8.62376 -4.60799,-13.05863 c 4.00034,0.24758 7.44435,-0.54246 10.35855,-1.10949 l -0.79841,9.14518 26.69037,2.43447 0.16381,4.54908 c 0.24333,5.33909 21.16844,9.60481 36.97811,14.97118 5.04005,1.24788 8.41785,-2.11672 10.30997,-5.32991 l 42.5886,-92.64292 c 3.60233,-7.89709 1.22102,-11.43497 -3.1445,-12.0649 l -42.0951,-6.72362 c -3.04903,4.77799 -4.70405,-0.20269 -6.72364,-2.63085 l -55.54181,-9.35447 c -2.2257,-0.33542 -11.60907,11.14479 -10.81588,22.50923 -6.85411,0.5374 -14.74067,3.09375 -21.04781,5.27202 l -7.21196,-32.2311 c -24.81464,1.56069 -50.24951,1.71919 -75.06417,2.18023 -3.66014,0.28009 -11.1927,4.29378 -16.52974,8.1163 -1.67674,-1.24321 -5.76638,-2.23127 -10.19884,-2.92334 12.17755,-2.83171 25.07856,-8.57019 22.57999,-10.47068 l -32.25951,-28.11663 c -0.19121,-0.15988 -0.50622,-0.223 -0.91778,-0.20567 z m 258.57131,146.76675 -6.79961,0.061 c -2.71804,-0.0407 -2.56249,3.73759 -4.01627,3.73259 -1.50712,0.0125 -1.47793,-3.70145 -4.39407,-3.68505 h -19.13474 c -2.03785,0.0804 -3.18754,1.65401 -3.11814,3.07062 v 4.91391 c 0.0114,1.38615 0.83843,2.33883 2.17299,2.36213 0.78814,0.0322 1.12946,0.8051 1.08675,1.51205 l -0.0946,4.72477 c 0,1.85906 0.81875,2.83517 2.64583,2.83497 h 17.76532 c 1.87119,-0.021 2.16236,-3.0077 3.21736,-3.0241 1.08905,-0.0116 1.34919,2.81447 3.30266,2.83497 h 7.08689 c 1.98289,0.0262 2.54127,-1.10422 2.55127,-2.17351 l -0.0279,-14.82339 c 0.0275,-1.66708 -1.05193,-2.30024 -2.24377,-2.34094 z"
       style="fill:#000000;fill-opacity:1;stroke:none;stroke-width:0.26458332px;stroke-linecap:butt;stroke-linejoin:miter;stroke-opacity:1"
       id="path851" />
  </g>
</svg>
