<?xml version="1.0" encoding="UTF-8" standalone="no"?>
<svg
   xmlns:dc="http://purl.org/dc/elements/1.1/"
   xmlns:cc="http://creativecommons.org/ns#"
   xmlns:rdf="http://www.w3.org/1999/02/22-rdf-syntax-ns#"
   xmlns:svg="http://www.w3.org/2000/svg"
   xmlns="http://www.w3.org/2000/svg"
   xmlns:xlink="http://www.w3.org/1999/xlink"
   id="svg8"
   version="1.1"
   viewBox="0 0 599.99999 199.99998"
   height="200mm"
   width="600mm">
  <defs
     id="defs2" />
  <metadata
     id="metadata5">
    <rdf:RDF>
      <cc:Work
         rdf:about="">
        <dc:format>image/svg+xml</dc:format>
        <dc:type
           rdf:resource="http://purl.org/dc/dcmitype/StillImage" />
        <dc:title></dc:title>
      </cc:Work>
    </rdf:RDF>
  </metadata>
  <g
     transform="translate(0,-97.000004)"
     id="layer1">
    <path
       id="path1451"
       d="M 79.606783,280.54917 40.048667,213.61508 31.132723,217.77965 3.5079125,183.72366 c 2.8644823,-20.84892 44.6953385,-27.48261 59.1501715,-31.4899 18.671621,-3.81156 44.675736,-5.87528 66.600186,3.54768 13.09842,6.70001 22.12728,17.5443 22.16662,31.88862 4.82359,-2.03974 9.95646,-3.97906 16.47881,-2.8731 l -0.0709,-25.06696 75.61859,-17.52703 29.23867,21.75321 c -0.20254,-2.92326 -0.42569,-5.84652 -4.48519,-8.76978 l 37.05447,-31.7926 c 3.25881,-2.83803 12.72349,-7.74567 14.25305,-6.46664 l 32.25922,28.1165 c 2.49855,1.90049 -10.40248,7.63883 -22.58004,10.47054 4.43248,0.69207 8.52225,1.68005 10.199,2.92326 5.33703,-3.82252 12.86989,-7.83627 16.53003,-8.11636 24.81464,-0.46104 50.2494,-0.6192 75.06404,-2.17989 l 7.21212,32.23109 c 6.30713,-2.17827 14.1934,-4.73486 21.04749,-5.27226 -0.79319,-11.36444 8.59036,-22.84452 10.81606,-22.5091 l 55.54194,9.35443 c 2.01957,2.42816 3.67449,7.40892 6.72351,2.63093 l 42.09495,6.7235 c 4.36553,0.62993 6.74698,4.16782 3.14465,12.06491 l -42.5888,92.64316 c -1.89211,3.21319 -5.2696,6.57765 -10.30966,5.32977 -15.80968,-5.36637 -36.73505,-9.63224 -36.97837,-14.97133 l -0.16389,-4.54878 -26.69033,-2.43463 0.79857,-9.14521 c -2.91419,0.56703 -6.35813,1.35687 -10.35846,1.10929 l 4.60807,13.05867 -63.87324,-8.62362 -9.20828,-9.93909 c -2.53208,4.84982 -29.77945,-0.57467 -50.57239,-3.80023 -3.80974,-0.81561 -4.51218,-2.65612 -3.94642,-12.86235 -3.41273,2.33498 -6.42509,5.31057 -11.69303,4.67722 l 0.58465,20.75514 c 0.14223,6.41369 -5.88712,8.57348 -15.78562,6.7235 l -64.45788,-24.1169 -0.35288,17.36402 -31.94915,4.41428 c -15.35907,2.26081 -19.16521,3.77613 -21.74712,-3.21559 -15.20363,7.90521 -35.66322,6.92838 -49.76207,0.41341 1.38652,5.97666 6.04282,12.47482 -6.44156,17.05523 -12.87481,5.05859 -41.332706,15.34069 -47.070717,7.2985 z"
       style="display:inline;fill:#000000;fill-opacity:1;stroke:none;stroke-width:0.26458332px;stroke-linecap:butt;stroke-linejoin:miter;stroke-opacity:1" />
    <g
       style="display:inline"
       id="g907">
      <path
         style="fill:#262590;fill-opacity:1;stroke:#262590;stroke-width:8;stroke-linecap:butt;stroke-linejoin:miter;stroke-miterlimit:4;stroke-dasharray:none;stroke-opacity:1"
         d="m 175.59608,165.50339 v 13.76438 l 13.36347,-0.60135 3.87541,73.4323 c 13.28374,-3.31503 24.72243,-2.93996 37.2841,-4.81085 l -0.0261,-21.53638 76.01583,28.61092 c 3.01139,0.68032 2.87282,0.40101 0.79346,-5.94478 L 183.34689,162.8307 c -2.67351,0.28447 -7.75081,2.67269 -7.75081,2.67269 z"
         id="path903" />
      <path
         style="fill:#f5ef24;fill-opacity:1;stroke:#1400ec;stroke-width:8;stroke-linecap:butt;stroke-linejoin:miter;stroke-miterlimit:4;stroke-dasharray:none;stroke-opacity:1"
         d="m 183.34689,162.8307 41.96132,-9.6217 1.06907,19.51068 16.30345,-20.84703 32.60687,22.98518 -30.20145,23.51972 62.2738,21.9161 0.53453,29.39965 -77.24088,-29.39965 -0.53454,26.99422 -28.59784,1.87089 -8.55263,-72.96458 -9.08716,0.26727 z"
         id="path901" />
    </g>
    <path
       id="path893"
       d="m 146.84375,198.15923 c -11.48735,4.78822 -26.3698,15.29094 -22.48959,31.56101 11.30893,33.24723 50.26074,25.8654 61.42114,13.79613 z"
       style="display:inline;fill:#262590;fill-opacity:1;stroke:#262590;stroke-width:8;stroke-linecap:butt;stroke-linejoin:miter;stroke-miterlimit:4;stroke-dasharray:none;stroke-opacity:1" />
    <g
       style="display:inline"
       id="g897">
      <path
         style="display:inline;fill:#f5ef24;fill-opacity:1;stroke:#1400ec;stroke-width:8;stroke-linecap:butt;stroke-linejoin:miter;stroke-miterlimit:4;stroke-dasharray:none;stroke-opacity:1"
         d="m 165.27541,191.64603 c -20.72675,3.09637 -42.1966,14.18038 -31.69044,42.45786 8.59522,21.53265 46.87108,23.40595 65.6448,-0.20568 18.82575,-25.81235 0.74062,-47.6467 -33.95436,-42.25218 z"
         id="path879" />
      <path
         style="display:inline;fill:#1400ec;fill-opacity:1;stroke:none;stroke-width:0.26458332px;stroke-linecap:butt;stroke-linejoin:miter;stroke-opacity:1"
         d="m 171.72066,199.84754 c -12.12502,0.37066 -18.83251,9.51892 -13.0962,17.50615 3.7205,4.51813 13.39954,7.47371 22.31701,4.00904 8.62785,-4.42677 8.3385,-11.30947 5.47903,-15.50163 -1.66995,6.50773 -8.07786,9.8874 -14.49741,7.78323 -5.6423,-2.20161 -6.14614,-9.22405 -0.20243,-13.79679 z"
         id="path891" />
    </g>
    <g
       style="display:inline"
       id="g889">
      <path
         style="fill:#262590;fill-opacity:1;stroke:#262590;stroke-width:8;stroke-linecap:butt;stroke-linejoin:miter;stroke-miterlimit:4;stroke-dasharray:none;stroke-opacity:1"
         d="m 13.826589,180.65016 20.569244,27.14746 10.961309,-5.38616 42.835446,71.02988 c 6.016317,-2.82396 10.117243,-3.44937 15.750862,-5.5455 L 31.685963,170.72828 c -4.914555,2.04808 -14.635504,3.59804 -17.859374,9.92188 z"
         id="path885" />
      <path
         style="display:inline;fill:#f5ef24;fill-opacity:1;stroke:#1400ec;stroke-width:30.23622131;stroke-linecap:butt;stroke-linejoin:miter;stroke-miterlimit:4;stroke-dasharray:none;stroke-opacity:1"
         d="m 361.54492,226.83789 c -11.56656,0.0274 -23.6621,0.60114 -36.27539,1.76758 C 216.88485,239.406 147.77191,263.25696 82.832031,293.25586 l 76.425779,103.87305 37.8711,-10.2461 166.52539,268.00781 109.09765,-28.28515 -45.2832,-143.20703 C 603.31653,389.34689 561.48127,226.36515 361.54492,226.83789 Z m 36.46094,115.05859 c 15.30054,0.24312 29.95824,5.90053 37.82812,19.75391 9.26884,21.7081 2.88833,42.58243 -36.92578,56.78125 -13.30566,-22.60983 -21.77548,-43.18227 -31.24218,-70.32226 9.10178,-4.01205 19.87105,-6.37924 30.33984,-6.2129 z"
         transform="matrix(0.26458333,0,0,0.26458333,0,97.000004)"
         id="path877" />
    </g>
    <g
       style="display:inline"
       id="g844">
      <path
         style="display:inline;fill:#262590;fill-opacity:1;stroke:#262590;stroke-width:8;stroke-linecap:butt;stroke-linejoin:miter;stroke-miterlimit:4;stroke-dasharray:none;stroke-opacity:1"
         d="m 360.27931,157.48531 c -4.98162,-1.95504 -9.88896,3.74177 -9.88896,3.74177 l -12.29439,73.23185 37.41771,5.87993 6.41448,-12.82893 9.88896,15.23436 3.74179,-9.88897 4.81084,15.7689 44.90128,6.68173 c -7.09103,-19.05736 -56.50873,-65.28304 -84.99171,-97.82064 z"
         id="path840" />
      <path
         style="fill:#f5ef24;fill-opacity:1;stroke:#1400ec;stroke-width:8;stroke-linecap:butt;stroke-linejoin:miter;stroke-miterlimit:4;stroke-dasharray:none;stroke-opacity:1"
         d="m 345.31223,228.579 14.96708,-71.09369 25.65788,0.53454 10.69079,17.63979 5.07811,-19.24341 23.78701,-1.60361 18.1743,94.61341 -35.27956,-4.27632 -4.81087,-25.12333 -8.01807,12.82894 -12.29439,-18.70887 -3.74179,20.31248 z"
         id="path838" />
    </g>
    <g
       style="display:inline"
       id="g836">
      <path
         style="fill:#262590;fill-opacity:1;stroke:#262590;stroke-width:8;stroke-linecap:butt;stroke-linejoin:miter;stroke-miterlimit:4;stroke-dasharray:none;stroke-opacity:1"
         d="m 320.18888,127.01658 c -1.42654,-4.69826 -8.18227,2.00843 -13.83919,5.75277 l -26.74181,23.15104 5.66965,6.80357 23.24554,-8.22098 z"
         id="path831" />
      <path
         style="display:inline;fill:#f5ef24;fill-opacity:1;stroke:#1400ec;stroke-width:8;stroke-linecap:butt;stroke-linejoin:miter;stroke-miterlimit:4;stroke-dasharray:none;stroke-opacity:1"
         d="m 320.18888,127.01658 19.24341,17.10525 -43.8322,15.50164 -4.2763,-4.81085 z"
         id="path829" />
      <path
         style="display:inline;fill:#f5ef24;fill-opacity:1;stroke:#1400ec;stroke-width:22.67716599;stroke-linecap:butt;stroke-linejoin:miter;stroke-miterlimit:4;stroke-dasharray:none;stroke-opacity:1"
         d="m 1181.9082,244.44336 c -128.6252,-0.36979 -241.11067,111.53894 -127.0449,203.04883 63.4316,44.45382 216.6111,41.53239 295.2949,-41.08203 l -62.8377,-65.86189 c -15.8664,15.05436 -61.9352,45.85812 -74.1302,45.3927 l 104.6671,-90.74956 c -40.7902,-35.79047 -89.4252,-50.6143 -135.9492,-50.74805 z m -28.9043,70.04883 c 11.0537,-0.0677 23.8166,2.35878 37.9668,8.05859 l -69.7012,60.60938 c -28.6886,-29.77061 -11.63,-68.40224 31.7344,-68.66797 z"
         transform="matrix(0.26458333,0,0,0.26458333,0,97.000004)"
         id="path824" />
    </g>
    <g
       id="g852">
      <path
         style="fill:#262590;fill-opacity:1;stroke:#262590;stroke-width:8;stroke-linecap:butt;stroke-linejoin:miter;stroke-miterlimit:4;stroke-dasharray:none;stroke-opacity:1"
         d="m 477.00594,161.68453 c -4.99405,-3.94524 -7.55952,5.29166 -7.55952,5.29166 l -0.37798,15.875 8.31548,1.88988 -9.04851,68.54339 29.61579,1.54664 0.59939,10.79688 27.2143,9.07143 c 0,0 6.12409,-3.44289 5.66962,-6.80357 z"
         id="path848" />
      <path
         style="display:inline;fill:#f5ef24;fill-opacity:1;stroke:#1400ec;stroke-width:8;stroke-linecap:butt;stroke-linejoin:miter;stroke-miterlimit:4;stroke-dasharray:none;stroke-opacity:1"
         d="M 477.00594,161.68453 521.22916,170 l 6.80358,25.70238 7.18153,-23.8125 35.52978,6.4256 -39.30954,89.58036 -23.05655,-6.4256 -2.26786,-26.45833 -8.69343,14.74107 -22.3006,-1.51191 9.82736,-70.68154 -9.07142,-1.51191 z"
         id="path846" />
    </g>
    <use
       style="display:inline"
       transform="translate(288.77381,-7.5595238)"
       height="100%"
       width="100%"
       id="use899"
       xlink:href="#g897"
       y="0"
       x="0" />
    <g
       id="g863">
      <path
         style="fill:#ffffff;fill-opacity:1;stroke:none;stroke-width:0.26458332px;stroke-linecap:butt;stroke-linejoin:miter;stroke-opacity:1"
         d="m 539.70274,266.66741 c -0.0694,-1.4166 1.08046,-2.99068 3.1183,-3.07106 l 19.13506,-10e-6 c 2.91612,-0.0164 2.88686,3.69779 4.39396,3.68527 1.45378,0.005 1.29796,-3.77323 4.01601,-3.73251 l 6.7998,-0.0611 c 1.19184,0.0407 2.27142,0.67414 2.24396,2.34122 l 0.0277,14.82328 c -0.01,1.06929 -0.56845,2.19952 -2.55135,2.17336 h -7.08705 c -1.95347,-0.0205 -2.21349,-2.84638 -3.30254,-2.83482 -1.05502,0.0164 -1.34634,3.00284 -3.21753,3.02381 h -17.76489 c -1.82708,1.9e-4 -2.6446,-0.97576 -2.64584,-2.83482 l 0.0945,-4.7247 c 0.0427,-0.70695 -0.29854,-1.47971 -1.08669,-1.5119 -1.33455,-0.0233 -2.16184,-0.97621 -2.17336,-2.36236 z"
         id="path858" />
      <path
         style="fill:none;stroke:#000000;stroke-width:3.5999999;stroke-linecap:round;stroke-linejoin:round;stroke-miterlimit:4;stroke-dasharray:none;stroke-opacity:1"
         d="m 549.10489,277.34524 v -7.9375 h -3.30729 6.33111"
         id="path854" />
      <path
         style="fill:none;stroke:#000000;stroke-width:3.5999999;stroke-linecap:round;stroke-linejoin:round;stroke-miterlimit:4;stroke-dasharray:none;stroke-opacity:1"
         d="m 559.40476,277.62872 -0.0945,-8.31548 6.99254,5.10268 6.89808,-5.29166 0.189,8.40997"
         id="path856" />
    </g>
  </g>
</svg>
