<svg xmlns="http://www.w3.org/2000/svg" xmlns:xlink="http://www.w3.org/1999/xlink" viewBox="0 0 400 100" height="378" width="400mm"><g transform="translate(0 -197)"><path d="M9.7 253.4v-13.8c0-2.3 1.7-4.3 4.6-4.3h27.2c3.6 0 5.4 2.2 5.5 4.7v9.7c0 2.6-1.8 3.8-4.4 3.7h-17c-3.5 0-3.4-7.4 0-7.4h8.5c1.7 0 1.6-3 0-3h-9.5c-1.5 0-2.1 1-2.2 2.3v8c.1 4.8-12.7 4.8-12.7 0z" fill="#bdbcbf" stroke="#000" stroke-width="2"/><path d="M47 253.7l.1-14c0-2.9 1-4.7 4.5-4.8l23.7.2c2.4 0 4.9 2.3 6.5 3.6 3.4 2.7 2.7 9.5-2.8 11 5.6 0 6.3 7 1.3 7l-7.6.2c-1.7 0-2.4-3.2-5.1-5-3.6-2.5-4.6-6.8-1.2-6.3 4.2.6 5.6.5 5.6-.6 0-2.1-2.1-1.8-6.6-1.8-3.7 0-4.5.9-4.5 3l-.1 7.5c0 4.5-13.7 4.7-13.8 0z" fill="#bdbcbf" stroke="#000" stroke-width="2" stroke-linecap="round" stroke-linejoin="round"/><path d="M83.9 240.2c0-3 1.4-4.7 4.3-4.7h24.2c4.5 0 4.5 7.6 0 7.5H95h13.2c4.7 0 4.8 6.7 0 6.7h-13 17.1c4.6 0 4.7 7 0 7l-24.8-.2c-2.5 0-3.6-1.6-3.7-3.8z" fill="#bdbcbf" stroke="#000" stroke-width="2" stroke-linecap="round" stroke-linejoin="round"/><path id="a" d="M115.7 241c-.1-3.7 1.2-5.5 5.6-5.5l22.4-.1c5.7 0 5.6 7.2.1 7.2h-18.4 18.4c3 0 4.6 1.3 4.7 5.2v4.6c0 3.2-1.7 4.5-5.2 4.5h-22c-6 0-5.8-7.1 0-7.2l16-.1h-16c-3.8 0-5.6-1.3-5.6-4.3z" fill="#bdbcbf" stroke="#000" stroke-width="2" stroke-linecap="round" stroke-linejoin="round"/><use transform="translate(32.9 -.1)" height="100%" width="100%" xlink:href="#a"/><use transform="translate(92)" height="100%" width="100%" xlink:href="#a"/><path id="b" d="M246.2 243c-5.2 0-5-7.7 0-7.7h29.6c4.7 0 4.6 7.8 0 7.8h-6.5c-1.7 0-2.4 1.2-2.4 2.7l.1 7.5c0 5.4-12.8 5.4-12.8 0l-.1-7.4c0-1.6-.5-2.9-2.3-2.9z" fill="#bdbcbf" stroke="#000" stroke-width="2"/><path d="M277.5 257c-3.1 0-4.4-6.9-.6-10.6l11.1-9.5c1.7-1.4 8.5-1.4 10.2 0l9.5 8.9c1.3 1 2.6-1.5 2.6-3.6 0-8.5 3.4-7.7 6.8-7.8l23.5.2c4.8 0 7.7 1.3 7.7 8.2.8 3.7-2.3 6.3-5.2 6.6 5.7.4 5.8 7.6 1.8 7.6h-10.2c-1.6 0-3.8-3.8-5-4.2-2.8-.8-3.5-5.8.5-6 2.6 0 5.4 0 5.4-2 .1-2-4.3-1.8-9-1.8-2 0-3.1 1-3 2.6l-.1 7.2c0 2.6-1.5 4.3-4.1 4.3l-10.8.2c-2 0-4.1-.9-5-1.7l-8.6-9.3-4.7 3.6h6.1c3.2 0 3.3 7-.1 7.1z" fill="#bdbcbf" stroke="#000" stroke-width="2" stroke-linecap="round" stroke-linejoin="round"/><use transform="translate(106.1)" height="100%" width="100%" xlink:href="#b"/></g></svg>