<?xml version="1.0" encoding="UTF-8" standalone="no"?>
<svg
   xmlns:dc="http://purl.org/dc/elements/1.1/"
   xmlns:cc="http://creativecommons.org/ns#"
   xmlns:rdf="http://www.w3.org/1999/02/22-rdf-syntax-ns#"
   xmlns:svg="http://www.w3.org/2000/svg"
   xmlns="http://www.w3.org/2000/svg"
   xmlns:xlink="http://www.w3.org/1999/xlink"
   id="svg8"
   version="1.1"
   viewBox="0 0 400 100"
   height="100mm"
   width="400mm">
  <defs
     id="defs2" />
  <metadata
     id="metadata5">
    <rdf:RDF>
      <cc:Work
         rdf:about="">
        <dc:format>image/svg+xml</dc:format>
        <dc:type
           rdf:resource="http://purl.org/dc/dcmitype/StillImage" />
        <dc:title></dc:title>
      </cc:Work>
    </rdf:RDF>
  </metadata>
  <g
     style="display:inline"
     transform="translate(0,-197)"
     id="layer1">
    <path
       id="path1005"
       d="m 9.6856398,253.391 v -13.79613 c -0.03633,-2.32373 1.7078752,-4.30435 4.5829612,-4.29948 h 27.214285 c 3.609979,-0.002 5.441412,2.15781 5.480654,4.7247 v 9.63839 c -0.04128,2.64855 -1.775821,3.79536 -4.346726,3.77977 l -17.094619,-0.0668 c -3.42541,-0.0236 -3.307093,-7.34794 0.133634,-7.39011 l 8.445058,0.0196 c 1.654489,0.005 1.585315,-2.94308 -0.09449,-2.92259 l -9.429835,-0.0863 c -1.521825,0.0199 -2.113963,0.98709 -2.134223,2.34278 l 0.04725,8.05631 c 0.0196,4.66048 -12.7794382,4.71139 -12.8039432,0 z"
       style="display:inline;fill:#bdbcbf;fill-opacity:1;stroke:#000000;stroke-width:2;stroke-linecap:butt;stroke-linejoin:miter;stroke-miterlimit:4;stroke-dasharray:none;stroke-opacity:1" />
    <path
       id="path1007"
       d="m 47.016509,253.70234 0.110706,-14.03165 c -0.02419,-2.86385 0.95104,-4.71774 4.432876,-4.81086 l 23.786986,0.26727 c 2.382842,-0.021 4.815913,2.22788 6.406364,3.55614 3.406548,2.75098 2.785022,9.55153 -2.70987,11.08833 5.511298,-0.0357 6.283643,7.00864 1.27092,7.01583 l -7.573291,0.12219 c -1.720015,-0.019 -2.403973,-3.17673 -5.169259,-5.03423 -3.595159,-2.42761 -4.579836,-6.7721 -1.170285,-6.29508 4.158334,0.60605 5.608652,0.50461 5.588341,-0.57229 -0.01298,-2.11204 -2.086141,-1.82884 -6.63171,-1.82363 -3.663055,-0.0733 -4.459543,0.91615 -4.435657,3.01963 l -0.141741,7.49837 c -0.04454,4.4637 -13.719836,4.67491 -13.76438,0 z"
       style="display:inline;fill:#bdbcbf;fill-opacity:1;stroke:#000000;stroke-width:2;stroke-linecap:round;stroke-linejoin:round;stroke-miterlimit:4;stroke-dasharray:none;stroke-opacity:1" />
    <path
       id="path1009"
       d="m 83.889752,240.19286 c 0.03002,-2.98127 1.416756,-4.70185 4.335263,-4.7247 l 24.179015,0.0668 c 4.48197,0.008 4.48114,7.51961 -0.0465,7.50487 l -17.300404,0.0431 13.233104,-0.0782 c 4.75671,0.0644 4.81063,6.68866 0.0553,6.65372 l -13.099465,0.0277 17.180885,-0.007 c 4.5932,0.0593 4.66929,6.95235 0,6.94463 l -24.782332,-0.0783 c -2.592808,-0.0141 -3.658782,-1.65915 -3.710975,-3.83708 z"
       style="display:inline;fill:#bdbcbf;fill-opacity:1;stroke:#000000;stroke-width:2;stroke-linecap:round;stroke-linejoin:round;stroke-miterlimit:4;stroke-dasharray:none;stroke-opacity:1" />
    <path
       id="path1011"
       d="m 115.68364,240.96502 c -0.12529,-3.64964 1.17557,-5.45375 5.6224,-5.48065 l 22.42414,-0.0945 c 5.62006,-0.0105 5.60633,7.16235 0.0668,7.21496 l -18.43206,0.022 18.43206,-0.022 c 2.98993,0.0806 4.65119,1.32601 4.67984,5.1695 l -0.0334,4.65788 c -0.0326,3.16194 -1.65511,4.46557 -5.12463,4.51377 l -22.10014,-0.0783 c -5.87493,0.0377 -5.67541,-7.10752 0.0668,-7.20348 l 15.97719,-0.0668 -15.97719,0.0668 c -3.82132,-0.0234 -5.58434,-1.35254 -5.60183,-4.35246 z"
       style="display:inline;fill:#bdbcbf;fill-opacity:1;stroke:#000000;stroke-width:2;stroke-linecap:round;stroke-linejoin:round;stroke-miterlimit:4;stroke-dasharray:none;stroke-opacity:1" />
    <use
       style="display:inline"
       transform="translate(32.874152,-0.13363477)"
       height="100%"
       width="100%"
       id="use1013"
       xlink:href="#path1011"
       y="0"
       x="0" />
    <use
       transform="translate(92.051424)"
       height="100%"
       width="100%"
       id="use1015"
       xlink:href="#path1011"
       y="0"
       x="0" />
    <path
       id="path1017"
       d="m 246.15523,243.07837 c -5.12564,-0.0105 -4.9434,-7.73664 0,-7.81763 h 29.60009 c 4.72175,0.0445 4.65496,7.8399 0,7.81763 h -6.48127 c -1.69736,0.0245 -2.42066,1.1831 -2.40544,2.73952 l 0.13364,7.48354 c 0.0301,5.42195 -12.80199,5.40649 -12.82893,0 l -0.10023,-7.38332 c 0.0112,-1.57169 -0.51705,-2.8988 -2.30519,-2.87315 z"
       style="display:inline;fill:#bdbcbf;fill-opacity:1;stroke:#000000;stroke-width:2;stroke-linecap:butt;stroke-linejoin:miter;stroke-miterlimit:4;stroke-dasharray:none;stroke-opacity:1" />
    <path
       id="path1019"
       d="m 277.45743,256.95745 c -3.08794,-0.0442 -4.32151,-6.85069 -0.58989,-10.60626 l 11.15031,-9.4494 c 1.66453,-1.43019 8.474,-1.43537 10.20535,0 l 9.44941,8.88244 c 1.37655,0.97181 2.63973,-1.49716 2.64583,-3.59078 -0.10079,-8.50365 3.4285,-7.68318 6.80358,-7.74851 l 23.43451,0.18899 c 4.8421,0.0289 7.70075,1.27443 7.74851,8.12649 0.78085,3.77952 -2.28037,6.35452 -5.20584,6.66994 5.68384,0.34201 5.77382,7.55171 1.83651,7.55952 l -10.27023,-0.0783 c -1.60482,0.0192 -3.74417,-3.68228 -5.0149,-4.13481 -2.75528,-0.79328 -3.42976,-5.79052 0.51161,-6.04762 2.61748,-0.0167 5.45839,0.11283 5.48066,-1.88988 0.0552,-2.00749 -4.35344,-1.84277 -9.10386,-1.8021 -1.90913,0.0305 -3.04443,0.95753 -3.015,2.58168 l -0.0236,7.13429 c 0.0183,2.67786 -1.51662,4.36184 -4.1105,4.37035 l -10.77231,0.18899 c -1.96637,-0.018 -4.14432,-0.86387 -5.05544,-1.74814 l -8.57464,-9.2361 -4.67747,3.61371 h 6.11781 c 3.15092,0.0185 3.25168,7.04583 -0.14174,7.07084 z"
       style="display:inline;fill:#bdbcbf;fill-opacity:1;stroke:#000000;stroke-width:2;stroke-linecap:round;stroke-linejoin:round;stroke-miterlimit:4;stroke-dasharray:none;stroke-opacity:1" />
    <use
       transform="translate(106.11856,0.06002619)"
       height="100%"
       width="100%"
       id="use1021"
       xlink:href="#path1017"
       y="0"
       x="0" />
  </g>
</svg>
