<?xml version="1.0" encoding="UTF-8" standalone="no"?>
<svg
   xmlns:dc="http://purl.org/dc/elements/1.1/"
   xmlns:cc="http://creativecommons.org/ns#"
   xmlns:rdf="http://www.w3.org/1999/02/22-rdf-syntax-ns#"
   xmlns:svg="http://www.w3.org/2000/svg"
   xmlns="http://www.w3.org/2000/svg"
   xmlns:xlink="http://www.w3.org/1999/xlink"
   id="svg8"
   version="1.1"
   viewBox="0 0 1280 900"
   height="900mm"
   width="1280mm">
  <defs
     id="defs2" />
  <metadata
     id="metadata5">
    <rdf:RDF>
      <cc:Work
         rdf:about="">
        <dc:format>image/svg+xml</dc:format>
        <dc:type
           rdf:resource="http://purl.org/dc/dcmitype/StillImage" />
        <dc:title></dc:title>
      </cc:Work>
    </rdf:RDF>
  </metadata>
  <g
     transform="translate(0,180)"
     style="display:inline"
     id="layer2">
    <path
       id="path912"
       d="M -0.01018496,718.04059 -1.2590949,508.42783 C 88.884605,462.23788 254.91506,432.81161 411.21447,427.86753 c 155.75462,-9.29877 318.58037,-10.79103 473.24976,0.99635 164.09427,7.24598 308.28737,32.18165 395.57607,88.82437 l -0.025,200.35234 z"
       style="display:inline;fill:#001500;fill-opacity:1;stroke:none;stroke-width:0.26458332px;stroke-linecap:butt;stroke-linejoin:miter;stroke-opacity:1" />
  </g>
  <g
     transform="translate(0,180)"
     id="layer3">
    <path
       id="path819"
       d="M -0.01594408,220.21776 -2.1482537,482.68963 C 327.32736,388.51488 952.29889,373.53469 1280.0149,482.62281 l -0.01,-262.40505 z"
       style="display:inline;fill:#103700;fill-opacity:1;stroke:none;stroke-width:0.26458332px;stroke-linecap:butt;stroke-linejoin:miter;stroke-opacity:1" />
    <path
       id="path918"
       d="M -0.01015468,720.02496 0.53453905,630.73195 C 1.8390319,622.95057 4.3773186,615.66271 10.690781,609.88492 c 5.285625,13.84821 7.174334,24.86566 6.414469,33.67596 3.658426,-15.4068 8.878644,-29.2518 29.399646,-27.79602 -12.040647,13.6383 -15.061998,28.17853 -6.949006,43.8322 0.525081,-17.52396 4.461875,-30.08543 16.036171,-31.5378 1.635545,8.32861 6.108781,24.46087 11.759859,43.83219 -1.013625,-18.51324 -2.276236,-37.42485 1.603618,-48.10852 6.770828,17.32839 13.541655,33.32974 20.312483,41.69405 1.996697,-17.32832 10.620326,-28.97641 26.726949,-34.2105 0.53852,18.00894 0.13426,36.23544 13.36348,51.31575 3.24393,-14.21768 11.26612,-23.65711 24.5888,-27.79604 9.48094,10.58187 20.64252,19.27304 22.45064,38.48683 4.39407,-11.16644 11.39844,-21.02773 27.79603,-26.19241 3.9351,9.1706 7.57741,19.0244 14.43255,21.38157 10.59469,-10.38127 21.354,-20.49913 36.88319,-22.9852 l -4.81085,29.93419 c 10.73031,-2.82047 21.68203,-7.96572 30.46874,9.6217 7.48354,-16.80691 14.96709,-27.16972 22.45063,-28.86511 8.39986,11.63063 16.04156,23.1797 13.89801,33.67598 8.70234,-14.21149 17.22947,-28.89023 28.86511,-35.2796 5.53948,18.9642 12.35739,36.96959 21.9161,52.91937 9.67645,-16.10475 24.14359,-37.24709 42.9688,-46.94771 0.21455,18.80714 -3.19114,35.16604 3.00155,33.0497 5.99012,-8.40491 6.43325,-25.52654 18.70887,-24.05425 1.58556,7.64171 -3.59398,16.12906 12.82893,21.9161 2.35629,-8.64012 6.33752,-9.96798 10.69078,-9.62171 1.6908,4.88541 2.16971,9.9728 9.62171,13.89801 4.62005,-9.11872 11.66457,-12.17627 20.31249,-11.22532 2.36091,7.40336 2.02942,15.34521 13.89803,20.84703 19.59663,-7.9118 45.00511,-24.12624 58.26474,-22.98518 0.79671,9.97806 0.25071,19.95613 4.81087,29.93419 7.8399,-9.04886 15.67981,-21.37194 23.51971,-22.98517 1.27683,11.91586 11.89555,16.82529 20.84702,22.98517 l 106.90781,-4.81086 c 4.75099,-8.10244 9.7629,-15.5265 9.6217,-36.34865 13.07266,13.00712 21.716,26.01424 26.72697,39.02136 16.01712,-10.46815 33.27422,-23.82962 46.50488,-27.79604 7.48355,13.87659 14.96709,25.68024 22.45064,31.53781 3.64276,-14.66008 5.79972,-30.75754 15.50164,-39.5559 4.63267,7.55499 9.26534,8.40237 13.89801,10.15624 1.13218,0.0223 1.47111,-4.71499 1.60361,-10.69078 9.97575,3.44635 10.57811,13.14162 11.75986,22.45064 3.74177,-13.10875 7.48355,-27.10381 11.22532,-30.46873 21.30125,9.23367 17.61412,29.39976 24.58881,44.9013 14.10683,-16.24902 29.69278,-31.82571 33.14142,-52.91936 8.90898,0.11173 17.81796,2.92743 26.72694,16.03615 8.73081,-11.05708 17.46161,-23.97554 26.19242,-22.45063 1.92178,16.17626 4.55807,23.06391 7.48353,26.19242 14.48634,-7.93762 34.85134,-11.25633 36.34864,-29.39965 10.6138,3.92096 20.6321,8.88424 27.2615,19.77795 11.5972,-6.60027 20.707,-17.67812 36.8832,-16.03619 1.3406,9.59193 3.2307,18.22229 8.5526,20.84703 7.8469,-14.16234 13.5273,-38.43512 24.0543,-40.09044 7.3054,14.64865 14.6107,24.95153 21.9161,31.53781 9.1467,-17.03664 20.0224,-33.2753 16.5707,-56.12659 14.7137,7.29744 28.1239,14.69516 29.9342,22.98517 3.8883,-17.82974 9.6347,-24.51073 15.5016,-30.46873 -0.3291,20.89683 0.6615,37.30683 5.3454,41.15951 7.455,-11.68701 13.2881,-23.73445 11.7599,-37.41772 7.2406,3.5796 11.1672,17.10132 15.5016,29.39963 4.3284,-14.61073 1.7644,-29.22147 -8.0181,-43.8322 19.9878,8.94993 31.8357,18.99814 33.1415,30.46873 2.128,-8.76706 3.3178,-19.8966 13.1087,-18.12708 l 0.049,97.79839 -623.84824,52.89168 z"
       style="display:inline;fill:#002608;fill-opacity:1;stroke:none;stroke-width:0.26458332px;stroke-linecap:butt;stroke-linejoin:miter;stroke-opacity:1" />
    <path
       id="path817"
       d="m -1.448083,514.75893 -0.3789144,-80.50892 c 2.41047088,-8.42283 5.3465271,-15.92816 11.7463451,-17.38691 0.094693,12.0818 0.9430793,22.76735 4.5469723,28.3482 7.199372,-8.05024 14.398745,-18.89984 21.598118,-21.92261 0.154027,7.8781 0.616336,14.62863 2.273485,17.00893 7.348351,-3.42846 15.045626,-9.20633 20.461373,0.37798 2.297929,-8.29926 4.776098,-14.62079 7.578288,-17.38691 3.395978,5.86672 7.087661,10.25857 10.988516,13.60715 1.604354,-12.20111 3.721031,-23.60369 13.262003,-23.43454 0.801784,9.98932 -0.0037,17.00663 8.525563,23.62353 2.996894,-10.97276 0.29672,-23.38783 9.662334,-28.9152 7.86142,10.09908 13.38755,11.46253 19.32462,14.36312 0.0517,-6.87151 -0.85085,-14.81396 3.03131,-17.38691 5.79595,5.85157 11.28829,11.27915 12.12527,10.20535 2.22153,-7.45557 4.62004,-14.26383 8.33612,-16.25298 6.29906,6.67758 12.40537,13.35516 13.26199,20.03274 5.20191,-6.67476 8.468,-17.74561 15.9144,-21.73363 2.61262,10.30869 3.35853,10.6862 4.54699,13.41815 6.1955,-6.13474 10.89508,-13.94823 20.84028,-15.875 0.26749,3.34242 0.39362,7.24886 1.13675,8.69346 4.66836,-4.1082 8.28166,-11.11067 14.77766,-10.20534 0.70513,5.10016 1.48355,10.07239 4.16805,11.71725 11.20521,-2.91005 19.47776,-2.24458 26.14509,0.37796 2.48962,-11.23532 16.31025,-3.39689 26.14509,-2.26785 2.39159,-6.21045 5.31305,-10.04228 8.71501,-11.71726 1.23431,4.18642 3.31316,7.53037 6.06265,10.20535 1.92617,-6.709 4.51591,-11.43223 7.9572,-13.60712 1.49341,7.58171 6.42286,11.73589 10.23068,17.00892 3.24005,-6.32149 7.15898,-12.30437 14.39875,-16.63096 1.97145,4.84483 2.03794,10.50405 7.19938,13.98513 5.1315,-7.37363 9.80434,-15.25561 19.32461,-17.76489 -0.82621,5.85141 -3.94105,11.98819 -1.13673,17.38691 5.93633,-3.03804 11.87266,-3.50655 17.80898,0 1.45439,-4.78393 3.11181,-9.16283 6.06263,-10.96132 5.42443,3.40179 8.07675,6.80359 9.47286,10.20538 3.55518,-10.69095 8.91091,-20.24753 21.97703,-24.94646 2.88081,5.40212 3.38287,11.75338 3.78912,18.14288 4.54698,-4.68378 9.09395,-9.41582 13.64093,-8.69347 0.28359,4.40497 1.61757,7.93678 4.92588,9.8274 4.19519,-6.02443 7.60311,-12.72198 15.15659,-15.875 1.91135,5.02629 3.26719,10.49589 7.57828,13.60715 7.45198,-6.20277 14.90395,-11.08012 22.35593,-21.54465 4.75066,1.88789 8.36694,5.19027 9.09398,12.09524 5.6837,-9.05955 11.36743,-14.75116 17.05114,-17.7649 1.18914,6.33082 3.28852,13.82903 1.13673,15.875 5.76605,-0.82212 11.54828,-1.43458 17.80896,4.15775 8.20983,-2.31518 16.41964,-9.68818 24.62946,-5.29167 5.68372,0.5267 11.36742,0.75402 17.05114,-4.15774 1.77886,11.63264 4.42311,16.35938 7.19935,20.03274 2.23736,-7.74681 4.74636,-14.84331 9.47287,-16.63094 1.71029,4.53571 1.33369,9.07141 7.19938,13.60712 9.13609,-19.52708 19.03642,-11.61019 29.17641,4.91371 6.94676,-4.13386 13.89352,-5.46289 20.84028,-15.11906 3.73102,-5.76628 11.70052,-4.4859 18.18788,-5.66965 -0.84924,7.04103 -2.37612,14.90824 1.13677,16.63097 4.43695,2.02553 10.63824,3.39107 11.36741,6.80358 1.89457,-8.18949 4.29436,-14.6151 7.19937,-19.27681 6.56785,-2.11871 13.13571,-2.41302 19.70356,0 0.97937,7.78673 1.97267,15.5422 4.92588,18.89882 3.53653,-8.5641 7.07307,-14.35268 10.60961,-18.89882 0.35222,6.04143 1.29033,9.45291 2.65239,10.96132 5.67534,-4.92205 9.98031,-11.21106 13.64093,-18.14285 1.89456,1.68365 3.78913,2.89695 5.68369,9.44938 7.44449,-12.02157 17.06303,-8.86251 28.03968,3.77979 10.8512,-5.9549 16.93521,-11.87335 21.97704,-21.54465 8.43424,0.74916 8.00188,12.00608 10.98849,20.03274 6.15558,-4.11971 10.61979,-9.5048 14.77767,-15.11906 3.65699,3.16732 5.53316,11.66386 7.19938,20.78868 3.91544,-3.87347 7.83089,-9.63294 11.74634,-9.82736 3.21588,2.82722 2.43977,6.79218 2.27348,10.58333 5.0522,-2.03628 10.10439,-4.8157 15.15659,-11.3393 2.65894,2.85624 7.39554,3.93601 3.41021,12.47323 4.14713,-2.18363 8.9851,-2.98899 11.74634,-7.9375 2.5261,-0.99092 5.05219,3.3088 7.57829,6.0476 1.65405,-7.01635 2.86724,-15.46202 6.44157,-16.25295 9.77739,5.92162 10.89798,11.84324 14.01981,17.76486 1.1047,-5.35558 4.77747,-5.58778 8.33613,-6.0476 -2.43017,3.95679 -1.5717,7.50352 0,10.96131 4.04176,-4.42778 8.08351,-9.22447 12.12526,-6.80357 -0.0635,3.55971 0.19291,6.64091 1.13674,8.69344 6.94676,-2.79512 13.89352,-2.48154 20.84028,-0.75594 1.79726,-4.77614 0.13368,-10.93317 -0.37893,-16.63097 10.41446,5.32412 13.49258,11.86793 18.18792,18.14288 8.5877,-2.15922 17.07586,-6.00638 26.14508,0 2.68184,-8.42915 5.92806,-11.79142 9.09394,-15.875 1.1507,4.32855 0.39641,9.41722 3.78914,12.85118 6.02936,-3.59418 10.83873,-9.6223 15.91446,-15.11906 -0.036,6.08362 0.9665,11.131 -1.89463,20.03274 3.98813,-3.45045 8.74343,-6.12748 10.60963,-11.71726 5.9318,7.40642 10.5385,6.88267 15.5354,8.69344 11.1801,2.96292 21.3435,4.91158 26.5241,1.8899 2.6521,-4.0323 4.237,-10.19375 8.715,-10.58334 13.4305,3.90575 17.0748,7.81151 24.6295,11.71726 6.4523,1.08041 13.6302,-1.4587 21.598,-7.9375 4.1041,5.22136 1.7519,14.46783 2.2735,21.92264 7.2893,-7.24998 14.776,-16.86219 21.5981,-18.52084 -1.1439,6.71087 0.1372,12.81696 3.0313,18.52084 5.3048,-4.53582 10.6097,-11.9383 15.9145,-10.96132 5.1666,10.14757 3.433,11.11761 4.5469,15.875 15.9116,-17.90651 23.3428,-10.10955 26.1452,11.71726 4.7995,-6.0443 9.5991,-12.89867 14.3986,-23.43452 5.7887,3.55542 6.4979,17.96861 9.094,28.3482 3.6629,-6.22167 7.3257,-14.83851 10.9885,-13.98511 1.7784,6.55834 3.1117,12.82066 1.8946,17.38691 8.0079,-5.84165 16.1204,-9.70397 24.6295,-6.04763 3.4445,-4.52469 6.8285,-9.29106 11.7462,-7.9375 1.5157,8.56744 4.0418,14.11114 7.5784,16.63096 5.6801,-11.80952 8.8234,-29.5237 20.0825,-28.34822 v 103.1875 C 1178.0379,466.30315 1062.1569,438.82877 886.27368,432.53175 728.88725,425.06802 565.01439,423.44162 407.17391,431.2262 252.60394,437.59728 100.12097,463.72624 -1.448083,514.75893 Z"
       style="display:inline;fill:#002608;fill-opacity:1;stroke:none;stroke-width:0.26491147px;stroke-linecap:butt;stroke-linejoin:miter;stroke-opacity:1" />
  </g>
  <g
     transform="translate(0,180)"
     style="display:inline"
     id="layer4">
    <g
       id="g1039">
      <path
         style="fill:none;stroke:#286818;stroke-width:6;stroke-linecap:round;stroke-linejoin:miter;stroke-miterlimit:4;stroke-dasharray:none;stroke-opacity:1"
         d="m 527.59004,327.63516 c 1.53207,-35.32202 -34.55337,-54.63922 -28.13529,-81.80542 6.92457,-46.1926 69.58143,-43.91943 53.85172,-72.8018 -25.11134,-42.42217 -57.04945,-64.26967 -55.65062,-91.374482 1.93841,-29.943584 36.45547,-58.813771 31.28031,-107.173458 -2.86762,-21.204888 0.33837,-32.180092 3.89237,-46.239249"
         id="path822" />
      <path
         style="display:inline;fill:#387010;fill-opacity:1;stroke:none;stroke-width:0.26458332px;stroke-linecap:butt;stroke-linejoin:miter;stroke-opacity:1"
         d="m 515.40227,316.76781 c -34.80401,-19.18216 -58.74318,4.0204 -80.74313,18.3727 34.7149,22.46709 60.33705,5.53225 85.57804,-13.05428 13.33257,-3.8817 28.10344,-10.88373 36.98714,-6.52714 8.65722,4.12479 57.49655,8.40213 73.24901,33.84443 6.18717,-12.69395 -9.34342,-53.94669 -47.38221,-55.35982 -26.14698,-2.83667 -45.23904,3.00964 -54.63458,20.79014 -0.97661,3.60335 -7.05096,2.72682 -13.05427,1.93397 z"
         id="path984" />
      <path
         style="display:inline;fill:#206008;fill-opacity:0.97142855;stroke:none;stroke-width:0.26458332px;stroke-linecap:butt;stroke-linejoin:miter;stroke-opacity:1"
         d="m 520.23718,322.08623 c -2.43479,2.47812 -6.33459,4.46348 -9.4093,6.78192 -7.41615,-11.58138 -43.11705,1.40778 -45.18686,0.36262 0.51282,-2.35663 36.87,-10.81554 25.29914,-20.17096 9.35654,0.69878 17.98949,2.52313 24.46211,7.708 4.77916,0.0682 10.09628,1.03307 13.05427,-1.93397 11.50934,-19.84722 29.65001,-24.53539 54.63458,-20.79014 -4.67726,6.0955 27.17262,18.67814 28.5328,22.87937 -3.14964,2.10874 -32.22554,-14.70437 -35.21367,-8.0342 -0.79421,4.32277 -1.65016,5.58684 5.47009,13.16241 -7.27304,-1.62028 -18.4551,-3.81464 -27.07348,-7.0361 -7.37773,-3.02295 -23.00213,4.28092 -34.56968,7.07105 z"
         id="path986" />
      <path
         style="fill:#387810;fill-opacity:1;stroke:none;stroke-width:0.26458332px;stroke-linecap:butt;stroke-linejoin:miter;stroke-opacity:1"
         d="m 425.29913,278.11965 c 5.64454,-25.98107 11.33936,-47.96988 41.75395,-46.92988 17.23819,-0.0676 26.43049,-1.23224 33.84444,7.01063 2.88769,1.9285 5.86541,3.34683 9.42808,1.45048 11.28587,-13.72319 21.68063,-5.6567 35.29492,7.49412 6.74886,7.46286 16.21504,26.62363 15.91794,38.49601 -20.39644,-2.90695 -51.09647,-20.22469 -56.773,-23.99126 -3.94878,-2.61068 -4.03529,-9.9419 -5.31071,-15.82001 -5.05752,6.36434 -11.93385,9.09104 -19.22651,10.9851 -14.2285,3.05286 -25.0536,15.43561 -54.92911,21.30481 z"
         id="path990" />
      <path
         style="fill:#206008;fill-opacity:1;stroke:none;stroke-width:0.26458332px;stroke-linecap:butt;stroke-linejoin:miter;stroke-opacity:1"
         d="m 480.22824,256.81484 c 1.97526,-8.9099 2.12394,-15.27776 0.11364,-15.10544 -15.47687,0.0567 -33.34592,17.39529 -38.67211,18.73162 1.77427,-4.03272 12.62508,-19.63097 27.31728,-24.65808 1.18799,-3.05826 -0.47349,-3.74197 -1.93397,-4.59317 13.34488,-0.75822 26.72503,-1.56934 33.84444,7.01063 2.71633,1.22964 4.98601,3.2409 9.42808,1.45048 13.39161,-16.37201 25.64242,-1.07145 35.29492,7.49412 -7.7022,-2.97368 -12.96596,-3.13377 -14.7465,0.72524 0.20368,5.88635 6.67092,10.16297 7.97761,13.77951 -5.39878,-0.85923 -9.79377,-4.64629 -18.13095,-10.15332 -3.79007,-1.79413 -12.99827,3.88266 -15.95522,10.15332 -3.88329,-0.4435 -4.52778,-8.28997 -5.31071,-15.82001 -3.99504,6.55055 -12.7515,8.89713 -19.22651,10.9851 z"
         id="path988" />
      <path
         style="fill:#387810;fill-opacity:1;stroke:none;stroke-width:0.26458332px;stroke-linecap:butt;stroke-linejoin:miter;stroke-opacity:1"
         d="m 541.51082,186.70852 c 6.09204,-3.52676 10.78157,-5.57495 12.08731,-8.70285 -14.88834,-33.94871 -43.7577,-27.31673 -63.33744,-26.10856 -7.78168,0.80265 -42.40246,11.44934 -49.40599,57.67554 55.54899,7.46924 74.36491,-8.28204 100.65612,-22.86413 z"
         id="path1006" />
      <path
         style="fill:#206008;fill-opacity:0.97142855;stroke:none;stroke-width:0.26458332px;stroke-linecap:butt;stroke-linejoin:miter;stroke-opacity:1"
         d="m 553.59813,178.00567 c -1.55421,4.31517 -4.59745,5.75261 -12.08731,8.70285 -19.16553,-12.31709 -24.85972,-32.67774 -91.86342,8.21936 8.19261,-11.12022 23.78933,-26.80714 46.4152,-30.94347 2.96836,-4.0291 -1.17566,-8.0582 -5.80191,-12.0873 35.43293,-6.29953 54.96075,4.06345 63.33744,26.10856 z"
         id="path1004" />
      <path
         style="fill:#387810;fill-opacity:1;stroke:none;stroke-width:0.26458332px;stroke-linecap:butt;stroke-linejoin:miter;stroke-opacity:1"
         d="m 496.6776,82.310286 c -19.21497,0.89452 -40.58586,27.903524 4.91209,38.360214 12.1492,2.73057 21.47295,7.07604 29.25125,8.70285 7.85451,-3.76282 40.20273,-18.69814 39.40458,-27.07554 -0.43154,-5.291714 -8.39011,-9.311964 -14.76452,-13.491794 -15.6881,-10.4297 -33.75764,-7.84114 -58.8034,-6.49573 z"
         id="path1010" />
      <path
         style="fill:#206008;fill-opacity:0.97142855;stroke:none;stroke-width:0.26458332px;stroke-linecap:butt;stroke-linejoin:miter;stroke-opacity:1"
         d="m 496.6776,82.310286 c 26.45,6.94072 27.58827,34.116494 34.18802,42.051284 5.84956,-11.76576 -3.14879,-39.744914 24.61538,-35.555554 -16.36411,-11.87631 -38.18107,-7.39406 -58.8034,-6.49573 z"
         id="path1008" />
      <path
         style="fill:#50a210;fill-opacity:1;stroke:none;stroke-width:0.26458332px;stroke-linecap:butt;stroke-linejoin:miter;stroke-opacity:1"
         d="m 482.27586,-10.909751 c -14.66112,30.25494 -9.95884,36.30798 10.94015,58.80341 13.63538,-19.05339 34.4798,-20.8262 37.26495,-26.32478 9.5111,-30.3841795 3.43011,-40.43068 -2.39316,-45.12821 -6.23571,0.39044 -9.56212,3.49358 -13.33333,1.7094 -15.79681,-4.969 -26.35005,-0.84912 -32.47861,10.94018 z"
         id="path1016" />
      <path
         style="fill:#408810;fill-opacity:1;stroke:none;stroke-width:0.26458332px;stroke-linecap:butt;stroke-linejoin:miter;stroke-opacity:1"
         d="m 514.75448,-21.849931 c -15.73871,-6.26972 -29.43736,0.16254 -32.47862,10.94018 26.43794,-0.83398 0.90201,29.93529 2.05126,39.99999 12.08857,-10.78258 19.4735,-35.9018396 32.82053,-34.5299096 7.669,1.1904 14.12055,8.5026 13.33332,27.0085496 5.13806,-9.68661 9.72946,-38.51852 -2.39317,-45.12821 -4.24486,-1.846871 -9.48647,3.16748 -13.33332,1.7094 z"
         id="path1014" />
      <path
         style="display:inline;fill:#50a210;fill-opacity:1;stroke:none;stroke-width:0.26458332px;stroke-linecap:butt;stroke-linejoin:miter;stroke-opacity:1"
         d="m 532.82853,-71.759249 c -30.24227,5.24705 -63.03202,36.41969 -93.27429,54.37498 8.40438,-84.440331 65.01898,-67.36982 90.13159,-69.84672 6.84937,0.24126 15.08866,7.7874 14.50475,10.63683 -4.49855,-0.907242 -9.35521,0.109458 -11.36205,4.83491 z"
         id="path1022" />
      <path
         style="display:inline;fill:#408810;fill-opacity:1;stroke:none;stroke-width:0.26458332px;stroke-linecap:butt;stroke-linejoin:miter;stroke-opacity:1"
         d="m 532.82853,-71.759249 c -45.52465,-25.7439 -84.30139,38.48776 -93.27429,54.37498 3.54222,-32.8471 3.97537,-77.424704 90.13159,-69.84672 46.35002,-12.38773 60.85299,-3.75775 69.00275,26.83172 -13.23641,-9.9668 -32.98671,-27.31138 -54.498,-16.19489 -8.02258,-0.454953 -8.88596,1.525558 -11.36205,4.83491 z"
         id="path1020" />
    </g>
    <use
       transform="translate(-429.30798,3.7199193)"
       height="100%"
       width="100%"
       id="use1041"
       xlink:href="#g1039"
       y="0"
       x="0" />
    <use
       transform="translate(429.40171,1.3675214)"
       height="100%"
       width="100%"
       id="use1043"
       xlink:href="#g1039"
       y="0"
       x="0" />
    <use
       transform="matrix(-1,0,0,1,847.11378,44.014163)"
       height="100%"
       width="100%"
       id="use1045"
       xlink:href="#g1039"
       y="0"
       x="0" />
    <use
       transform="matrix(-1,0,0,1,1286.2831,-41.978125)"
       height="100%"
       width="100%"
       id="use1047"
       xlink:href="#g1039"
       y="0"
       x="0" />
    <use
       transform="matrix(-1,0,0,1,1713.8444,3.0769231)"
       height="100%"
       width="100%"
       id="use1049"
       xlink:href="#g1039"
       y="0"
       x="0" />
  </g>
</svg>
