<svg xmlns="http://www.w3.org/2000/svg" xmlns:xlink="http://www.w3.org/1999/xlink" viewBox="0 0 1280 900" height="900mm" width="1280mm"><path d="M0 898l-1.3-209.6C89 642.2 255 612.8 411.2 608c155.8-9.3 318.6-10.8 473.3 1 164 7.2 308.3 32.1 395.5 88.8V898z" fill="#001500"/><path d="M0 400.2l-2.1 262.5c329.4-94.2 954.4-109.2 1282.1 0V400.1z" fill="#103700"/><path d="M0 900l.5-89.3c1.3-7.7 3.9-15 10.2-20.8a78 78 0 0 1 6.4 33.7c3.7-15.4 8.9-29.3 29.4-27.8-12 13.6-15 28.1-7 43.8.6-17.5 4.5-30 16-31.5a650 650 0 0 0 11.9 43.8c-1-18.5-2.3-37.4 1.6-48.1 6.7 17.3 13.5 33.3 20.3 41.7 2-17.4 10.6-29 26.7-34.2.5 18 .1 36.2 13.4 51.3 3.2-14.2 11.2-23.7 24.5-27.8 9.5 10.6 20.7 19.3 22.5 38.5a40.7 40.7 0 0 1 27.8-26.2c4 9.2 7.6 19 14.4 21.4 10.6-10.4 21.4-20.5 37-23l-4.9 30c10.7-3 21.7-8 30.5 9.5 7.5-16.8 15-27.1 22.4-28.8 8.4 11.6 16 23.1 14 33.6 8.6-14.2 17.1-28.8 28.8-35.2 5.5 19 12.3 37 21.9 52.9 9.7-16.1 24.1-37.3 43-47 .2 18.8-3.2 35.2 3 33 6-8.3 6.4-25.4 18.7-24 1.6 7.7-3.6 16.2 12.8 22 2.4-8.7 6.3-10 10.7-9.7 1.7 5 2.2 10 9.6 14 4.6-9.2 11.7-12.3 20.3-11.3 2.4 7.4 2 15.3 14 20.8 19.5-7.9 45-24 58.2-23 .8 10 .2 20 4.8 30 7.8-9 15.7-21.4 23.5-23 1.3 12 12 16.8 20.9 23l106.9-4.8c4.7-8.1 9.7-15.5 9.6-36.4 13 13 21.7 26 26.7 39 16-10.4 33.3-23.8 46.5-27.7 7.5 13.8 15 25.6 22.5 31.5 3.6-14.7 5.8-30.8 15.5-39.6 4.6 7.6 9.2 8.4 13.9 10.2 1.1 0 1.5-4.7 1.6-10.7 10 3.5 10.6 13.1 11.7 22.5 3.8-13.2 7.5-27.1 11.3-30.5 21.3 9.2 17.6 29.4 24.6 44.9 14-16.3 29.7-31.8 33.1-53 9 .2 17.8 3 26.7 16.1 8.8-11 17.5-24 26.2-22.4 2 16.1 4.6 23 7.5 26.1 14.5-7.9 34.9-11.2 36.4-29.4 10.6 4 20.6 9 27.2 19.8 11.6-6.6 20.7-17.7 36.9-16 1.3 9.6 3.2 18.2 8.6 20.8 7.8-14.1 13.5-38.4 24-40a106 106 0 0 0 22 31.5c9-17 20-33.3 16.5-56.1 14.7 7.3 28.1 14.7 30 23a53.5 53.5 0 0 1 15.4-30.5c-.3 20.9.7 37.3 5.4 41.1 7.4-11.7 13.3-23.7 11.7-37.4 7.3 3.6 11.2 17.1 15.5 29.4a50.2 50.2 0 0 0-8-43.8c20 9 31.9 19 33.2 30.5 2-8.8 3.3-20 13-18.2l.1 97.8-623.8 53zM-1.4 694.8l-.4-80.5c2.4-8.5 5.3-16 11.7-17.4.1 12 1 22.7 4.6 28.3 7.2-8 14.4-18.9 21.6-22 .1 8 .6 14.7 2.2 17.1 7.4-3.4 15-9.2 20.5.4a43.7 43.7 0 0 1 7.6-17.4c3.4 5.9 7 10.2 11 13.6 1.6-12.2 3.7-23.6 13.2-23.4.8 10 0 17 8.6 23.6 3-11 .3-23.4 9.6-29 7.9 10.2 13.4 11.5 19.3 14.4 0-6.8-.8-14.8 3-17.4 5.9 5.9 11.4 11.3 12.2 10.3 2.2-7.5 4.6-14.3 8.3-16.3 6.3 6.7 12.4 13.4 13.3 20 5.2-6.6 8.5-17.7 16-21.7 2.5 10.3 3.3 10.7 4.5 13.4 6.2-6.1 10.9-14 20.8-15.9.3 3.4.4 7.3 1.1 8.7 4.7-4 8.3-11 14.8-10.2.7 5.1 1.5 10.1 4.2 11.7 11.2-2.9 19.5-2.2 26.1.4 2.5-11.2 16.3-3.4 26.2-2.2 2.4-6.3 5.3-10 8.7-11.8a23 23 0 0 0 6 10.2c2-6.7 4.6-11.4 8-13.6 1.5 7.6 6.4 11.8 10.2 17a38 38 0 0 1 14.4-16.6c2 4.9 2 10.5 7.2 14 5.2-7.4 9.8-15.3 19.4-17.8-.9 5.9-4 12-1.2 17.4 6-3 11.9-3.5 17.8 0 1.5-4.8 3.1-9.1 6-11a22 22 0 0 1 9.6 10.3c3.5-10.7 8.9-20.3 22-25a44.1 44.1 0 0 1 3.7 18.2c4.6-4.7 9.1-9.5 13.7-8.7.3 4.4 1.6 8 4.9 9.8 4.2-6 7.6-12.7 15.2-15.9 1.9 5 3.2 10.5 7.5 13.6 7.5-6.2 15-11 22.4-21.5 4.7 1.9 8.4 5.2 9 12 5.8-9 11.5-14.7 17.1-17.7 1.2 6.3 3.3 13.8 1.2 15.9 5.7-.8 11.5-1.4 17.8 4.1 8.2-2.3 16.4-9.6 24.6-5.2 5.7.5 11.4.7 17-4.2a39.7 39.7 0 0 0 7.3 20c2.2-7.7 4.7-14.8 9.4-16.6 1.7 4.5 1.4 9 7.2 13.6 9.2-19.5 19-11.6 29.2 5 7-4.2 13.9-5.5 20.8-15.2 3.8-5.8 11.7-4.5 18.2-5.7-.8 7-2.3 15 1.2 16.7 4.4 2 10.6 3.4 11.3 6.8a64.4 64.4 0 0 1 7.2-19.3 29.4 29.4 0 0 1 19.7 0c1 7.8 2 15.5 5 18.9 3.5-8.6 7-14.4 10.6-19 .3 6.1 1.3 9.5 2.6 11 5.7-4.9 10-11.2 13.7-18 1.9 1.6 3.8 2.8 5.7 9.4 7.4-12 17-9 28 3.7 10.8-6 17-11.8 22-21.5 8.4.7 8 12 11 20a60.7 60.7 0 0 0 14.7-15c3.7 3 5.6 11.6 7.2 20.7 4-3.9 7.9-9.6 11.8-9.8 3.2 2.8 2.4 6.8 2.3 10.6 5-2 10-4.9 15.1-11.4 2.7 2.9 7.4 4 3.4 12.5 4.2-2.2 9-3 11.8-8 2.5-1 5 3.4 7.6 6 1.6-7 2.8-15.4 6.4-16.2 9.8 6 10.9 11.9 14 17.8 1.1-5.3 4.8-5.6 8.3-6-2.4 4-1.5 7.5 0 11 4-4.5 8.1-9.3 12.2-6.9 0 3.6.2 6.7 1.1 8.7a33 33 0 0 1 20.8-.7c1.8-4.8.2-11-.3-16.7 10.4 5.3 13.5 11.9 18.2 18.2 8.5-2.2 17-6 26.1 0 2.7-8.5 6-11.8 9.1-16 1.1 4.4.4 9.5 3.8 13 6-3.7 10.8-9.7 15.9-15.2 0 6.1 1 11.2-1.9 20 4-3.4 8.8-6 10.6-11.7 6 7.4 10.6 7 15.6 8.7 11.1 3 21.3 5 26.5 2 2.6-4.1 4.2-10.3 8.7-10.7 13.4 4 17 7.9 24.6 11.8 6.5 1 13.7-1.5 21.6-8 4.1 5.2 1.8 14.5 2.3 22 7.3-7.3 14.8-17 21.6-18.6a29 29 0 0 0 3 18.5c5.3-4.5 10.6-11.9 16-11 5.1 10.2 3.4 11.2 4.5 16 15.9-18 23.3-10.2 26.1 11.7 4.8-6 9.6-13 14.4-23.5 5.8 3.6 6.5 18 9.1 28.4 3.7-6.2 7.3-14.9 11-14a37 37 0 0 1 1.9 17.4c8-5.9 16.1-9.7 24.6-6 3.5-4.6 6.9-9.4 11.8-8 1.5 8.6 4 14.1 7.6 16.6 5.6-11.8 8.8-29.5 20-28.3v103.2c-102-53.4-217.8-80.9-393.7-87.2-157.4-7.4-321.3-9-479.1-1.3-154.6 6.4-307 32.5-408.6 83.6z" fill="#002608"/><g transform="translate(0 180)"><g id="a"><path d="M527.6 327.6c1.5-35.3-34.6-54.6-28.1-81.8 6.9-46.2 69.5-43.9 53.8-72.8-25.1-42.4-57-64.2-55.6-91.3 1.9-30 36.4-58.9 31.2-107.2-2.8-21.2.4-32.2 4-46.3" fill="none" stroke="#286818" stroke-width="6" stroke-linecap="round"/><path d="M515.4 316.8c-34.8-19.2-58.7 4-80.7 18.3 34.7 22.5 60.3 5.6 85.5-13 13.4-3.9 28.1-10.9 37-6.5 8.7 4 57.5 8.4 73.3 33.8 6.2-12.7-9.4-54-47.4-55.4-26.2-2.8-45.2 3-54.6 20.8-1 3.6-7 2.8-13.1 2z" fill="#387010" stroke-width=".3"/><path d="M520.2 322c-2.4 2.6-6.3 4.5-9.4 6.9-7.4-11.6-43 1.4-45.2.3.6-2.3 37-10.8 25.3-20.1 9.4.7 18 2.5 24.5 7.7 4.8 0 10.1 1 13-2 11.6-19.8 29.7-24.5 54.7-20.8-4.7 6.1 27.2 18.7 28.5 23-3.1 2-32.2-14.8-35.2-8.1-.8 4.3-1.6 5.6 5.5 13.2-7.3-1.7-18.5-3.9-27-7-7.5-3.1-23.1 4.2-34.7 7z" fill="#206008" stroke-width=".3"/><path d="M425.3 278.1c5.6-26 11.3-48 41.8-47 17.2 0 26.4-1.1 33.8 7.1 2.9 2 5.9 3.3 9.4 1.5 11.3-13.8 21.7-5.7 35.3 7.4 6.8 7.5 16.2 26.7 16 38.5-20.5-2.9-51.2-20.2-56.8-24-4-2.6-4-9.9-5.3-15.8-5.1 6.4-12 9.1-19.3 11-14.2 3-25 15.5-54.9 21.3z" fill="#387810" stroke-width=".3"/><path d="M480.2 256.8c2-8.9 2.2-15.3.1-15-15.4 0-33.3 17.3-38.6 18.6 1.7-4 12.6-19.6 27.3-24.6 1.2-3-.5-3.8-2-4.6 13.4-.8 26.8-1.6 33.9 7 2.7 1.2 5 3.2 9.4 1.5 13.4-16.4 25.7-1.1 35.3 7.4-7.7-3-13-3-14.7.8.2 5.9 6.6 10.1 8 13.7-5.4-.8-9.8-4.6-18.2-10.1-3.8-1.8-13 3.9-16 10.1-3.8-.4-4.5-8.2-5.2-15.8-4 6.6-12.8 9-19.3 11z" fill="#206008" stroke-width=".3"/><path d="M541.5 186.7c6.1-3.5 10.8-5.6 12.1-8.7-14.9-34-43.8-27.3-63.3-26.1-7.8.8-42.4 11.4-49.4 57.7 55.5 7.4 74.3-8.3 100.6-22.9z" fill="#387810" stroke-width=".3"/><path d="M553.6 178c-1.6 4.3-4.6 5.8-12 8.7-19.3-12.3-25-32.7-92 8.2a76.8 76.8 0 0 1 46.5-31c3-4-1.2-8-5.8-12 35.4-6.3 55 4 63.3 26.1z" fill="#206008" stroke-width=".3"/><path d="M496.7 82.3c-19.2.9-40.6 28 4.9 38.4 12.1 2.7 21.5 7 29.2 8.7 7.9-3.8 40.2-18.7 39.4-27.1-.4-5.3-8.3-9.3-14.7-13.5-15.7-10.4-33.8-7.8-58.8-6.5z" fill="#387810" stroke-width=".3"/><path d="M496.7 82.3c26.4 7 27.6 34.1 34.2 42 5.8-11.7-3.2-39.7 24.6-35.5-16.4-11.9-38.2-7.4-58.8-6.5z" fill="#206008" stroke-width=".3"/><path d="M482.3-11c-14.7 30.3-10 36.4 11 58.9 13.6-19 34.4-20.8 37.2-26.3C540-8.8 533.9-19 528-23.6c-6.2.4-9.6 3.5-13.3 1.8-15.8-5-26.4-.9-32.5 10.9z" fill="#50a210" stroke-width=".3"/><path d="M514.8-21.8c-15.8-6.3-29.5.1-32.5 10.9 26.4-.8.9 30 2 40 12.1-10.8 19.5-36 32.8-34.5 7.7 1.2 14.2 8.5 13.4 27 5.1-9.7 9.7-38.5-2.4-45.2-4.3-1.8-9.5 3.2-13.3 1.8z" fill="#408810" stroke-width=".3"/><path d="M532.8-71.8c-30.2 5.3-63 36.5-93.2 54.4 8.4-84.4 65-67.4 90-69.8 7 .2 15.2 7.8 14.6 10.6-4.5-.9-9.4.1-11.4 4.8z" fill="#50a210" stroke-width=".3"/><path d="M532.8-71.8c-45.5-25.7-84.3 38.5-93.2 54.4 3.5-32.8 4-77.4 90-69.8 46.4-12.4 61-3.8 69 26.8-13.1-10-32.9-27.3-54.4-16.2-8-.4-8.9 1.5-11.4 4.8z" fill="#408810" stroke-width=".3"/></g><use transform="translate(-429.3 3.7)" height="100%" width="100%" xlink:href="#a"/><use transform="translate(429.4 1.4)" height="100%" width="100%" xlink:href="#a"/><use transform="matrix(-1 0 0 1 847.1 44)" height="100%" width="100%" xlink:href="#a"/><use transform="matrix(-1 0 0 1 1286.3 -42)" height="100%" width="100%" xlink:href="#a"/><use transform="matrix(-1 0 0 1 1713.8 3)" height="100%" width="100%" xlink:href="#a"/></g></svg>