<svg xmlns="http://www.w3.org/2000/svg" xmlns:xlink="http://www.w3.org/1999/xlink" viewBox="0 0 600 200" height="200mm" width="600mm"><g transform="translate(0 -97)"><path d="M105.5 165.5c1.6 3.6 0 13.4-.8 20.8 0 0 7.3 1.9 8.7-1.2 2.7-6.6 4.9-22.6 7.4-28 2-3.9 37-8.1 41.4-4.9 2.4 2 10.7 15.8 13 20.5 1.8 2.7 5.8 2.9 7.3-.3 1.3-4.6-3-18-1.2-22.4 3.5-6.4 47-10.3 64.4-1.4-1.2-12 55.5-6.8 59.3-4.7 3.5 2 7.6 4.8 10.8 10.4.7-3.2 0-10 3-10.4 17-1.9 36.2 1 38.8 1 2.7.2 16.8-2 32.3-1.2 2.9.2 3.5 4.4 6.5 3.7 9.1-2 28.6 0 35.4 3.4 3.4 2 1-4.6 29.7.8 28.4 5 33.5 12.3 37 12.4 4.3-.1 5.9-6.4 20.4-3.2 8.6 1.6 31.5 6.4 39.4 9.6 6 2.6 4.4 11.6 1.1 22l-8.6 26.5c-2.8 6.4-4.4 14-15.7 13.7-6 .1-26.4-7.1-45.4-9.9-6.9-1-12.4-2-14.2 2.3-2 6.5-2.6 17.5-5.1 29.8-1.3 7-3.9 9.2-10.5 9.3-23-1.1-51.2-5-57.7-9.1-9 3.7-35.7 2.4-45.2-2.7-7.6.6-23 0-33-1-9.4 5-25 4.1-38 .5-3.1-.9-50.8 2.3-58.2 3.7a234 234 0 0 1-42.8 4.8c-9.7 3-27.9 5.7-33.9-.8l-29-34.7c-3-3-13-3.2-20.8 1.2a68 68 0 0 1-42.9 4.5c-7.3-3.7-5.8-2.6-2.4-22.2-8-1.5-15.4-11.3-13-24.7 3.3-14.4 35-27.2 62.5-18.1z" fill="#2a2c29"/><path id="e" d="M96.8 169.2c-21.1-4.7-52.4 5-48.5 22.7 4 12.2 16.6 14.1 34.1 11.4 5-.6 4.9 5-1.5 6.8-6.5 1.5-17.3-3.3-18.2-2.6-.7.7-4 17-3 17.5 3.6 1.2 26.7 2.2 35.5-2.8 14.8-8.8 22.2-20 7.3-30.3-6.9-4.7-21-.3-23.5-2.4-3.7-3.3 6-5.2 17.4-4 1.3.4 2-15.7.4-16.3z" fill="#f8f8f8" stroke-width=".3"/><path d="M114.1 214.8l10.6-52.4c.3-1.6 32.3-5 33.3-3.7l32.4 46.2c1 2-24.7 5.5-25.6 4.2l-4-6.2c-.6-1.3-16 .1-16.4 1.5L143 212c-.5 1.9-29.2 4.6-28.8 2.8z" fill="#f8f8f8"/><path d="M142.6 193.4l.4-11c.1-.9 3.3-1.7 4-1l7.5 9.5c.5.6-11.9 3.6-11.9 2.5z" fill="#2a2c29"/><path id="a" d="M186.5 156.9l6 47.6A101 101 0 0 0 221 203l-2-12.4c-.3-1.6 12.6-.1 17.5-1.1 10.9-2.7 15.2-9.7 14.5-21.4-.4-9.1-8.1-15.2-15-17.4-5.8-1.8-38.7-.3-44.3 0-4 .5-5.2 3.4-5.2 6.2z" fill="#f8f8f8" stroke-width=".3"/><path id="b" d="M216.3 167.8l7.2-1c2.5-.3 3.6 7 1.5 7.4l-7.4.8c-1 .2-2-7-1.3-7.2z" fill="#2a2c29" stroke-width=".3"/><path d="M321.8 149c-.4.8-2.4 49.2-2.1 50.7.1.7 27.4.8 27.5.3.2-1.2 0-11.5.5-12.3.2-.3 15-.6 16 .5.5.6-.9 12-.5 12.3.8.7 21.3 1.7 22 1 .5-.6 3.9-48.4 3.1-51.2-.2-1-22.6-1.6-23.2-.7-.6.9-.3 16.1-.8 17-.6 1-14.5.5-15.2-.3-.6-.8.5-15.4 0-16.3-.7-1-26.9-2-27.3-1z" fill="#f8f8f8"/><path id="f" d="M399.9 152.6l-7 47.6c-.4 1.8 25.6 6 26 4.3l8-49.3c.3-1.5-26.8-4.1-27-2.6z" fill="#f8f8f8" stroke-width=".3"/><path id="c" d="M436.5 157l-7.7 48.5c-.5 2.2 19.2 4.6 20.3 2.8 1.2-2.1 1.1-7.4 2.3-9.1 2.4-3 7 11 9.5 11.5 3.2 1.4 21.3 4.8 27.2 5.4 3 .6-.7-14.9-10-19-2.2-1 2-2.3 4-3.2 11.4-5.5 15.2-13.4 10.3-22.7-2.8-5-15-11-21-12.1l-29.9-4.8c-2-.3-4.6.8-5 2.7z" fill="#f8f8f8" stroke-width=".3"/><path id="d" d="M459.3 174.4l4.6.9c3.8.9 2.3 8.4-1.4 7.7l-4.6-1c-2.6-.8-1.5-8.2 1.4-7.6z" fill="#2a2c29" stroke-width=".3"/><path d="M513.4 165.8l41.7 10.1c1.9.5-1.6 15-3.7 14.5l-19.5-5.1c-2.2-.5-3.7 5.3-1.7 5.8l16.2 4c2.2.7-1.2 12.1-3.4 11.5l-17.8-4.4c-2.5-.5-4 4.5-2 5.2l18.8 4.9c2 .5-2.5 14.8-4.8 14.2l-42.7-10.7c-2.7-.7-2.8-1.4-2-3.8l16.5-44.2c1.1-2.4 2-2.4 4.4-2zM130.2 222.8l28.4 35.7c.9 1 16.3-1.2 16.6-2.4l8.2-41.3c.4-2-16.3 1.3-16.7 3.2l-2.3 15.1c-.1.6-2.7 1.1-3.2.6l-10.6-14c-1.1-1.9-21.8 1.6-20.4 3.1zM383 207.6c-37.4-1.4-41 42.4-2.4 44.4 36.9 2.5 42.3-43 2.4-44.4z" fill="#f8f8f8"/><path d="M381.9 223.5c-9.1 0-9.3 12.5-.2 12.4 8.7 0 8.5-12.3.2-12.4z" fill="#2a2c29"/><path d="M416.3 212.3l-6.7 39.3c-.3 1.8 20.4 4.3 20.6 2.6l1.4-14.8c.1-1.2 3.8-1.4 4.3-.3l7.7 17.1c1 1.7 19.2 4.1 19.6 2.2l5.5-38.1c.2-1.6-19-4.6-19.2-3l-.7 10.5c-.1 1.4-3 1.3-3.8.1l-6.6-12.6c-.6-1-21.9-4.5-22.1-3z" fill="#f8f8f8"/><use transform="rotate(2.2 320.6 1854)" height="100%" width="100%" xlink:href="#a"/><use transform="rotate(6 276.7 792.8)" height="100%" width="100%" xlink:href="#b"/><path d="M190.4 213.1l34.8-3.6c1.5-.2 3.6 11 2 11.2l-14.4 1.5c-1.7.3-1 4.6.6 4.3l12-1.3c1.7-.1 2.9 8.9 1.2 9.1l-13.2 1.9c-1.9.4-1.3 4.2.3 4.1l14.6-2c1.5-.2 2.9 11.2 1.1 11.5l-33.8 5c-2.1.4-2.5-.1-2.6-2l-5-37c0-2 .5-2.2 2.4-2.7z" fill="#f8f8f8"/><use transform="scale(.78864) rotate(-13.1 847.2 828.5)" height="100%" width="100%" xlink:href="#c"/><use transform="rotate(-15.7 518.9 952.2)" height="100%" width="100%" xlink:href="#d"/><use transform="scale(.76512) rotate(14 -168.7 1543.4)" height="100%" width="100%" xlink:href="#e"/><use transform="rotate(-7.7 997.9 13.3) scale(.77387)" height="100%" width="100%" xlink:href="#f"/></g></svg>