<?xml version="1.0" encoding="UTF-8" standalone="no"?>
<svg
   xmlns:dc="http://purl.org/dc/elements/1.1/"
   xmlns:cc="http://creativecommons.org/ns#"
   xmlns:rdf="http://www.w3.org/1999/02/22-rdf-syntax-ns#"
   xmlns:svg="http://www.w3.org/2000/svg"
   xmlns="http://www.w3.org/2000/svg"
   xmlns:xlink="http://www.w3.org/1999/xlink"
   id="svg8"
   version="1.1"
   viewBox="0 0 600 200"
   height="200mm"
   width="600mm">
  <defs
     id="defs2" />
  <metadata
     id="metadata5">
    <rdf:RDF>
      <cc:Work
         rdf:about="">
        <dc:format>image/svg+xml</dc:format>
        <dc:type
           rdf:resource="http://purl.org/dc/dcmitype/StillImage" />
        <dc:title></dc:title>
      </cc:Work>
    </rdf:RDF>
  </metadata>
  <g
     transform="translate(0,-97)"
     id="layer1">
    <path
       id="path1050"
       d="m 105.45536,165.46429 c 1.69348,3.63932 0.0241,13.40654 -0.75596,20.78869 0,0 7.26562,1.91506 8.69346,-1.13393 2.68653,-6.64109 4.88537,-22.6624 7.38003,-28.0161 2.03852,-3.89115 36.9835,-8.10982 41.37889,-4.86783 2.42535,1.92581 10.70933,15.72162 13.04018,20.50521 1.79539,2.6694 5.76414,2.86216 7.27604,-0.37798 1.36864,-4.5914 -2.91266,-17.92222 -1.16913,-22.39508 3.46551,-6.39447 47.02206,-10.22155 64.38565,-1.32293 -1.15042,-12.06023 55.46609,-6.83055 59.34225,-4.7247 3.49351,1.89998 7.52711,4.77013 10.77234,10.39435 0.74381,-3.23897 -0.031,-9.99833 3.03722,-10.45919 17.02932,-1.83699 36.19225,0.95602 38.76945,1.10516 2.72734,0.11104 16.79475,-2.03156 32.2973,-1.22931 2.87041,0.21711 3.51372,4.35486 6.50943,3.70148 9.11728,-2.06772 28.62891,0.0163 35.42298,3.40572 3.38542,1.98039 1.00753,-4.64552 29.63314,0.74257 28.41264,5.11254 33.55608,12.36292 37.08196,12.37201 4.21938,-0.062 5.84103,-6.32286 20.34194,-3.11159 8.61463,1.53833 31.5081,6.37604 39.3783,9.53719 6.03815,2.58007 4.45895,11.57912 1.17585,22.03332 l -8.69344,26.45833 c -2.7987,6.39873 -4.31761,14.07331 -15.6726,13.71785 -5.95542,0.14092 -26.37739,-7.10934 -45.42592,-9.8693 -6.8105,-0.97086 -12.36825,-2.08175 -14.16068,2.27736 -2.00965,6.4915 -2.54756,17.52391 -5.11218,29.76284 -1.27506,7.10199 -3.83361,9.21455 -10.46312,9.29284 -23.01167,-1.09635 -51.26698,-5.03415 -57.73701,-9.07536 -9.04278,3.72144 -35.6546,2.45789 -45.17765,-2.66876 -7.63671,0.56512 -23.05134,-0.0366 -33.02477,-1.06909 -9.34408,5.02422 -24.9039,4.17668 -37.88932,0.51555 -3.21501,-0.81089 -50.90417,2.33937 -58.33642,3.71492 -6.43268,1.36416 -32.62371,5.66585 -42.72405,4.7951 -9.6856,3.10215 -27.90011,5.73266 -33.90783,-0.79393 l -29.03538,-34.6631 c -2.94547,-3.08591 -13.01086,-3.22345 -20.74283,1.22564 -13.534322,6.64003 -33.622929,7.58478 -42.946159,4.444 -7.249007,-3.6998 -5.842529,-2.58186 -2.365134,-22.14403 -7.954464,-1.56384 -15.406063,-11.34038 -13.044111,-24.78037 3.330869,-14.34704 35.0651,-27.10284 62.467284,-18.0875 z"
       style="display:inline;fill:#2a2c29;fill-opacity:1;stroke:none;stroke-width:0.26458332px;stroke-linecap:butt;stroke-linejoin:miter;stroke-opacity:1" />
    <path
       id="path1008"
       d="m 96.761905,169.24405 c -21.063353,-4.73062 -52.333572,4.8926 -48.475448,22.67857 3.999154,12.17105 16.616249,14.08591 34.112351,11.33928 4.989981,-0.53847 4.895213,5.07026 -1.511903,6.80358 -6.506195,1.57002 -17.28876,-3.22788 -18.142858,-2.55134 -0.78505,0.69525 -3.969179,16.92101 -2.981887,17.44226 3.496279,1.23683 26.605398,2.2221 35.487839,-2.79569 14.779201,-8.80013 22.115671,-19.94586 7.296191,-30.25905 -6.912756,-4.71624 -20.972583,-0.25256 -23.576029,-2.42639 -3.645381,-3.29172 6.05947,-5.22085 17.394773,-3.90946 1.379994,0.30768 2.007919,-15.76719 0.396971,-16.32176 z"
       style="display:inline;fill:#f8f8f8;fill-opacity:1;stroke:none;stroke-width:0.26458332px;stroke-linecap:butt;stroke-linejoin:miter;stroke-opacity:1" />
    <path
       id="path1010"
       d="m 114.14881,214.79018 10.58334,-52.3497 c 0.31782,-1.68538 32.28836,-5.02302 33.2619,-3.77977 l 32.41146,46.20759 c 0.95506,1.94024 -24.69602,5.53232 -25.6079,4.25224 l -4.0688,-6.20894 c -0.56172,-1.30978 -15.9569,0.12542 -16.31817,1.52338 l -1.53564,7.52038 c -0.45811,1.92902 -29.14145,4.63349 -28.72619,2.83482 z"
       style="display:inline;fill:#f8f8f8;fill-opacity:1;stroke:none;stroke-width:0.26458332px;stroke-linecap:butt;stroke-linejoin:miter;stroke-opacity:1" />
    <path
       id="path1038"
       d="m 142.64365,193.40341 0.38469,-11.05728 c 0.0977,-0.83091 3.31826,-1.59769 3.90308,-1.00702 l 7.55036,9.55489 c 0.49616,0.65293 -11.83742,3.65419 -11.83813,2.50941 z"
       style="fill:#2a2c29;fill-opacity:1;stroke:none;stroke-width:0.26458332px;stroke-linecap:butt;stroke-linejoin:miter;stroke-opacity:1" />
    <path
       id="path1012"
       d="m 186.53125,156.88154 6.01519,47.65187 c 0.25923,1.29298 28.78221,-0.13171 28.48185,-1.51191 l -2.08559,-12.4218 c -0.25192,-1.59891 12.67233,-0.12311 17.5759,-1.13393 10.88323,-2.62203 15.16475,-9.66288 14.45759,-21.35565 -0.40719,-9.1466 -8.11425,-15.25171 -14.93006,-17.38691 -5.86315,-1.79378 -38.7875,-0.3132 -44.39348,0.039 -3.98299,0.40401 -5.11205,3.34038 -5.1214,6.11931 z"
       style="display:inline;fill:#f8f8f8;fill-opacity:1;stroke:none;stroke-width:0.26458332px;stroke-linecap:butt;stroke-linejoin:miter;stroke-opacity:1" />
    <path
       id="path1040"
       d="m 216.28808,167.78343 7.23758,-0.90173 c 2.51701,-0.38178 3.60088,6.87008 1.46466,7.32329 l -7.40295,0.83087 c -0.99819,0.12791 -2.06301,-7.12452 -1.29929,-7.25243 z"
       style="display:inline;fill:#2a2c29;fill-opacity:1;stroke:none;stroke-width:0.26458332px;stroke-linecap:butt;stroke-linejoin:miter;stroke-opacity:1" />
    <path
       id="path1014"
       d="m 321.79252,148.93268 c -0.38365,0.91033 -2.36089,49.28896 -2.13818,50.78121 0.15591,0.72042 27.40627,0.79401 27.52877,0.26727 0.23888,-1.14946 0.0378,-11.44415 0.53456,-12.2944 0.20365,-0.29943 14.91737,-0.60541 16.03615,0.53454 0.42951,0.60196 -0.91195,11.94267 -0.53454,12.2944 0.77001,0.6699 21.28635,1.65152 21.9161,1.06908 0.51585,-0.66817 3.91634,-48.50942 3.20724,-51.31575 -0.25475,-0.98632 -22.66696,-1.52215 -23.25244,-0.66817 -0.60314,0.89066 -0.25347,16.1282 -0.80183,16.97161 -0.58286,1.01345 -14.50975,0.54117 -15.23435,-0.26727 -0.50951,-0.82063 0.58545,-15.40206 0,-16.30344 -0.656,-0.99363 -26.83626,-1.93131 -27.26148,-1.06908 z"
       style="fill:#f8f8f8;fill-opacity:1;stroke:none;stroke-width:0.26458332px;stroke-linecap:butt;stroke-linejoin:miter;stroke-opacity:1" />
    <path
       id="path1016"
       d="m 399.87587,152.61113 -7.02695,47.62696 c -0.38541,1.72042 25.68887,5.88262 26.10527,4.29137 l 7.9375,-49.33931 c 0.26007,-1.50063 -26.80817,-4.11779 -27.01582,-2.57902 z"
       style="fill:#f8f8f8;fill-opacity:1;stroke:none;stroke-width:0.26458332px;stroke-linecap:butt;stroke-linejoin:miter;stroke-opacity:1" />
    <path
       id="path1018"
       d="m 436.45113,156.95077 -7.61717,48.50942 c -0.57978,2.24945 19.19294,4.61698 20.31248,2.80632 1.1037,-2.10201 1.08785,-7.35397 2.20496,-9.08716 2.45022,-2.89942 7.03504,10.94599 9.49954,11.51159 3.28486,1.39939 21.33636,4.76981 27.29392,5.39125 2.99043,0.62429 -0.72843,-14.84338 -10.0914,-18.9465 -2.12963,-1.08218 1.99569,-2.29128 4.04148,-3.26652 11.35975,-5.48464 15.22923,-13.39068 10.34917,-22.61948 -2.81136,-5.04579 -14.96051,-11.10526 -20.98067,-12.16077 l -29.93419,-4.81085 c -1.99294,-0.2527 -4.65059,0.83913 -5.07812,2.6727 z"
       style="display:inline;fill:#f8f8f8;fill-opacity:1;stroke:none;stroke-width:0.26458332px;stroke-linecap:butt;stroke-linejoin:miter;stroke-opacity:1" />
    <path
       id="path1044"
       d="m 459.26688,174.36578 4.60706,0.89632 c 3.79315,0.92492 2.32466,8.48558 -1.33634,7.72452 l -4.65429,-0.98269 c -2.53581,-0.81192 -1.49214,-8.1936 1.38357,-7.63815 z"
       style="fill:#2a2c29;fill-opacity:1;stroke:none;stroke-width:0.26458332px;stroke-linecap:butt;stroke-linejoin:miter;stroke-opacity:1" />
    <path
       id="path1020"
       d="m 513.36923,165.79261 41.74956,10.13429 c 1.85755,0.50109 -1.65383,14.94954 -3.74176,14.43256 l -19.51067,-5.07812 c -2.19444,-0.53104 -3.65604,5.34277 -1.68191,5.84751 l 16.25758,3.96318 c 2.16044,0.7252 -1.28259,12.11509 -3.39622,11.55466 l -17.86118,-4.41666 c -2.50056,-0.53377 -3.94433,4.5076 -1.98162,5.20226 l 18.8196,4.84327 c 1.94418,0.52801 -2.50441,14.81335 -4.81087,14.24356 l -42.6629,-10.70224 c -2.75882,-0.67901 -2.86253,-1.46219 -2.03793,-3.77518 l 16.50292,-44.27896 c 1.12135,-2.39539 1.91114,-2.40951 4.3554,-1.97013 z"
       style="fill:#f8f8f8;fill-opacity:1;stroke:none;stroke-width:0.26458332px;stroke-linecap:butt;stroke-linejoin:miter;stroke-opacity:1" />
    <path
       id="path1022"
       d="m 130.16026,222.8327 28.4642,35.68049 c 0.85324,1.08012 16.28345,-1.16915 16.57071,-2.43114 l 8.22329,-41.28642 c 0.38469,-1.91349 -16.31965,1.30582 -16.72056,3.1938 l -2.27248,15.14936 c -0.14236,0.574 -2.74157,1.10142 -3.2619,0.51833 l -10.55714,-14.03165 c -1.1421,-1.80791 -21.75926,1.65176 -20.44612,3.20723 z"
       style="fill:#f8f8f8;fill-opacity:1;stroke:none;stroke-width:0.26458332px;stroke-linecap:butt;stroke-linejoin:miter;stroke-opacity:1" />
    <path
       id="path1024"
       d="m 382.99724,207.59834 c -37.39211,-1.39278 -40.91298,42.38465 -2.40545,44.36675 36.86539,2.56182 42.3252,-43.01242 2.40545,-44.36675 z"
       style="display:inline;fill:#f8f8f8;fill-opacity:1;stroke:none;stroke-width:0.26458332px;stroke-linecap:butt;stroke-linejoin:miter;stroke-opacity:1" />
    <path
       id="path1046"
       d="m 381.89573,223.50088 c -9.1388,0.0527 -9.31603,12.45164 -0.17279,12.42132 8.67926,0.0223 8.48714,-12.30996 0.17279,-12.42132 z"
       style="fill:#2a2c29;fill-opacity:1;stroke:none;stroke-width:0.26458332px;stroke-linecap:butt;stroke-linejoin:miter;stroke-opacity:1" />
    <path
       id="path1026"
       d="m 416.27228,212.27556 -6.68173,39.28862 c -0.31659,1.84329 20.42906,4.3235 20.57977,2.6727 l 1.46996,-14.81586 c 0.0966,-1.20804 3.79702,-1.42687 4.26079,-0.33073 l 7.69953,17.15111 c 0.95772,1.65179 19.22113,4.10659 19.5775,2.13815 l 5.47901,-38.0859 c 0.26051,-1.5722 -19.04025,-4.58661 -19.17659,-2.93996 l -0.66816,10.42351 c -0.13395,1.43208 -2.99684,1.32527 -3.8086,0.13361 l -6.61493,-12.56167 c -0.56837,-1.10543 -21.85729,-4.59297 -22.11655,-3.0736 z"
       style="fill:#f8f8f8;fill-opacity:1;stroke:none;stroke-width:0.26458332px;stroke-linecap:butt;stroke-linejoin:miter;stroke-opacity:1" />
    <use
       style="display:inline"
       transform="rotate(2.2208509,320.64994,1854.0597)"
       height="100%"
       width="100%"
       id="use1028"
       xlink:href="#path1012"
       y="0"
       x="0" />
    <use
       transform="rotate(6.0896829,276.69975,792.81382)"
       height="100%"
       width="100%"
       id="use1042"
       xlink:href="#path1040"
       y="0"
       x="0" />
    <path
       style="fill:#f8f8f8;fill-opacity:1;stroke:none;stroke-width:0.2020538px;stroke-linecap:butt;stroke-linejoin:miter;stroke-opacity:1"
       d="m 190.36778,213.11052 34.84968,-3.60595 c 1.45061,-0.23336 3.53467,10.92874 1.91865,11.22325 l -14.37657,1.44403 c -1.69459,0.3181 -0.8711,4.62225 0.66184,4.35488 l 11.95072,-1.30187 c 1.73178,-0.17224 2.90465,8.83856 1.25711,9.11087 l -13.20956,1.86676 c -1.90862,0.41217 -1.33366,4.24174 0.25086,4.11021 l 14.62352,-1.92547 c 1.51938,-0.24177 2.89966,11.10054 1.11491,11.42678 l -33.8197,4.97624 c -2.134,0.39199 -2.45173,-0.12088 -2.60257,-1.99005 l -5.03424,-36.95244 c 0.03,-2.01958 0.57552,-2.27699 2.41535,-2.73724 z"
       id="use1030" />
    <use
       style="display:inline"
       transform="matrix(0.76802794,-0.1791131,0.1791131,0.76802794,-130.93206,168.82224)"
       height="100%"
       width="100%"
       id="use1032"
       xlink:href="#path1018"
       y="0"
       x="0" />
    <use
       transform="rotate(-15.671326,518.85854,952.16601)"
       height="100%"
       width="100%"
       id="use1048"
       xlink:href="#path1044"
       y="0"
       x="0" />
    <use
       transform="matrix(0.74227163,0.18560326,-0.18560326,0.74227163,282.59851,66.586673)"
       height="100%"
       width="100%"
       id="use1034"
       xlink:href="#path1008"
       y="0"
       x="0" />
    <use
       transform="matrix(0.76693059,-0.10340455,0.10340455,0.76693059,7.1757674,133.45751)"
       height="100%"
       width="100%"
       id="use1036"
       xlink:href="#path1016"
       y="0"
       x="0" />
  </g>
</svg>
