<svg xmlns="http://www.w3.org/2000/svg" viewBox="0 0 200 200" height="200mm" width="200mm"><path d="M131.1 35.6c2.8 1.5 4.2 4 2.7 16-1.4 0-2.2-.3-3.4-.4 0 1.3.2 2.7.8 5h-6.5c1.1 4 1.5 8.6 1.9 12.9-3.6-.6-6.7-1.6-9.3-.8 2.7 2.6 4.1 4.5 5 9.2-1 1.8-1.2 2.4-2.2 3.8a76.1 76.1 0 0 1 21.3 24.1l24.2 15.7c-1.8.1-20.1-5.6-28.8-7-1 2-3.6 4.3-7.1 5.2-4.2 8-13.6 12-22.8 15 .2 1.7-.3 3-1 3.6-4.1 1-5.1 2.7 1 5 .7.6 1 14.6-7.5 16.7-7-8.4-10-16.1-11.5-24.7-8.9-.3-21.5-.6-26-4.6z" fill="#202020"/><path d="M46 107.9c2.4 2.7 16.9 1.6 26.1 1.7l-1.9-7.8c-6 .6-12.8.7-21.5 3.6-1.8.6-3.3 1.6-2.7 2.5z" fill="#3e878f" stroke="#3b5e71" stroke-width=".3"/><path d="M66.1 120.3c-2.2 3.2-8 8 4.6 8.8a47 47 0 0 0 30.6-11.6c1.8-3.4-2-8-6-12.4a86 86 0 0 0-29-23.2c-3.5-1.2-13.4-7-16-3.2-.5.7.4 7.9.4 8.8 1.6 3.2 15 11.4 17.2 23.2.6 3.2.2 6.1-1.8 9.6z" fill="#954756"/><path d="M68.5 124.3c-.7-12.7 17.2-16.4 19.4-17 11.7-1 12.8 5.2 9 11-5.7 5.7-28.4 11-28.4 6z" fill="#cd767d" stroke="#70343b" stroke-width=".8"/><path d="M67.6 117.2c-.7-1.5-1.5-2.1-3.4-1.8 0 1.6-.6 3.5.3 5-3.8-.5-2.2 5.2-2 8 4.7 1.6 20.3.8 23.7-1.6-1.9-3.2-4.4-8.8-6-9.2-2.7.8-3 6.5-3 10.8.2-4-1.6-5.6-4.4-7.5-.8 2.4-.3 5.1-.4 8-3.3.1-6.2-.3-9-1-1.4-6.1 5.4-7.4 4.2-10.7z" fill="#f5f1fa" stroke="#484848" stroke-width=".3"/><path d="M81 91.4c-2.3 1.6-3.6 3.2-6.8 4.8-1-3.5-.3-5.6.6-8.8-.7 2.9-2 3.6-5.6 4.8-1.5-3.8-.4-9.5-.2-13.8-3.1 2.6-4.4 5.2-9.3 7.9-.5-3.4-1.3-4.2.3-7.6a19.1 19.1 0 0 1-7 7.3c-2.5-1.9-2.6-5.3-4.4-8.9 1.5 4.2 2 4.2 2 10.4 1.9 0 4.3-2.2 4.5 2.3 3 1 6.6 2.6 4.3 5.7-.7.8-4.4-.2-4.4-1.2 0-3.4-3.9-2.3-4.2-4 0-9.2-2-15.5-4-15.8 14.6-3 27.6-1.5 34.2 16.9z" fill="#f5f1fa" stroke="#484848" stroke-width=".2"/><path d="M59.6 128.1c1.5 4.9 16.7 6 29.6 5.6.2 8.3 3.6 17 10.5 24.9 5.2-1 6.9-8.4 6.7-15.1-3.7-1.8-7.5-3.5-1.9-6 1.9-.5 1.5-2.6 1.6-4.4 9.3-3 18.4-6.5 22.9-15-29.5-8.3-38.6-23.7-51-38-7.2-6.2-14.5-9-21.9-11-8.8-5.6-12.3-2-13 6.5.2 2.4 2.4 4.6 4.8 5.4 1.8.5 3-6.9 18.5.9 12 9.4 25.6 18.2 31.9 27.5 3.7 4.6 4 8.3-2.9 12-6.1 2.1-8 4.1-18.5 6.4-8.2 2.6-18-3-17.3.3z" fill="#d4d0e7"/><path d="M131.1 35.6c-13 4.7-24.7 18.2-33.8 34.2l20.4 13c1.3-1.5 2.5-3.2 3.1-5.7-.5-3-2.3-6.2-5.3-9.4 2.8-1.4 5.6-1 9.4-.4-.2-3.6-1.2-8.3-1.8-12.4h6.4c-.4-1.4-.8-4-.4-5.8 1.3.7 2.7.9 3.6 1.1.1-4.9 1.6-9.7-1.6-14.6z" fill="#3e878f" stroke="#3b5e71" stroke-width=".8"/><path d="M43.2 75.6c-2.7-5.1-.6-13 4.5-13.5a95.4 95.4 0 0 1 91 40.6c2.2 3.8-5.2 15-9.7 15.4-15.8 0-44-18.6-51-38a78.8 78.8 0 0 0-21.9-11c-9.2-4-10.7-3.7-13 6.5z" fill="#3e878f" stroke="#3b5e71" stroke-width=".8"/><path d="M165.6 121.1c-4-1.7-9.8-4.4-20-7-6.2-1.5-15.9-3.2-20.8-4.8-3.2-.9-10.7-2.6-11.8-10.2-1-6.1 2.7-8 17.4 1.9 17.5 6.3 33.6 11.8 35.2 20.1z" fill="#3e878f" stroke="#3b5e71" stroke-width=".8"/><path d="M87.3 86.8c-1.4-6.6 7.5-4.9 8.5-4.2 1.1.9 2.5 9.3-3 8-2.3-.7-4.7-1.9-5.5-3.8z" fill="#a73f39" stroke="#000" stroke-width=".3"/><path d="M96.6 94.8c5.1-2.6 5.6-6.6 5.2-11" fill="none" stroke="#000" stroke-width=".8" stroke-linecap="round" stroke-linejoin="round"/><path d="M101.6 97.1c4-3.7 6.2-6.4 6.3-10.4" fill="none" stroke="#000" stroke-width="1.6" stroke-linecap="round" stroke-linejoin="round"/><path d="M83.4 68.9c-.5 3-1.1 6.4-3.4 10-4-8.5-3.4-8.7-7.6-12.4-1.8-1-2.4-1-9-2.2-2.8-.6-6.4-1.9-5.9-2.6a95 95 0 0 1 39.8 7.6c-4 0-10 0-14-.4z" fill="#e6c959"/></svg>