<?xml version="1.0" encoding="UTF-8" standalone="no"?>
<svg
   xmlns:dc="http://purl.org/dc/elements/1.1/"
   xmlns:cc="http://creativecommons.org/ns#"
   xmlns:rdf="http://www.w3.org/1999/02/22-rdf-syntax-ns#"
   xmlns:svg="http://www.w3.org/2000/svg"
   xmlns="http://www.w3.org/2000/svg"
   id="svg8"
   version="1.1"
   viewBox="0 0 200 200"
   height="200mm"
   width="200mm">
  <defs
     id="defs2" />
  <metadata
     id="metadata5">
    <rdf:RDF>
      <cc:Work
         rdf:about="">
        <dc:format>image/svg+xml</dc:format>
        <dc:type
           rdf:resource="http://purl.org/dc/dcmitype/StillImage" />
        <dc:title></dc:title>
      </cc:Work>
    </rdf:RDF>
  </metadata>
  <g
     style="display:inline"
     transform="translate(0,-97)"
     id="layer1">
    <path
       id="path991"
       d="m 131.0957,132.62925 c 2.83188,1.46071 4.23362,3.95737 2.74365,16.06373 -1.43097,-0.0434 -2.19148,-0.36383 -3.4184,-0.53593 0.0163,1.34731 0.18048,2.7911 0.81367,5.01965 l -6.55626,0.0473 c 1.13635,4.05384 1.49825,8.57844 1.89724,12.83081 -3.60097,-0.59606 -6.7079,-1.5199 -9.24428,-0.78522 2.6201,2.58753 4.08991,4.56272 5.04471,9.22075 -1.03048,1.80592 -1.23171,2.37733 -2.28145,3.80012 8.15595,6.72119 15.54041,13.2568 21.26458,24.14676 l 24.2889,15.6603 c -1.84366,0.11514 -20.14551,-5.64092 -28.80606,-7.05803 -1.06819,1.98898 -3.6414,4.36798 -7.15352,5.30957 -4.20615,7.93798 -13.60071,11.95706 -22.77692,14.92499 0.20028,1.69892 -0.31572,2.98498 -1.00946,3.66907 -4.11433,1.00888 -5.14776,2.64516 0.98929,4.97768 0.71716,0.59077 1.04888,14.62501 -7.505283,16.69665 -7.078504,-8.4466 -9.92505,-16.14309 -11.524849,-24.7076 -8.858703,-0.26072 -21.44225,-0.62627 -25.954954,-4.63378 z"
       style="display:inline;fill:#202020;fill-opacity:1;stroke:none;stroke-width:0.26458332px;stroke-linecap:butt;stroke-linejoin:miter;stroke-opacity:1" />
    <path
       id="path973"
       d="m 45.971353,204.8683 c 2.395859,2.74722 16.922523,1.6243 26.127603,1.7009 l -1.889879,-7.74852 c -5.949288,0.58905 -12.85333,0.72873 -21.544643,3.59078 -1.811724,0.56754 -3.256535,1.57498 -2.693081,2.45684 z"
       style="display:inline;fill:#3e878f;fill-opacity:1;stroke:#3b5e71;stroke-width:0.26458332px;stroke-linecap:butt;stroke-linejoin:miter;stroke-opacity:1" />
    <path
       id="path965"
       d="m 66.139118,217.3186 c -2.197299,3.14553 -7.984823,8.04025 4.542429,8.81086 12.198211,-0.7322 22.842484,-4.18332 30.616073,-11.62277 1.80138,-3.42607 -1.978078,-7.99807 -5.953128,-12.37871 -6.657839,-8.91809 -16.531507,-16.57782 -28.983371,-23.22869 -3.556796,-1.23335 -13.456055,-6.93269 -16.093861,-3.18491 -0.505868,0.71873 0.393061,7.83766 0.413723,8.79856 1.589711,3.1644 14.965632,11.37034 17.260235,23.19019 0.553715,3.23583 0.130481,6.12876 -1.8021,9.61547 z"
       style="display:inline;fill:#954756;fill-opacity:1;stroke:none;stroke-width:0.26499999;stroke-linecap:butt;stroke-linejoin:miter;stroke-miterlimit:4;stroke-dasharray:none;stroke-opacity:1" />
    <path
       id="path967"
       d="m 68.487817,221.29591 c -0.64495,-12.74104 17.229391,-16.39757 19.377039,-16.9048 11.722702,-1.16664 12.844434,5.08363 8.95353,10.89123 -5.640595,5.71496 -28.297354,11.04388 -28.330569,6.01357 z"
       style="display:inline;fill:#cd767d;fill-opacity:1;stroke:#70343b;stroke-width:0.80000001;stroke-linecap:butt;stroke-linejoin:miter;stroke-miterlimit:4;stroke-dasharray:none;stroke-opacity:1" />
    <path
       id="path971"
       d="m 67.619189,214.24667 c -0.675106,-1.52293 -1.557728,-2.19652 -3.441093,-1.87089 0.008,1.60362 -0.592842,3.50792 0.367494,5.11154 -3.849292,-0.6359 -2.26665,5.06483 -1.971112,7.85104 4.584572,1.66423 20.257038,0.89173 23.619942,-1.57021 -1.892122,-3.19479 -4.359076,-8.7774 -6.013563,-9.12057 -2.678036,0.78821 -2.964675,6.43822 -3.002441,10.72755 0.206178,-3.97855 -1.589844,-5.5439 -4.34747,-7.48691 -0.878371,2.36289 -0.317379,5.11339 -0.400905,7.91786 -3.333625,0.2368 -6.241533,-0.19539 -8.953528,-0.93544 -1.479862,-6.11616 5.35075,-7.36707 4.142676,-10.62397 z"
       style="display:inline;fill:#f5f1fa;fill-opacity:1;stroke:#484848;stroke-width:0.26458332px;stroke-linecap:butt;stroke-linejoin:miter;stroke-opacity:1" />
    <path
       id="path969"
       d="m 80.982666,188.35494 c -2.238703,1.60361 -3.621854,3.20723 -6.815371,4.81084 -0.929028,-3.50109 -0.256643,-5.52999 0.634764,-8.71966 -0.681041,2.84115 -1.944291,3.51398 -5.579251,4.71063 -1.504493,-3.72524 -0.437565,-9.46237 -0.26727,-13.76438 -3.06909,2.627 -4.400676,5.22176 -9.220799,7.88444 -0.514155,-3.38541 -1.342864,-4.16494 0.233859,-7.55036 -1.486132,3.17076 -4.602893,5.7385 -7.049233,7.28309 -2.384195,-1.86114 -2.523301,-5.34463 -4.343128,-8.88671 1.499403,4.16791 2.079757,4.14703 2.104746,10.39011 1.815572,0.0725 4.254018,-2.2361 4.37654,2.23838 2.958166,1.03507 6.60665,2.65596 4.343128,5.77971 -0.684008,0.75326 -4.413682,-0.23727 -4.376537,-1.23613 0.01986,-3.41069 -3.877978,-2.31256 -4.242904,-4.00904 0.07048,-9.18051 -1.935703,-15.46085 -4.009042,-15.7689 14.677713,-3.08849 27.598121,-1.50699 34.210498,16.83798 z"
       style="display:inline;fill:#f5f1fa;fill-opacity:1;stroke:#484848;stroke-width:0.2;stroke-linecap:butt;stroke-linejoin:miter;stroke-miterlimit:4;stroke-dasharray:none;stroke-opacity:1" />
    <path
       id="path963"
       d="m 59.601105,225.1045 c 1.500531,4.89548 16.71183,6.00336 29.583071,5.62748 0.220677,8.2335 3.630346,16.97754 10.507357,24.84124 5.233537,-1.04897 6.860347,-8.37239 6.681737,-15.10744 -3.69159,-1.75814 -7.512563,-3.50776 -1.87088,-5.87993 1.84882,-0.56172 1.47109,-2.64175 1.57396,-4.4477 9.35164,-3.0529 18.39728,-6.4912 22.8812,-15.05626 -29.414767,-8.259 -38.510012,-23.68969 -50.91485,-37.95227 -7.230057,-6.21321 -14.561203,-8.98943 -21.916101,-10.95805 -8.814886,-5.67454 -12.320033,-2.11831 -12.962572,6.41446 0.159536,2.46051 2.336605,4.60921 4.739287,5.38454 1.778205,0.49454 2.99037,-6.83131 18.457809,0.92872 12.070883,9.36524 25.611557,18.16352 31.930603,27.52876 3.663434,4.52526 4.019494,8.2237 -2.876505,11.99471 -6.142266,2.11601 -8.043196,4.11738 -18.537483,6.35101 -8.220597,2.67352 -17.975638,-2.90265 -17.276633,0.33073 z"
       style="display:inline;fill:#d4d0e7;fill-opacity:1;stroke:none;stroke-width:0.26458332px;stroke-linecap:butt;stroke-linejoin:miter;stroke-opacity:1" />
    <path
       id="path959"
       d="m 131.0957,132.62925 c -13.02238,4.7034 -24.65349,18.14364 -33.809592,34.21049 l 20.446122,12.96257 c 1.2843,-1.52578 2.49162,-3.16703 3.07359,-5.74629 -0.49068,-3.04139 -2.27248,-6.15953 -5.34539,-9.35443 2.79012,-1.43763 5.60756,-0.93698 9.48807,-0.40091 -0.26654,-3.55449 -1.2555,-8.30217 -1.89242,-12.42803 3.34441,0.0451 3.78524,-0.024 6.43601,-1e-5 -0.37711,-1.41952 -0.74647,-3.88168 -0.40091,-5.74629 1.31068,0.64982 2.66199,0.87796 3.60814,1.06908 0.143,-4.85539 1.56557,-9.71079 -1.60362,-14.56618 z"
       style="display:inline;fill:#3e878f;fill-opacity:1;stroke:#3b5e71;stroke-width:0.80000001;stroke-linecap:butt;stroke-linejoin:miter;stroke-miterlimit:4;stroke-dasharray:none;stroke-opacity:1" />
    <path
       id="path957"
       d="m 43.164028,172.58603 c -2.625332,-5.09191 -0.524512,-12.92881 4.543583,-13.49711 43.884713,-5.30615 77.006139,18.83638 91.005269,40.62497 2.19565,3.819 -5.23802,14.91746 -9.75533,15.368 -15.78264,0.0983 -43.90755,-18.58448 -50.914848,-37.95227 -7.396041,-5.49803 -14.872291,-8.48408 -21.916102,-10.95805 -9.220798,-4.00905 -10.769003,-3.76086 -12.962572,6.41446 z"
       style="display:inline;fill:#3e878f;fill-opacity:1;stroke:#3b5e71;stroke-width:0.80000001;stroke-linecap:butt;stroke-linejoin:miter;stroke-miterlimit:4;stroke-dasharray:none;stroke-opacity:1" />
    <path
       id="path961"
       d="m 165.64806,218.09747 c -4.01743,-1.72049 -9.85524,-4.36839 -19.99961,-6.93262 -6.23882,-1.60123 -15.92983,-3.28637 -20.82181,-4.87913 -3.22936,-0.88613 -10.75067,-2.62753 -11.7794,-10.1408 -1.06184,-6.15694 2.60896,-8.07608 17.35455,1.82531 17.4765,6.37838 33.64391,11.8466 35.24627,20.12724 z"
       style="display:inline;fill:#3e878f;fill-opacity:1;stroke:#3b5e71;stroke-width:0.80000001;stroke-linecap:butt;stroke-linejoin:miter;stroke-miterlimit:4;stroke-dasharray:none;stroke-opacity:1" />
    <path
       id="path975"
       d="m 87.263501,183.81135 c -1.34723,-6.61848 7.561003,-4.89593 8.528306,-4.1737 1.145561,0.81772 2.54349,9.24566 -2.915647,8.04911 -2.338479,-0.7389 -4.825827,-1.96041 -5.612659,-3.87541 z"
       style="fill:#a73f39;fill-opacity:1;stroke:#000000;stroke-width:0.26458332px;stroke-linecap:butt;stroke-linejoin:miter;stroke-opacity:1" />
    <path
       id="path985"
       d="m 96.617934,191.82944 c 5.105966,-2.63914 5.560726,-6.62893 5.211756,-11.02487"
       style="fill:none;stroke:#000000;stroke-width:0.80000001;stroke-linecap:round;stroke-linejoin:round;stroke-miterlimit:4;stroke-dasharray:none;stroke-opacity:1" />
    <path
       id="path987"
       d="m 101.56242,194.10123 c 3.99543,-3.71331 6.19199,-6.44357 6.34765,-10.42351"
       style="fill:none;stroke:#000000;stroke-width:1.60000002;stroke-linecap:round;stroke-linejoin:round;stroke-miterlimit:4;stroke-dasharray:none;stroke-opacity:1" />
    <path
       id="path989"
       d="m 83.388091,165.90432 c -0.453034,3.07311 -1.104142,6.41731 -3.423899,9.98821 -3.92691,-8.53099 -3.38156,-8.7095 -7.540292,-12.35785 -1.782325,-1.03444 -2.383855,-1.07385 -8.980965,-2.22259 -2.877262,-0.60473 -6.475202,-1.91082 -5.899331,-2.5768 13.870268,-0.4243 26.387378,2.17462 39.750856,7.56993 -4.027315,-0.0943 -9.912234,0.0377 -13.906369,-0.4009 z"
       style="fill:#e6c959;fill-opacity:1;stroke:none;stroke-width:0.26458332px;stroke-linecap:butt;stroke-linejoin:miter;stroke-opacity:1" />
  </g>
</svg>
