<svg xmlns="http://www.w3.org/2000/svg" xmlns:xlink="http://www.w3.org/1999/xlink" viewBox="0 0 100 100" height="378" width="378"><defs><linearGradient id="a"><stop offset="0" stop-color="#f4f600"/><stop offset="1" stop-color="#f4f600" stop-opacity="0"/></linearGradient><linearGradient y2="199" x2="32.9" y1="222.3" x1="21.5" gradientTransform="matrix(.98003 0 0 1.13603 21.2 11.6)" gradientUnits="userSpaceOnUse" id="b" xlink:href="#a"/></defs><g transform="translate(0 -197)"><g id="c" stroke-width=".3"><path d="M31.6 255.8c-9-.5-6.3-10.6 1.8-11.4 7.8-2 9.9-8.7 12.5-15.7 2.3-7.6 8.4-8.4 10.2 2.6.6 5.4 7.5 7.8 11.7 8.7 8 .8 7.9 8.8 1.6 10.7-5.3 1.8-10 5.5-8.3 13.6.4 5-8.3 11-12.2 2.2-3.3-7.5-5.2-9.5-17.3-10.7z" fill="#efb70c" transform="matrix(.20833 0 0 .20833 10.6 224.5)"/><path d="M31.6 255.8c-9-.5-6.3-10.6 1.8-11.4 7.8-2 9.8-8.7 12.4-15.7 2.3-7.6 8.5-8.4 10.2 2.6.7 5.4 7.8 8.4 11.6 8.7 8 .4 8.4 8.4 1.7 10.8-5.8 1.7-9.8 5.8-8.3 13.6.4 5-8.2 11-12.1 2-3.5-7.4-5.3-9.4-17.3-10.6z" fill="url(#b)" transform="matrix(.20833 0 0 .20833 10.6 224.5)"/></g><use transform="translate(-12 -29)" height="100%" width="100%" id="d" xlink:href="#c"/><use transform="translate(12 -29)" height="100%" width="100%" id="e" xlink:href="#d"/><use transform="translate(29 -14)" height="100%" width="100%" id="f" xlink:href="#e"/><use transform="translate(29 14)" height="100%" width="100%" id="g" xlink:href="#f"/><use transform="translate(14 29)" height="100%" width="100%" id="h" xlink:href="#g"/><use transform="translate(-14 29)" height="100%" width="100%" id="i" xlink:href="#h"/><use transform="translate(-29 12)" height="100%" width="100%" xlink:href="#i"/></g></svg>