<?xml version="1.0" encoding="UTF-8" standalone="no"?>
<!-- Created with Inkscape (http://www.inkscape.org/) -->

<svg
   xmlns:dc="http://purl.org/dc/elements/1.1/"
   xmlns:cc="http://creativecommons.org/ns#"
   xmlns:rdf="http://www.w3.org/1999/02/22-rdf-syntax-ns#"
   xmlns:svg="http://www.w3.org/2000/svg"
   xmlns="http://www.w3.org/2000/svg"
   xmlns:sodipodi="http://sodipodi.sourceforge.net/DTD/sodipodi-0.dtd"
   xmlns:inkscape="http://www.inkscape.org/namespaces/inkscape"
   width="200mm"
   height="200mm"
   viewBox="0 0 200 200"
   version="1.1"
   id="svg8"
   inkscape:version="0.92.2 5c3e80d, 2017-08-06"
   sodipodi:docname="torchic_back.svg">
  <defs
     id="defs2" />
  <sodipodi:namedview
     id="base"
     pagecolor="#ffffff"
     bordercolor="#666666"
     borderopacity="1.0"
     inkscape:pageopacity="0.0"
     inkscape:pageshadow="2"
     inkscape:zoom="0.98994949"
     inkscape:cx="376.10291"
     inkscape:cy="372.76423"
     inkscape:document-units="mm"
     inkscape:current-layer="layer1"
     showgrid="false"
     inkscape:window-width="1440"
     inkscape:window-height="851"
     inkscape:window-x="1920"
     inkscape:window-y="180"
     inkscape:window-maximized="0" />
  <metadata
     id="metadata5">
    <rdf:RDF>
      <cc:Work
         rdf:about="">
        <dc:format>image/svg+xml</dc:format>
        <dc:type
           rdf:resource="http://purl.org/dc/dcmitype/StillImage" />
        <dc:title></dc:title>
      </cc:Work>
    </rdf:RDF>
  </metadata>
  <g
     inkscape:label="Layer 1"
     inkscape:groupmode="layer"
     id="layer1"
     transform="translate(0,-97)">
    <path
       style="fill:#9d8a6c;fill-opacity:1;stroke:#200d00;stroke-width:0.80000001;stroke-linecap:butt;stroke-linejoin:miter;stroke-miterlimit:4;stroke-dasharray:none;stroke-opacity:1"
       d="m 98.889724,238.2007 c 1.552866,3.0948 2.769996,6.92819 3.069356,12.7807 l 7.08705,1.88988 c -1.71774,-5.66965 -0.6968,-11.33929 -0.56696,-17.00893 z"
       id="path956"
       inkscape:connector-curvature="0"
       sodipodi:nodetypes="ccccc" />
    <path
       style="fill:#9d8a6c;fill-opacity:1;stroke:#200d00;stroke-width:0.80000001;stroke-linecap:butt;stroke-linejoin:miter;stroke-miterlimit:4;stroke-dasharray:none;stroke-opacity:1"
       d="m 88.198943,236.86435 c -4.208122,2.04907 -3.424762,4.63267 -9.087165,6.94901 -4.724612,-0.34727 -2.555022,-12.84151 -14.699824,-5.07812 0.130012,2.79814 6.847024,2.16747 5.345391,6.68174 -0.432274,1.45028 -0.378133,3.15999 1.069078,5.61266 4.29485,4.10967 8.292644,-0.82453 10.958052,1.87089 2.313432,3.12553 6.35722,6.13179 8.03847,7.26213 0.829083,-4.30065 -2.153753,-7.10582 -3.587993,-9.6217 0.155826,-2.16413 0.2137,-3.6741 2.498531,-6.19306 3.385414,-3.42807 6.770827,-4.81043 10.156241,-6.1472 z"
       id="path954"
       inkscape:connector-curvature="0"
       sodipodi:nodetypes="ccccccccccc" />
    <path
       style="display:inline;fill:#d95935;fill-opacity:1;stroke:#623332;stroke-width:0.80000001;stroke-linecap:butt;stroke-linejoin:miter;stroke-miterlimit:4;stroke-dasharray:none;stroke-opacity:1"
       d="m 87.501488,208.74256 c -4.781237,7.32692 -13.235697,13.08359 -15.119048,16.81994 1.64433,6.25418 7.249186,10.43387 15.308035,13.22917 9.858697,2.87503 20.283865,2.05052 28.348215,-0.18899 5.94027,-2.47751 12.01683,-6.56739 16.44196,-10.39435 0.45047,-4.34789 -4.59007,-14.27827 -6.99256,-21.16666 -13.19035,4.26399 -25.8037,4.48902 -37.986602,1.70089 z"
       id="path952"
       inkscape:connector-curvature="0"
       sodipodi:nodetypes="ccccccc" />
    <path
       style="display:inline;fill:#f6be4e;fill-opacity:1;stroke:#65501d;stroke-width:0.80000001;stroke-linecap:butt;stroke-linejoin:miter;stroke-miterlimit:4;stroke-dasharray:none;stroke-opacity:1"
       d="m 84.991709,209.33559 c -8.084441,1.48033 -14.505354,3.44585 -16.570711,6.68174 1.956731,1.6438 3.161493,4.34035 7.483546,2.6727 4.005998,2.04813 4.184872,2.91868 5.078122,4.00904 3.85398,-0.67967 5.007985,4.25984 9.087164,0 1.80279,-1.53606 3.234035,3.61571 4.81085,6.1472 2.142243,-0.71754 3.372264,-4.1153 5.078122,-6.1472 4.366888,7.45606 7.851868,4.77025 11.225318,0.80181 4.33743,3.99608 6.07598,2.65003 5.87993,-2.6727 0.61503,3.48535 -1.14145,10.6241 8.28536,0.53454 5.91953,5.06824 8.47164,3.40163 11.49259,2.6727 -2.51675,-4.41049 -4.78042,-7.2614 -7.54562,-8.19364 3.8607,0.0123 5.97925,-0.41225 8.61469,-3.83071 -4.19375,0.62923 -6.88795,-0.24109 -9.88897,-0.80459 0.21522,-1.138 -1.15276,-2.04984 -2.67269,-2.93996 -5.31021,0.25047 -9.00644,4.19945 -11.99283,3.47758 -3.10554,0.11516 -7.47816,-0.82136 -15.934343,-0.62034 -4.287524,1.92279 -6.977624,-1.38617 -12.430528,-1.78817 z"
       id="path950"
       inkscape:connector-curvature="0"
       sodipodi:nodetypes="cccccccccccccccccc" />
    <path
       style="display:inline;fill:#d9bf90;fill-opacity:1;stroke:#000000;stroke-width:0.26458332px;stroke-linecap:butt;stroke-linejoin:miter;stroke-opacity:1"
       d="m 143.12815,195.01375 c 2.44275,4.05134 8.79857,-0.499 10.12799,-4.19943 -0.97622,-5.17638 -5.4913,-6.67199 -7.83049,-7.64011 z"
       id="path948"
       inkscape:connector-curvature="0"
       sodipodi:nodetypes="cccc" />
    <path
       style="display:inline;fill:#f6be4e;fill-opacity:1;stroke:#65501d;stroke-width:0.80000001;stroke-linecap:butt;stroke-linejoin:miter;stroke-miterlimit:4;stroke-dasharray:none;stroke-opacity:1"
       d="M 78.188614,171.00813 C 67.231055,165.30551 52.042401,157.60266 47.306706,152.40719 36.793427,140.27945 45.623123,141.79178 59.601105,148.93268 52.302301,137.12288 49.119304,129.4932 49.177593,123.54208 c 12.883425,0.85271 29.677333,6.50618 39.715233,21.46262 1.466784,-6.3949 4.33299,-13.53521 7.858741,-16.11723 7.717423,6.4553 12.245143,13.24938 11.489823,22.52892 -0.28348,5.10471 -4.12779,11.83098 -8.601275,17.59671 z"
       id="path944"
       inkscape:connector-curvature="0"
       sodipodi:nodetypes="ccccccccc" />
    <path
       style="display:inline;fill:#f56635;fill-opacity:1;stroke:#623332;stroke-width:0.80000001;stroke-linecap:butt;stroke-linejoin:miter;stroke-miterlimit:4;stroke-dasharray:none;stroke-opacity:1"
       d="m 136.30746,203.18839 c -18.42673,11.02608 -44.606355,11.72637 -64.977531,-0.40761 -12.171366,-8.92898 -13.87313,-19.50051 0,-32.60688 1.17853,-1.26902 8.023448,-9.60392 9.920005,-3.06689 -0.46157,-4.66255 -1.103197,-11.51354 0.534541,-12.2944 5.031792,-2.14451 8.31333,8.53745 12.828936,13.36348 1.041696,-3.39236 0.652225,-6.93243 2.672697,-7.2135 1.491954,-0.42742 3.360942,3.29254 5.078122,5.34261 3.71598,-5.08386 4.68956,-7.9632 5.50473,-10.0145 9.08269,1.84406 19.69331,4.39847 26.83488,10.28177 15.94361,14.92574 16.00461,26.49417 1.60362,36.61592 z"
       id="path946"
       inkscape:connector-curvature="0"
       sodipodi:nodetypes="ccccccccccc" />
  </g>
</svg>
