<?xml version="1.0" encoding="UTF-8" standalone="no"?>
<!-- Created with Inkscape (http://www.inkscape.org/) -->

<svg
   xmlns:dc="http://purl.org/dc/elements/1.1/"
   xmlns:cc="http://creativecommons.org/ns#"
   xmlns:rdf="http://www.w3.org/1999/02/22-rdf-syntax-ns#"
   xmlns:svg="http://www.w3.org/2000/svg"
   xmlns="http://www.w3.org/2000/svg"
   xmlns:sodipodi="http://sodipodi.sourceforge.net/DTD/sodipodi-0.dtd"
   xmlns:inkscape="http://www.inkscape.org/namespaces/inkscape"
   width="200mm"
   height="200mm"
   viewBox="0 0 200 200"
   version="1.1"
   id="svg8"
   inkscape:version="0.92.2 5c3e80d, 2017-08-06"
   sodipodi:docname="torchic.svg">
  <defs
     id="defs2" />
  <sodipodi:namedview
     id="base"
     pagecolor="#ffffff"
     bordercolor="#666666"
     borderopacity="1.0"
     inkscape:pageopacity="0.0"
     inkscape:pageshadow="2"
     inkscape:zoom="0.24748737"
     inkscape:cx="-37.150288"
     inkscape:cy="-78.032844"
     inkscape:document-units="mm"
     inkscape:current-layer="layer4"
     showgrid="false"
     inkscape:window-width="1016"
     inkscape:window-height="839"
     inkscape:window-x="1"
     inkscape:window-y="0"
     inkscape:window-maximized="0" />
  <metadata
     id="metadata5">
    <rdf:RDF>
      <cc:Work
         rdf:about="">
        <dc:format>image/svg+xml</dc:format>
        <dc:type
           rdf:resource="http://purl.org/dc/dcmitype/StillImage" />
        <dc:title></dc:title>
      </cc:Work>
    </rdf:RDF>
  </metadata>
  <g
     inkscape:groupmode="layer"
     id="layer4"
     inkscape:label="body"
     style="display:inline">
    <path
       style="display:inline;fill:#e3c48f;fill-opacity:1;stroke:#504028;stroke-width:0.80000001;stroke-linecap:butt;stroke-linejoin:miter;stroke-miterlimit:4;stroke-dasharray:none;stroke-opacity:1"
       d="m 101.86458,148.59524 c 4.33117,0.005 6.14388,-1.60431 9.21062,1.33537 6.17154,1.60847 8.28722,4.62347 8.2526,11.37072 -2.56518,-3.34834 -5.55739,-6.14186 -8.94074,-6.80751 1.43203,1.56174 2.67632,4.30688 -0.70617,8.83004 -1.60734,-3.36168 -3.67982,-6.09264 -7.75342,-7.42032 0.98482,1.69771 2.34345,3.29701 -2.443416,7.26474 -2.170617,-2.53369 0.105377,-9.24402 -7.156655,-5.79934 -1.669202,-4.41455 1.474536,-7.32041 5.379445,-8.77371 0.241603,-3.03239 -0.309568,-4.79635 -0.94494,-6.42559 -2.230163,1.46763 -5.019139,1.95733 -6.614583,4.53572 1.249376,1.00794 -1.761644,2.14951 -3.006782,3.15744 1.508705,2.31042 -1.241971,4.44711 -6.50944,1.22171 -5.804225,-2.36346 1.246267,-3.28671 0.757919,-4.90026 3.502846,-4.29178 6.109588,-4.40173 9.136279,-6.47145 l 11.348463,0.93323 c 0.12585,2.52083 0.67667,4.61668 -0.009,7.94921 z"
       id="path941"
       inkscape:connector-curvature="0"
       sodipodi:nodetypes="cccccccccccccccccc" />
    <path
       style="display:inline;fill:#f56f36;fill-opacity:1;stroke:#000000;stroke-width:0.80000001;stroke-linecap:butt;stroke-linejoin:miter;stroke-miterlimit:4;stroke-dasharray:none;stroke-opacity:1"
       d="m 83.922631,119.95277 c -3.877013,1.43752 -10.328649,9.67051 -10.156242,14.83346 2.634263,4.9061 10.337432,9.26846 22.985178,10.28988 8.735553,0.17212 15.907113,-0.86143 19.777943,-3.34087 9.64916,-6.63253 9.54968,-15.95174 5.61267,-18.30796 -3.83346,-2.01231 -5.70876,-3.16143 -9.15399,-3.20723"
       id="path932"
       inkscape:connector-curvature="0"
       sodipodi:nodetypes="cccccc" />
    <path
       style="fill:#f4c353;fill-opacity:1;stroke:#000000;stroke-width:0.40000001;stroke-linecap:butt;stroke-linejoin:miter;stroke-miterlimit:4;stroke-dasharray:none;stroke-opacity:1"
       d="m 83.922631,119.95277 c -3.468381,1.55907 -3.104833,2.04907 -11.091685,4.27632 1.174049,1.29908 1.884622,2.75982 4.944486,3.40768 0.168636,2.14589 -2.155035,7.05725 6.548101,3.94223 3.168168,1.59867 6.439258,8.4183 10.300767,0.82612 1.057554,-2.27591 2.579977,-2.05568 3.062712,-0.0243 1.212132,4.65951 4.053588,4.21357 5.879928,-1.9377 0.46711,-1.735 -0.35627,-5.24657 -1.59205,-6.79085 -1.75603,-2.31819 -18.302589,-2.65673 -18.052259,-3.6995"
       id="path936"
       inkscape:connector-curvature="0"
       sodipodi:nodetypes="ccccccccc" />
    <path
       style="fill:#f4c353;fill-opacity:1;stroke:#000000;stroke-width:0.40000001;stroke-linecap:butt;stroke-linejoin:miter;stroke-miterlimit:4;stroke-dasharray:none;stroke-opacity:1"
       d="m 116.72997,121.08867 c -1.97254,0.44414 -5.88447,2.56055 -5.83604,4.11501 0.31882,2.09261 6.63508,7.67722 11.93744,10.50152 0.31348,0.16697 1.14081,0.0651 1.22824,-0.73206 -0.0157,-1.58671 -1.49741,-3.52778 -0.98199,-5.79957 4.71597,0.0865 5.93502,-0.6279 6.41446,-2.40542 -0.0683,-0.98089 -5.02546,-1.44913 -2.40542,-4.40995 0.18697,-1.96868 -6.18966,-1.0465 -10.35669,-1.26953"
       id="path938"
       inkscape:connector-curvature="0"
       sodipodi:nodetypes="cccccccc" />
  </g>
  <g
     inkscape:groupmode="layer"
     id="layer3"
     inkscape:label="head"
     style="display:inline">
    <path
       style="display:inline;fill:#f6bd50;fill-opacity:1;stroke:#9a704b;stroke-width:0.80000001;stroke-linecap:butt;stroke-linejoin:miter;stroke-miterlimit:4;stroke-dasharray:none;stroke-opacity:1"
       d="M 80.180856,80.263253 C 63.460112,80.397237 50.933232,77.09896 42.763125,70.10701 50.655862,63.452858 59.136826,64.209689 68.420998,67.83522 55.70951,63.118274 55.513006,54.58238 55.324792,46.854562 68.879577,46.358775 81.114896,53.728566 88.198943,64.494351 86.00029,56.07817 89.959073,54.05131 94.613411,51.398143 c 8.186059,8.562491 11.914629,17.251754 2.138155,23.653354 -6.893994,0.364043 -9.944515,1.327234 -16.57071,5.211756 z"
       id="path879"
       inkscape:connector-curvature="0"
       sodipodi:nodetypes="cccccccc" />
    <path
       style="display:inline;fill:#f56f36;fill-opacity:1;stroke:#000000;stroke-width:0.80000001;stroke-linecap:butt;stroke-linejoin:miter;stroke-miterlimit:4;stroke-dasharray:none;stroke-opacity:1"
       d="m 87.831447,120.35367 c -6.272269,-0.60192 -14.136155,-4.77715 -18.608639,-8.8867 -6.229767,-6.64885 -7.08071,-13.642668 -0.668175,-22.250189 4.390311,-5.019532 9.472026,-8.770027 14.823508,-11.147601 0.841699,0.115585 -6.895855,-1.859282 -6.815696,-3.337241 -0.277479,-1.086951 3.687781,-2.995634 5.67014,-2.85535 -0.06118,-2.01341 3.183298,-3.298302 4.074714,-3.365224 2.991159,0.07532 2.8196,4.8275 2.202801,7.896767 4.106441,-1.894781 11.404061,-1.789346 16.92773,-0.220743 11.22678,3.141329 12.53488,2.757563 22.78866,9.425183 9.53092,6.148199 9.9539,19.139848 2.60194,26.455758 -5.0194,4.40236 -12.82802,8.07209 -22.41723,8.98693"
       id="path905"
       inkscape:connector-curvature="0"
       sodipodi:nodetypes="cccccccccccc" />
    <path
       style="fill:#e6d091;fill-opacity:1;stroke:#bc673e;stroke-width:0.80000001;stroke-linecap:butt;stroke-linejoin:miter;stroke-miterlimit:4;stroke-dasharray:none;stroke-opacity:1"
       d="m 110.3155,108.59382 c 3.6278,0.81296 10.70536,0.70544 12.82893,0.53454 2.03638,-0.78852 4.52841,-2.87284 5.81312,-4.07586 -2.09729,-1.53312 -5.14047,-3.12261 -6.88219,-5.0113 -5.05304,4.39478 -10.11124,1.811 -11.75986,8.55262 z"
       id="path909"
       inkscape:connector-curvature="0"
       sodipodi:nodetypes="ccccc" />
    <ellipse
       style="opacity:1;fill:#000018;fill-opacity:1;stroke:none;stroke-width:0.80000001;stroke-linecap:butt;stroke-linejoin:miter;stroke-miterlimit:4;stroke-dasharray:none;stroke-opacity:1"
       id="path917"
       cx="98.699036"
       cy="101.96244"
       rx="5.9058781"
       ry="5.7168899" />
    <ellipse
       style="display:inline;opacity:1;fill:#ffffff;fill-opacity:1;stroke:none;stroke-width:0.80000001;stroke-linecap:butt;stroke-linejoin:miter;stroke-miterlimit:4;stroke-dasharray:none;stroke-opacity:1"
       id="path915"
       cy="101.15923"
       cx="98.651779"
       rx="3.0238094"
       ry="2.8348215" />
    <ellipse
       style="opacity:1;fill:#000000;fill-opacity:1;stroke:none;stroke-width:0.80000001;stroke-linecap:butt;stroke-linejoin:miter;stroke-miterlimit:4;stroke-dasharray:none;stroke-opacity:1"
       id="path925"
       cx="135.07924"
       cy="99.411087"
       rx="3.7325151"
       ry="6.0003719" />
    <ellipse
       style="display:inline;opacity:1;fill:#ffffff;fill-opacity:1;stroke:none;stroke-width:0.80000001;stroke-linecap:butt;stroke-linejoin:miter;stroke-miterlimit:4;stroke-dasharray:none;stroke-opacity:1"
       id="path919"
       cx="135.22099"
       cy="98.702377"
       rx="2.0788691"
       ry="2.6458333" />
  </g>
</svg>
