<svg xmlns="http://www.w3.org/2000/svg" viewBox="0 0 200 200" height="200mm" width="200mm"><path d="M98.9 141.2c1.5 3.1 2.8 7 3 12.8l7.1 1.9c-1.7-5.7-.7-11.4-.5-17z" fill="#9d8a6c" stroke="#200d00" stroke-width=".8"/><path d="M88.2 139.9c-4.2 2-3.4 4.6-9 7-4.8-.4-2.6-13-14.8-5.2.1 2.8 6.9 2.2 5.4 6.7-.5 1.5-.4 3.2 1 5.6 4.3 4.1 8.3-.8 11 1.9 2.3 3.1 6.3 6.1 8 7.3.9-4.3-2.1-7.1-3.6-9.7.2-2.1.2-3.6 2.5-6.2 3.4-3.4 6.8-4.8 10.2-6.1z" fill="#9d8a6c" stroke="#200d00" stroke-width=".8"/><path d="M87.5 111.7c-4.8 7.4-13.2 13.1-15.1 16.9 1.6 6.2 7.2 10.4 15.3 13.2 9.8 2.9 20.3 2 28.3-.2a65 65 0 0 0 16.5-10.4c.4-4.3-4.6-14.3-7-21.2a70.1 70.1 0 0 1-38 1.7z" fill="#d95935" stroke="#623332" stroke-width=".8"/><path d="M85 112.3c-8 1.5-14.5 3.5-16.6 6.7 2 1.7 3.2 4.4 7.5 2.7 4 2 4.2 3 5 4 4-.7 5 4.3 9.2 0 1.8-1.5 3.2 3.6 4.8 6.1 2.1-.7 3.4-4 5-6.1 4.4 7.5 8 4.8 11.3.8 4.3 4 6 2.7 5.9-2.7.6 3.5-1.2 10.7 8.2.6 6 5 8.5 3.4 11.5 2.6-2.5-4.4-4.7-7.2-7.5-8.2 3.9 0 6-.4 8.6-3.8-4.2.6-6.9-.2-9.9-.8.2-1.1-1.1-2-2.7-3-5.3.3-9 4.3-12 3.5-3 .2-7.4-.8-15.9-.6-4.3 2-7-1.4-12.4-1.8z" fill="#f6be4e" stroke="#65501d" stroke-width=".8"/><path d="M143.1 98c2.5 4 8.8-.5 10.2-4.2-1-5.2-5.5-6.7-7.9-7.6z" fill="#d9bf90" stroke="#000" stroke-width=".3"/><path d="M78.2 74c-11-5.7-26.2-13.4-30.9-18.6-10.5-12.1-1.7-10.6 12.3-3.5-7.3-11.8-10.5-19.4-10.4-25.4C62 27.4 78.9 33 88.9 48c1.5-6.4 4.3-13.5 7.9-16.1 7.7 6.4 12.2 13.2 11.4 22.5A37.2 37.2 0 0 1 99.6 72z" fill="#f6be4e" stroke="#65501d" stroke-width=".8"/><path d="M136.3 106.2a65.1 65.1 0 0 1-65-.4c-12.1-9-13.8-19.5 0-32.6 1.2-1.3 8-9.6 10-3-.5-4.8-1.2-11.6.5-12.4 5-2.1 8.3 8.6 12.8 13.4 1-3.4.7-7 2.7-7.2 1.5-.5 3.3 3.3 5 5.3 3.8-5 4.8-8 5.6-10 9 1.8 19.7 4.4 26.8 10.3 16 14.9 16 26.5 1.6 36.6z" fill="#f56635" stroke="#623332" stroke-width=".8"/></svg>