<svg xmlns="http://www.w3.org/2000/svg" viewBox="0 0 200 200" height="200mm" width="200mm"><path d="M101.9 148.6c4.3 0 6.1-1.6 9.2 1.3 6.1 1.6 8.3 4.7 8.2 11.4-2.5-3.3-5.5-6.1-9-6.8 1.5 1.6 2.8 4.3-.6 8.8-1.6-3.3-3.7-6-7.8-7.4 1 1.7 2.4 3.3-2.4 7.3-2.2-2.6 0-9.3-7.2-5.8-1.6-4.4 1.5-7.4 5.4-8.8.2-3-.3-4.8-1-6.4-2.2 1.4-5 2-6.6 4.5 1.3 1-1.7 2.2-3 3.2 1.5 2.3-1.2 4.4-6.5 1.2-5.8-2.4 1.3-3.3.8-5 3.5-4.2 6.1-4.3 9.1-6.4l11.4 1c.1 2.5.7 4.6 0 7.9z" fill="#e3c48f" stroke="#504028" stroke-width=".8"/><path d="M84 120c-4 1.4-10.4 9.6-10.2 14.8 2.6 4.9 10.3 9.3 23 10.3 8.7.1 15.9-.9 19.7-3.4 9.7-6.6 9.6-16 5.6-18.3-3.8-2-5.7-3.1-9.1-3.2" fill="#f56f36" stroke="#000" stroke-width=".8"/><path d="M84 120c-3.5 1.5-3.2 2-11.2 4.2 1.2 1.3 2 2.8 5 3.4.1 2.2-2.2 7 6.5 4 3.2 1.6 6.5 8.4 10.3.8 1-2.3 2.6-2 3 0 1.3 4.6 4.1 4.2 6-2 .4-1.7-.4-5.2-1.6-6.7-1.8-2.4-18.3-2.7-18-3.7M116.7 121c-2 .5-5.9 2.6-5.8 4.2.3 2.1 6.6 7.7 12 10.5.2.2 1 0 1.2-.7 0-1.6-1.5-3.6-1-5.8 4.7 0 6-.7 6.4-2.4 0-1-5-1.5-2.4-4.4.2-2-6.2-1-10.4-1.3" fill="#f4c353" stroke="#000" stroke-width=".4"/><g><path d="M80.2 80.3C63.5 80.4 50.9 77 42.8 70c7.9-6.6 16.3-5.9 25.6-2.3-12.7-4.7-12.9-13.2-13-21a38.2 38.2 0 0 1 32.8 17.7C86 56 90 54 94.6 51.4c8.2 8.6 12 17.2 2.2 23.7-7 .3-10 1.3-16.6 5.2z" fill="#f6bd50" stroke="#9a704b" stroke-width=".8"/><path d="M87.8 120.4a36.7 36.7 0 0 1-18.6-9c-6.2-6.6-7-13.6-.6-22.2 4.3-5 9.4-8.8 14.8-11.1.8 0-7-1.9-6.8-3.4-.3-1 3.7-3 5.6-2.8 0-2 3.2-3.3 4.1-3.4 3 0 2.8 4.8 2.2 8a28 28 0 0 1 17-.3c11.2 3.1 12.5 2.7 22.7 9.4 9.6 6.2 10 19.2 2.6 26.5a40 40 0 0 1-22.4 9" fill="#f56f36" stroke="#000" stroke-width=".8"/><path d="M110.3 108.6c3.6.8 10.7.7 12.8.5 2-.8 4.6-2.8 5.9-4-2.1-1.6-5.2-3.2-7-5-5 4.3-10 1.8-11.7 8.5z" fill="#e6d091" stroke="#bc673e" stroke-width=".8"/><ellipse ry="5.7" rx="5.9" cy="102" cx="98.7" fill="#000018"/><ellipse ry="2.8" rx="3" cx="98.7" cy="101.2" fill="#fff"/><ellipse ry="6" rx="3.7" cy="99.4" cx="135.1"/><ellipse ry="2.6" rx="2.1" cy="98.7" cx="135.2" fill="#fff"/></g></svg>