<?xml version="1.0" encoding="UTF-8" standalone="no"?>
<svg
   xmlns:dc="http://purl.org/dc/elements/1.1/"
   xmlns:cc="http://creativecommons.org/ns#"
   xmlns:rdf="http://www.w3.org/1999/02/22-rdf-syntax-ns#"
   xmlns:svg="http://www.w3.org/2000/svg"
   xmlns="http://www.w3.org/2000/svg"
   id="svg8"
   version="1.1"
   viewBox="0 0 600 400"
   height="400mm"
   width="600mm">
  <defs
     id="defs2" />
  <metadata
     id="metadata5">
    <rdf:RDF>
      <cc:Work
         rdf:about="">
        <dc:format>image/svg+xml</dc:format>
        <dc:type
           rdf:resource="http://purl.org/dc/dcmitype/StillImage" />
        <dc:title></dc:title>
      </cc:Work>
    </rdf:RDF>
  </metadata>
  <g
     style="display:inline"
     transform="translate(0,103)"
     id="layer1">
    <path
       id="path991"
       d="m 502.10996,81.862386 c -0.0883,0.09658 18.08513,20.259994 23.49057,22.987354 6.09803,2.74285 16.78341,-5.412056 12.79786,-10.876241 -3.09686,-5.993571 -13.1932,-12.653999 -15.89286,-19.408492 l 9.4475,-13.854469 c 8.32797,5.401137 30.78184,1.360308 35.84007,2.842632 5.84221,-0.03781 6.30823,-13.679943 2.21413,-15.656111 -7.1606,-7.44899 -22.96033,2.19284 -33.13382,-2.981154 10.13831,1.024577 28.70518,-1.522367 32.32965,-1.0598 3.69968,-5.769113 -2.11984,-10.424375 -7.15945,-10.447859 l -24.19445,0.41979 c 8.22681,0.758603 14.99164,-1.709608 18.28715,-3.930731 1.7732,-6.104923 -2.2325,-6.891842 -12.90414,-8.398169 -6.30112,-0.75824 -9.45915,0.626652 -13.62061,1.495197 z"
       style="display:inline;fill:#edc6b8;fill-opacity:1;stroke:#563a33;stroke-width:2;stroke-linecap:butt;stroke-linejoin:miter;stroke-miterlimit:4;stroke-dasharray:none;stroke-opacity:1" />
    <path
       id="path994"
       d="m 471.99505,40.160433 c 8.40143,9.253652 14.20435,22.385197 10.14172,35.017896 10.96155,11.582709 28.04427,15.192681 42.30446,8.658736 9.40837,-8.377772 -9.75595,-11.147167 15.13883,-18.268513 11.24271,-11.427233 11.06656,-15.697916 5.83046,-26.898759 -4.35448,-11.074221 -3.31429,-13.803561 -17.76339,-17.733435 -31.03267,-5.902466 -45.38527,13.940034 -55.65208,19.224075 z"
       style="display:inline;fill:#ffc353;fill-opacity:1;stroke:#735a39;stroke-width:2;stroke-linecap:butt;stroke-linejoin:miter;stroke-miterlimit:4;stroke-dasharray:none;stroke-opacity:1" />
    <path
       id="path996"
       d="m 487.78729,30.872998 c 8.26351,5.908216 23.07368,23.072088 25.06892,32.187141 3.33297,2.820909 16.03921,-1.060472 18.19698,-11.594102 -1.01592,-12.104053 -19.09325,-25.804712 -26.08375,-30.999508 -5.39469,1.811663 -17.51471,5.320058 -17.18215,10.406469 z"
       style="display:inline;fill:#2f4065;fill-opacity:1;stroke:#182b45;stroke-width:2;stroke-linecap:butt;stroke-linejoin:miter;stroke-miterlimit:4;stroke-dasharray:none;stroke-opacity:1" />
    <path
       id="path1643"
       d="m 240.45398,158.53476 c 8.36579,-9.50162 22.73442,-12.13277 34.34881,-16.17046 12.44073,5.89021 36.61347,8.42214 53.3432,1.30878 25.3587,-31.3392 44.64214,-50.915388 67.5148,-70.72111 17.22424,-11.429047 51.1721,-26.979909 77.45679,-28.862675 8.21902,9.320487 7.95108,20.338365 9.01919,31.089034 1.4679,-16.45756 -73.63468,48.145451 -82.41188,50.778611 -28.10055,20.11655 -48.63554,30.11774 -57.95492,54.16974 l -112.66591,-0.42114 c -1.9974,-11.01272 6.14883,-15.08406 11.34992,-21.17078 z"
       style="display:inline;fill:#2f4065;fill-opacity:1;stroke:#282828;stroke-width:3;stroke-linecap:butt;stroke-linejoin:miter;stroke-miterlimit:4;stroke-dasharray:none;stroke-opacity:1" />
    <path
       id="path1645"
       d="m 354.53004,123.61242 c 13.61705,-8.29754 38.06632,-40.77386 52.4569,-45.408532 13.7065,-4.638092 55.05427,-29.388792 68.21521,-29.176019 -2.64583,-11.1125 -41.13755,6.692818 -54.16609,11.522207 -28.231,7.607401 -74.47584,62.153144 -79.96547,69.598194 2.55518,-0.45916 11.16759,-4.83709 13.45945,-6.53585 z"
       style="display:inline;fill:#c9493a;fill-opacity:1;stroke:none;stroke-width:0.26499999;stroke-linecap:butt;stroke-linejoin:miter;stroke-miterlimit:4;stroke-dasharray:none;stroke-opacity:1" />
    <path
       id="path1641"
       d="m 280.30976,126.45599 c -3.2043,4.02201 -5.7786,12.09665 -8.22053,17.40681 12.88389,5.53363 28.9435,7.36187 52.77799,5.36696 3.75334,-3.41793 4.49242,-7.09467 5.39544,-12.43585 -13.00135,0.22662 -30.60902,-5.01011 -49.9529,-10.33792 z"
       style="display:inline;fill:#ffc353;fill-opacity:1;stroke:#282828;stroke-width:2;stroke-linecap:butt;stroke-linejoin:miter;stroke-miterlimit:4;stroke-dasharray:none;stroke-opacity:1" />
    <path
       id="path1647"
       d="m 272.08923,143.8628 c -23.35674,3.38894 -27.12264,-8.98196 -40.27001,-2.98321 -21.78498,9.67999 -40.71655,25.91718 -51.6158,43.57065 -10.88319,21.09132 -17.63287,57.41682 -4.32255,81.35082 l 31.75534,0.1134 c 14.67491,-20.21208 22.97756,-76.99551 22.8635,-96.24177 20.82963,-4.08581 44.07904,2.5876 64.12928,-12.22795 -2.65937,-4.4407 -19.48935,-15.73776 -22.53976,-13.58194 z"
       style="display:inline;fill:#ecb651;fill-opacity:1;stroke:#7c5b48;stroke-width:2.5;stroke-linecap:butt;stroke-linejoin:miter;stroke-miterlimit:4;stroke-dasharray:none;stroke-opacity:1" />
    <path
       id="path1649"
       d="m 187.95963,175.28211 c 8.03428,1.47128 33.12743,3.98052 40.22166,14.10711 -9.21661,15.3281 -21.18306,20.61497 -26.72887,30.6659 l -11.52825,-2.73485 c -2.0031,-24.50789 -8.33348,-32.68232 -1.96454,-42.03816 z"
       style="display:inline;fill:none;stroke:#7c5b48;stroke-width:3.5;stroke-linecap:butt;stroke-linejoin:miter;stroke-miterlimit:4;stroke-dasharray:none;stroke-opacity:1" />
    <path
       id="path1651"
       d="m 189.92417,217.32027 c 2.97211,-2.76081 4.75883,-2.40257 11.52825,2.73485 1.78802,3.40026 -3.85673,3.08459 -4.12535,10.86834 0.001,9.58551 -1.2103,14.15438 -3.4561,13.02982 -6.52829,-4.59565 -8.58409,-18.57267 -3.9468,-26.63301 z"
       style="display:inline;fill:#5b789e;fill-opacity:1;stroke:#40506d;stroke-width:2;stroke-linecap:butt;stroke-linejoin:miter;stroke-miterlimit:4;stroke-dasharray:none;stroke-opacity:1" />
    <path
       id="path1610"
       d="m 292.55357,128.89509 c 15.15343,12.39239 61.04314,7.85075 72.57143,2.55134 13.69286,-7.55213 28.17885,-25.50031 30.77744,-33.07175 1.94076,-2.001165 2.75125,-5.197921 -0.68085,-7.398565 -4.67564,-3.291643 -5.65111,-6.428853 -7.59359,-12.557058 -3.54161,-15.144989 -1.6197,-29.936124 -1.7143,-44.490484 l -69.54763,29.482142 z"
       style="display:inline;fill:#e7b69c;fill-opacity:1;stroke:#53483f;stroke-width:2;stroke-linecap:butt;stroke-linejoin:miter;stroke-miterlimit:4;stroke-dasharray:none;stroke-opacity:1" />
    <path
       id="path1608"
       d="m 390.46752,38.817637 c 2.83876,-8.166962 -14.04825,-39.33055202 -34.47778,-48.910323 -28.49159,-12.371586 -48.87464,-13.45728 -65.48103,-10.423511 -22.18101,4.079384 -65.14335,28.8271085 -75.10274,50.781209 -6.11509,16.09522 -1.89127,33.347968 6.1472,47.573977 11.10008,16.219914 23.5751,32.228301 43.83221,47.039441 8.24099,5.43938 22.96052,2.08176 31.20371,6.08037 4.45153,-15.19807 15.15799,-27.22329 17.43934,-44.032649 30.63019,-13.842344 48.03289,-35.43083 76.43909,-48.108514 z"
       style="display:inline;fill:#2d4067;fill-opacity:1;stroke:#1c2f51;stroke-width:3;stroke-linecap:butt;stroke-linejoin:miter;stroke-miterlimit:4;stroke-dasharray:none;stroke-opacity:1" />
    <path
       id="path1606"
       d="M 259.29167,48.291666 C 248.00726,64.664476 236.0516,85.736045 223.76191,109.14583 214.14022,95.631281 205.66624,79.821285 198.05952,62.276787 177.77959,69.852691 161.16844,72.425709 151.94643,64.922621 170.69336,51.256796 185.34188,38.27404 198.05952,25.613097 192.29169,4.692915 190.43654,0.72763894 187.47619,-8.0267845 c 11.04916,-3.5659195 24.62154,1.0610194 45.73512,7.55952335 17.41508,-9.99563885 48.02886,-23.84879285 61.51515,-27.95124385 27.57941,1.582796 43.20859,11.603508 62.90387,31.0209107 -14.25387,22.4875963 -29.69418,31.1232213 -61.297,38.1297393 -4.28369,16.190155 -9.97668,26.038471 -12.47321,50.270831 -9.70215,-9.69911 -16.72484,-27.436591 -24.56845,-42.71131 z"
       style="display:inline;fill:#ecf3f4;fill-opacity:1;stroke:#7189a6;stroke-width:3;stroke-linecap:butt;stroke-linejoin:miter;stroke-miterlimit:4;stroke-dasharray:none;stroke-opacity:1" />
    <path
       id="path1612"
       d="m 373.74692,90.400656 c -10.10479,-0.190144 -10.3183,-29.120246 0.47504,-29.132378 9.25456,0.289436 9.20714,29.028112 -0.47504,29.132378 z"
       style="display:inline;fill:#e1dcde;fill-opacity:1;stroke:none;stroke-width:0.24942617px;stroke-linecap:butt;stroke-linejoin:miter;stroke-opacity:1" />
    <path
       id="path1614"
       d="m 376.89893,63.139164 c 4.64523,0.0032 4.89221,18.59271 0,18.575231 -5.48486,-0.01114 -5.67249,-18.57388 0,-18.575231 z"
       style="display:inline;fill:#352f36;fill-opacity:1;stroke:none;stroke-width:0.27807736px;stroke-linecap:butt;stroke-linejoin:miter;stroke-opacity:1" />
    <path
       id="path1637"
       d="m 374.86657,110.21491 c 3.13275,2.00995 5.46662,3.15877 8.87377,4.22259"
       style="display:inline;fill:none;stroke:#53483f;stroke-width:3;stroke-linecap:round;stroke-linejoin:miter;stroke-miterlimit:4;stroke-dasharray:none;stroke-opacity:1" />
    <path
       id="path1635"
       d="m 381.56696,61.237351 c -2.99628,-1.819199 -9.32163,-3.580097 -13.79613,-3.874255"
       style="display:inline;fill:none;fill-opacity:1;stroke:#53483f;stroke-width:3;stroke-linecap:round;stroke-linejoin:miter;stroke-miterlimit:4;stroke-dasharray:none;stroke-opacity:1" />
  </g>
</svg>
