<?xml version="1.0" encoding="UTF-8" standalone="no"?>
<svg
   xmlns:dc="http://purl.org/dc/elements/1.1/"
   xmlns:cc="http://creativecommons.org/ns#"
   xmlns:rdf="http://www.w3.org/1999/02/22-rdf-syntax-ns#"
   xmlns:svg="http://www.w3.org/2000/svg"
   xmlns="http://www.w3.org/2000/svg"
   id="svg8"
   version="1.1"
   viewBox="0 0 600 400"
   height="400mm"
   width="600mm">
  <defs
     id="defs2" />
  <metadata
     id="metadata5">
    <rdf:RDF>
      <cc:Work
         rdf:about="">
        <dc:format>image/svg+xml</dc:format>
        <dc:type
           rdf:resource="http://purl.org/dc/dcmitype/StillImage" />
        <dc:title></dc:title>
      </cc:Work>
    </rdf:RDF>
  </metadata>
  <g
     style="display:inline"
     transform="translate(0,103)"
     id="layer1">
    <path
       id="path991"
       d="m 146.41587,82.484541 c 0.12835,0.02567 7.98719,-25.956585 7.52598,-31.99352 0.13001,-9.1824 -15.3311,-11.941394 -18.55525,-4.04993 -3.52821,5.750233 -4.00728,17.83608 -8.39217,23.63988 l -16.74376,-0.920897 c 0.3158,-9.92107 -14.755087,-27.049206 -16.102337,-32.145076 -3.05376,-4.98071 -14.970856,1.675696 -14.544891,6.20178 -2.67225,9.98102 13.751138,18.51733 14.584188,29.90048 -4.366282,-9.207102 -16.148343,-23.781005 -17.626897,-27.122355 -6.851042,-0.18291 -7.825748,7.205481 -5.239522,11.530951 l 12.871852,20.490557 c -3.605354,-7.43353 -9.216405,-11.946967 -12.821759,-13.618847 -6.142148,1.63961 -4.744048,5.47499 -0.514269,15.38771 2.609763,5.78516 5.428305,7.771857 8.323842,10.884397 z"
       style="display:inline;fill:#edc6b8;fill-opacity:1;stroke:#563a33;stroke-width:2;stroke-linecap:butt;stroke-linejoin:miter;stroke-miterlimit:4;stroke-dasharray:none;stroke-opacity:1" />
    <path
       id="path994"
       d="M 125.49116,118.20093 C 132.84034,101.47104 140.31381,92.086806 153.227,89.030735 157.47139,73.658475 145.38721,66.686724 134.58251,62.152285 122.29394,57.50309 131.93934,80.867073 109.02737,57.742063 93.432616,54.029385 88.731432,55.530205 81.852738,65.80441 74.626478,75.258566 70.201647,80.105806 74.310725,94.504974 85.307971,124.11792 115.65898,112.14646 125.49116,118.20093 Z"
       style="display:inline;fill:#ffc353;fill-opacity:1;stroke:#735a39;stroke-width:2;stroke-linecap:butt;stroke-linejoin:miter;stroke-miterlimit:4;stroke-dasharray:none;stroke-opacity:1" />
    <path
       id="path996"
       d="m 109.84917,117.50767 c 0.78314,-10.12814 5.51917,-26.796356 12.28873,-33.218056 0.69067,-4.31152 -9.20259,-13.179273 -19.33409,-9.578433 -9.834273,7.12933 -12.211458,29.686959 -13.042354,38.356599 4.340536,3.6803 15.906324,7.35505 20.087714,4.43989 z"
       style="display:inline;fill:#2f4065;fill-opacity:1;stroke:#182b45;stroke-width:2;stroke-linecap:butt;stroke-linejoin:miter;stroke-miterlimit:4;stroke-dasharray:none;stroke-opacity:1" />
    <path
       id="path1641"
       d="m 303.07037,131.82743 c -1.88139,6.53555 -4.76119,5.63717 -7.07083,12.13795 l 52.38444,11.11181 c -6.14308,-7.5544 -2.36845,-16.01369 -1.21414,-22.98249 z"
       style="display:inline;fill:#ffc353;fill-opacity:1;stroke:#282828;stroke-width:2;stroke-linecap:butt;stroke-linejoin:miter;stroke-miterlimit:4;stroke-dasharray:none;stroke-opacity:1" />
    <path
       id="path1643"
       d="m 138.55479,140.57213 c -3.1186,-5.58696 -10.35084,-17.03917 -12.40882,-24.14854 2.11183,-14.29843 21.53971,-30.805565 27.08103,-27.392855 23.92515,24.748975 28.27421,64.755985 49.70418,63.655295 15.25353,-0.9387 37.02807,-9.56735 53.79467,-11.87836 33.85677,-5.64641 35.17265,0.90875 51.26228,5.21178 17.38327,1.93467 39.83458,9.61901 45.62944,11.69717 11.64358,5.74184 17.73625,24.16257 14.84303,39.52069 -1.78627,11.31958 -15.3047,49.00047 -34.91969,46.83056 -2.09024,-0.23124 9.78841,5.78762 15.12486,7.03422 8.28873,1.98126 28.65737,1.95941 43.40423,9.36368 8.13022,4.08211 12.72444,14.74152 16.58802,21.03655 1.71916,7.47151 4.37867,12.29718 1.95471,19.76869 l -23.26524,0.36463 c -0.37453,-7.9291 -4.53523,-13.39901 -12.34785,-19.45722 -8.595,-4.07755 -71.91619,-4.16977 -71.05392,-13.34648 -1.93958,-6.97643 9.85699,-35.13041 -1.41157,-58.60695 -3.34806,-3.42866 2.854,17.54919 3.57247,24.75603 -1.21351,19.21427 -7.07851,47.10678 -19.84836,65.31616 l -82.04314,-0.78602 c -7.10406,-13.46368 -1.08782,-20.53272 -1.02787,-37.5526 0.0742,-10.57862 18.44188,-46.52261 13.44311,-41.94234 L 199.09647,192.4165 c -29.43724,-0.82808 -27.21559,0.27529 -37.01207,-5.81453 -16.4757,-12.34194 -17.16392,-30.57233 -23.52961,-46.02982 z"
       style="display:inline;fill:#2f4065;fill-opacity:1;stroke:#282828;stroke-width:3;stroke-linecap:butt;stroke-linejoin:miter;stroke-miterlimit:4;stroke-dasharray:none;stroke-opacity:1" />
    <path
       id="path1645"
       d="m 145.96312,138.85234 c -3.36175,-3.21559 -21.57418,-28.36441 -19.81715,-22.42875 6.30159,9.93899 13.18554,21.66618 16.55953,33.16605 5.29001,18.03042 11.18621,32.88642 23.96555,32.31675 11.7682,-1.08089 42.05222,-9.08284 48.87147,-12.31797 15.11006,-6.44819 36.78822,-11.92757 61.76379,-15.72363 34.54808,-3.0952 28.26256,14.72942 52.53924,25.50425 15.27773,17.42193 -23.91711,62.96753 -9.64194,72.93068 19.34003,8.72686 53.79388,7.12643 67.23242,7.25073 -8.5881,-5.2762 -39.88303,-3.6378 -52.95861,-13.07579 -9.76453,-2.16526 27.31509,-51.30906 24.36023,-60.46825 -1.14947,-20.48837 -11.69434,-32.01657 -36.15699,-35.85733 -13.56864,-2.55381 -16.69984,-2.36662 -30.78216,-8.43266 -23.61892,-2.93615 -29.35385,-4.27572 -45.38761,4.99782 -18.96043,5.04862 -41.13365,10.72928 -56.07841,18.06298 -28.99244,7.95049 -26.29735,-0.58435 -44.46936,-25.92488 z"
       style="display:inline;fill:#c9493a;fill-opacity:1;stroke:none;stroke-width:0.26499999;stroke-linecap:butt;stroke-linejoin:miter;stroke-miterlimit:4;stroke-dasharray:none;stroke-opacity:1" />
    <path
       id="path1647"
       d="m 340.37659,155.36876 c -29.34357,11.62084 -68.46923,19.92323 -81.6166,25.92198 -21.78498,9.67999 -48.2001,20.6787 -59.09935,38.33217 -10.88319,21.09132 -17.63287,57.41682 -4.32255,81.35082 l 62.0637,0.1134 c 14.67491,-20.21208 34.20289,-68.01526 34.08883,-87.26152 5.72856,-7.43585 19.44371,-19.75874 38.35493,-34.45657 5.77439,-3.74329 15.64184,0.61883 31.387,-11.44733 -2.65937,-4.4407 -17.80555,-14.70877 -20.85596,-12.55295 z"
       style="display:inline;fill:#ecb651;fill-opacity:1;stroke:#7c5b48;stroke-width:2.5;stroke-linecap:butt;stroke-linejoin:miter;stroke-miterlimit:4;stroke-dasharray:none;stroke-opacity:1" />
    <path
       id="path1649"
       d="m 236.97501,190.97073 c 22.20926,1.68562 34.42958,5.98778 54.51561,22.85488 -4.72648,9.71544 -52.01545,32.96473 -71.4214,35.19555 l -24.5888,-6.56547 c -2.36717,-24.5888 22.01626,-39.86076 41.49459,-51.48496 z"
       style="display:inline;fill:none;stroke:#7c5b48;stroke-width:3.5;stroke-linecap:butt;stroke-linejoin:miter;stroke-miterlimit:4;stroke-dasharray:none;stroke-opacity:1" />
    <path
       id="path1651"
       d="m 195.48042,242.45569 c 3.09358,-4.70489 16.39253,-5.27456 24.5888,6.56547 1.78802,3.40026 -7.03173,3.28302 -7.30035,11.06677 0.001,9.58551 -5.19396,15.57003 -7.43976,14.44547 -6.52829,-4.59565 -14.48598,-24.01737 -9.84869,-32.07771 z"
       style="display:inline;fill:#5b789e;fill-opacity:1;stroke:#40506d;stroke-width:2;stroke-linecap:butt;stroke-linejoin:miter;stroke-miterlimit:4;stroke-dasharray:none;stroke-opacity:1" />
    <path
       id="path1610"
       d="m 292.55357,128.89509 c 15.15343,12.39239 61.04314,7.85075 72.57143,2.55134 13.69286,-7.55213 28.17885,-25.50031 30.77744,-33.07175 1.94076,-2.001165 2.75125,-5.197921 -0.68085,-7.398565 -4.67564,-3.291643 -5.65111,-6.428853 -7.59359,-12.557058 -3.54161,-15.144989 -1.6197,-29.936124 -1.7143,-44.490484 l -69.54763,29.482142 z"
       style="display:inline;fill:#e7b69c;fill-opacity:1;stroke:#53483f;stroke-width:2;stroke-linecap:butt;stroke-linejoin:miter;stroke-miterlimit:4;stroke-dasharray:none;stroke-opacity:1" />
    <path
       id="path1608"
       d="m 390.46752,38.817637 c 2.83876,-8.166962 -14.04825,-39.33055202 -34.47778,-48.910323 -28.49159,-12.371586 -48.87464,-13.45728 -65.48103,-10.423511 -22.18101,4.079384 -65.14335,28.8271085 -75.10274,50.781209 -6.11509,16.09522 -1.89127,33.347968 6.1472,47.573977 11.10008,16.219914 23.5751,32.228301 43.83221,47.039441 8.24099,5.43938 22.96052,2.08176 31.20371,6.08037 4.45153,-15.19807 15.15799,-27.22329 17.43934,-44.032649 30.63019,-13.842344 48.03289,-35.43083 76.43909,-48.108514 z"
       style="display:inline;fill:#2d4067;fill-opacity:1;stroke:#1c2f51;stroke-width:3;stroke-linecap:butt;stroke-linejoin:miter;stroke-miterlimit:4;stroke-dasharray:none;stroke-opacity:1" />
    <path
       id="path1606"
       d="M 259.29167,48.291666 C 248.00726,64.664476 236.0516,85.736045 223.76191,109.14583 214.14022,95.631281 205.66624,79.821285 198.05952,62.276787 177.77959,69.852691 161.16844,72.425709 151.94643,64.922621 170.69336,51.256796 185.34188,38.27404 198.05952,25.613097 192.29169,4.692915 190.43654,0.72763894 187.47619,-8.0267845 c 11.04916,-3.5659195 24.62154,1.0610194 45.73512,7.55952335 17.41508,-9.99563885 48.02886,-23.84879285 61.51515,-27.95124385 27.57941,1.582796 43.20859,11.603508 62.90387,31.0209107 -14.25387,22.4875963 -29.69418,31.1232213 -61.297,38.1297393 -4.28369,16.190155 -9.97668,26.038471 -12.47321,50.270831 -9.70215,-9.69911 -16.72484,-27.436591 -24.56845,-42.71131 z"
       style="display:inline;fill:#ecf3f4;fill-opacity:1;stroke:#7189a6;stroke-width:3;stroke-linecap:butt;stroke-linejoin:miter;stroke-miterlimit:4;stroke-dasharray:none;stroke-opacity:1" />
    <path
       id="path1612"
       d="m 373.74692,90.400656 c -10.10479,-0.190144 -10.3183,-29.120246 0.47504,-29.132378 9.25456,0.289436 9.20714,29.028112 -0.47504,29.132378 z"
       style="display:inline;fill:#e1dcde;fill-opacity:1;stroke:none;stroke-width:0.24942617px;stroke-linecap:butt;stroke-linejoin:miter;stroke-opacity:1" />
    <path
       id="path1614"
       d="m 376.89893,63.139164 c 4.64523,0.0032 4.89221,18.59271 0,18.575231 -5.48486,-0.01114 -5.67249,-18.57388 0,-18.575231 z"
       style="display:inline;fill:#352f36;fill-opacity:1;stroke:none;stroke-width:0.27807736px;stroke-linecap:butt;stroke-linejoin:miter;stroke-opacity:1" />
    <path
       id="path1637"
       d="m 374.86657,110.21491 c 3.13275,2.00995 5.46662,3.15877 8.87377,4.22259"
       style="display:inline;fill:none;stroke:#53483f;stroke-width:3;stroke-linecap:round;stroke-linejoin:miter;stroke-miterlimit:4;stroke-dasharray:none;stroke-opacity:1" />
    <path
       id="path1635"
       d="m 381.56696,61.237351 c -2.99628,-1.819199 -9.32163,-3.580097 -13.79613,-3.874255"
       style="display:inline;fill:none;fill-opacity:1;stroke:#53483f;stroke-width:3;stroke-linecap:round;stroke-linejoin:miter;stroke-miterlimit:4;stroke-dasharray:none;stroke-opacity:1" />
  </g>
</svg>
