<svg xmlns="http://www.w3.org/2000/svg" viewBox="0 0 600 400" height="400mm" width="600mm"><path d="M303 234.8c.2 6.6.2 15-1 23h60.7c-10.4-5.7-12-15.7-15.5-22.7z" fill="#ffc353" stroke="#282828" stroke-width="2"/><path d="M150 404.8c-1.1-5.9-2-18.2-.6-24.6A36 36 0 0 1 159 360l54-48.1a74 74 0 0 1 31-39.6c16.8-10 37-15.5 58-14.4 18.4-.7 36.9-.2 55.3 0 14.5 2.6 24.7 6.8 34.2 9.9a69 69 0 0 1 30.4 20.8c7.4 11 11.7 20.2 16.7 29.7 14 10.8 22.3 17.2 27.6 24.3 16.3 3 30.5 13 22 36.1-5.8 4.2-7.8 10.2-13.6 26.3h-47.8c5.3-9.4 6.3-11.5 12-21.5 6-8.9-.6-15-5.6-21.9a242.8 242.8 0 0 1-40.2-35.3c-3.3-3.4-10.8-1.4-10 5.8-1.3 19.2-7.1 54.5-19.9 72.7l-85 .2c-6.6-12.9-28.7-42.5-10.4-75.3-1.4-3.9-6.8-7.2-11.8-2.6l-37 31.8c-7.8 13.8-14.8 35.1-21 45.9z" fill="#2f4065" stroke="#282828" stroke-width="3"/><path d="M173.5 348c20.3-9.9 52.4-31.5 53-34.6 2.2-18.2 31.8-41.1 56.8-45 34.5-3 71.2.2 100 5.7 24.2 7.3 32.2 30.8 44.2 50.3 19.4 15.7 25.5 12.4 38 19.3-9.1-11.4-20.9-19.1-28.5-25.5-4.8-10.6-10-18.8-14.2-26.2-4.7-11.7-16.8-17.4-25.9-21.4a228 228 0 0 0-39.6-12.8H302c-9.7-.6-35.4 3.8-51.7 11.7a70.7 70.7 0 0 0-31 29.7 83.3 83.3 0 0 1-11.2 18.5c-12.4 9.6-23.8 20.5-34.6 30.4z" fill="#c9493a"/><path d="M362.7 257.8a68.8 68.8 0 0 1-50 28.9 126.3 126.3 0 0 0-41 41c-15.2 21-8.7 52.6 4.6 76.5l84.3.4c14.7-17.7 21.7-45.6 20.8-68.3-.8-12-.3-25-11.7-34.7-2-12.2 7.1-26 8.9-39-4-1.9-11.4-3.7-16-4.8z" fill="#ecb651" stroke="#7c5b48" stroke-width="2.5"/><path d="M311.5 290.2c24.3 9 46.9 19.4 67 36.3a770.8 770.8 0 0 1-52.7 36l-23-4.2c-2.4-24.6 5.9-43.6 8.7-68.1z" fill="none" stroke="#7c5b48" stroke-width="3.5"/><path d="M303.1 358.2c3.1-4.7 16.4-5.3 24.6 6.6 1.8 3.4-9.4 3.3-9.7 11 0 9.6-6.8 16.1-9 15-6.5-4.6-10.5-24.5-5.9-32.6z" fill="#5b789e" stroke="#40506d" stroke-width="2"/><path d="M292.6 231.9c15.1 12.4 61 7.8 72.5 2.5a83.9 83.9 0 0 0 30.8-33c2-2 2.8-5.2-.7-7.4-4.7-3.3-5.6-6.5-7.6-12.6-3.5-15.1-1.6-30-1.7-44.5l-69.5 29.5z" fill="#e7b69c" stroke="#53483f" stroke-width="2"/><path d="M390.5 141.8c2.8-8.1-14-39.3-34.5-48.9-28.5-12.4-48.9-13.4-65.5-10.4-22.2 4-65.1 28.8-75 50.8-6.2 16-2 33.3 6 47.5a180.7 180.7 0 0 0 43.9 47c8.2 5.5 23 2.2 31.2 6.2 4.4-15.2 15.1-27.3 17.4-44 30.7-14 48-35.5 76.5-48.2z" fill="#2d4067" stroke="#1c2f51" stroke-width="3"/><path d="M259.3 151.3a615.1 615.1 0 0 0-35.5 60.8 257.5 257.5 0 0 1-25.7-46.8c-20.3 7.6-37 10.1-46.2 2.6a387.9 387.9 0 0 0 46.2-39.3c-5.8-21-7.7-24.9-10.6-33.6 11-3.6 24.6 1 45.7 7.5 17.4-10 48-23.8 61.5-28 27.6 1.7 43.2 11.7 63 31.1-14.3 22.5-29.8 31.1-61.4 38.1-4.3 16.2-10 26-12.4 50.3-9.7-9.7-16.8-27.4-24.6-42.7z" fill="#ecf3f4" stroke="#7189a6" stroke-width="3"/><path d="M373.7 193.4c-10-.2-10.3-29.1.5-29.1 9.3.3 9.2 29-.5 29.1z" fill="#e1dcde"/><path d="M376.9 166.1c4.6 0 4.9 18.6 0 18.6-5.5 0-5.7-18.6 0-18.6z" fill="#352f36"/><path d="M374.9 213.2c3.1 2 5.4 3.2 8.8 4.2M381.6 164.2c-3-1.8-9.4-3.5-13.8-3.8" fill="none" stroke="#53483f" stroke-width="3" stroke-linecap="round"/></svg>