<svg xmlns="http://www.w3.org/2000/svg" viewBox="0 0 600 400" height="400mm" width="600mm"><path d="M502.1 184.9s18.1 20.2 23.5 23c6.1 2.7 16.8-5.5 12.8-11-3.1-6-13.2-12.6-15.9-19.3l9.5-13.9c8.3 5.4 30.7 1.4 35.8 2.9 5.8 0 6.3-13.7 2.2-15.7-7.2-7.5-23 2.2-33.1-3 10.1 1 28.7-1.5 32.3-1 3.7-5.8-2.1-10.5-7.2-10.5l-24.2.4c8.3.8 15-1.7 18.3-3.9 1.8-6.1-2.2-6.9-12.9-8.4-6.3-.8-9.4.6-13.6 1.5z" fill="#edc6b8" stroke="#563a33" stroke-width="2"/><path d="M472 143.2c8.4 9.2 14.2 22.3 10.1 35 11 11.6 28 15.2 42.3 8.6 9.4-8.3-9.7-11.1 15.2-18.2 11.2-11.5 11-15.7 5.8-27-4.3-11-3.3-13.7-17.8-17.7-31-5.9-45.3 14-55.6 19.3z" fill="#ffc353" stroke="#735a39" stroke-width="2"/><path d="M487.8 133.9c8.3 5.9 23 23 25 32.2 3.4 2.8 16.1-1.1 18.3-11.6-1-12.1-19.1-25.8-26.1-31-5.4 1.8-17.5 5.3-17.2 10.4z" fill="#2f4065" stroke="#182b45" stroke-width="2"/><path d="M240.5 261.5c8.3-9.5 22.7-12.1 34.3-16.1a74.7 74.7 0 0 0 53.3 1.3c25.4-31.4 44.7-51 67.6-70.7 17.2-11.5 51.1-27 77.4-29 8.2 9.4 8 20.4 9 31.2 1.5-16.5-73.6 48.1-82.4 50.8-28 20-48.6 30-58 54.1l-112.6-.4c-2-11 6.2-15 11.4-21.2z" fill="#2f4065" stroke="#282828" stroke-width="3"/><path d="M354.5 226.6c13.6-8.3 38.1-40.8 52.5-45.4 13.7-4.6 55-29.4 68.2-29.2-2.6-11-41.1 6.7-54.2 11.6-28.2 7.6-74.4 62.1-80 69.5 2.6-.4 11.2-4.8 13.5-6.5z" fill="#c9493a"/><path d="M280.3 229.5c-3.2 4-5.8 12-8.2 17.4 12.9 5.5 29 7.3 52.8 5.3 3.7-3.4 4.5-7 5.4-12.4-13 .2-30.6-5-50-10.3z" fill="#ffc353" stroke="#282828" stroke-width="2"/><path d="M272 246.9c-23.3 3.4-27-9-40.2-3-21.8 9.7-40.7 25.9-51.6 43.6-10.9 21-17.6 57.4-4.3 81.3l31.7.1c14.7-20.2 23-77 22.9-96.2 20.8-4.1 44 2.6 64.1-12.3-2.6-4.4-19.5-15.7-22.5-13.5z" fill="#ecb651" stroke="#7c5b48" stroke-width="2.5"/><path d="M188 278.3c8 1.5 33 4 40.2 14-9.2 15.4-21.2 20.7-26.7 30.8l-11.6-2.8c-2-24.5-8.3-32.7-2-42z" fill="none" stroke="#7c5b48" stroke-width="3.5"/><path d="M190 320.3c2.9-2.7 4.7-2.4 11.5 2.8 1.7 3.4-3.9 3-4.2 10.8 0 9.6-1.2 14.2-3.4 13-6.6-4.5-8.6-18.5-4-26.6z" fill="#5b789e" stroke="#40506d" stroke-width="2"/><path d="M292.6 231.9c15.1 12.4 61 7.8 72.5 2.5a83.9 83.9 0 0 0 30.8-33c2-2 2.8-5.2-.7-7.4-4.7-3.3-5.6-6.5-7.6-12.6-3.5-15.1-1.6-30-1.7-44.5l-69.5 29.5z" fill="#e7b69c" stroke="#53483f" stroke-width="2"/><path d="M390.5 141.8c2.8-8.1-14-39.3-34.5-48.9-28.5-12.4-48.9-13.4-65.5-10.4-22.2 4-65.1 28.8-75 50.8-6.2 16-2 33.3 6 47.5a180.7 180.7 0 0 0 43.9 47c8.2 5.5 23 2.2 31.2 6.2 4.4-15.2 15.1-27.3 17.4-44 30.7-14 48-35.5 76.5-48.2z" fill="#2d4067" stroke="#1c2f51" stroke-width="3"/><path d="M259.3 151.3a615.1 615.1 0 0 0-35.5 60.8 257.5 257.5 0 0 1-25.7-46.8c-20.3 7.6-37 10.1-46.2 2.6a387.9 387.9 0 0 0 46.2-39.3c-5.8-21-7.7-24.9-10.6-33.6 11-3.6 24.6 1 45.7 7.5 17.4-10 48-23.8 61.5-28 27.6 1.7 43.2 11.7 63 31.1-14.3 22.5-29.8 31.1-61.4 38.1-4.3 16.2-10 26-12.4 50.3-9.7-9.7-16.8-27.4-24.6-42.7z" fill="#ecf3f4" stroke="#7189a6" stroke-width="3"/><path d="M373.7 193.4c-10-.2-10.3-29.1.5-29.1 9.3.3 9.2 29-.5 29.1z" fill="#e1dcde"/><path d="M376.9 166.1c4.6 0 4.9 18.6 0 18.6-5.5 0-5.7-18.6 0-18.6z" fill="#352f36"/><path d="M374.9 213.2c3.1 2 5.4 3.2 8.8 4.2M381.6 164.2c-3-1.8-9.4-3.5-13.8-3.8" fill="none" stroke="#53483f" stroke-width="3" stroke-linecap="round"/></svg>