<?xml version="1.0" encoding="UTF-8" standalone="no"?>
<svg
   xmlns:dc="http://purl.org/dc/elements/1.1/"
   xmlns:cc="http://creativecommons.org/ns#"
   xmlns:rdf="http://www.w3.org/1999/02/22-rdf-syntax-ns#"
   xmlns:svg="http://www.w3.org/2000/svg"
   xmlns="http://www.w3.org/2000/svg"
   id="svg8"
   version="1.1"
   viewBox="0 0 600 400"
   height="400mm"
   width="600mm">
  <defs
     id="defs2" />
  <metadata
     id="metadata5">
    <rdf:RDF>
      <cc:Work
         rdf:about="">
        <dc:format>image/svg+xml</dc:format>
        <dc:type
           rdf:resource="http://purl.org/dc/dcmitype/StillImage" />
        <dc:title></dc:title>
      </cc:Work>
    </rdf:RDF>
  </metadata>
  <g
     style="display:inline"
     transform="translate(0,103)"
     id="layer1">
    <path
       id="path1641"
       d="m 303.07037,131.82743 c 0.16913,6.6017 0.11608,15.0292 -1.06908,22.98519 l 60.67019,-1e-5 C 352.29507,149.11029 350.77803,139.0635 347.16984,132.0947 Z"
       style="display:inline;fill:#ffc353;fill-opacity:1;stroke:#282828;stroke-width:2;stroke-linecap:butt;stroke-linejoin:miter;stroke-miterlimit:4;stroke-dasharray:none;stroke-opacity:1" />
    <path
       id="path1643"
       d="m 149.92494,301.82198 c -1.07232,-5.87929 -1.94001,-18.2251 -0.53454,-24.59994 1.79923,-9.29681 3.89929,-13.95806 9.6217,-20.31248 l 53.98844,-48.10851 c 5.50837,-19.5738 21.40786,-33.50344 31.00328,-39.5559 16.8317,-10.13654 37.05874,-15.51824 57.99747,-14.43253 18.4416,-0.71116 36.8832,-0.24698 55.3248,-1e-5 14.49797,2.57707 24.67912,6.79534 34.14565,9.87556 14.27438,5.66209 24.25708,12.66532 30.46873,20.84702 7.3249,10.96128 11.70492,20.15563 16.63555,29.68035 14.01065,10.75798 22.28547,17.14398 27.66633,24.27008 16.24392,3.01375 30.49219,12.96464 22.0458,36.13282 -5.92597,4.13498 -7.92056,10.13879 -13.67658,26.24153 h -47.79934 c 5.31769,-9.37856 6.29822,-11.42925 12.07299,-21.43068 5.95539,-8.91564 -0.72638,-14.96697 -5.65458,-21.9161 -10.58054,-6.39533 -24.60506,-19.33425 -40.20899,-35.27402 -3.34806,-3.42866 -10.78858,-1.46774 -10.07011,5.7391 -1.21351,19.21427 -7.07851,54.54819 -19.84836,72.75757 l -84.93702,0.15655 c -6.67411,-12.86836 -28.7533,-42.49312 -10.45364,-75.32186 -1.42253,-3.84343 -6.84595,-7.1663 -11.84472,-2.58603 l -36.98732,31.85598 c -7.75109,13.72038 -14.79432,35.09648 -21.06844,45.86292 z"
       style="display:inline;fill:#2f4065;fill-opacity:1;stroke:#282828;stroke-width:3;stroke-linecap:butt;stroke-linejoin:miter;stroke-miterlimit:4;stroke-dasharray:none;stroke-opacity:1" />
    <path
       id="path1645"
       d="m 173.53496,245.06069 c 20.25206,-9.96264 52.35891,-31.60138 52.87278,-34.61725 2.28604,-18.22216 31.90984,-41.18309 56.88541,-44.97915 34.54808,-3.0952 71.2079,0.13328 99.97471,5.66963 24.26478,7.23323 32.24498,30.75104 44.2232,50.27083 19.40661,15.66147 25.51968,12.36719 38.04258,19.30929 -9.16378,-11.40273 -20.92517,-19.12827 -28.52783,-25.53191 -4.76883,-10.56435 -9.96749,-18.79017 -14.24223,-26.20366 -4.67903,-11.67023 -16.76902,-17.40646 -25.82651,-21.34614 -13.15875,-5.74918 -35.59393,-12.60584 -39.61098,-12.81972 l -55.3248,1e-5 c -9.71776,-0.62856 -35.42428,3.74432 -51.74863,11.73302 -12.74724,6.57111 -24.47847,16.85422 -30.90835,29.62922 -4.64151,9.12498 -8.23583,15.5064 -11.26703,18.51411 -12.34564,9.65872 -23.78682,20.4878 -34.54232,30.37172 z"
       style="display:inline;fill:#c9493a;fill-opacity:1;stroke:none;stroke-width:0.26499999;stroke-linecap:butt;stroke-linejoin:miter;stroke-miterlimit:4;stroke-dasharray:none;stroke-opacity:1" />
    <path
       id="path1647"
       d="m 362.67148,154.81261 c -15.32065,20.61667 -35.46619,27.88772 -49.93648,28.85938 -16.56206,10.57495 -30.20844,23.32453 -41.10769,40.978 -15.11652,21.09132 -8.63703,52.65433 4.67329,76.58833 l 84.28869,0.37798 c 14.75691,-17.71402 21.7544,-45.63563 20.83455,-68.33771 -0.8185,-11.92681 -0.28867,-24.8971 -11.6904,-34.65916 -2.07846,-12.25404 7.10249,-26.01157 8.86507,-38.96398 -4.01634,-1.93342 -11.38932,-3.77617 -15.92703,-4.84284 z"
       style="display:inline;fill:#ecb651;fill-opacity:1;stroke:#7c5b48;stroke-width:2.5;stroke-linecap:butt;stroke-linejoin:miter;stroke-miterlimit:4;stroke-dasharray:none;stroke-opacity:1" />
    <path
       id="path1649"
       d="m 311.48937,187.15224 c 24.32592,9.09396 46.86499,19.48153 66.95102,36.34863 -16.6354,12.56981 -33.91938,24.2107 -52.6521,36.0814 l -22.98518,-4.27632 c -2.36717,-24.5888 5.87668,-43.56492 8.68626,-68.15371 z"
       style="display:inline;fill:none;stroke:#7c5b48;stroke-width:3.5;stroke-linecap:butt;stroke-linejoin:miter;stroke-miterlimit:4;stroke-dasharray:none;stroke-opacity:1" />
    <path
       id="path1651"
       d="m 303.11623,255.21423 c 3.09358,-4.70489 16.39253,-5.27456 24.5888,6.56547 1.78802,3.40026 -9.41298,3.28302 -9.6816,11.06677 10e-4,9.58551 -6.78146,16.0992 -9.02726,14.97464 -6.52829,-4.59565 -10.51723,-24.54654 -5.87994,-32.60688 z"
       style="display:inline;fill:#5b789e;fill-opacity:1;stroke:#40506d;stroke-width:2;stroke-linecap:butt;stroke-linejoin:miter;stroke-miterlimit:4;stroke-dasharray:none;stroke-opacity:1" />
    <path
       id="path1610"
       d="m 292.55357,128.89509 c 15.15343,12.39239 61.04314,7.85075 72.57143,2.55134 13.69286,-7.55213 28.17885,-25.50031 30.77744,-33.07175 1.94076,-2.001165 2.75125,-5.197921 -0.68085,-7.398565 -4.67564,-3.291643 -5.65111,-6.428853 -7.59359,-12.557058 -3.54161,-15.144989 -1.6197,-29.936124 -1.7143,-44.490484 l -69.54763,29.482142 z"
       style="display:inline;fill:#e7b69c;fill-opacity:1;stroke:#53483f;stroke-width:2;stroke-linecap:butt;stroke-linejoin:miter;stroke-miterlimit:4;stroke-dasharray:none;stroke-opacity:1" />
    <path
       id="path1608"
       d="m 390.46752,38.817637 c 2.83876,-8.166962 -14.04825,-39.33055202 -34.47778,-48.910323 -28.49159,-12.371586 -48.87464,-13.45728 -65.48103,-10.423511 -22.18101,4.079384 -65.14335,28.8271085 -75.10274,50.781209 -6.11509,16.09522 -1.89127,33.347968 6.1472,47.573977 11.10008,16.219914 23.5751,32.228301 43.83221,47.039441 8.24099,5.43938 22.96052,2.08176 31.20371,6.08037 4.45153,-15.19807 15.15799,-27.22329 17.43934,-44.032649 30.63019,-13.842344 48.03289,-35.43083 76.43909,-48.108514 z"
       style="display:inline;fill:#2d4067;fill-opacity:1;stroke:#1c2f51;stroke-width:3;stroke-linecap:butt;stroke-linejoin:miter;stroke-miterlimit:4;stroke-dasharray:none;stroke-opacity:1" />
    <path
       id="path1606"
       d="M 259.29167,48.291666 C 248.00726,64.664476 236.0516,85.736045 223.76191,109.14583 214.14022,95.631281 205.66624,79.821285 198.05952,62.276787 177.77959,69.852691 161.16844,72.425709 151.94643,64.922621 170.69336,51.256796 185.34188,38.27404 198.05952,25.613097 192.29169,4.692915 190.43654,0.72763894 187.47619,-8.0267845 c 11.04916,-3.5659195 24.62154,1.0610194 45.73512,7.55952335 17.41508,-9.99563885 48.02886,-23.84879285 61.51515,-27.95124385 27.57941,1.582796 43.20859,11.603508 62.90387,31.0209107 -14.25387,22.4875963 -29.69418,31.1232213 -61.297,38.1297393 -4.28369,16.190155 -9.97668,26.038471 -12.47321,50.270831 -9.70215,-9.69911 -16.72484,-27.436591 -24.56845,-42.71131 z"
       style="display:inline;fill:#ecf3f4;fill-opacity:1;stroke:#7189a6;stroke-width:3;stroke-linecap:butt;stroke-linejoin:miter;stroke-miterlimit:4;stroke-dasharray:none;stroke-opacity:1" />
    <path
       id="path1612"
       d="m 373.74692,90.400656 c -10.10479,-0.190144 -10.3183,-29.120246 0.47504,-29.132378 9.25456,0.289436 9.20714,29.028112 -0.47504,29.132378 z"
       style="display:inline;fill:#e1dcde;fill-opacity:1;stroke:none;stroke-width:0.24942617px;stroke-linecap:butt;stroke-linejoin:miter;stroke-opacity:1" />
    <path
       id="path1614"
       d="m 376.89893,63.139164 c 4.64523,0.0032 4.89221,18.59271 0,18.575231 -5.48486,-0.01114 -5.67249,-18.57388 0,-18.575231 z"
       style="display:inline;fill:#352f36;fill-opacity:1;stroke:none;stroke-width:0.27807736px;stroke-linecap:butt;stroke-linejoin:miter;stroke-opacity:1" />
    <path
       id="path1637"
       d="m 374.86657,110.21491 c 3.13275,2.00995 5.46662,3.15877 8.87377,4.22259"
       style="display:inline;fill:none;stroke:#53483f;stroke-width:3;stroke-linecap:round;stroke-linejoin:miter;stroke-miterlimit:4;stroke-dasharray:none;stroke-opacity:1" />
    <path
       id="path1635"
       d="m 381.56696,61.237351 c -2.99628,-1.819199 -9.32163,-3.580097 -13.79613,-3.874255"
       style="display:inline;fill:none;fill-opacity:1;stroke:#53483f;stroke-width:3;stroke-linecap:round;stroke-linejoin:miter;stroke-miterlimit:4;stroke-dasharray:none;stroke-opacity:1" />
  </g>
</svg>
