<svg xmlns="http://www.w3.org/2000/svg" viewBox="0 0 600 400" height="400mm" width="600mm"><path d="M435.1 329.9c-13.6-13-28.8-6.3-30.4-2-1.5 12-3.4 23.5-1.5 33.6 6.7 3.1 18-12.2 28.2-10.1-6.6 3.7-14.8 11.4-9.9 12.9 21.6 4.3 38.2-6.6 51.9-14-14.5.6-43.6-6.6-38.3-20.4z" fill="#7b6058" stroke="#282828" stroke-width="2" stroke-opacity=".9"/><path d="M155.8 274.6s18.2-13.9 20.8-19.3c0-9.2-13.2-11.7-20-6.4-5 3.9-13 8.3-17.3 14l-18.9-13c.4-10 1.8-23 .5-28-3-5-14.7-2.1-19.5 5.3-2.6 10-.5 23.7.3 35.1-2-12-4.8-28.6-7.3-30.7-6.8-.2-11.8 12.6-9.2 17l6 20.7c-3.6-7.4-6-17.7-9.6-19.4-6.2 1.6-6.9 8.6-2.7 18.6a57.3 57.3 0 0 0 9.7 14.3z" fill="#edc6b8" stroke="#563a33" stroke-width="2"/><path d="M108.6 310.4l37.2-11.7c4-5.7 5.4-11.2 13-16.7 3.5-2.9-.4-16.5-8.8-21-8.3-3.4-17.9-9-25.6-16-.6-3.3-.1-7.3-4.1-9-10-1.3-20 3-24.6 13.3-6 6-19.5 11-13.1 26.5 7 13.4 15.2 25.4 26 34.6z" fill="#ffc353" stroke="#735a39" stroke-width="2"/><path d="M93.7 294.3c10-9.1 20.2-19.7 36-23.7.7-4.3-7.4-9.8-17.5-6.2-13 5.6-19 11.3-25.2 19.5 1.8 4 4.2 7.6 6.7 10.4z" fill="#2f4065" stroke="#182b45" stroke-width="2"/><path d="M303 234.8c.2 6.6.2 15-1 23h60.7c-10.4-5.7-12-15.7-15.5-22.7z" fill="#ffc353" stroke="#282828" stroke-width="2"/><path d="M117.7 347c-3.1-5.6-11.9-22.4-10.5-28.8 2.1-14.3 33-22.9 38.6-19.5 16.3 29 32 37.5 45 34.2 9-2.2 16.7-10.3 22.2-21.1a84.2 84.2 0 0 1 31-39.6c16.8-10 37-15.5 58-14.4 18.4-.7 37.2-9 55.6-8.8 11-4 31.8-6.2 43.5-3 9.1 3.6 22 12.3 32.3 19.5 15.8 8.7 26.8 10 37 12.4 15.7 2.3 34.2 4.3 41.6 10.2 14.9 7.3 25.7 15.8 17.8 30.2-8.6 14.5-47 24-56.4 32-25-.4-44.3-12.6-38.3-20.4 10-2.8 24.6-14.8 49.8-14.7-25.1 1.8-70.2-19.4-85.3-.1-3.3-3.5 2.9 17.5 3.6 24.7-1.2 19.2-7 47.1-19.8 65.3l-88.7-.2a100.5 100.5 0 0 1-19.5-70.4c-1.5-3.8-11.7-10.3-16.7-5.8l-35 33.2c-16.7 20-46.6 28.2-56.4 22-16.5-12.3-37.6-21.5-49.4-37z" fill="#2f4065" stroke="#282828" stroke-width="3"/><path d="M135.6 302c-3.4-3.3-16.6 0-14.9 6 13.3 23 54.7 43.2 74.8 37.5A59.6 59.6 0 0 0 228 314c3.7-14.9 30.3-41.7 55.3-45.5 34.5-3.1 85-21.7 113.8-16.2 19.2 11.4 34.2 28 63.8 32.7 19.7 5 44 2 56.7 8.3-11.2-10.1-37.4-12-47.5-14-8.7-2.1-24-5.1-31.6-9.8-13.4-8.2-28.9-18.2-38-22.2-13-5.7-38.9 2-42.9 1.7l-55.6 8.8c-9.7-.6-35.4 3.8-51.7 11.7a74.8 74.8 0 0 0-30.3 30c-2.6 5.8-10.8 22.8-15.7 27.4-25 20.1-50.6.4-68.7-25z" fill="#c9493a"/><path d="M365 252.7c-15.4 20.7-27.7 32.5-42.2 33.4a115.6 115.6 0 0 0-38.5 40c-10.9 21-2.8 53.7 10.5 77.6l84.3.4c14.8-17.7 21.8-45.6 20.8-68.4-.8-11.9-11.9-31.7-23.3-41.5-2-12.2 3.7-33.2 5.5-46.2-4.2 1.2-14.1 2.6-17.2 4.7z" fill="#ecb651" stroke="#7c5b48" stroke-width="2.5"/><path d="M312.5 296.5c24.4 9.1 57.5 10.5 77.6 27.4-16.7 12.5-36.6 31.2-55.3 43l-24.6-6.5c-2.4-24.6-.5-39.3 2.3-63.9z" fill="none" stroke="#7c5b48" stroke-width="3.5"/><path d="M310.2 360.4c3.1-4.7 16.4-5.3 24.6 6.6 1.8 3.4-9.4 3.3-9.7 11 0 9.6-6.8 16.2-9 15-6.5-4.6-10.5-24.5-5.9-32.6z" fill="#5b789e" stroke="#40506d" stroke-width="2"/><path d="M292.6 231.9c15.1 12.4 61 7.8 72.5 2.5a83.9 83.9 0 0 0 30.8-33c2-2 2.8-5.2-.7-7.4-4.7-3.3-5.6-6.5-7.6-12.6-3.5-15.1-1.6-30-1.7-44.5l-69.5 29.5z" fill="#e7b69c" stroke="#53483f" stroke-width="2"/><path d="M390.5 141.8c2.8-8.1-14-39.3-34.5-48.9-28.5-12.4-48.9-13.4-65.5-10.4-22.2 4-65.1 28.8-75 50.8-6.2 16-2 33.3 6 47.5a180.7 180.7 0 0 0 43.9 47c8.2 5.5 23 2.2 31.2 6.2 4.4-15.2 15.1-27.3 17.4-44 30.7-14 48-35.5 76.5-48.2z" fill="#2d4067" stroke="#1c2f51" stroke-width="3"/><path d="M259.3 151.3a615.1 615.1 0 0 0-35.5 60.8 257.5 257.5 0 0 1-25.7-46.8c-20.3 7.6-37 10.1-46.2 2.6a387.9 387.9 0 0 0 46.2-39.3c-5.8-21-7.7-24.9-10.6-33.6 11-3.6 24.6 1 45.7 7.5 17.4-10 48-23.8 61.5-28 27.6 1.7 43.2 11.7 63 31.1-14.3 22.5-29.8 31.1-61.4 38.1-4.3 16.2-10 26-12.4 50.3-9.7-9.7-16.8-27.4-24.6-42.7z" fill="#ecf3f4" stroke="#7189a6" stroke-width="3"/><path d="M373.7 193.4c-10-.2-10.3-29.1.5-29.1 9.3.3 9.2 29-.5 29.1z" fill="#e1dcde"/><path d="M376.9 166.1c4.6 0 4.9 18.6 0 18.6-5.5 0-5.7-18.6 0-18.6z" fill="#352f36"/><path d="M374.9 213.2c3.1 2 5.4 3.2 8.8 4.2M381.6 164.2c-3-1.8-9.4-3.5-13.8-3.8" fill="none" stroke="#53483f" stroke-width="3" stroke-linecap="round"/></svg>