<svg xmlns="http://www.w3.org/2000/svg" viewBox="0 0 600 400" height="400mm" width="600mm"><path d="M146.4 185.5c.1 0 8-26 7.5-32 .2-9.2-15.3-12-18.5-4-3.5 5.7-4 17.8-8.4 23.6l-16.7-1c.3-9.9-14.8-27-16.2-32-3-5-15 1.6-14.5 6.1-2.7 10 13.8 18.5 14.6 30-4.4-9.3-16.2-23.9-17.6-27.2-6.9-.2-7.9 7.2-5.3 11.5L84.2 181c-3.6-7.4-9.2-12-12.8-13.6-6.2 1.6-4.8 5.5-.5 15.4 2.6 5.8 5.4 7.8 8.3 10.9z" fill="#edc6b8" stroke="#563a33" stroke-width="2"/><path d="M125.5 221.2c7.3-16.7 14.8-26.1 27.7-29.2 4.3-15.3-7.8-22.3-18.6-26.8-12.3-4.7-2.7 18.7-25.6-4.5-15.6-3.7-20.3-2.2-27.1 8.1-7.3 9.5-11.7 14.3-7.6 28.7 11 29.6 41.4 17.6 51.2 23.7z" fill="#ffc353" stroke="#735a39" stroke-width="2"/><path d="M109.8 220.5c.8-10.1 5.6-26.8 12.3-33.2.7-4.3-9.2-13.2-19.3-9.6-9.8 7.1-12.2 29.7-13 38.4 4.3 3.6 15.9 7.3 20 4.4z" fill="#2f4065" stroke="#182b45" stroke-width="2"/><path d="M303 234.8c-1.8 6.6-4.7 5.7-7 12.2l52.4 11c-6.2-7.5-2.4-16-1.2-23z" fill="#ffc353" stroke="#282828" stroke-width="2"/><path d="M138.6 243.6c-3.2-5.6-10.4-17-12.5-24.2 2.2-14.3 21.6-30.8 27.1-27.4 24 24.8 28.3 64.8 49.7 63.7 15.3-1 37-9.6 53.8-11.9 33.9-5.6 35.2 1 51.3 5.2a238 238 0 0 1 45.6 11.7c11.7 5.8 17.8 24.2 14.9 39.5-1.8 11.4-15.3 49-35 46.9-2-.3 9.8 5.8 15.2 7 8.3 2 28.6 2 43.4 9.4 8.1 4 12.7 14.7 16.6 21 1.7 7.5 4.3 12.3 2 19.8l-23.4.3c-.3-7.9-4.5-13.4-12.3-19.4-8.6-4.1-72-4.2-71-13.4-2-7 9.8-35.1-1.5-58.6-3.3-3.4 2.9 17.6 3.6 24.8-1.2 19.2-7 47-19.8 65.3l-82-.8C197 389 203 382 203.1 365c0-10.6 18.4-46.6 13.4-42l-17.5-27.6c-29.4-.8-27.2.3-37-5.8-16.5-12.3-17.2-30.6-23.5-46z" fill="#2f4065" stroke="#282828" stroke-width="3"/><path d="M146 241.9c-3.4-3.3-21.6-28.4-19.9-22.5 6.3 10 13.2 21.7 16.6 33.2 5.3 18 11.2 32.9 24 32.3 11.7-1 42-9 48.8-12.3 15.2-6.5 36.8-12 61.8-15.7 34.6-3.1 28.3 14.7 52.5 25.5 15.3 17.4-23.9 63-9.6 72.9 19.3 8.7 53.8 7.1 67.2 7.3-8.6-5.3-39.8-3.7-53-13.1-9.7-2.2 27.4-51.3 24.4-60.5-1.1-20.5-11.7-32-36.1-35.9-13.6-2.5-16.7-2.3-30.8-8.4-23.6-3-29.4-4.3-45.4 5-19 5-41.1 10.7-56 18-29 8-26.4-.5-44.5-25.8z" fill="#c9493a"/><path d="M340.4 258.4c-29.4 11.6-68.5 19.9-81.6 25.9-21.8 9.7-48.2 20.7-59.1 38.3-11 21.1-17.7 57.4-4.4 81.4h62.1c14.7-20.1 34.2-68 34-87.2a249 249 0 0 1 38.4-34.4c5.8-3.8 15.7.6 31.4-11.5-2.6-4.4-17.8-14.7-20.8-12.5z" fill="#ecb651" stroke="#7c5b48" stroke-width="2.5"/><path d="M237 294c22.2 1.7 34.4 6 54.5 22.8-4.7 9.7-52 33-71.4 35.2l-24.6-6.5c-2.4-24.6 22-40 41.5-51.5z" fill="none" stroke="#7c5b48" stroke-width="3.5"/><path d="M195.5 345.5c3-4.7 16.4-5.3 24.6 6.5 1.8 3.4-7 3.3-7.3 11 0 9.7-5.2 15.7-7.5 14.5-6.5-4.6-14.5-24-9.8-32z" fill="#5b789e" stroke="#40506d" stroke-width="2"/><path d="M292.6 231.9c15.1 12.4 61 7.8 72.5 2.5a83.9 83.9 0 0 0 30.8-33c2-2 2.8-5.2-.7-7.4-4.7-3.3-5.6-6.5-7.6-12.6-3.5-15.1-1.6-30-1.7-44.5l-69.5 29.5z" fill="#e7b69c" stroke="#53483f" stroke-width="2"/><path d="M390.5 141.8c2.8-8.1-14-39.3-34.5-48.9-28.5-12.4-48.9-13.4-65.5-10.4-22.2 4-65.1 28.8-75 50.8-6.2 16-2 33.3 6 47.5a180.7 180.7 0 0 0 43.9 47c8.2 5.5 23 2.2 31.2 6.2 4.4-15.2 15.1-27.3 17.4-44 30.7-14 48-35.5 76.5-48.2z" fill="#2d4067" stroke="#1c2f51" stroke-width="3"/><path d="M259.3 151.3a615.1 615.1 0 0 0-35.5 60.8 257.5 257.5 0 0 1-25.7-46.8c-20.3 7.6-37 10.1-46.2 2.6a387.9 387.9 0 0 0 46.2-39.3c-5.8-21-7.7-24.9-10.6-33.6 11-3.6 24.6 1 45.7 7.5 17.4-10 48-23.8 61.5-28 27.6 1.7 43.2 11.7 63 31.1-14.3 22.5-29.8 31.1-61.4 38.1-4.3 16.2-10 26-12.4 50.3-9.7-9.7-16.8-27.4-24.6-42.7z" fill="#ecf3f4" stroke="#7189a6" stroke-width="3"/><path d="M373.7 193.4c-10-.2-10.3-29.1.5-29.1 9.3.3 9.2 29-.5 29.1z" fill="#e1dcde"/><path d="M376.9 166.1c4.6 0 4.9 18.6 0 18.6-5.5 0-5.7-18.6 0-18.6z" fill="#352f36"/><path d="M374.9 213.2c3.1 2 5.4 3.2 8.8 4.2M381.6 164.2c-3-1.8-9.4-3.5-13.8-3.8" fill="none" stroke="#53483f" stroke-width="3" stroke-linecap="round"/></svg>