<?xml version="1.0" encoding="UTF-8" standalone="no"?>
<!-- Created with Inkscape (http://www.inkscape.org/) -->

<svg
   xmlns:dc="http://purl.org/dc/elements/1.1/"
   xmlns:cc="http://creativecommons.org/ns#"
   xmlns:rdf="http://www.w3.org/1999/02/22-rdf-syntax-ns#"
   xmlns:svg="http://www.w3.org/2000/svg"
   xmlns="http://www.w3.org/2000/svg"
   xmlns:sodipodi="http://sodipodi.sourceforge.net/DTD/sodipodi-0.dtd"
   xmlns:inkscape="http://www.inkscape.org/namespaces/inkscape"
   width="100mm"
   height="100mm"
   viewBox="0 0 100 100"
   version="1.1"
   id="svg963"
   inkscape:version="0.92.2 5c3e80d, 2017-08-06"
   sodipodi:docname="water-gun.svg">
  <defs
     id="defs957" />
  <sodipodi:namedview
     id="base"
     pagecolor="#ffffff"
     bordercolor="#666666"
     borderopacity="1.0"
     inkscape:pageopacity="0.0"
     inkscape:pageshadow="2"
     inkscape:zoom="0.35355339"
     inkscape:cx="-779.873"
     inkscape:cy="109.85009"
     inkscape:document-units="mm"
     inkscape:current-layer="layer1"
     showgrid="false"
     inkscape:window-width="1440"
     inkscape:window-height="851"
     inkscape:window-x="0"
     inkscape:window-y="1"
     inkscape:window-maximized="1" />
  <metadata
     id="metadata960">
    <rdf:RDF>
      <cc:Work
         rdf:about="">
        <dc:format>image/svg+xml</dc:format>
        <dc:type
           rdf:resource="http://purl.org/dc/dcmitype/StillImage" />
        <dc:title></dc:title>
      </cc:Work>
    </rdf:RDF>
  </metadata>
  <g
     inkscape:label="Layer 1"
     inkscape:groupmode="layer"
     id="layer1"
     transform="translate(0,-197)">
    <path
       style="display:inline;fill:#68a5f7;fill-opacity:1;stroke:#8ccffd;stroke-width:5.5;stroke-linecap:butt;stroke-linejoin:miter;stroke-miterlimit:4;stroke-dasharray:none;stroke-opacity:1"
       d="m 39.422916,226.62083 c -5.556249,0.76503 -11.299588,-14.99409 -19.314583,-4.7625 -7.039221,11.91502 8.500827,10.02945 9.260417,16.93333 -0.167186,5.38083 -19.8361288,-4.11504 -20.1083334,8.73125 -0.2784925,14.57412 16.9022894,6.38421 19.9345404,9.27923 4.24998,4.8659 -17.421655,8.15812 -6.892463,17.50789 13.066959,10.26608 13.481732,-11.97639 19.75296,-9.5571 6.7867,2.0494 -5.425886,18.43692 9.538295,18.48873 14.857657,-0.20378 3.469605,-18.5143 11.1125,-19.31458 6.182677,-0.64011 7.712591,16.9649 18.520833,10.05417 11.892833,-9.98513 -9.964695,-14.4297 -8.995833,-17.4625 1.114837,-4.22693 20.879915,3.18846 20.108333,-8.96373 -1.245129,-15.84498 -16.46724,-4.54571 -19.84375,-8.49877 -2.494058,-3.47107 20.928934,-7.96093 9.324616,-18.03707 -11.594112,-7.25378 -13.223821,9.84837 -19.643365,8.51207 -6.288637,-2.93437 3.888424,-19.43551 -10.660828,-19.1463 -12.574829,-0.141 -4.807896,14.33573 -12.093339,16.23588 z"
       id="path1717"
       inkscape:connector-curvature="0"
       sodipodi:nodetypes="ccccccccccccccccc" />
    <ellipse
       style="display:inline;opacity:1;fill:#8ccffd;fill-opacity:1;stroke:none;stroke-width:5.5;stroke-linecap:round;stroke-linejoin:round;stroke-miterlimit:4;stroke-dasharray:none;stroke-opacity:1"
       id="path1719"
       cx="50.879856"
       cy="247.3573"
       rx="9.635066"
       ry="8.9802561" />
  </g>
</svg>
