<svg xmlns="http://www.w3.org/2000/svg" viewBox="0 0 100 100" height="378" width="378"><g transform="translate(0 -197)"><path d="M39.4 226.6c-5.5.8-11.3-15-19.3-4.7-7 11.9 8.5 10 9.3 16.9-.2 5.4-19.9-4.1-20.1 8.7-.3 14.6 16.9 6.4 19.9 9.3 4.2 4.9-17.4 8.2-6.9 17.5 13 10.3 13.5-12 19.8-9.5 6.7 2-5.5 18.4 9.5 18.4 14.9-.2 3.5-18.5 11.1-19.3 6.2-.6 7.7 17 18.5 10 12-9.9-10-14.3-9-17.4 1.1-4.2 21 3.2 20.1-9-1.2-15.8-16.4-4.5-19.8-8.4-2.5-3.5 21-8 9.3-18-11.6-7.3-13.2 9.8-19.6 8.4-6.3-2.9 3.9-19.4-10.7-19.1-12.6-.2-4.8 14.3-12 16.2z" fill="#68a5f7" stroke="#8ccffd" stroke-width="5.5"/><ellipse ry="9" rx="9.6" cy="247.4" cx="50.9" fill="#8ccffd"/></g></svg>