<svg xmlns="http://www.w3.org/2000/svg" viewBox="0 0 100 100" height="378" width="378"><path d="M36.3 93.2c-3.7-2.4-7.9-4-18.1-6.9-3.6-3.7-7-2-10.6-16-.3-8-10.9-10.8-.6-24 7-9.4 13.5-24 21.1-20 5.2 3 7.6-6.6 14-13.5 9.3-9.8 15.5-3.8 15 6.7-.5 4.3-1.4 11.9 3.9 8.3 10.9-11.3 13.6-.4 15.5.3 15.7 6.1 11 16.1 13.7 17.9 6.6 3.7 12.9 13.9 2 27.9-4.4 6.1 0 15.8-19 15-9.3 6.3-33 6.1-37 4.3z" fill="#8793d9"/><path d="M24.6 84.8a68.2 68.2 0 0 1-11.4-16c-3.1-7.6-2.2-17 1.3-18 5.6-1.4-1.3-8.4 19.9-21.2 17.4-14.5 15.3-4.6 18.4 0 1.9 4 4 3.7 7.5 3.5 3.2-3.1 9.8-10.5 9.7-.4.2 3.7 6.2 6.5 11.6 9.5 3.5 1.7 0 8.4 3 9 11.4 3 2.8 12.6 2.3 19.5 0 3-7.3 8.8-12 13.4a46.8 46.8 0 0 1-50.3.7z" fill="#67679e"/><path d="M33.6 89.5c-15-5.1-13.1-12.1-13-18.2 1.2-8.2 9.5-17 15.7-22.8 9.3-10 20.8-3.4 26.4.2C70 54.2 74 59.5 78.2 64.2c2.6 3.8.3 15.2-3.3 20-3.4 3.2-6.8 4.3-10.1 5.7a70.2 70.2 0 0 1-31.2-.4z" fill="#5a2f56"/><path d="M33.6 89.5c5.2-.5 3.7-3.7 2.8-5.4-5.2-4-10.3-11.2 2.4-17.7 5.3-2.9 18-1.5 24.4 1.2 3.5 1.6 12.8 8.6-.1 15.9 0 2-.1 4 1.7 6.4a49.8 49.8 0 0 1-31.2-.4z" fill="#859ee6"/></svg>